<svg version="1.1" xmlns="http://www.w3.org/2000/svg" viewBox="0 0 235 257" width="235" height="257">
  <!-- svg-source:excalidraw -->
  
  <defs>
    <style class="style-fonts">
      @font-face {
        font-family: "Virgil";
        src: url("https://excalidraw.com/Virgil.woff2");
      }
      @font-face {
        font-family: "Cascadia";
        src: url("https://excalidraw.com/Cascadia.woff2");
      }
    </style>
  </defs>
  <g transform="translate(10 15) rotate(0 72 -0.5)" stroke="none"><path fill="#586e75" d="M -0.24,-3.47 Q -0.24,-3.47 3.78,-3.70 7.81,-3.92 11.30,-4.12 14.79,-4.32 25.26,-3.97 35.74,-3.62 44.44,-3.43 53.14,-3.24 69.77,-3.13 86.40,-3.03 97.75,-3.25 109.10,-3.47 116.48,-3.84 123.86,-4.20 128.69,-4.63 133.52,-5.06 136.01,-5.75 138.50,-6.44 139.90,-7.34 141.30,-8.23 141.74,-8.33 142.18,-8.42 142.63,-8.41 143.09,-8.40 143.52,-8.28 143.96,-8.16 144.35,-7.94 144.75,-7.72 145.08,-7.41 145.41,-7.10 145.66,-6.72 145.90,-6.34 146.05,-5.91 146.20,-5.48 146.24,-5.03 146.29,-4.58 146.22,-4.14 146.15,-3.69 145.98,-3.27 145.81,-2.85 145.54,-2.48 145.27,-2.12 144.93,-1.83 144.58,-1.54 144.17,-1.34 143.77,-1.14 141.50,-0.58 139.24,-0.02 132.63,0.63 126.01,1.29 118.87,1.59 111.73,1.88 102.64,2.24 93.56,2.60 83.37,3.00 73.19,3.40 63.69,3.83 54.19,4.25 46.38,4.42 38.57,4.58 34.49,4.93 30.41,5.28 25.98,5.42 21.54,5.55 17.82,6.20 14.10,6.84 13.76,6.81 13.42,6.79 13.09,6.68 12.76,6.57 12.47,6.38 12.18,6.20 11.95,5.95 11.71,5.70 11.54,5.40 11.37,5.10 11.27,4.77 11.18,4.44 11.17,4.10 11.15,3.76 11.22,3.42 11.29,3.08 11.44,2.77 11.59,2.46 11.81,2.20 12.03,1.93 12.30,1.73 12.58,1.52 12.90,1.39 13.21,1.25 13.55,1.20 13.89,1.15 14.88,1.50 15.87,1.85 16.16,2.20 16.46,2.56 16.62,2.99 16.79,3.42 16.81,3.88 16.82,4.34 16.69,4.79 16.57,5.23 16.30,5.61 16.04,5.98 15.67,6.26 15.29,6.53 14.86,6.67 14.42,6.81 13.96,6.81 13.49,6.80 13.06,6.65 12.62,6.49 12.26,6.21 11.90,5.93 11.64,5.54 11.39,5.16 11.27,4.71 11.16,4.26 11.19,3.80 11.22,3.34 11.40,2.92 11.57,2.49 11.88,2.14 12.18,1.80 12.58,1.56 12.98,1.33 13.43,1.24 13.88,1.15 14.34,1.20 14.80,1.26 15.21,1.46 15.63,1.66 15.96,1.98 16.29,2.30 16.50,2.71 16.71,3.12 16.78,3.58 16.85,4.04 16.76,4.49 16.68,4.94 16.46,5.35 16.24,5.75 15.90,6.06 15.56,6.38 15.14,6.56 14.72,6.75 14.26,6.80 13.80,6.84 13.35,6.73 12.90,6.63 13.50,6.74 14.10,6.84 13.76,6.81 13.42,6.79 13.09,6.68 12.76,6.57 12.47,6.38 12.18,6.20 11.95,5.95 11.71,5.70 11.54,5.40 11.37,5.10 11.27,4.77 11.18,4.44 11.17,4.10 11.15,3.76 11.22,3.42 11.29,3.08 11.44,2.77 11.59,2.46 11.81,2.20 12.03,1.93 12.30,1.73 12.58,1.52 12.89,1.39 13.21,1.25 13.55,1.20 13.89,1.15 17.61,0.56 21.33,-0.02 25.62,-0.21 29.90,-0.40 34.15,-0.80 38.41,-1.20 46.14,-1.46 53.88,-1.72 63.38,-2.29 72.88,-2.86 83.04,-3.45 93.20,-4.04 102.23,-4.65 111.26,-5.27 118.31,-5.91 125.37,-6.55 130.26,-7.16 135.14,-7.78 138.22,-8.00 141.30,-8.23 141.74,-8.33 142.18,-8.42 142.63,-8.41 143.09,-8.40 143.52,-8.28 143.96,-8.16 144.35,-7.94 144.75,-7.72 145.08,-7.41 145.41,-7.10 145.66,-6.72 145.90,-6.34 146.05,-5.91 146.20,-5.48 146.24,-5.03 146.29,-4.58 146.22,-4.14 146.15,-3.69 145.98,-3.27 145.81,-2.85 145.54,-2.49 145.27,-2.12 144.93,-1.83 144.58,-1.54 144.17,-1.34 143.77,-1.14 141.71,-0.63 139.66,-0.12 136.85,0.14 134.04,0.42 129.10,0.91 124.17,1.39 116.70,1.83 109.23,2.27 97.81,2.58 86.38,2.90 69.73,2.92 53.07,2.94 44.33,2.93 35.59,2.92 25.31,2.80 15.04,2.69 11.66,2.73 8.28,2.77 4.26,3.12 0.24,3.47 -0.17,3.45 -0.59,3.43 -0.99,3.31 -1.39,3.19 -1.75,2.97 -2.11,2.76 -2.41,2.47 -2.71,2.17 -2.93,1.82 -3.16,1.46 -3.29,1.06 -3.41,0.66 -3.44,0.24 -3.47,-0.17 -3.40,-0.58 -3.33,-1.00 -3.16,-1.38 -3.00,-1.76 -2.74,-2.10 -2.48,-2.43 -2.16,-2.69 -1.83,-2.96 -1.45,-3.13 -1.07,-3.31 -0.66,-3.39 -0.24,-3.47 -0.24,-3.47 L -0.24,-3.47 Z"></path></g><g transform="translate(153 20) rotate(0 35 40.5)" stroke="none"><path fill="#586e75" d="M -3.42,-0.85 Q -3.42,-0.85 -3.30,-2.04 -3.17,-3.23 -3.00,-3.67 -2.84,-4.10 -2.57,-4.49 -2.31,-4.87 -1.96,-5.18 -1.61,-5.48 -1.19,-5.70 -0.78,-5.92 -0.33,-6.03 0.12,-6.14 0.58,-6.13 1.05,-6.13 1.50,-6.02 1.95,-5.91 2.37,-5.69 2.78,-5.47 3.13,-5.16 3.47,-4.85 3.74,-4.46 4.00,-4.08 4.16,-3.64 4.33,-3.21 4.38,-2.74 4.44,-2.28 4.38,-1.82 4.32,-1.36 7.13,0.13 9.94,1.62 14.55,8.39 19.16,15.16 23.57,21.14 27.98,27.11 34.99,36.00 42.00,44.89 48.39,52.70 54.79,60.52 59.24,66.19 63.68,71.86 66.73,76.04 69.78,80.21 71.48,81.42 73.18,82.64 73.42,82.98 73.66,83.32 73.80,83.71 73.95,84.10 74.00,84.51 74.05,84.92 74.01,85.33 73.96,85.75 73.81,86.14 73.66,86.53 73.43,86.87 73.19,87.21 72.88,87.49 72.57,87.76 72.20,87.96 71.83,88.15 71.43,88.25 71.03,88.35 70.61,88.35 70.20,88.35 69.79,88.26 69.39,88.16 69.02,87.96 68.65,87.77 68.34,87.50 68.03,87.22 66.17,84.47 64.32,81.72 62.04,77.99 59.76,74.27 57.09,70.07 54.43,65.87 49.08,59.00 43.74,52.12 37.72,44.55 31.70,36.97 26.59,30.90 21.48,24.82 16.18,19.10 10.89,13.38 7.17,9.18 3.45,4.97 1.13,2.39 -1.17,-0.18 -2.52,-1.87 -3.87,-3.57 -4.06,-3.96 -4.25,-4.35 -4.34,-4.77 -4.44,-5.20 -4.42,-5.63 -4.41,-6.07 -4.30,-6.49 -4.18,-6.91 -3.97,-7.29 -3.76,-7.67 -3.46,-7.98 -3.16,-8.30 -2.80,-8.54 -2.43,-8.77 -2.02,-8.92 -1.61,-9.06 -1.18,-9.10 -0.75,-9.14 -0.32,-9.08 0.10,-9.01 0.51,-8.85 0.91,-8.68 1.26,-8.43 1.61,-8.17 1.89,-7.84 2.17,-7.50 2.70,-2.48 3.22,2.53 2.73,2.98 2.24,3.43 1.64,3.70 1.03,3.97 0.37,4.03 -0.28,4.09 -0.93,3.94 -1.58,3.78 -2.14,3.43 -2.70,3.08 -3.13,2.57 -3.55,2.05 -3.78,1.43 -4.02,0.81 -4.04,0.15 -4.07,-0.51 -3.88,-1.14 -3.69,-1.78 -3.31,-2.32 -2.93,-2.87 -2.39,-3.26 -1.86,-3.65 -1.22,-3.86 -0.59,-4.06 0.06,-4.05 0.73,-4.03 1.35,-3.81 1.98,-3.59 2.50,-3.18 3.02,-2.77 3.39,-2.21 3.75,-1.66 3.92,-1.01 4.08,-0.37 4.04,0.28 3.99,0.94 3.73,1.56 3.48,2.17 3.04,2.67 2.60,3.17 2.03,3.50 1.45,3.83 0.80,3.97 0.15,4.10 -0.50,4.01 -1.16,3.93 -1.76,3.64 -2.36,3.35 -2.83,2.89 -3.30,2.42 -3.61,1.83 -3.91,1.24 -4.00,0.58 -4.10,-0.06 -3.98,-0.72 -3.86,-1.37 -3.54,-1.95 -3.22,-2.53 -3.22,-2.53 -3.22,-2.53 -3.55,-3.05 -3.87,-3.57 -4.06,-3.96 -4.25,-4.35 -4.34,-4.77 -4.44,-5.20 -4.42,-5.63 -4.41,-6.07 -4.30,-6.49 -4.18,-6.91 -3.97,-7.29 -3.76,-7.67 -3.46,-7.98 -3.16,-8.30 -2.80,-8.54 -2.43,-8.77 -2.02,-8.92 -1.61,-9.06 -1.18,-9.10 -0.75,-9.14 -0.32,-9.08 0.10,-9.01 0.51,-8.85 0.91,-8.68 1.26,-8.43 1.61,-8.17 1.89,-7.84 2.17,-7.50 2.85,-5.76 3.53,-4.02 5.53,-1.34 7.53,1.34 11.24,5.47 14.94,9.60 20.37,15.38 25.79,21.16 31.01,27.25 36.23,33.33 42.34,40.86 48.46,48.39 54.07,55.39 59.69,62.39 62.52,66.49 65.36,70.60 67.90,74.23 70.44,77.87 71.81,80.25 73.18,82.64 73.42,82.98 73.66,83.32 73.80,83.71 73.95,84.10 74.00,84.51 74.05,84.92 74.01,85.33 73.96,85.75 73.81,86.14 73.66,86.53 73.43,86.87 73.19,87.21 72.88,87.49 72.57,87.76 72.20,87.96 71.83,88.15 71.43,88.25 71.03,88.35 70.61,88.35 70.20,88.35 69.79,88.26 69.39,88.16 69.02,87.96 68.65,87.77 68.34,87.50 68.03,87.22 68.02,87.26 68.00,87.30 66.59,85.46 65.18,83.63 62.13,79.59 59.07,75.55 54.56,70.00 50.06,64.45 43.50,56.70 36.95,48.95 29.72,40.15 22.49,31.35 17.75,25.46 13.01,19.57 8.28,13.31 3.54,7.05 2.25,5.29 0.96,3.54 -1.10,0.15 -3.17,-3.23 -3.00,-3.67 -2.84,-4.10 -2.57,-4.49 -2.31,-4.87 -1.96,-5.18 -1.61,-5.48 -1.19,-5.70 -0.78,-5.91 -0.33,-6.02 0.12,-6.14 0.58,-6.13 1.05,-6.13 1.50,-6.02 1.95,-5.91 2.36,-5.69 2.78,-5.47 3.12,-5.16 3.47,-4.85 3.74,-4.47 4.00,-4.08 4.16,-3.64 4.33,-3.21 4.38,-2.75 4.44,-2.28 4.38,-1.82 4.32,-1.36 3.87,-0.25 3.42,0.85 3.27,1.25 3.12,1.65 2.88,2.00 2.63,2.35 2.31,2.63 1.99,2.91 1.62,3.11 1.24,3.30 0.82,3.41 0.41,3.51 -0.01,3.50 -0.43,3.50 -0.85,3.40 -1.26,3.30 -1.64,3.10 -2.01,2.90 -2.33,2.61 -2.65,2.33 -2.89,1.98 -3.13,1.63 -3.28,1.23 -3.43,0.83 -3.48,0.41 -3.53,-0.01 -3.48,-0.43 -3.42,-0.85 -3.42,-0.85 L -3.42,-0.85 Z"></path></g><g transform="translate(221 112) rotate(0 -29.5 65)" stroke="none"><path fill="#586e75" d="M 3.00,1.23 Q 3.00,1.23 0.91,6.09 -1.17,10.94 -2.95,14.78 -4.72,18.61 -8.36,27.07 -12.00,35.53 -16.15,45.45 -20.30,55.37 -24.66,65.91 -29.02,76.45 -32.90,85.54 -36.78,94.63 -40.18,101.71 -43.59,108.78 -46.51,113.86 -49.43,118.94 -51.12,122.24 -52.81,125.54 -53.79,127.89 -54.76,130.24 -55.03,130.57 -55.30,130.90 -55.64,131.16 -55.98,131.42 -56.37,131.59 -56.76,131.76 -57.18,131.83 -57.60,131.90 -58.03,131.87 -58.45,131.83 -58.86,131.70 -59.26,131.57 -59.62,131.34 -59.98,131.12 -60.28,130.81 -60.58,130.50 -60.79,130.14 -61.01,129.77 -61.13,129.36 -61.25,128.95 -61.27,128.52 -61.29,128.10 -61.20,127.68 -61.12,127.26 -60.94,126.88 -60.76,126.49 -59.53,124.23 -58.30,121.97 -57.50,117.93 -56.71,113.89 -55.49,111.24 -54.27,108.58 -52.38,104.85 -50.49,101.12 -47.54,95.17 -44.59,89.22 -39.79,80.07 -35.00,70.92 -29.78,60.22 -24.57,49.52 -20.61,40.16 -16.66,30.81 -13.79,23.94 -10.92,17.07 -9.09,12.97 -7.27,8.88 -6.87,5.94 -6.47,2.99 -6.27,2.60 -6.06,2.21 -5.77,1.88 -5.48,1.55 -5.12,1.29 -4.76,1.04 -4.35,0.88 -3.94,0.72 -3.50,0.67 -3.07,0.61 -2.63,0.66 -2.19,0.71 -1.78,0.87 -1.37,1.02 -1.00,1.27 -0.64,1.51 -0.34,1.84 -0.05,2.17 0.15,2.56 0.36,2.95 0.46,3.37 0.57,3.80 0.57,4.24 0.58,4.68 0.48,5.11 0.37,5.54 -3.25,4.50 -6.87,3.46 -6.68,3.09 -6.49,2.71 -6.21,2.40 -5.93,2.08 -5.59,1.84 -5.24,1.59 -4.85,1.44 -4.45,1.29 -4.03,1.23 -3.61,1.18 -3.19,1.23 -2.77,1.28 -2.38,1.42 -1.98,1.57 -1.63,1.81 -1.28,2.05 -1.00,2.36 -0.72,2.68 -0.52,3.05 -0.32,3.42 -0.22,3.83 -0.11,4.24 -0.11,4.66 -0.11,5.08 -0.21,5.50 -0.31,5.91 -1.60,1.84 -2.90,-2.22 -2.47,-2.62 -2.04,-3.03 -1.50,-3.28 -0.96,-3.52 -0.37,-3.58 0.21,-3.65 0.78,-3.52 1.36,-3.39 1.87,-3.08 2.37,-2.77 2.75,-2.32 3.14,-1.87 3.35,-1.32 3.57,-0.77 3.60,-0.18 3.63,0.41 3.47,0.97 3.31,1.54 2.97,2.03 2.64,2.52 2.17,2.88 1.69,3.23 1.13,3.42 0.57,3.61 -0.01,3.60 -0.60,3.60 -1.16,3.41 -1.72,3.22 -2.19,2.86 -2.66,2.50 -2.99,2.01 -3.32,1.52 -3.48,0.95 -3.63,0.38 -3.60,-0.21 -3.56,-0.80 -3.34,-1.34 -3.12,-1.89 -2.74,-2.34 -2.35,-2.79 -1.84,-3.09 -1.33,-3.40 -0.76,-3.52 -0.18,-3.65 0.40,-3.58 0.99,-3.51 1.52,-3.26 2.06,-3.01 2.49,-2.60 2.92,-2.20 3.19,-1.67 3.47,-1.15 3.56,-0.56 3.65,0.01 3.55,0.59 3.46,1.18 3.18,1.70 2.90,2.22 2.90,2.22 2.90,2.22 -1.98,2.84 -6.88,3.47 -6.68,3.09 -6.49,2.71 -6.21,2.40 -5.93,2.08 -5.59,1.84 -5.24,1.59 -4.85,1.44 -4.45,1.29 -4.03,1.23 -3.61,1.18 -3.19,1.23 -2.77,1.28 -2.38,1.42 -1.98,1.57 -1.63,1.81 -1.28,2.05 -1.00,2.36 -0.72,2.67 -0.52,3.05 -0.32,3.42 -0.22,3.83 -0.11,4.24 -0.11,4.66 -0.11,5.08 -0.21,5.49 -0.31,5.91 -3.39,4.45 -6.47,2.99 -6.27,2.60 -6.06,2.21 -5.77,1.88 -5.48,1.55 -5.12,1.29 -4.76,1.04 -4.35,0.88 -3.94,0.72 -3.50,0.67 -3.07,0.61 -2.63,0.66 -2.19,0.71 -1.78,0.87 -1.37,1.02 -1.00,1.27 -0.64,1.51 -0.34,1.84 -0.05,2.17 0.15,2.56 0.36,2.95 0.46,3.37 0.57,3.80 0.57,4.24 0.58,4.68 0.48,5.11 0.37,5.54 0.21,6.32 0.05,7.11 -0.94,9.14 -1.95,11.18 -3.66,15.25 -5.37,19.33 -8.12,26.26 -10.86,33.19 -14.71,42.78 -18.56,52.37 -23.58,63.26 -28.60,74.14 -33.01,83.30 -37.42,92.47 -39.89,98.49 -42.37,104.51 -43.77,108.66 -45.17,112.81 -46.28,115.17 -47.39,117.52 -48.47,119.63 -49.56,121.73 -50.33,124.03 -51.11,126.32 -52.93,128.28 -54.76,130.24 -55.03,130.57 -55.30,130.90 -55.64,131.16 -55.98,131.42 -56.37,131.59 -56.76,131.76 -57.18,131.83 -57.60,131.90 -58.03,131.87 -58.45,131.83 -58.86,131.70 -59.26,131.57 -59.62,131.34 -59.98,131.12 -60.28,130.81 -60.58,130.50 -60.79,130.14 -61.01,129.77 -61.13,129.36 -61.25,128.95 -61.27,128.52 -61.29,128.10 -61.20,127.68 -61.12,127.26 -60.94,126.88 -60.76,126.49 -59.32,124.63 -57.88,122.77 -55.98,119.52 -54.08,116.27 -51.27,111.36 -48.46,106.45 -45.13,99.47 -41.81,92.50 -37.97,83.42 -34.14,74.34 -29.83,63.78 -25.51,53.21 -21.42,43.25 -17.33,33.28 -13.76,24.71 -10.19,16.14 -8.53,12.37 -6.87,8.60 -4.94,3.68 -3.00,-1.23 -2.81,-1.57 -2.62,-1.92 -2.35,-2.20 -2.08,-2.49 -1.75,-2.70 -1.42,-2.92 -1.05,-3.04 -0.68,-3.17 -0.29,-3.21 0.09,-3.24 0.47,-3.19 0.86,-3.13 1.22,-2.98 1.59,-2.83 1.90,-2.60 2.22,-2.37 2.47,-2.07 2.72,-1.77 2.89,-1.41 3.07,-1.06 3.15,-0.68 3.23,-0.30 3.22,0.09 3.21,0.48 3.11,0.86 3.00,1.23 3.00,1.23 L 3.00,1.23 Z"></path></g><g transform="translate(51 137) rotate(0 -20 -59.5)" stroke="none"><path fill="#586e75" d="M -3.22,0.92 Q -3.22,0.92 -3.99,-1.03 -4.76,-2.99 -5.84,-6.37 -6.93,-9.76 -9.56,-18.46 -12.18,-27.16 -15.24,-35.68 -18.30,-44.21 -21.30,-52.17 -24.30,-60.13 -27.00,-67.58 -29.69,-75.03 -31.68,-80.49 -33.67,-85.95 -35.38,-91.19 -37.10,-96.44 -38.16,-100.46 -39.23,-104.47 -40.15,-107.25 -41.07,-110.02 -41.62,-112.21 -42.17,-114.40 -43.04,-117.14 -43.91,-119.87 -43.98,-120.35 -44.06,-120.84 -44.02,-121.33 -43.98,-121.82 -43.83,-122.28 -43.67,-122.75 -43.41,-123.16 -43.14,-123.57 -42.79,-123.91 -42.44,-124.25 -42.01,-124.50 -41.58,-124.74 -41.11,-124.88 -40.64,-125.01 -40.15,-125.03 -39.66,-125.05 -39.18,-124.95 -38.70,-124.85 -38.26,-124.64 -37.81,-124.43 -37.43,-124.12 -37.05,-123.81 -36.76,-123.42 -36.47,-123.02 -36.27,-122.57 -36.08,-122.12 -37.37,-123.48 -38.66,-124.84 -38.08,-124.53 -37.50,-124.21 -37.05,-123.73 -36.60,-123.25 -36.33,-122.65 -36.06,-122.05 -36.00,-121.39 -35.93,-120.73 -36.08,-120.09 -36.23,-119.45 -36.57,-118.89 -36.92,-118.33 -37.42,-117.91 -37.93,-117.49 -38.55,-117.25 -39.16,-117.01 -39.82,-116.98 -40.48,-116.95 -41.11,-117.14 -41.74,-117.32 -42.28,-117.69 -42.82,-118.07 -43.22,-118.60 -43.61,-119.12 -43.81,-119.75 -44.02,-120.38 -44.01,-121.03 -44.01,-121.69 -43.79,-122.32 -43.57,-122.94 -43.17,-123.46 -42.76,-123.98 -42.22,-124.34 -41.67,-124.71 -41.03,-124.88 -40.39,-125.05 -39.74,-125.00 -39.08,-124.96 -38.47,-124.71 -37.86,-124.46 -37.36,-124.03 -36.87,-123.60 -36.53,-123.03 -36.20,-122.46 -36.06,-121.82 -35.93,-121.17 -36.01,-120.52 -36.08,-119.87 -36.37,-119.27 -36.65,-118.68 -37.11,-118.20 -37.56,-117.73 -38.15,-117.43 -38.73,-117.12 -39.39,-117.02 -40.04,-116.92 -41.97,-118.40 -43.91,-119.87 -43.98,-120.35 -44.06,-120.84 -44.02,-121.33 -43.98,-121.82 -43.83,-122.28 -43.67,-122.75 -43.41,-123.16 -43.14,-123.57 -42.79,-123.91 -42.44,-124.25 -42.01,-124.50 -41.58,-124.74 -41.11,-124.88 -40.64,-125.01 -40.15,-125.03 -39.66,-125.05 -39.18,-124.95 -38.70,-124.85 -38.26,-124.64 -37.81,-124.43 -37.43,-124.12 -37.05,-123.81 -36.76,-123.42 -36.47,-123.02 -36.27,-122.57 -36.08,-122.12 -35.80,-120.55 -35.52,-118.98 -35.15,-115.30 -34.79,-111.63 -34.26,-108.76 -33.74,-105.90 -32.77,-102.05 -31.79,-98.20 -30.06,-93.07 -28.32,-87.94 -26.25,-82.51 -24.17,-77.07 -21.38,-69.71 -18.59,-62.35 -15.42,-54.40 -12.26,-46.46 -8.94,-37.86 -5.62,-29.26 -2.70,-20.66 0.20,-12.05 1.33,-8.55 2.46,-5.05 2.84,-2.98 3.22,-0.92 3.28,-0.52 3.34,-0.12 3.31,0.27 3.27,0.68 3.15,1.06 3.02,1.44 2.80,1.78 2.58,2.12 2.29,2.40 2.00,2.68 1.65,2.88 1.30,3.08 0.91,3.19 0.52,3.30 0.12,3.32 -0.28,3.33 -0.67,3.25 -1.07,3.17 -1.43,2.99 -1.80,2.82 -2.11,2.56 -2.42,2.31 -2.66,1.98 -2.90,1.66 -3.06,1.29 -3.22,0.92 -3.22,0.92 L -3.22,0.92 Z"></path></g><g transform="translate(54 141) rotate(0 56 53)" stroke="none"><path fill="#586e75" d="M 2.20,-2.51 Q 2.20,-2.51 4.59,-0.60 6.97,1.30 8.68,2.63 10.39,3.96 14.03,7.23 17.66,10.50 22.11,14.57 26.55,18.64 31.87,23.57 37.18,28.50 43.16,34.07 49.13,39.63 55.39,45.47 61.66,51.30 68.04,57.24 74.43,63.18 80.61,69.18 86.79,75.19 92.00,80.33 97.21,85.47 100.85,89.10 104.50,92.73 107.06,95.39 109.62,98.05 111.20,99.74 112.79,101.42 113.15,102.05 113.51,102.68 113.74,103.06 113.96,103.45 114.09,103.87 114.22,104.29 114.24,104.74 114.26,105.18 114.18,105.62 114.09,106.05 113.91,106.45 113.72,106.85 113.44,107.20 113.17,107.55 112.81,107.82 112.46,108.09 112.06,108.26 111.65,108.44 111.21,108.51 110.77,108.59 110.33,108.56 109.89,108.53 109.47,108.39 109.05,108.25 108.67,108.02 108.29,107.79 107.98,107.47 107.67,107.15 106.10,104.87 104.52,102.60 103.50,101.55 102.48,100.50 102.17,99.87 101.86,99.24 101.77,98.55 101.68,97.86 101.82,97.17 101.95,96.49 102.30,95.88 102.64,95.28 103.17,94.81 103.69,94.35 104.33,94.07 104.97,93.80 105.67,93.75 106.37,93.70 107.04,93.87 107.72,94.04 108.31,94.42 108.89,94.80 109.33,95.34 109.76,95.89 110.00,96.55 110.24,97.20 110.25,97.90 110.27,98.60 110.06,99.27 109.85,99.93 109.44,100.50 109.03,101.06 108.46,101.47 107.89,101.87 107.22,102.07 106.56,102.27 105.86,102.25 105.16,102.23 104.51,101.98 103.85,101.74 103.31,101.30 102.77,100.86 102.40,100.27 102.02,99.68 101.86,99.00 101.69,98.32 101.75,97.63 101.81,96.93 102.09,96.29 102.37,95.65 102.84,95.14 103.31,94.62 103.92,94.28 104.53,93.94 105.21,93.81 105.90,93.68 106.59,93.78 107.28,93.88 107.91,94.19 108.53,94.50 109.02,95.00 109.51,95.50 109.51,95.50 109.51,95.49 111.51,99.09 113.51,102.68 113.74,103.06 113.96,103.44 114.09,103.87 114.22,104.29 114.24,104.74 114.26,105.18 114.18,105.61 114.09,106.05 113.91,106.45 113.72,106.85 113.44,107.20 113.17,107.55 112.81,107.82 112.46,108.08 112.06,108.26 111.65,108.44 111.21,108.51 110.78,108.59 110.33,108.56 109.89,108.53 109.47,108.39 109.05,108.25 108.67,108.02 108.29,107.79 107.98,107.47 107.67,107.15 106.45,104.57 105.23,102.00 102.96,99.29 100.69,96.57 97.03,92.97 93.37,89.37 88.16,84.28 82.94,79.18 76.77,73.26 70.60,67.34 64.16,61.45 57.72,55.57 51.40,49.82 45.07,44.07 39.01,38.63 32.96,33.18 27.55,28.43 22.14,23.68 17.58,19.86 13.03,16.04 7.62,11.39 2.22,6.74 0.00,4.63 -2.20,2.51 -2.47,2.21 -2.74,1.91 -2.93,1.56 -3.12,1.20 -3.21,0.81 -3.31,0.42 -3.32,0.02 -3.32,-0.38 -3.22,-0.77 -3.13,-1.16 -2.95,-1.52 -2.76,-1.88 -2.49,-2.18 -2.23,-2.49 -1.90,-2.72 -1.57,-2.95 -1.19,-3.09 -0.82,-3.24 -0.42,-3.29 -0.02,-3.34 0.38,-3.29 0.78,-3.25 1.15,-3.11 1.53,-2.97 1.87,-2.74 2.20,-2.51 2.20,-2.51 L 2.20,-2.51 Z"></path></g><g transform="translate(52 134) rotate(0 45.5 -56.5)" stroke="none"><path fill="#586e75" d="M -1.30,-0.86 Q -1.30,-0.86 -0.13,-2.58 1.03,-4.29 2.71,-6.48 4.40,-8.67 5.98,-10.73 7.55,-12.79 11.99,-18.00 16.43,-23.22 22.04,-30.01 27.65,-36.80 34.06,-44.58 40.48,-52.36 46.95,-59.98 53.42,-67.60 59.33,-74.57 65.24,-81.55 69.76,-87.09 74.28,-92.63 77.63,-96.98 80.98,-101.34 83.27,-104.34 85.56,-107.35 88.17,-109.73 90.79,-112.11 90.94,-111.95 91.10,-111.80 91.20,-111.60 91.30,-111.40 91.33,-111.18 91.36,-110.97 91.32,-110.75 91.28,-110.53 91.17,-110.34 91.07,-110.14 90.90,-110.00 90.74,-109.85 90.54,-109.76 90.33,-109.67 90.11,-109.65 89.89,-109.63 89.68,-109.68 89.46,-109.74 89.28,-109.85 89.09,-109.97 88.95,-110.14 88.81,-110.32 88.73,-110.52 88.65,-110.73 88.65,-110.95 88.64,-111.17 88.70,-111.38 88.77,-111.60 88.90,-111.78 89.02,-111.96 89.20,-112.09 89.38,-112.22 89.59,-112.28 89.80,-112.35 90.02,-112.34 90.24,-112.34 90.45,-112.26 90.66,-112.19 90.83,-112.05 91.01,-111.91 91.13,-111.73 91.25,-111.54 91.30,-111.33 91.36,-111.11 91.34,-110.89 91.32,-110.67 91.24,-110.47 91.15,-110.27 91.00,-110.10 90.86,-109.93 90.67,-109.82 90.47,-109.71 90.26,-109.67 90.04,-109.63 89.82,-109.66 89.60,-109.69 89.40,-109.78 89.20,-109.88 89.20,-109.88 89.20,-109.88 88.43,-107.81 87.66,-105.75 85.37,-102.74 83.08,-99.72 79.71,-95.34 76.34,-90.95 71.81,-85.38 67.28,-79.82 61.37,-72.84 55.47,-65.86 49.02,-58.25 42.57,-50.63 36.17,-42.85 29.76,-35.06 24.16,-28.24 18.55,-21.42 14.19,-16.25 9.83,-11.07 8.29,-8.99 6.74,-6.90 5.15,-4.75 3.56,-2.60 2.43,-0.86 1.30,0.86 1.18,1.01 1.05,1.15 0.90,1.26 0.75,1.37 0.57,1.44 0.39,1.51 0.21,1.54 0.02,1.56 -0.16,1.54 -0.35,1.52 -0.52,1.46 -0.70,1.39 -0.86,1.29 -1.02,1.18 -1.14,1.05 -1.27,0.91 -1.36,0.74 -1.45,0.57 -1.50,0.39 -1.55,0.21 -1.55,0.02 -1.55,-0.16 -1.51,-0.34 -1.47,-0.53 -1.38,-0.70 -1.30,-0.86 -1.30,-0.86 L -1.30,-0.86 Z"></path></g><g transform="translate(54 138) rotate(0 85.5 -14)" stroke="none"><path fill="#586e75" d="M -0.44,-1.49 Q -0.44,-1.49 2.43,-2.32 5.32,-3.15 8.62,-3.80 11.93,-4.44 16.18,-5.28 20.44,-6.12 34.67,-7.62 48.90,-9.13 67.29,-10.92 85.69,-12.70 99.52,-14.32 113.36,-15.93 127.84,-18.34 142.32,-20.75 150.17,-22.62 158.02,-24.50 161.62,-25.58 165.23,-26.65 166.91,-27.01 168.59,-27.36 168.76,-27.39 168.92,-27.42 169.10,-27.41 169.27,-27.39 169.43,-27.34 169.59,-27.29 169.74,-27.20 169.89,-27.11 170.01,-26.98 170.13,-26.86 170.21,-26.71 170.30,-26.57 170.35,-26.40 170.40,-26.24 170.41,-26.06 170.42,-25.89 170.38,-25.72 170.35,-25.56 170.28,-25.40 170.21,-25.24 170.10,-25.11 169.99,-24.98 169.85,-24.87 169.72,-24.77 169.56,-24.70 169.40,-24.63 169.71,-24.82 170.02,-25.00 169.83,-24.87 169.65,-24.73 169.43,-24.66 169.21,-24.59 168.98,-24.59 168.75,-24.59 168.53,-24.67 168.31,-24.74 168.13,-24.88 167.95,-25.03 167.82,-25.22 167.70,-25.41 167.64,-25.63 167.58,-25.86 167.59,-26.09 167.61,-26.32 167.69,-26.53 167.78,-26.74 167.93,-26.92 168.08,-27.09 168.28,-27.21 168.48,-27.32 168.71,-27.37 168.93,-27.42 169.16,-27.39 169.39,-27.36 169.60,-27.27 169.81,-27.17 169.97,-27.01 170.14,-26.85 170.24,-26.64 170.35,-26.44 170.39,-26.21 170.42,-25.98 170.38,-25.75 170.34,-25.53 170.23,-25.32 170.12,-25.12 169.95,-24.96 169.78,-24.81 169.57,-24.71 169.36,-24.62 169.13,-24.60 168.90,-24.57 168.68,-24.62 168.45,-24.68 168.26,-24.80 168.06,-24.92 167.91,-25.10 167.77,-25.27 167.68,-25.49 167.60,-25.70 167.59,-25.93 167.58,-26.16 167.64,-26.39 167.71,-26.61 168.15,-26.98 168.59,-27.36 168.76,-27.39 168.92,-27.42 169.10,-27.41 169.27,-27.39 169.43,-27.34 169.59,-27.29 169.74,-27.20 169.89,-27.11 170.01,-26.98 170.13,-26.86 170.21,-26.71 170.30,-26.57 170.35,-26.40 170.40,-26.24 170.41,-26.06 170.42,-25.89 170.38,-25.72 170.35,-25.56 170.28,-25.40 170.21,-25.24 170.10,-25.11 169.99,-24.98 169.86,-24.87 169.72,-24.77 169.56,-24.70 169.40,-24.63 167.70,-24.37 165.99,-24.11 162.32,-23.01 158.64,-21.91 150.70,-20.00 142.76,-18.10 128.22,-15.68 113.68,-13.25 99.81,-11.62 85.95,-9.99 67.57,-8.19 49.20,-6.38 35.09,-4.87 20.99,-3.35 16.74,-2.48 12.50,-1.61 9.34,-0.95 6.17,-0.29 3.31,0.60 0.44,1.49 0.26,1.52 0.07,1.56 -0.11,1.54 -0.29,1.53 -0.47,1.47 -0.65,1.41 -0.81,1.31 -0.97,1.21 -1.10,1.08 -1.23,0.95 -1.33,0.78 -1.43,0.62 -1.48,0.44 -1.53,0.26 -1.54,0.07 -1.55,-0.11 -1.52,-0.29 -1.48,-0.48 -1.40,-0.65 -1.32,-0.82 -1.21,-0.96 -1.09,-1.11 -0.94,-1.23 -0.79,-1.34 -0.62,-1.42 -0.44,-1.49 -0.44,-1.49 L -0.44,-1.49 Z"></path></g><g transform="translate(99 109) rotate(0 -1.5 -1.5)" stroke="none"><path fill="#268bd2" d="M -2.54,0.63 Q -2.54,0.63 -2.59,-0.20 -2.65,-1.04 -1.40,-0.89 -0.15,-0.75 1.34,0.00 2.84,0.76 2.70,1.09 2.57,1.42 2.36,1.71 2.15,2.00 1.88,2.22 1.61,2.45 1.29,2.61 0.98,2.77 0.63,2.85 0.28,2.92 -0.06,2.92 -0.42,2.91 -0.76,2.81 -1.10,2.72 -1.41,2.55 -1.72,2.38 -1.98,2.14 -2.24,1.90 -2.44,1.60 -2.63,1.30 -2.75,0.97 -2.87,0.63 -2.90,0.28 -2.94,-0.06 -2.89,-0.41 -2.84,-0.76 -2.15,-1.65 -1.47,-2.54 -1.02,-2.71 -0.58,-2.88 -0.10,-2.90 0.36,-2.91 0.82,-2.78 1.28,-2.64 1.66,-2.37 2.05,-2.10 2.34,-1.71 2.62,-1.33 2.76,-0.88 2.91,-0.42 2.90,0.04 2.89,0.52 2.73,0.97 2.57,1.42 2.28,1.79 1.98,2.16 1.58,2.43 1.19,2.69 0.72,2.81 0.26,2.93 -0.20,2.89 -0.68,2.86 -1.12,2.67 -1.55,2.49 -1.91,2.18 -2.27,1.86 -2.51,1.45 -2.75,1.04 -2.84,0.57 -2.94,0.10 -2.88,-0.36 -2.82,-0.83 -2.61,-1.26 -2.40,-1.69 -2.07,-2.03 -1.74,-2.37 -1.31,-2.58 -0.89,-2.80 -0.42,-2.87 0.04,-2.94 0.51,-2.85 0.98,-2.77 1.40,-2.54 1.82,-2.31 2.14,-1.96 2.46,-1.60 2.65,-1.17 2.84,-0.73 2.89,-0.26 2.93,0.20 2.82,0.67 2.71,1.13 2.46,1.53 2.20,1.94 2.52,1.35 2.84,0.76 2.70,1.09 2.57,1.42 2.36,1.71 2.15,1.99 1.88,2.22 1.61,2.45 1.29,2.61 0.98,2.77 0.63,2.85 0.28,2.92 -0.06,2.92 -0.41,2.91 -0.76,2.81 -1.10,2.72 -1.41,2.55 -1.72,2.38 -1.98,2.14 -2.24,1.90 -2.44,1.60 -2.63,1.30 -2.75,0.97 -2.87,0.64 -2.90,0.28 -2.94,-0.06 -2.89,-0.41 -2.84,-0.76 -3.56,0.70 -4.29,2.18 -4.62,-0.06 -4.96,-2.32 -3.80,-3.48 -2.63,-4.65 -0.56,-4.10 1.50,-3.55 2.02,-2.09 2.54,-0.63 2.57,-0.32 2.61,-0.00 2.58,0.30 2.54,0.61 2.43,0.91 2.32,1.20 2.14,1.46 1.96,1.72 1.73,1.94 1.49,2.15 1.21,2.29 0.93,2.44 0.63,2.52 0.32,2.59 0.00,2.59 -0.30,2.60 -0.61,2.52 -0.92,2.45 -1.20,2.30 -1.48,2.15 -1.71,1.95 -1.95,1.74 -2.13,1.48 -2.31,1.22 -2.42,0.92 -2.54,0.63 -2.54,0.63 L -2.54,0.63 Z"></path></g><g transform="translate(102 99) rotate(0 18.5 -40.5)" stroke="none"><path fill="#268bd2" d="M -1.57,-0.90 Q -1.57,-0.90 -0.36,-2.87 0.84,-4.85 3.95,-10.55 7.05,-16.25 13.00,-27.02 18.94,-37.79 22.90,-45.50 26.86,-53.21 29.40,-59.04 31.94,-64.87 33.32,-67.94 34.71,-71.02 35.87,-73.74 37.03,-76.47 37.41,-77.91 37.79,-79.35 38.24,-80.44 38.70,-81.52 39.51,-82.67 40.32,-83.81 41.12,-85.22 41.92,-86.63 42.13,-86.81 42.33,-86.99 42.57,-87.12 42.81,-87.24 43.08,-87.31 43.34,-87.37 43.61,-87.37 43.89,-87.37 44.15,-87.30 44.41,-87.24 44.65,-87.11 44.89,-86.98 45.09,-86.80 45.30,-86.62 45.45,-86.40 45.60,-86.17 45.70,-85.92 45.79,-85.66 45.83,-85.39 45.86,-85.12 45.82,-84.85 45.79,-84.58 45.69,-84.33 45.59,-84.08 45.44,-83.85 45.28,-83.63 45.07,-82.13 44.85,-80.63 43.62,-78.18 42.38,-75.72 40.93,-73.50 39.48,-71.27 36.01,-64.68 32.55,-58.10 28.74,-50.97 24.94,-43.83 20.99,-37.32 17.04,-30.82 13.63,-25.47 10.22,-20.12 7.02,-15.54 3.83,-10.95 1.62,-7.59 -0.57,-4.24 -2.08,-1.68 -3.58,0.86 -4.56,3.27 -5.53,5.67 -5.68,5.89 -5.82,6.11 -6.03,6.26 -6.24,6.42 -6.49,6.50 -6.74,6.59 -7.00,6.59 -7.26,6.59 -7.50,6.50 -7.75,6.42 -7.96,6.26 -8.17,6.10 -8.31,5.89 -8.46,5.67 -8.53,5.42 -8.60,5.17 -8.58,4.91 -8.57,4.65 -8.47,4.40 -8.38,4.16 -8.21,3.96 -8.04,3.76 -7.81,3.63 -7.59,3.50 -7.34,3.44 -7.08,3.38 -6.82,3.41 -6.56,3.44 -6.33,3.55 -6.09,3.66 -5.90,3.84 -5.71,4.02 -5.59,4.25 -5.47,4.48 -5.42,4.74 -5.38,5.00 -5.42,5.25 -5.47,5.51 -5.59,5.74 -5.71,5.97 -5.90,6.15 -6.09,6.33 -6.33,6.44 -6.56,6.55 -6.82,6.58 -7.08,6.61 -7.34,6.55 -7.59,6.49 -7.82,6.36 -8.04,6.22 -8.21,6.02 -8.38,5.83 -8.47,5.58 -8.57,5.34 -8.59,5.08 -8.60,4.82 -8.53,4.57 -8.46,4.32 -8.46,4.32 -8.46,4.32 -7.20,1.90 -5.94,-0.51 -4.41,-3.13 -2.89,-5.75 -0.69,-9.15 1.51,-12.55 4.64,-17.11 7.77,-21.67 11.12,-27.01 14.48,-32.36 18.32,-38.82 22.17,-45.29 25.89,-52.45 29.60,-59.62 33.02,-66.37 36.43,-73.13 37.62,-75.24 38.82,-77.35 39.76,-79.68 40.70,-82.02 41.22,-83.04 41.74,-84.05 41.83,-85.34 41.92,-86.63 42.13,-86.81 42.33,-86.99 42.57,-87.12 42.81,-87.24 43.08,-87.31 43.34,-87.37 43.61,-87.37 43.89,-87.37 44.15,-87.30 44.41,-87.24 44.65,-87.11 44.89,-86.98 45.09,-86.80 45.30,-86.62 45.45,-86.40 45.60,-86.17 45.70,-85.92 45.79,-85.66 45.83,-85.39 45.86,-85.12 45.82,-84.85 45.79,-84.58 45.69,-84.33 45.59,-84.08 45.44,-83.85 45.28,-83.63 44.31,-82.49 43.34,-81.34 42.05,-79.84 40.75,-78.34 40.15,-76.88 39.55,-75.41 38.39,-72.65 37.24,-69.89 35.89,-66.82 34.54,-63.74 32.00,-57.82 29.45,-51.89 25.52,-44.11 21.58,-36.34 15.71,-25.55 9.84,-14.76 6.80,-8.97 3.75,-3.19 2.66,-1.14 1.57,0.90 1.44,1.07 1.31,1.25 1.14,1.39 0.97,1.52 0.77,1.62 0.58,1.71 0.36,1.76 0.15,1.80 -0.06,1.80 -0.28,1.79 -0.49,1.73 -0.70,1.67 -0.89,1.56 -1.08,1.45 -1.24,1.30 -1.40,1.15 -1.51,0.96 -1.63,0.78 -1.70,0.57 -1.77,0.37 -1.79,0.15 -1.81,-0.06 -1.77,-0.28 -1.74,-0.49 -1.66,-0.69 -1.57,-0.90 -1.57,-0.90 L -1.57,-0.90 Z"></path></g><g transform="translate(108 110) rotate(0 55 0.5)" stroke="none"><path fill="#268bd2" d="M 0,1.69 Q 0,1.69 -0.57,1.77 -1.15,1.86 -1.37,1.83 -1.59,1.80 -1.80,1.72 -2.01,1.64 -2.20,1.52 -2.38,1.39 -2.53,1.22 -2.68,1.05 -2.78,0.85 -2.89,0.66 -2.94,0.44 -2.99,0.22 -2.99,-0.00 -2.99,-0.22 -2.94,-0.44 -2.89,-0.66 -2.78,-0.85 -2.68,-1.05 -2.53,-1.22 -2.38,-1.39 -2.20,-1.52 -2.01,-1.64 -1.80,-1.72 -1.59,-1.80 -1.37,-1.83 -1.14,-1.86 3.52,-2.08 8.20,-2.30 11.59,-2.37 14.98,-2.44 24.81,-1.87 34.64,-1.30 45.40,-0.76 56.16,-0.22 66.17,0.00 76.19,0.24 83.58,0.06 90.98,-0.11 96.12,-0.46 101.25,-0.82 104.33,-0.97 107.40,-1.12 108.16,-1.81 108.92,-2.51 109.10,-2.49 109.28,-2.48 109.45,-2.43 109.63,-2.37 109.78,-2.27 109.94,-2.18 110.07,-2.05 110.20,-1.92 110.29,-1.76 110.38,-1.60 110.43,-1.43 110.49,-1.25 110.50,-1.07 110.51,-0.89 110.47,-0.71 110.44,-0.53 110.36,-0.37 110.28,-0.20 110.17,-0.06 110.06,0.08 109.91,0.19 109.77,0.30 109.60,0.37 109.43,0.44 109.25,0.48 109.07,0.51 108.71,0.43 108.34,0.36 108.14,0.22 107.94,0.08 107.80,-0.10 107.65,-0.30 107.57,-0.53 107.50,-0.77 107.50,-1.01 107.50,-1.26 107.58,-1.49 107.67,-1.72 107.82,-1.91 107.97,-2.11 108.17,-2.24 108.38,-2.38 108.61,-2.44 108.85,-2.50 109.09,-2.49 109.34,-2.47 109.56,-2.38 109.79,-2.28 109.98,-2.12 110.16,-1.96 110.28,-1.75 110.41,-1.54 110.46,-1.30 110.51,-1.06 110.48,-0.82 110.45,-0.57 110.34,-0.35 110.24,-0.13 110.07,0.03 109.90,0.21 109.68,0.32 109.46,0.44 109.22,0.47 108.98,0.51 108.74,0.47 108.50,0.42 108.28,0.31 108.07,0.19 107.90,0.01 107.73,-0.16 107.63,-0.38 107.53,-0.61 107.51,-0.85 107.48,-1.09 107.54,-1.33 107.60,-1.57 107.72,-1.78 107.85,-1.99 108.04,-2.14 108.23,-2.30 108.46,-2.39 108.69,-2.48 108.93,-2.49 109.18,-2.50 109.05,-2.50 108.92,-2.51 109.10,-2.49 109.28,-2.48 109.45,-2.43 109.63,-2.37 109.78,-2.27 109.94,-2.18 110.07,-2.05 110.19,-1.92 110.29,-1.76 110.38,-1.60 110.43,-1.43 110.49,-1.25 110.50,-1.07 110.51,-0.89 110.47,-0.71 110.44,-0.53 110.36,-0.37 110.28,-0.20 110.17,-0.06 110.06,0.08 109.91,0.19 109.77,0.30 109.60,0.37 109.43,0.44 109.25,0.48 109.07,0.51 108.31,1.05 107.55,1.58 104.50,1.75 101.45,1.92 96.25,2.30 91.05,2.68 83.59,2.89 76.13,3.11 66.07,2.91 56.02,2.72 45.25,2.24 34.48,1.76 24.79,1.28 15.09,0.80 11.78,0.98 8.46,1.15 3.65,1.51 -1.14,1.86 -1.37,1.83 -1.59,1.80 -1.80,1.72 -2.01,1.64 -2.20,1.52 -2.38,1.39 -2.53,1.22 -2.68,1.05 -2.78,0.85 -2.89,0.66 -2.94,0.44 -2.99,0.22 -2.99,0.00 -2.99,-0.22 -2.94,-0.44 -2.89,-0.66 -2.78,-0.85 -2.68,-1.05 -2.53,-1.22 -2.38,-1.39 -2.20,-1.52 -2.01,-1.64 -1.80,-1.72 -1.59,-1.80 -1.37,-1.83 -1.15,-1.86 -0.57,-1.77 0,-1.69 0.20,-1.66 0.40,-1.64 0.59,-1.57 0.78,-1.49 0.95,-1.38 1.12,-1.26 1.25,-1.11 1.39,-0.96 1.48,-0.78 1.58,-0.60 1.63,-0.40 1.68,-0.20 1.68,0.00 1.68,0.20 1.63,0.40 1.58,0.60 1.48,0.78 1.39,0.96 1.25,1.11 1.12,1.26 0.95,1.38 0.78,1.49 0.59,1.57 0.40,1.64 0.20,1.66 -0.00,1.69 -0.00,1.69 L 0,1.69 Z"></path></g><g transform="translate(220 107) rotate(0 -55 0)" stroke="none"><path fill="#268bd2" d="M 0.77,1.54 Q 0.77,1.54 0.19,1.91 -0.37,2.29 -7.60,2.42 -14.83,2.56 -28.39,2.55 -41.96,2.54 -52.34,2.24 -62.72,1.93 -72.86,1.78 -83.00,1.64 -89.65,1.28 -96.29,0.92 -100.81,0.76 -105.33,0.61 -107.55,0.53 -109.76,0.46 -111.40,0.50 -113.04,0.54 -113.28,0.49 -113.53,0.45 -113.75,0.32 -113.96,0.20 -114.13,0.01 -114.30,-0.16 -114.40,-0.39 -114.50,-0.62 -114.52,-0.87 -114.54,-1.12 -114.48,-1.36 -114.42,-1.61 -114.28,-1.82 -114.15,-2.03 -113.95,-2.18 -113.76,-2.34 -113.52,-2.43 -113.29,-2.51 -113.04,-2.52 -112.79,-2.53 -112.55,-2.45 -112.31,-2.38 -112.10,-2.23 -111.90,-2.09 -111.76,-1.88 -111.61,-1.68 -111.54,-1.44 -111.46,-1.20 -111.47,-0.95 -111.48,-0.70 -111.56,-0.47 -111.65,-0.23 -111.81,-0.04 -111.96,0.15 -112.17,0.28 -112.38,0.42 -112.63,0.48 -112.87,0.54 -113.12,0.52 -113.37,0.50 -113.60,0.40 -113.83,0.30 -114.01,0.13 -114.20,-0.03 -114.32,-0.24 -114.45,-0.46 -114.49,-0.71 -114.54,-0.95 -114.51,-1.20 -114.47,-1.45 -114.36,-1.67 -114.25,-1.90 -114.07,-2.07 -113.90,-2.25 -113.67,-2.36 -113.45,-2.47 -113.20,-2.51 -112.95,-2.54 -112.95,-2.54 -112.95,-2.54 -111.32,-2.41 -109.68,-2.28 -107.46,-2.23 -105.25,-2.18 -100.69,-2.06 -96.14,-1.93 -89.56,-1.62 -82.97,-1.31 -72.81,-1.23 -62.64,-1.14 -52.30,-0.92 -41.97,-0.70 -28.43,-0.81 -14.89,-0.92 -8.40,-1.03 -1.92,-1.14 -1.34,-1.34 -0.77,-1.54 -0.57,-1.61 -0.37,-1.68 -0.17,-1.70 0.03,-1.72 0.23,-1.69 0.44,-1.66 0.63,-1.58 0.83,-1.50 0.99,-1.38 1.16,-1.26 1.30,-1.10 1.43,-0.95 1.52,-0.76 1.62,-0.57 1.66,-0.37 1.71,-0.17 1.71,0.03 1.70,0.24 1.65,0.44 1.59,0.64 1.49,0.82 1.39,1.00 1.25,1.15 1.11,1.31 0.94,1.42 0.77,1.54 0.77,1.54 L 0.77,1.54 Z"></path></g><g transform="translate(100 111) rotate(0 27.5 58.5)" stroke="none"><path fill="#268bd2" d="M 1.50,-0.42 Q 1.50,-0.42 2.05,1.58 2.60,3.60 3.66,6.42 4.72,9.23 5.75,12.20 6.79,15.17 10.63,22.66 14.47,30.16 18.99,38.55 23.50,46.94 28.30,55.97 33.09,65.01 37.44,73.75 41.78,82.50 45.07,89.68 48.36,96.86 50.61,101.92 52.87,106.98 53.58,109.82 54.29,112.65 54.79,114.66 55.30,116.67 55.32,116.89 55.34,117.11 55.28,117.32 55.23,117.53 55.11,117.71 55.00,117.90 54.83,118.03 54.66,118.17 54.45,118.24 54.25,118.32 54.03,118.32 53.81,118.33 53.60,118.26 53.39,118.20 53.22,118.07 53.04,117.95 52.91,117.77 52.79,117.59 52.72,117.38 52.66,117.17 52.67,116.96 52.67,116.74 52.75,116.53 52.82,116.33 52.96,116.16 53.10,115.99 53.28,115.87 53.47,115.76 53.68,115.71 53.89,115.65 54.11,115.67 54.32,115.69 54.52,115.78 54.72,115.86 54.88,116.01 55.05,116.15 55.15,116.34 55.26,116.53 55.30,116.75 55.34,116.96 55.31,117.18 55.28,117.39 55.18,117.59 55.09,117.78 54.93,117.94 54.78,118.09 54.58,118.19 54.39,118.28 54.17,118.31 53.96,118.34 53.74,118.30 53.53,118.26 53.34,118.15 53.15,118.04 53.00,117.88 52.86,117.72 52.77,117.52 52.69,117.32 52.69,117.32 52.69,117.32 52.20,115.30 51.72,113.29 51.08,110.67 50.44,108.06 48.19,103.02 45.93,97.97 42.65,90.83 39.38,83.69 35.04,74.99 30.70,66.28 25.90,57.26 21.09,48.24 16.55,39.83 12.00,31.43 8.06,23.78 4.11,16.12 3.06,13.20 2.00,10.28 0.84,7.36 -0.30,4.44 -0.90,2.43 -1.50,0.42 -1.53,0.24 -1.56,0.05 -1.54,-0.13 -1.53,-0.31 -1.47,-0.49 -1.41,-0.67 -1.31,-0.83 -1.20,-0.99 -1.07,-1.12 -0.93,-1.25 -0.77,-1.34 -0.60,-1.44 -0.42,-1.49 -0.24,-1.54 -0.05,-1.55 0.13,-1.55 0.31,-1.52 0.50,-1.48 0.67,-1.40 0.84,-1.31 0.98,-1.19 1.13,-1.07 1.24,-0.92 1.35,-0.77 1.43,-0.60 1.50,-0.42 1.50,-0.42 L 1.50,-0.42 Z"></path></g><g transform="translate(161 236) rotate(0 -27 -60.5)" stroke="none"><path fill="#268bd2" d="M -1.48,0.59 Q -1.48,0.59 -2.13,-0.81 -2.77,-2.22 -3.83,-5.48 -4.90,-8.73 -5.62,-10.97 -6.34,-13.21 -10.63,-23.31 -14.93,-33.42 -19.63,-44.35 -24.33,-55.28 -29.19,-65.95 -34.05,-76.62 -38.41,-85.76 -42.77,-94.89 -46.05,-101.35 -49.33,-107.81 -51.03,-111.75 -52.73,-115.69 -54.04,-118.15 -55.35,-120.61 -55.56,-120.70 -55.77,-120.79 -55.94,-120.95 -56.12,-121.10 -56.23,-121.31 -56.34,-121.51 -56.38,-121.74 -56.43,-121.96 -56.39,-122.19 -56.36,-122.42 -56.26,-122.63 -56.15,-122.84 -55.99,-123.00 -55.82,-123.16 -55.62,-123.26 -55.41,-123.37 -55.18,-123.40 -54.95,-123.43 -54.72,-123.38 -54.49,-123.34 -54.29,-123.22 -54.09,-123.11 -53.94,-122.93 -53.79,-122.76 -53.69,-122.55 -53.60,-122.33 -53.59,-122.10 -53.57,-121.87 -53.63,-121.65 -53.68,-121.42 -53.81,-121.23 -53.93,-121.03 -54.12,-120.89 -54.30,-120.75 -54.51,-120.67 -54.73,-120.59 -54.96,-120.58 -55.20,-120.58 -55.42,-120.65 -55.64,-120.72 -55.82,-120.85 -56.01,-120.99 -56.15,-121.18 -56.28,-121.37 -56.35,-121.59 -56.41,-121.81 -56.41,-122.04 -56.40,-122.27 -56.32,-122.49 -56.24,-122.71 -56.09,-122.89 -55.95,-123.07 -55.75,-123.19 -55.55,-123.31 -55.33,-123.37 -55.10,-123.42 -54.87,-123.40 -54.64,-123.38 -54.64,-123.38 -54.64,-123.38 -52.45,-120.07 -50.26,-116.76 -48.59,-112.90 -46.91,-109.05 -43.60,-102.56 -40.29,-96.08 -35.89,-86.93 -31.50,-77.79 -26.60,-67.10 -21.70,-56.42 -16.95,-45.50 -12.21,-34.58 -7.81,-24.40 -3.41,-14.21 -2.62,-12.00 -1.82,-9.80 -0.67,-6.66 0.47,-3.52 0.98,-2.05 1.48,-0.59 1.53,-0.40 1.58,-0.22 1.59,-0.02 1.59,0.16 1.55,0.35 1.50,0.54 1.42,0.71 1.33,0.88 1.21,1.03 1.08,1.18 0.92,1.29 0.77,1.40 0.59,1.47 0.41,1.55 0.22,1.57 0.02,1.60 -0.16,1.58 -0.35,1.56 -0.53,1.49 -0.71,1.43 -0.88,1.32 -1.04,1.21 -1.17,1.07 -1.30,0.93 -1.39,0.76 -1.48,0.59 -1.48,0.59 L -1.48,0.59 Z"></path></g><g transform="translate(96 100) rotate(0 -42.5 -42)" stroke="none"><path fill="#268bd2" d="M -1.16,1.04 Q -1.16,1.04 -3.72,-1.85 -6.28,-4.75 -8.50,-7.12 -10.72,-9.49 -15.96,-14.82 -21.21,-20.14 -26.61,-25.87 -32.01,-31.60 -36.87,-36.31 -41.72,-41.03 -47.79,-46.17 -53.85,-51.32 -59.05,-56.13 -64.25,-60.94 -67.36,-64.46 -70.46,-67.98 -72.59,-69.99 -74.71,-72.00 -75.98,-73.10 -77.25,-74.20 -78.12,-74.90 -79.00,-75.59 -80.25,-76.19 -81.50,-76.79 -82.77,-77.94 -84.03,-79.09 -85.23,-80.15 -86.43,-81.21 -86.75,-81.66 -87.07,-82.12 -87.30,-82.33 -87.53,-82.55 -87.70,-82.81 -87.87,-83.08 -87.97,-83.38 -88.08,-83.67 -88.11,-83.99 -88.14,-84.30 -88.09,-84.61 -88.04,-84.92 -87.92,-85.21 -87.80,-85.50 -87.61,-85.76 -87.43,-86.01 -87.19,-86.21 -86.95,-86.42 -86.66,-86.55 -86.38,-86.69 -86.07,-86.76 -85.76,-86.83 -85.45,-86.82 -85.13,-86.81 -84.83,-86.72 -84.53,-86.64 -84.25,-86.48 -83.98,-86.33 -81.31,-83.57 -78.65,-80.82 -75.53,-77.82 -72.42,-74.83 -65.08,-68.35 -57.75,-61.87 -52.35,-57.08 -46.94,-52.28 -38.05,-44.48 -29.15,-36.67 -22.49,-30.45 -15.82,-24.24 -11.82,-19.82 -7.81,-15.41 -5.79,-12.62 -3.77,-9.84 -2.84,-8.02 -1.91,-6.20 -1.41,-5.14 -0.91,-4.09 0.19,-2.51 1.30,-0.93 1.41,-0.70 1.53,-0.47 1.57,-0.21 1.60,0.04 1.55,0.29 1.50,0.55 1.38,0.77 1.25,1.00 1.06,1.17 0.86,1.35 0.62,1.45 0.38,1.55 0.13,1.57 -0.12,1.60 -0.38,1.53 -0.63,1.47 -0.85,1.33 -1.07,1.19 -1.23,0.99 -1.39,0.79 -1.48,0.54 -1.57,0.30 -1.58,0.04 -1.59,-0.21 -1.51,-0.46 -1.43,-0.71 -1.28,-0.92 -1.13,-1.13 -0.92,-1.28 -0.71,-1.43 -0.46,-1.51 -0.21,-1.59 0.04,-1.58 0.30,-1.57 0.54,-1.48 0.78,-1.39 0.99,-1.23 1.19,-1.07 1.33,-0.85 1.47,-0.63 1.53,-0.38 1.60,-0.13 1.57,0.12 1.55,0.38 1.45,0.62 1.35,0.86 1.18,1.05 1.00,1.25 0.78,1.37 0.55,1.50 0.30,1.55 0.04,1.60 -0.21,1.57 -0.46,1.53 -0.70,1.42 -0.93,1.30 -1.11,1.12 -1.30,0.93 -1.30,0.93 -1.30,0.93 -2.94,-1.98 -4.57,-4.90 -5.32,-6.53 -6.07,-8.17 -8.02,-10.80 -9.96,-13.44 -13.92,-17.73 -17.88,-22.01 -24.56,-28.14 -31.24,-34.27 -40.20,-42.00 -49.16,-49.73 -54.66,-54.41 -60.15,-59.10 -67.64,-65.46 -75.14,-71.83 -78.49,-74.70 -81.84,-77.57 -84.46,-79.84 -87.07,-82.12 -87.30,-82.33 -87.53,-82.55 -87.70,-82.81 -87.87,-83.08 -87.97,-83.38 -88.08,-83.67 -88.11,-83.99 -88.14,-84.30 -88.09,-84.61 -88.04,-84.92 -87.92,-85.21 -87.80,-85.50 -87.61,-85.76 -87.43,-86.01 -87.19,-86.21 -86.95,-86.42 -86.66,-86.55 -86.38,-86.69 -86.07,-86.76 -85.76,-86.83 -85.45,-86.82 -85.13,-86.81 -84.83,-86.72 -84.53,-86.64 -84.25,-86.48 -83.98,-86.33 -83.66,-85.74 -83.35,-85.16 -82.23,-83.89 -81.11,-82.61 -79.98,-81.27 -78.85,-79.93 -77.74,-79.01 -76.62,-78.09 -75.90,-77.23 -75.17,-76.36 -74.03,-75.15 -72.88,-73.93 -70.67,-71.84 -68.47,-69.75 -65.45,-66.33 -62.43,-62.90 -57.27,-58.14 -52.10,-53.38 -45.97,-48.18 -39.83,-42.99 -34.92,-38.24 -30.01,-33.50 -24.61,-27.81 -19.21,-22.12 -13.91,-16.80 -8.62,-11.48 -6.34,-9.11 -4.06,-6.74 -1.45,-3.89 1.16,-1.04 1.26,-0.89 1.37,-0.73 1.44,-0.56 1.51,-0.38 1.53,-0.19 1.56,-0.01 1.54,0.17 1.51,0.36 1.45,0.53 1.38,0.71 1.28,0.87 1.17,1.02 1.03,1.15 0.89,1.27 0.73,1.36 0.56,1.45 0.38,1.50 0.20,1.54 0.01,1.55 -0.17,1.55 -0.35,1.50 -0.54,1.46 -0.71,1.37 -0.87,1.29 -1.01,1.16 -1.16,1.04 -1.16,1.04 L -1.16,1.04 Z"></path></g><g transform="translate(99 103) rotate(0 -1 2.5)" stroke="none"><path fill="#268bd2" d="M -1.87,1.87 Q -1.87,1.87 -1.23,1.12 -0.58,0.37 -1.15,1.53 -1.72,2.69 -1.22,4.13 -0.72,5.58 -0.63,4.04 -0.55,2.51 -0.44,1.37 -0.33,0.23 0.53,1.09 1.39,1.96 1.35,3.28 1.30,4.61 -0.03,4.73 -1.38,4.84 -2.05,2.78 -2.72,0.72 -2.76,0.27 -2.81,-0.18 -2.71,-0.62 -2.60,-1.07 -2.36,-1.46 -2.12,-1.84 -1.77,-2.14 -1.42,-2.43 -1.00,-2.59 -0.57,-2.76 -0.12,-2.78 0.33,-2.80 0.77,-2.67 1.21,-2.54 1.58,-2.28 1.96,-2.02 2.23,-1.65 2.50,-1.29 2.64,-0.85 2.78,-0.42 2.78,0.03 2.77,0.48 2.62,0.91 2.47,1.34 2.19,1.70 1.91,2.06 1.53,2.32 1.15,2.57 0.71,2.68 0.27,2.80 -0.18,2.77 -0.63,2.74 -1.05,2.57 -1.48,2.40 -1.82,2.10 -2.16,1.80 -2.40,1.40 -2.63,1.01 -2.72,0.56 -2.81,0.12 -2.76,-0.33 -2.70,-0.78 -2.51,-1.19 -2.31,-1.60 -1.99,-1.93 -1.68,-2.26 -1.27,-2.47 -0.87,-2.68 -0.41,-2.75 0.03,-2.82 0.48,-2.74 0.93,-2.66 1.33,-2.44 1.73,-2.22 2.04,-1.89 2.35,-1.55 2.53,-1.14 2.72,-0.72 2.72,-0.72 2.72,-0.72 3.58,2.98 4.44,6.68 3.46,7.86 2.47,9.04 0.02,9.09 -2.42,9.14 -3.33,8.15 -4.24,7.16 -4.63,5.71 -5.02,4.25 -4.92,2.97 -4.82,1.69 -4.32,-0.08 -3.81,-1.86 -2.57,-3.03 -1.32,-4.20 0.24,-4.38 1.81,-4.56 3.33,-3.60 4.85,-2.63 5.44,-0.99 6.02,0.64 5.89,1.91 5.76,3.18 5.32,4.59 4.88,5.99 4.10,7.13 3.32,8.27 1.96,9.29 0.60,10.31 -1.19,10.46 -2.99,10.61 -4.45,9.66 -5.92,8.71 -6.55,7.15 -7.19,5.59 -7.17,4.50 -7.15,3.42 -7.05,2.30 -6.95,1.18 -6.09,-0.61 -5.23,-2.41 -4.22,-3.15 -3.22,-3.88 -1.49,-3.88 0.23,-3.87 1.76,-2.13 3.28,-0.40 3.74,0.74 4.20,1.88 4.14,3.56 4.07,5.24 3.36,6.44 2.65,7.64 1.62,8.32 0.59,9.00 -1.14,9.04 -2.88,9.08 -4.04,8.34 -5.20,7.60 -6.10,6.31 -6.99,5.01 -7.16,3.67 -7.33,2.33 -6.96,1.23 -6.60,0.13 -5.68,-1.34 -4.76,-2.83 -3.81,-3.32 -2.86,-3.82 -0.49,-2.84 1.87,-1.87 2.06,-1.62 2.26,-1.37 2.39,-1.07 2.52,-0.78 2.58,-0.47 2.64,-0.15 2.62,0.15 2.60,0.47 2.51,0.78 2.41,1.08 2.24,1.36 2.08,1.63 1.85,1.85 1.63,2.08 1.36,2.25 1.08,2.41 0.78,2.51 0.47,2.60 0.15,2.62 -0.16,2.64 -0.47,2.58 -0.78,2.52 -1.07,2.39 -1.37,2.26 -1.62,2.06 -1.87,1.87 -1.87,1.87 L -1.87,1.87 Z"></path></g><g transform="translate(93 109) rotate(0 -19 14)" stroke="none"><path fill="#268bd2" d="M -1.25,-1.25 Q -1.25,-1.25 -1.01,-1.58 -0.77,-1.92 -0.58,-2.06 -0.40,-2.20 -0.20,-2.29 0.00,-2.39 0.23,-2.43 0.46,-2.47 0.68,-2.46 0.91,-2.44 1.13,-2.37 1.35,-2.30 1.55,-2.19 1.74,-2.07 1.91,-1.91 2.07,-1.74 2.19,-1.55 2.30,-1.35 2.37,-1.13 2.44,-0.91 2.46,-0.68 2.47,-0.45 2.43,-0.23 2.39,-0.00 2.29,0.20 2.20,0.40 2.06,0.58 1.92,0.77 0.49,1.85 -0.92,2.93 -2.36,3.98 -3.81,5.03 -7.58,7.95 -11.35,10.88 -15.30,13.85 -19.25,16.83 -23.29,19.27 -27.34,21.71 -30.48,23.58 -33.62,25.45 -35.76,27.06 -37.89,28.67 -39.37,29.69 -40.85,30.71 -40.93,30.92 -41.02,31.13 -41.19,31.21 -41.36,31.30 -41.55,31.34 -41.74,31.38 -41.93,31.38 -42.12,31.38 -42.31,31.33 -42.49,31.28 -42.66,31.18 -42.83,31.09 -42.97,30.96 -43.11,30.83 -43.22,30.67 -43.33,30.51 -43.39,30.33 -43.46,30.15 -43.48,29.95 -43.50,29.76 -43.47,29.57 -43.44,29.38 -43.37,29.20 -43.30,29.02 -43.19,28.87 -43.07,28.71 -42.93,28.59 -42.78,28.46 -41.66,28.17 -40.54,27.88 -40.79,27.96 -41.05,28.03 -40.83,27.97 -40.62,27.91 -40.40,27.90 -40.18,27.89 -39.97,27.94 -39.75,27.98 -39.55,28.08 -39.35,28.17 -39.18,28.32 -39.01,28.46 -38.88,28.63 -38.75,28.81 -38.67,29.01 -38.58,29.22 -38.55,29.43 -38.51,29.65 -38.53,29.87 -38.55,30.09 -38.62,30.30 -38.69,30.51 -38.81,30.69 -38.93,30.88 -39.09,31.03 -39.25,31.18 -39.44,31.29 -39.63,31.40 -40.34,29.47 -41.05,27.55 -39.90,26.54 -38.75,25.54 -36.83,24.14 -34.91,22.74 -32.91,21.30 -30.91,19.85 -25.12,16.07 -19.33,12.28 -14.59,8.98 -9.86,5.69 -6.41,3.15 -2.96,0.62 -0.56,-0.77 1.83,-2.18 2.20,-2.56 2.57,-2.93 2.74,-3.01 2.92,-3.09 3.11,-3.12 3.30,-3.15 3.49,-3.14 3.69,-3.13 3.87,-3.07 4.05,-3.01 4.22,-2.91 4.38,-2.81 4.52,-2.67 4.65,-2.53 4.75,-2.36 4.85,-2.20 4.91,-2.01 4.96,-1.83 4.97,-1.64 4.98,-1.44 4.94,-1.25 4.91,-1.06 4.83,-0.89 4.75,-0.71 4.63,-0.56 4.51,-0.41 4.35,-0.29 4.20,-0.17 2.27,0.75 0.35,1.68 0.07,1.69 -0.20,1.70 -0.46,1.63 -0.73,1.55 -0.96,1.39 -1.19,1.23 -1.35,1.01 -1.52,0.79 -1.61,0.52 -1.69,0.26 -1.69,-0.01 -1.69,-0.29 -1.60,-0.55 -1.51,-0.81 -1.34,-1.03 -1.17,-1.25 -0.93,-1.41 -0.70,-1.56 -0.43,-1.63 -0.17,-1.71 0.10,-1.69 0.38,-1.67 0.64,-1.56 0.89,-1.46 1.10,-1.28 1.32,-1.10 1.46,-0.86 1.60,-0.62 1.65,-0.34 1.71,-0.07 1.68,0.19 1.65,0.47 1.53,0.72 1.41,0.97 1.22,1.17 1.02,1.37 0.78,1.50 0.53,1.63 0.25,1.67 -0.01,1.71 -0.28,1.67 -0.56,1.62 -0.80,1.49 -1.05,1.35 -1.24,1.15 -1.43,0.95 -1.54,0.69 -1.66,0.44 -1.68,0.16 -1.71,-0.10 -1.65,-0.37 -1.59,-0.65 -1.44,-0.88 -1.29,-1.12 -1.08,-1.30 -0.87,-1.48 -0.61,-1.58 -0.35,-1.68 -0.35,-1.68 -0.35,-1.68 1.10,-2.30 2.57,-2.93 2.74,-3.01 2.92,-3.09 3.11,-3.12 3.30,-3.15 3.49,-3.14 3.69,-3.13 3.87,-3.07 4.05,-3.01 4.22,-2.91 4.38,-2.81 4.52,-2.67 4.65,-2.53 4.75,-2.36 4.85,-2.20 4.91,-2.01 4.96,-1.83 4.97,-1.64 4.98,-1.44 4.94,-1.25 4.91,-1.06 4.83,-0.89 4.75,-0.71 4.63,-0.56 4.51,-0.41 4.35,-0.29 4.20,-0.17 3.74,0.04 3.28,0.26 1.03,1.61 -1.22,2.97 -4.66,5.57 -8.11,8.17 -12.83,11.55 -17.56,14.94 -23.20,18.74 -28.84,22.55 -30.73,24.09 -32.62,25.63 -34.45,27.20 -36.28,28.77 -37.18,29.34 -38.08,29.90 -39.56,28.97 -41.05,28.03 -40.83,27.97 -40.62,27.91 -40.40,27.90 -40.18,27.89 -39.97,27.94 -39.75,27.98 -39.55,28.08 -39.35,28.17 -39.18,28.32 -39.01,28.46 -38.88,28.63 -38.75,28.81 -38.67,29.01 -38.58,29.22 -38.55,29.43 -38.51,29.65 -38.53,29.87 -38.55,30.09 -38.62,30.30 -38.69,30.51 -38.81,30.69 -38.93,30.88 -39.09,31.03 -39.25,31.18 -39.44,31.29 -39.63,31.40 -40.32,31.26 -41.02,31.13 -41.19,31.21 -41.36,31.30 -41.55,31.34 -41.74,31.38 -41.93,31.38 -42.12,31.38 -42.31,31.33 -42.49,31.28 -42.66,31.18 -42.83,31.09 -42.97,30.96 -43.11,30.83 -43.22,30.67 -43.33,30.51 -43.39,30.33 -43.46,30.15 -43.48,29.95 -43.50,29.76 -43.47,29.57 -43.44,29.38 -43.37,29.20 -43.30,29.02 -43.19,28.87 -43.07,28.71 -42.93,28.59 -42.78,28.46 -42.74,28.40 -42.69,28.33 -41.16,27.36 -39.63,26.39 -37.39,24.67 -35.15,22.94 -32.05,21.02 -28.94,19.10 -25.08,16.69 -21.21,14.27 -17.36,11.23 -13.50,8.19 -9.74,5.08 -5.98,1.97 -4.58,1.00 -3.19,0.02 -1.98,-0.94 -0.77,-1.92 -0.58,-2.06 -0.40,-2.20 -0.20,-2.29 0.00,-2.39 0.23,-2.43 0.45,-2.47 0.68,-2.46 0.91,-2.44 1.13,-2.37 1.35,-2.30 1.55,-2.19 1.74,-2.07 1.91,-1.91 2.07,-1.74 2.19,-1.55 2.30,-1.35 2.37,-1.13 2.44,-0.91 2.46,-0.68 2.47,-0.46 2.43,-0.23 2.39,-0.00 2.29,0.20 2.20,0.40 2.06,0.58 1.92,0.77 1.58,1.01 1.25,1.25 1.08,1.38 0.91,1.51 0.72,1.60 0.52,1.69 0.31,1.73 0.10,1.76 -0.10,1.75 -0.31,1.74 -0.52,1.67 -0.72,1.61 -0.91,1.50 -1.09,1.39 -1.24,1.24 -1.39,1.09 -1.50,0.91 -1.61,0.72 -1.67,0.52 -1.74,0.31 -1.75,0.10 -1.76,-0.10 -1.73,-0.31 -1.69,-0.52 -1.60,-0.72 -1.51,-0.91 -1.38,-1.08 -1.25,-1.25 -1.25,-1.25 L -1.25,-1.25 Z"></path></g></svg>