<svg version="1.1" xmlns="http://www.w3.org/2000/svg" viewBox="0 0 523 243.5" width="523" height="243.5">
  <!-- svg-source:excalidraw -->
  
  <defs>
    <style class="style-fonts">
      @font-face {
        font-family: "Virgil";
        src: url("https://excalidraw.com/Virgil.woff2");
      }
      @font-face {
        font-family: "Cascadia";
        src: url("https://excalidraw.com/Cascadia.woff2");
      }
    </style>
  </defs>
  <g transform="translate(92 224.5) rotate(0 -39.5 -67)" stroke="none"><path fill="#586e75" d="M 1.23,-1.23 Q 1.23,-1.23 1.87,-0.72 2.51,-0.21 2.65,-0.03 2.80,0.15 2.89,0.36 2.99,0.57 3.03,0.80 3.07,1.03 3.06,1.26 3.04,1.49 2.97,1.72 2.91,1.94 2.79,2.14 2.66,2.34 2.50,2.50 2.34,2.66 2.14,2.79 1.94,2.91 1.72,2.97 1.49,3.04 1.26,3.06 1.03,3.07 0.80,3.03 0.57,2.99 0.36,2.89 0.15,2.80 -0.03,2.65 -0.21,2.51 -3.44,-3.26 -6.66,-9.04 -10.87,-16.58 -15.07,-24.13 -26.31,-41.68 -37.55,-59.22 -47.21,-73.88 -56.87,-88.54 -63.29,-98.82 -69.70,-109.10 -73.31,-116.69 -76.93,-124.29 -78.74,-128.06 -80.54,-131.83 -81.40,-133.10 -82.26,-134.37 -82.32,-134.55 -82.38,-134.73 -82.40,-134.92 -82.41,-135.11 -82.39,-135.29 -82.36,-135.48 -82.28,-135.65 -82.21,-135.82 -82.10,-135.97 -81.99,-136.13 -81.84,-136.25 -81.70,-136.36 -81.53,-136.45 -81.36,-136.53 -81.17,-136.57 -80.99,-136.60 -80.80,-136.60 -80.61,-136.59 -80.43,-136.54 -80.25,-136.49 -80.09,-136.40 -79.93,-136.30 -79.79,-136.17 -79.65,-136.04 -79.55,-135.88 -79.45,-135.73 -78.20,-133.74 -76.95,-131.76 -75.78,-130.03 -74.60,-128.31 -69.80,-121.25 -64.99,-114.19 -57.78,-103.71 -50.57,-93.24 -42.89,-81.59 -35.22,-69.93 -26.48,-54.89 -17.74,-39.85 -13.43,-30.54 -9.12,-21.23 -7.29,-16.39 -5.45,-11.55 -4.94,-9.13 -4.42,-6.70 -4.10,-6.03 -3.78,-5.35 -3.77,-5.16 -3.75,-4.98 -3.78,-4.79 -3.81,-4.61 -3.88,-4.43 -3.95,-4.26 -4.06,-4.11 -4.18,-3.96 -4.32,-3.84 -4.47,-3.72 -4.63,-3.64 -4.80,-3.56 -4.99,-3.52 -5.17,-3.49 -5.36,-3.49 -5.54,-3.50 -5.72,-3.55 -5.90,-3.60 -6.06,-3.69 -6.23,-3.79 -6.36,-3.92 -6.50,-4.04 -6.60,-4.20 -6.70,-4.36 -6.76,-4.54 -6.82,-4.71 -6.34,-5.84 -5.85,-6.97 -6.23,-8.20 -6.61,-9.43 -6.66,-9.71 -6.71,-9.98 -6.66,-10.25 -6.62,-10.53 -6.49,-10.77 -6.37,-11.02 -6.17,-11.21 -5.97,-11.40 -5.72,-11.52 -5.47,-11.64 -5.19,-11.67 -4.92,-11.70 -4.65,-11.65 -4.38,-11.59 -4.14,-11.45 -3.90,-11.31 -3.72,-11.10 -3.54,-10.89 -3.43,-10.63 -3.33,-10.38 -3.31,-10.10 -3.29,-9.82 -3.36,-9.56 -3.44,-9.29 -3.59,-9.06 -3.74,-8.83 -3.96,-8.66 -4.18,-8.49 -4.44,-8.40 -4.70,-8.31 -4.98,-8.31 -5.26,-8.30 -5.52,-8.39 -5.78,-8.48 -6.01,-8.64 -6.23,-8.81 -6.38,-9.04 -6.54,-9.26 -6.62,-9.53 -6.69,-9.80 -6.68,-10.07 -6.67,-10.35 -6.57,-10.61 -6.47,-10.86 -6.29,-11.08 -6.11,-11.29 -5.88,-11.43 -5.64,-11.58 -5.37,-11.64 -5.10,-11.70 -4.83,-11.67 -4.55,-11.65 -4.30,-11.53 -4.05,-11.42 -3.84,-11.23 -3.64,-11.04 -3.51,-10.80 -3.38,-10.55 -3.38,-10.55 -3.38,-10.56 -3.58,-7.95 -3.78,-5.35 -3.77,-5.16 -3.75,-4.98 -3.78,-4.79 -3.81,-4.61 -3.88,-4.43 -3.95,-4.26 -4.06,-4.11 -4.18,-3.96 -4.32,-3.84 -4.46,-3.72 -4.63,-3.64 -4.80,-3.56 -4.99,-3.52 -5.17,-3.49 -5.36,-3.49 -5.54,-3.50 -5.72,-3.55 -5.90,-3.60 -6.06,-3.69 -6.23,-3.79 -6.36,-3.92 -6.50,-4.04 -6.60,-4.20 -6.70,-4.36 -6.76,-4.54 -6.82,-4.71 -6.91,-5.44 -7.00,-6.16 -7.46,-8.39 -7.92,-10.62 -9.72,-15.37 -11.52,-20.12 -15.78,-29.32 -20.03,-38.52 -28.74,-53.49 -37.44,-68.47 -45.10,-80.09 -52.77,-91.72 -59.99,-102.20 -67.22,-112.67 -72.03,-119.73 -76.85,-126.78 -78.01,-128.51 -79.17,-130.23 -80.72,-132.30 -82.26,-134.37 -82.32,-134.55 -82.38,-134.73 -82.40,-134.92 -82.41,-135.11 -82.39,-135.29 -82.36,-135.48 -82.28,-135.65 -82.21,-135.82 -82.10,-135.97 -81.99,-136.13 -81.84,-136.25 -81.70,-136.36 -81.53,-136.45 -81.36,-136.53 -81.17,-136.57 -80.99,-136.60 -80.80,-136.60 -80.61,-136.59 -80.43,-136.54 -80.25,-136.49 -80.09,-136.40 -79.93,-136.30 -79.79,-136.17 -79.65,-136.04 -79.55,-135.89 -79.45,-135.73 -78.77,-134.37 -78.09,-133.01 -76.27,-129.24 -74.45,-125.47 -70.88,-118.03 -67.32,-110.58 -60.90,-100.35 -54.48,-90.12 -44.77,-75.47 -35.06,-60.82 -23.73,-43.23 -12.39,-25.64 -8.12,-18.16 -3.85,-10.67 -0.67,-5.44 2.51,-0.21 2.65,-0.03 2.80,0.15 2.89,0.36 2.99,0.57 3.03,0.80 3.07,1.03 3.06,1.26 3.04,1.49 2.97,1.72 2.91,1.94 2.79,2.14 2.66,2.34 2.50,2.50 2.34,2.66 2.14,2.79 1.94,2.91 1.72,2.97 1.49,3.04 1.26,3.06 1.03,3.07 0.80,3.03 0.57,2.99 0.36,2.89 0.15,2.80 -0.03,2.65 -0.21,2.51 -0.72,1.87 -1.23,1.23 -1.35,1.06 -1.48,0.89 -1.57,0.70 -1.66,0.51 -1.69,0.31 -1.73,0.10 -1.72,-0.10 -1.71,-0.31 -1.64,-0.51 -1.58,-0.71 -1.47,-0.89 -1.36,-1.07 -1.22,-1.22 -1.07,-1.36 -0.89,-1.47 -0.71,-1.58 -0.51,-1.64 -0.31,-1.71 -0.10,-1.72 0.10,-1.73 0.31,-1.69 0.51,-1.66 0.70,-1.57 0.90,-1.48 1.06,-1.35 1.23,-1.22 1.23,-1.22 L 1.23,-1.23 Z"></path></g><g transform="translate(16 86.5) rotate(0 70.5 -34)" stroke="none"><path fill="#586e75" d="M -0.74,-1.61 Q -0.74,-1.61 3.01,-3.28 6.78,-4.95 17.02,-9.38 27.27,-13.82 41.39,-20.28 55.50,-26.74 71.82,-35.50 88.14,-44.26 100.58,-50.58 113.01,-56.90 120.31,-60.44 127.62,-63.99 131.29,-65.78 134.97,-67.56 136.38,-68.18 137.79,-68.79 137.91,-68.75 138.03,-68.71 138.22,-68.76 138.42,-68.80 138.63,-68.80 138.83,-68.80 139.03,-68.75 139.23,-68.70 139.41,-68.61 139.59,-68.51 139.74,-68.38 139.89,-68.24 140.01,-68.07 140.12,-67.90 140.20,-67.71 140.27,-67.52 140.29,-67.32 140.32,-67.11 140.29,-66.91 140.26,-66.71 140.19,-66.52 140.12,-66.33 140.00,-66.16 139.88,-65.99 139.73,-65.86 139.58,-65.72 139.40,-65.63 139.21,-65.53 135.94,-63.21 132.66,-60.90 124.02,-56.48 115.38,-52.07 101.36,-45.33 87.34,-38.60 73.90,-32.30 60.46,-26.00 49.01,-20.46 37.55,-14.92 28.64,-10.84 19.73,-6.76 14.20,-4.45 8.67,-2.14 6.38,-0.91 4.10,0.32 2.19,0.95 0.28,1.58 0.02,1.59 -0.23,1.59 -0.48,1.51 -0.73,1.43 -0.94,1.28 -1.15,1.13 -1.30,0.91 -1.45,0.70 -1.52,0.45 -1.60,0.20 -1.59,-0.05 -1.58,-0.31 -1.49,-0.56 -1.39,-0.80 -1.23,-1.00 -1.06,-1.21 -0.84,-1.34 -0.62,-1.48 -0.37,-1.54 -0.11,-1.60 0.14,-1.58 0.40,-1.56 0.64,-1.45 0.88,-1.35 1.07,-1.17 1.26,-0.99 1.39,-0.77 1.52,-0.54 1.56,-0.28 1.61,-0.02 1.57,0.22 1.53,0.48 1.42,0.72 1.30,0.95 1.11,1.13 0.92,1.31 0.69,1.43 0.45,1.54 0.20,1.58 -0.05,1.61 -0.31,1.56 -0.57,1.50 -0.79,1.37 -1.02,1.24 -1.19,1.05 -1.36,0.85 -1.46,0.61 -1.56,0.37 -1.58,0.11 -1.60,-0.14 -1.54,-0.39 -1.47,-0.65 -1.33,-0.87 -1.19,-1.08 -0.98,-1.25 -0.78,-1.41 -0.53,-1.50 -0.28,-1.58 -0.28,-1.58 -0.28,-1.58 1.26,-1.83 2.80,-2.07 5.20,-3.38 7.60,-4.69 13.07,-7.00 18.55,-9.32 27.42,-13.42 36.29,-17.52 47.74,-23.11 59.19,-28.70 72.59,-35.05 85.98,-41.40 99.92,-48.20 113.86,-55.00 122.30,-59.44 130.74,-63.88 133.09,-65.48 135.44,-67.09 136.73,-67.90 138.03,-68.71 138.22,-68.76 138.42,-68.80 138.63,-68.80 138.83,-68.80 139.03,-68.75 139.23,-68.70 139.41,-68.61 139.59,-68.51 139.74,-68.38 139.89,-68.24 140.01,-68.07 140.12,-67.90 140.20,-67.71 140.27,-67.52 140.29,-67.32 140.32,-67.11 140.29,-66.91 140.26,-66.71 140.19,-66.52 140.12,-66.33 140.00,-66.16 139.88,-65.99 139.73,-65.86 139.58,-65.72 139.40,-65.63 139.21,-65.53 138.82,-65.66 138.43,-65.80 137.30,-65.45 136.17,-65.11 132.50,-63.31 128.83,-61.50 121.56,-57.94 114.29,-54.39 101.90,-48.05 89.51,-41.71 73.13,-32.87 56.75,-24.03 42.64,-17.49 28.52,-10.95 18.34,-6.45 8.16,-1.94 4.45,-0.16 0.74,1.61 0.54,1.68 0.33,1.75 0.12,1.76 -0.09,1.78 -0.30,1.74 -0.51,1.70 -0.71,1.62 -0.90,1.53 -1.07,1.40 -1.24,1.27 -1.38,1.10 -1.51,0.93 -1.60,0.74 -1.69,0.54 -1.73,0.33 -1.77,0.12 -1.76,-0.09 -1.75,-0.30 -1.69,-0.51 -1.63,-0.71 -1.52,-0.90 -1.41,-1.08 -1.26,-1.23 -1.11,-1.39 -0.92,-1.50 -0.74,-1.61 -0.74,-1.61 L -0.74,-1.61 Z"></path></g><g transform="translate(96 224.5) rotate(0 30.5 -99)" stroke="none"><path fill="#586e75" d="M -1.51,-0.50 Q -1.51,-0.50 0.24,-5.66 2.00,-10.83 5.05,-21.89 8.10,-32.95 12.00,-46.31 15.90,-59.66 23.32,-80.32 30.75,-100.98 37.35,-120.08 43.95,-139.19 48.19,-153.89 52.42,-168.59 54.51,-177.12 56.60,-185.66 58.15,-191.98 59.70,-198.31 59.78,-198.51 59.87,-198.71 60.01,-198.87 60.15,-199.03 60.34,-199.14 60.53,-199.25 60.74,-199.29 60.95,-199.33 61.17,-199.30 61.38,-199.27 61.58,-199.18 61.77,-199.08 61.92,-198.93 62.08,-198.78 62.17,-198.59 62.27,-198.39 62.30,-198.18 62.33,-197.96 62.29,-197.75 62.25,-197.54 62.15,-197.35 62.04,-197.16 61.88,-197.02 61.72,-196.87 61.52,-196.79 61.32,-196.70 61.11,-196.68 60.89,-196.66 60.68,-196.71 60.47,-196.77 60.29,-196.88 60.11,-197.00 59.97,-197.16 59.84,-197.33 59.76,-197.54 59.68,-197.74 59.68,-197.95 59.67,-198.17 59.73,-198.38 59.80,-198.58 59.92,-198.76 60.05,-198.94 60.22,-199.06 60.40,-199.19 60.60,-199.25 60.81,-199.32 61.03,-199.31 61.24,-199.31 61.44,-199.23 61.65,-199.16 61.82,-199.03 61.99,-198.89 62.10,-198.71 62.22,-198.53 62.27,-198.32 62.33,-198.11 62.31,-197.89 62.29,-197.68 62.29,-197.68 62.29,-197.68 60.75,-191.35 59.21,-185.02 57.12,-176.43 55.03,-167.84 50.79,-153.06 46.54,-138.29 39.96,-119.17 33.37,-100.04 26.00,-79.45 18.63,-58.87 14.78,-45.52 10.93,-32.18 7.91,-21.02 4.89,-9.86 3.20,-4.68 1.51,0.50 1.43,0.68 1.35,0.85 1.23,1.00 1.10,1.15 0.95,1.27 0.80,1.38 0.62,1.46 0.44,1.53 0.25,1.56 0.06,1.59 -0.12,1.58 -0.31,1.56 -0.50,1.50 -0.68,1.44 -0.84,1.34 -1.01,1.24 -1.14,1.10 -1.27,0.96 -1.37,0.79 -1.47,0.62 -1.52,0.44 -1.58,0.25 -1.58,0.06 -1.59,-0.12 -1.55,-0.31 -1.51,-0.50 -1.51,-0.50 L -1.51,-0.50 Z"></path></g><g transform="translate(158 19.5) rotate(0 -31 106.5)" stroke="none"><path fill="#586e75" d="M 1.53,0.27 Q 1.53,0.27 0.92,3.43 0.32,6.59 -1.67,15.43 -3.67,24.27 -6.83,36.38 -9.99,48.48 -15.94,69.44 -21.89,90.40 -27.59,109.95 -33.28,129.49 -37.72,143.27 -42.16,157.06 -46.07,168.66 -49.97,180.27 -52.78,188.65 -55.58,197.03 -57.06,201.73 -58.54,206.43 -59.48,208.76 -60.41,211.10 -61.03,212.82 -61.65,214.53 -61.77,214.73 -61.89,214.93 -62.07,215.09 -62.25,215.24 -62.47,215.32 -62.69,215.41 -62.92,215.42 -63.15,215.43 -63.38,215.37 -63.61,215.31 -63.80,215.18 -63.99,215.04 -64.13,214.86 -64.28,214.67 -64.35,214.45 -64.42,214.23 -64.42,213.99 -64.42,213.76 -64.35,213.54 -64.27,213.31 -64.13,213.13 -63.99,212.94 -63.79,212.81 -63.60,212.68 -63.38,212.62 -63.15,212.56 -62.92,212.57 -62.68,212.58 -62.46,212.67 -62.25,212.76 -62.07,212.91 -61.89,213.06 -61.77,213.26 -61.65,213.46 -61.60,213.69 -61.55,213.92 -61.57,214.15 -61.60,214.38 -61.70,214.60 -61.80,214.81 -61.96,214.98 -62.12,215.15 -62.33,215.26 -62.54,215.37 -62.77,215.41 -63.00,215.44 -63.23,215.40 -63.46,215.37 -63.67,215.26 -63.87,215.15 -64.03,214.98 -64.19,214.81 -64.29,214.59 -64.39,214.38 -64.42,214.15 -64.44,213.91 -64.39,213.69 -64.34,213.46 -64.34,213.46 -64.34,213.46 -63.60,211.79 -62.87,210.12 -61.97,207.88 -61.07,205.63 -59.59,200.91 -58.11,196.18 -55.31,187.80 -52.51,179.42 -48.62,167.82 -44.73,156.23 -40.32,142.48 -35.90,128.73 -30.23,109.19 -24.55,89.65 -18.64,68.71 -12.72,47.78 -9.61,35.71 -6.49,23.64 -4.55,14.85 -2.62,6.05 -2.07,2.88 -1.53,-0.27 -1.48,-0.45 -1.42,-0.63 -1.32,-0.80 -1.23,-0.96 -1.09,-1.09 -0.96,-1.22 -0.80,-1.32 -0.64,-1.42 -0.46,-1.47 -0.28,-1.53 -0.09,-1.54 0.09,-1.55 0.27,-1.52 0.46,-1.49 0.63,-1.41 0.80,-1.33 0.95,-1.22 1.10,-1.10 1.21,-0.95 1.33,-0.80 1.41,-0.63 1.49,-0.46 1.52,-0.28 1.55,-0.09 1.54,0.09 1.53,0.27 1.53,0.27 L 1.53,0.27 Z"></path></g><g transform="translate(161 29.5) rotate(0 42.5 71)" stroke="none"><path fill="#586e75" d="M -1.63,0.54 Q -1.63,0.54 -2.21,-1.17 -2.80,-2.89 -2.85,-3.10 -2.89,-3.31 -2.88,-3.52 -2.87,-3.73 -2.81,-3.93 -2.75,-4.13 -2.65,-4.31 -2.54,-4.50 -2.40,-4.65 -2.25,-4.80 -2.07,-4.91 -1.89,-5.03 -1.69,-5.09 -1.49,-5.16 -1.28,-5.18 -1.07,-5.19 -0.87,-5.16 -0.66,-5.13 -0.46,-5.04 -0.27,-4.96 -0.10,-4.83 0.06,-4.71 0.19,-4.54 0.32,-4.38 0.41,-4.19 0.50,-4.00 4.08,2.01 7.65,8.03 14.76,20.75 21.87,33.46 30.90,49.21 39.93,64.96 51.80,84.88 63.67,104.79 70.73,117.02 77.79,129.24 80.20,134.43 82.62,139.62 82.69,139.78 82.75,139.94 82.78,140.10 82.81,140.27 82.80,140.44 82.78,140.61 82.73,140.77 82.67,140.93 82.58,141.08 82.49,141.22 82.37,141.34 82.25,141.45 82.10,141.54 81.96,141.63 81.79,141.67 81.63,141.72 81.46,141.73 81.29,141.73 81.12,141.70 80.96,141.67 80.80,141.59 80.65,141.52 80.52,141.41 80.39,141.31 80.28,141.17 80.18,141.04 79.42,140.21 78.66,139.39 77.49,137.15 76.32,134.90 75.43,133.34 74.54,131.78 74.45,131.53 74.37,131.28 74.36,131.01 74.36,130.74 74.45,130.49 74.53,130.23 74.69,130.02 74.85,129.81 75.07,129.65 75.29,129.50 75.54,129.43 75.80,129.35 76.07,129.37 76.34,129.38 76.58,129.47 76.83,129.57 77.04,129.74 77.24,129.91 77.38,130.14 77.52,130.37 77.58,130.63 77.64,130.89 77.62,131.16 77.59,131.42 77.48,131.67 77.37,131.91 77.19,132.11 77.01,132.30 76.77,132.43 76.54,132.56 76.27,132.60 76.01,132.65 75.75,132.61 75.48,132.57 75.24,132.44 75.01,132.32 74.82,132.13 74.64,131.93 74.52,131.69 74.41,131.45 74.38,131.19 74.34,130.92 74.40,130.66 74.45,130.40 74.59,130.17 74.73,129.94 74.93,129.76 75.13,129.59 75.38,129.49 75.63,129.38 75.89,129.37 76.16,129.35 76.42,129.42 76.68,129.49 76.90,129.64 77.12,129.79 77.28,130.00 77.45,130.21 77.45,130.21 77.45,130.21 78.27,131.80 79.09,133.39 80.24,135.41 81.38,137.43 82.00,138.53 82.62,139.62 82.69,139.78 82.75,139.94 82.78,140.10 82.81,140.27 82.80,140.44 82.78,140.61 82.73,140.77 82.67,140.93 82.58,141.08 82.49,141.22 82.37,141.34 82.25,141.45 82.10,141.54 81.96,141.63 81.79,141.67 81.63,141.72 81.46,141.73 81.29,141.73 81.12,141.70 80.96,141.67 80.80,141.59 80.65,141.52 80.52,141.42 80.39,141.31 80.29,141.17 80.18,141.04 77.74,135.86 75.29,130.68 68.20,118.51 61.11,106.33 49.17,86.42 37.23,66.52 28.11,50.80 18.99,35.09 11.80,22.48 4.61,9.87 0.90,3.48 -2.80,-2.89 -2.85,-3.10 -2.89,-3.30 -2.88,-3.52 -2.87,-3.73 -2.81,-3.93 -2.75,-4.13 -2.65,-4.31 -2.54,-4.50 -2.40,-4.65 -2.25,-4.80 -2.07,-4.91 -1.89,-5.03 -1.69,-5.09 -1.49,-5.16 -1.28,-5.18 -1.07,-5.19 -0.87,-5.16 -0.66,-5.13 -0.46,-5.04 -0.27,-4.96 -0.10,-4.83 0.06,-4.71 0.19,-4.54 0.32,-4.38 0.41,-4.19 0.50,-4.00 1.06,-2.27 1.63,-0.54 1.67,-0.34 1.71,-0.13 1.70,0.06 1.69,0.27 1.63,0.47 1.58,0.67 1.47,0.85 1.37,1.03 1.22,1.18 1.08,1.33 0.91,1.44 0.73,1.55 0.53,1.61 0.34,1.68 0.13,1.70 -0.07,1.71 -0.27,1.68 -0.47,1.65 -0.66,1.56 -0.85,1.48 -1.02,1.36 -1.19,1.23 -1.32,1.07 -1.45,0.91 -1.54,0.73 -1.63,0.54 -1.63,0.54 L -1.63,0.54 Z"></path></g><g transform="translate(237 155.5) rotate(0 -42 -70.5)" stroke="none"><path fill="#586e75" d="M -1.25,1.00 Q -1.25,1.00 -2.42,-0.41 -3.59,-1.84 -8.15,-10.65 -12.71,-19.47 -20.91,-34.07 -29.11,-48.67 -37.19,-62.35 -45.26,-76.03 -54.43,-91.05 -63.61,-106.06 -68.96,-115.93 -74.31,-125.80 -76.85,-130.26 -79.39,-134.71 -81.00,-136.83 -82.61,-138.95 -83.85,-140.55 -85.10,-142.16 -85.20,-142.35 -85.31,-142.55 -85.34,-142.77 -85.38,-142.99 -85.34,-143.22 -85.31,-143.44 -85.20,-143.63 -85.10,-143.83 -84.94,-143.99 -84.77,-144.14 -84.57,-144.24 -84.37,-144.33 -84.14,-144.35 -83.92,-144.38 -83.70,-144.33 -83.48,-144.28 -83.29,-144.17 -83.10,-144.05 -82.95,-143.88 -82.81,-143.71 -82.73,-143.50 -82.64,-143.29 -82.63,-143.07 -82.62,-142.85 -82.68,-142.63 -82.74,-142.41 -82.86,-142.23 -82.99,-142.04 -83.17,-141.91 -83.35,-141.77 -83.56,-141.70 -83.77,-141.63 -83.99,-141.63 -84.22,-141.63 -84.43,-141.70 -84.64,-141.77 -84.82,-141.91 -85.00,-142.04 -85.13,-142.23 -85.25,-142.41 -85.31,-142.63 -85.37,-142.85 -85.36,-143.07 -85.35,-143.29 -85.26,-143.50 -85.18,-143.71 -85.04,-143.88 -84.89,-144.05 -84.70,-144.17 -84.51,-144.28 -84.29,-144.33 -84.07,-144.38 -83.85,-144.35 -83.62,-144.33 -83.42,-144.24 -83.22,-144.14 -83.06,-143.99 -82.89,-143.83 -82.89,-143.83 -82.89,-143.83 -81.68,-142.21 -80.46,-140.58 -78.75,-138.33 -77.03,-136.07 -74.45,-131.60 -71.88,-127.12 -66.54,-117.33 -61.20,-107.53 -51.99,-92.52 -42.77,-77.51 -34.64,-63.82 -26.51,-50.14 -18.22,-35.53 -9.94,-20.91 -5.47,-12.41 -1.00,-3.90 0.12,-2.45 1.25,-1.00 1.35,-0.84 1.46,-0.67 1.52,-0.49 1.57,-0.30 1.59,-0.11 1.60,0.08 1.57,0.27 1.54,0.46 1.46,0.64 1.38,0.81 1.26,0.97 1.14,1.12 0.99,1.24 0.84,1.36 0.67,1.45 0.49,1.53 0.30,1.56 0.11,1.60 -0.08,1.59 -0.27,1.58 -0.45,1.52 -0.64,1.47 -0.81,1.37 -0.97,1.27 -1.11,1.14 -1.25,1.00 -1.25,1.00 L -1.25,1.00 Z"></path></g><g transform="translate(97 233.5) rotate(0 74.5 -36)" stroke="none"><path fill="#586e75" d="M -0.86,-1.34 Q -0.86,-1.34 3.18,-3.90 7.22,-6.45 13.65,-9.30 20.07,-12.16 25.92,-14.78 31.77,-17.39 49.50,-25.40 67.22,-33.41 88.54,-43.70 109.86,-53.99 120.94,-59.51 132.01,-65.03 136.42,-67.37 140.83,-69.71 144.10,-71.44 147.37,-73.17 147.57,-73.24 147.78,-73.31 147.99,-73.31 148.21,-73.31 148.41,-73.24 148.62,-73.18 148.79,-73.05 148.96,-72.91 149.08,-72.74 149.21,-72.56 149.26,-72.35 149.32,-72.14 149.31,-71.93 149.30,-71.71 149.22,-71.51 149.14,-71.31 149.00,-71.14 148.86,-70.98 148.68,-70.87 148.49,-70.75 148.28,-70.71 148.07,-70.66 147.85,-70.68 147.64,-70.71 147.44,-70.80 147.25,-70.89 147.09,-71.04 146.93,-71.19 146.83,-71.38 146.73,-71.57 146.69,-71.78 146.66,-71.99 146.69,-72.21 146.73,-72.42 146.83,-72.61 146.93,-72.80 147.09,-72.95 147.24,-73.10 147.44,-73.19 147.64,-73.28 147.85,-73.31 148.07,-73.33 148.28,-73.28 148.49,-73.24 148.67,-73.12 148.86,-73.01 149.00,-72.85 149.14,-72.68 149.22,-72.48 149.30,-72.28 149.31,-72.07 149.32,-71.85 149.27,-71.64 149.21,-71.44 149.09,-71.26 148.97,-71.08 148.79,-70.95 148.62,-70.82 148.62,-70.82 148.62,-70.82 145.36,-69.07 142.09,-67.33 137.66,-64.97 133.22,-62.61 122.14,-57.06 111.06,-51.52 89.72,-41.19 68.37,-30.87 50.66,-22.83 32.94,-14.80 27.10,-12.14 21.27,-9.48 15.07,-6.68 8.87,-3.89 4.86,-1.27 0.86,1.34 0.69,1.43 0.51,1.51 0.32,1.55 0.14,1.59 -0.05,1.58 -0.24,1.58 -0.43,1.53 -0.61,1.47 -0.78,1.38 -0.95,1.28 -1.09,1.15 -1.23,1.02 -1.33,0.85 -1.44,0.69 -1.50,0.51 -1.56,0.33 -1.58,0.13 -1.60,-0.05 -1.57,-0.24 -1.54,-0.43 -1.46,-0.61 -1.39,-0.79 -1.27,-0.94 -1.16,-1.10 -1.01,-1.22 -0.86,-1.34 -0.86,-1.34 L -0.86,-1.34 Z"></path></g><g transform="translate(230 172.5) rotate(0 -67 27.5)" stroke="none"><path fill="#586e75" d="M 0.64,1.53 Q 0.64,1.53 -4.83,3.78 -10.31,6.04 -19.55,9.86 -28.79,13.68 -41.36,18.47 -53.93,23.25 -69.04,29.30 -84.14,35.34 -96.02,40.20 -107.90,45.07 -115.24,48.27 -122.58,51.48 -124.83,52.55 -127.07,53.61 -128.72,54.46 -130.37,55.31 -130.59,55.38 -130.82,55.44 -131.05,55.43 -131.29,55.42 -131.51,55.34 -131.73,55.25 -131.91,55.10 -132.09,54.95 -132.22,54.75 -132.34,54.55 -132.40,54.32 -132.45,54.09 -132.43,53.86 -132.40,53.62 -132.31,53.41 -132.21,53.19 -132.05,53.02 -131.89,52.85 -131.69,52.73 -131.48,52.62 -131.25,52.58 -131.01,52.54 -130.78,52.57 -130.55,52.61 -130.34,52.72 -130.13,52.82 -129.96,52.99 -129.80,53.16 -129.70,53.37 -129.60,53.59 -129.57,53.82 -129.54,54.06 -129.59,54.29 -129.63,54.52 -129.75,54.72 -129.87,54.92 -130.05,55.08 -130.23,55.23 -130.45,55.32 -130.66,55.41 -130.90,55.43 -131.13,55.45 -131.36,55.39 -131.59,55.33 -131.79,55.20 -131.98,55.07 -132.13,54.88 -132.27,54.69 -132.35,54.47 -132.43,54.25 -132.43,54.01 -132.44,53.78 -132.36,53.55 -132.29,53.33 -132.15,53.14 -132.01,52.95 -131.82,52.81 -131.62,52.68 -131.62,52.68 -131.62,52.68 -129.93,51.93 -128.24,51.18 -125.96,50.08 -123.68,48.98 -116.32,45.74 -108.96,42.50 -97.07,37.61 -85.19,32.72 -70.08,26.63 -54.97,20.55 -42.45,15.73 -29.94,10.92 -20.73,7.03 -11.53,3.15 -6.08,0.81 -0.64,-1.53 -0.45,-1.58 -0.25,-1.64 -0.05,-1.65 0.14,-1.65 0.33,-1.61 0.53,-1.57 0.71,-1.48 0.89,-1.40 1.05,-1.27 1.20,-1.14 1.32,-0.98 1.44,-0.82 1.52,-0.64 1.60,-0.45 1.63,-0.25 1.66,-0.05 1.64,0.14 1.62,0.33 1.56,0.52 1.50,0.71 1.39,0.88 1.28,1.05 1.13,1.19 0.99,1.33 0.81,1.43 0.64,1.53 0.64,1.53 L 0.64,1.53 Z"></path></g><g transform="translate(357 222) rotate(0 -39.5 -67)" stroke="none"><path fill="#586e75" d="M 1.23,-1.23 Q 1.23,-1.23 1.87,-0.72 2.51,-0.21 2.65,-0.03 2.80,0.15 2.89,0.36 2.99,0.57 3.03,0.80 3.07,1.03 3.06,1.26 3.04,1.49 2.97,1.72 2.91,1.94 2.79,2.14 2.66,2.34 2.50,2.50 2.34,2.66 2.14,2.79 1.94,2.91 1.72,2.97 1.49,3.04 1.26,3.06 1.03,3.07 0.80,3.03 0.57,2.99 0.36,2.89 0.15,2.80 -0.03,2.65 -0.21,2.51 -3.44,-3.26 -6.66,-9.04 -10.87,-16.58 -15.07,-24.13 -26.31,-41.68 -37.55,-59.22 -47.21,-73.88 -56.87,-88.54 -63.29,-98.82 -69.70,-109.10 -73.31,-116.69 -76.93,-124.29 -78.74,-128.06 -80.54,-131.83 -81.40,-133.10 -82.26,-134.37 -82.32,-134.55 -82.38,-134.73 -82.40,-134.92 -82.41,-135.11 -82.39,-135.29 -82.36,-135.48 -82.28,-135.65 -82.21,-135.82 -82.10,-135.97 -81.99,-136.13 -81.84,-136.25 -81.70,-136.36 -81.53,-136.45 -81.36,-136.53 -81.17,-136.57 -80.99,-136.60 -80.80,-136.60 -80.61,-136.59 -80.43,-136.54 -80.25,-136.49 -80.09,-136.40 -79.93,-136.30 -79.79,-136.17 -79.65,-136.04 -79.55,-135.88 -79.45,-135.73 -78.20,-133.74 -76.95,-131.76 -75.78,-130.03 -74.60,-128.31 -69.80,-121.25 -64.99,-114.19 -57.78,-103.71 -50.57,-93.24 -42.89,-81.59 -35.22,-69.93 -26.48,-54.89 -17.74,-39.85 -13.43,-30.54 -9.12,-21.23 -7.29,-16.39 -5.45,-11.55 -4.94,-9.13 -4.42,-6.70 -4.10,-6.03 -3.78,-5.35 -3.77,-5.16 -3.75,-4.98 -3.78,-4.79 -3.81,-4.61 -3.88,-4.43 -3.95,-4.26 -4.06,-4.11 -4.18,-3.96 -4.32,-3.84 -4.47,-3.72 -4.63,-3.64 -4.80,-3.56 -4.99,-3.52 -5.17,-3.49 -5.36,-3.49 -5.54,-3.50 -5.72,-3.55 -5.90,-3.60 -6.06,-3.69 -6.23,-3.79 -6.36,-3.92 -6.50,-4.04 -6.60,-4.20 -6.70,-4.36 -6.76,-4.54 -6.82,-4.71 -6.34,-5.84 -5.85,-6.97 -6.14,-8.01 -6.42,-9.06 -6.46,-9.32 -6.51,-9.58 -6.47,-9.85 -6.43,-10.11 -6.30,-10.35 -6.18,-10.59 -5.99,-10.77 -5.80,-10.96 -5.55,-11.07 -5.31,-11.19 -5.05,-11.22 -4.78,-11.25 -4.52,-11.19 -4.26,-11.14 -4.03,-11.00 -3.80,-10.87 -3.62,-10.66 -3.45,-10.46 -3.35,-10.21 -3.25,-9.97 -3.23,-9.70 -3.21,-9.43 -3.28,-9.17 -3.35,-8.92 -3.50,-8.69 -3.65,-8.47 -3.86,-8.31 -4.07,-8.14 -4.32,-8.06 -4.58,-7.97 -4.84,-7.97 -5.11,-7.96 -5.36,-8.05 -5.62,-8.13 -5.83,-8.29 -6.05,-8.45 -6.20,-8.67 -6.35,-8.89 -6.43,-9.15 -6.50,-9.40 -6.49,-9.67 -6.47,-9.94 -6.38,-10.19 -6.28,-10.44 -6.11,-10.64 -5.94,-10.85 -5.71,-10.99 -5.48,-11.13 -5.22,-11.19 -4.96,-11.25 -4.69,-11.22 -4.43,-11.19 -4.18,-11.08 -3.94,-10.97 -3.75,-10.79 -3.55,-10.61 -3.42,-10.37 -3.29,-10.14 -3.29,-10.14 -3.30,-10.14 -3.54,-7.74 -3.78,-5.35 -3.77,-5.16 -3.75,-4.98 -3.78,-4.79 -3.81,-4.61 -3.88,-4.43 -3.95,-4.26 -4.06,-4.11 -4.18,-3.96 -4.32,-3.84 -4.46,-3.72 -4.63,-3.64 -4.80,-3.56 -4.99,-3.52 -5.17,-3.49 -5.36,-3.49 -5.54,-3.50 -5.72,-3.55 -5.90,-3.60 -6.06,-3.69 -6.23,-3.79 -6.36,-3.92 -6.50,-4.04 -6.60,-4.20 -6.70,-4.36 -6.76,-4.54 -6.82,-4.71 -6.91,-5.44 -7.00,-6.16 -7.46,-8.39 -7.92,-10.62 -9.72,-15.37 -11.52,-20.12 -15.78,-29.32 -20.03,-38.52 -28.74,-53.49 -37.44,-68.47 -45.10,-80.09 -52.77,-91.72 -59.99,-102.20 -67.22,-112.67 -72.03,-119.73 -76.85,-126.78 -78.01,-128.51 -79.17,-130.23 -80.72,-132.30 -82.26,-134.37 -82.32,-134.55 -82.38,-134.73 -82.40,-134.92 -82.41,-135.11 -82.39,-135.29 -82.36,-135.48 -82.28,-135.65 -82.21,-135.82 -82.10,-135.97 -81.99,-136.13 -81.84,-136.25 -81.70,-136.36 -81.53,-136.45 -81.36,-136.53 -81.17,-136.57 -80.99,-136.60 -80.80,-136.60 -80.61,-136.59 -80.43,-136.54 -80.25,-136.49 -80.09,-136.40 -79.93,-136.30 -79.79,-136.17 -79.65,-136.04 -79.55,-135.89 -79.45,-135.73 -78.77,-134.37 -78.09,-133.01 -76.27,-129.24 -74.45,-125.47 -70.88,-118.03 -67.32,-110.58 -60.90,-100.35 -54.48,-90.12 -44.77,-75.47 -35.06,-60.82 -23.73,-43.23 -12.39,-25.64 -8.12,-18.16 -3.85,-10.67 -0.67,-5.44 2.51,-0.21 2.65,-0.03 2.80,0.15 2.89,0.36 2.99,0.57 3.03,0.80 3.07,1.03 3.06,1.26 3.04,1.49 2.97,1.72 2.91,1.94 2.79,2.14 2.66,2.34 2.50,2.50 2.34,2.66 2.14,2.79 1.94,2.91 1.72,2.97 1.49,3.04 1.26,3.06 1.03,3.07 0.80,3.03 0.57,2.99 0.36,2.89 0.15,2.80 -0.03,2.65 -0.21,2.51 -0.72,1.87 -1.23,1.23 -1.35,1.06 -1.48,0.89 -1.57,0.70 -1.66,0.51 -1.69,0.31 -1.73,0.10 -1.72,-0.10 -1.71,-0.31 -1.64,-0.51 -1.58,-0.71 -1.47,-0.89 -1.36,-1.07 -1.22,-1.22 -1.07,-1.36 -0.89,-1.47 -0.71,-1.58 -0.51,-1.64 -0.31,-1.71 -0.10,-1.72 0.10,-1.73 0.31,-1.69 0.51,-1.66 0.70,-1.57 0.90,-1.48 1.06,-1.35 1.23,-1.22 1.23,-1.22 L 1.23,-1.23 Z"></path></g><g transform="translate(281 84) rotate(0 70.5 -34)" stroke="none"><path fill="#586e75" d="M -0.74,-1.61 Q -0.74,-1.61 3.01,-3.28 6.78,-4.95 17.02,-9.38 27.27,-13.82 41.39,-20.28 55.50,-26.74 71.82,-35.50 88.14,-44.26 100.58,-50.58 113.01,-56.90 120.31,-60.44 127.62,-63.99 131.29,-65.78 134.97,-67.56 136.38,-68.18 137.79,-68.79 137.91,-68.75 138.03,-68.71 138.22,-68.76 138.42,-68.80 138.63,-68.80 138.83,-68.80 139.03,-68.75 139.23,-68.70 139.41,-68.61 139.59,-68.51 139.74,-68.38 139.89,-68.24 140.01,-68.07 140.12,-67.90 140.20,-67.71 140.27,-67.52 140.29,-67.32 140.32,-67.11 140.29,-66.91 140.26,-66.71 140.19,-66.52 140.12,-66.33 140.00,-66.16 139.88,-65.99 139.73,-65.86 139.58,-65.72 139.40,-65.63 139.21,-65.53 135.94,-63.21 132.66,-60.90 124.02,-56.48 115.38,-52.07 101.36,-45.33 87.34,-38.60 73.90,-32.30 60.46,-26.00 49.01,-20.46 37.55,-14.92 28.64,-10.84 19.73,-6.76 14.20,-4.45 8.67,-2.14 4.91,-0.37 1.15,1.40 0.89,1.40 0.64,1.40 0.39,1.33 0.15,1.25 -0.05,1.10 -0.26,0.95 -0.40,0.74 -0.55,0.53 -0.63,0.28 -0.70,0.04 -0.69,-0.21 -0.68,-0.47 -0.59,-0.71 -0.50,-0.95 -0.34,-1.14 -0.17,-1.34 0.03,-1.48 0.25,-1.62 0.50,-1.67 0.75,-1.73 1.01,-1.71 1.26,-1.69 1.50,-1.58 1.73,-1.48 1.92,-1.31 2.11,-1.14 2.23,-0.91 2.36,-0.69 2.40,-0.43 2.45,-0.18 2.41,0.06 2.37,0.32 2.26,0.54 2.14,0.77 1.96,0.95 1.78,1.13 1.55,1.24 1.32,1.36 1.06,1.39 0.81,1.42 0.56,1.37 0.30,1.32 0.08,1.19 -0.13,1.06 -0.30,0.87 -0.47,0.68 -0.57,0.44 -0.67,0.20 -0.69,-0.04 -0.70,-0.30 -0.64,-0.55 -0.58,-0.79 -0.44,-1.01 -0.30,-1.22 -0.09,-1.38 0.10,-1.54 0.34,-1.63 0.58,-1.71 0.58,-1.71 0.58,-1.71 4.09,-3.20 7.60,-4.69 13.07,-7.00 18.55,-9.32 27.42,-13.42 36.29,-17.52 47.74,-23.11 59.19,-28.70 72.59,-35.05 85.98,-41.40 99.92,-48.20 113.86,-55.00 122.30,-59.44 130.74,-63.88 133.09,-65.48 135.44,-67.09 136.73,-67.90 138.03,-68.71 138.22,-68.76 138.42,-68.80 138.63,-68.80 138.83,-68.80 139.03,-68.75 139.23,-68.70 139.41,-68.61 139.59,-68.51 139.74,-68.38 139.89,-68.24 140.01,-68.07 140.12,-67.90 140.20,-67.71 140.27,-67.52 140.29,-67.32 140.32,-67.11 140.29,-66.91 140.26,-66.71 140.19,-66.52 140.12,-66.33 140.00,-66.16 139.88,-65.99 139.73,-65.86 139.58,-65.72 139.40,-65.63 139.21,-65.53 138.82,-65.66 138.43,-65.80 137.30,-65.45 136.17,-65.11 132.50,-63.31 128.83,-61.50 121.56,-57.94 114.29,-54.39 101.90,-48.05 89.51,-41.71 73.13,-32.87 56.75,-24.03 42.64,-17.49 28.52,-10.95 18.34,-6.45 8.16,-1.94 4.45,-0.16 0.74,1.61 0.54,1.68 0.33,1.75 0.12,1.76 -0.09,1.78 -0.30,1.74 -0.51,1.70 -0.71,1.62 -0.90,1.53 -1.07,1.40 -1.24,1.27 -1.38,1.10 -1.51,0.93 -1.60,0.74 -1.69,0.54 -1.73,0.33 -1.77,0.12 -1.76,-0.09 -1.75,-0.30 -1.69,-0.51 -1.63,-0.71 -1.52,-0.90 -1.41,-1.08 -1.26,-1.23 -1.11,-1.39 -0.92,-1.50 -0.74,-1.61 -0.74,-1.61 L -0.74,-1.61 Z"></path></g><g transform="translate(361 222) rotate(0 30.5 -99)" stroke="none"><path fill="#586e75" d="M -1.51,-0.50 Q -1.51,-0.50 0.24,-5.66 2.00,-10.83 5.05,-21.89 8.10,-32.95 12.00,-46.31 15.90,-59.66 23.32,-80.32 30.75,-100.98 37.35,-120.08 43.95,-139.19 48.19,-153.89 52.42,-168.59 54.51,-177.12 56.60,-185.66 57.49,-189.29 58.38,-192.93 58.47,-193.13 58.55,-193.33 58.70,-193.49 58.84,-193.65 59.03,-193.76 59.22,-193.87 59.43,-193.91 59.64,-193.95 59.85,-193.92 60.07,-193.89 60.26,-193.80 60.46,-193.70 60.61,-193.55 60.76,-193.40 60.86,-193.21 60.96,-193.01 60.99,-192.80 61.02,-192.58 60.98,-192.37 60.94,-192.16 60.83,-191.97 60.73,-191.78 60.57,-191.64 60.41,-191.49 60.21,-191.41 60.01,-191.32 59.79,-191.30 59.58,-191.28 59.37,-191.33 59.16,-191.39 58.98,-191.50 58.79,-191.62 58.66,-191.79 58.52,-191.95 58.45,-192.16 58.37,-192.36 58.36,-192.57 58.36,-192.79 58.42,-193.00 58.48,-193.20 58.61,-193.38 58.73,-193.56 58.91,-193.68 59.08,-193.81 59.29,-193.87 59.50,-193.94 59.71,-193.93 59.93,-193.93 60.13,-193.85 60.33,-193.78 60.50,-193.65 60.67,-193.51 60.79,-193.33 60.91,-193.15 60.96,-192.94 61.01,-192.73 61.00,-192.51 60.98,-192.30 60.98,-192.30 60.98,-192.30 60.10,-188.66 59.21,-185.02 57.12,-176.43 55.03,-167.84 50.79,-153.06 46.54,-138.29 39.96,-119.17 33.37,-100.04 26.00,-79.45 18.63,-58.87 14.78,-45.52 10.93,-32.18 7.91,-21.02 4.89,-9.86 3.20,-4.68 1.51,0.50 1.43,0.68 1.35,0.85 1.23,1.00 1.10,1.15 0.95,1.27 0.80,1.38 0.62,1.46 0.44,1.53 0.25,1.56 0.06,1.59 -0.12,1.58 -0.31,1.56 -0.50,1.50 -0.68,1.44 -0.84,1.34 -1.01,1.24 -1.14,1.10 -1.27,0.96 -1.37,0.79 -1.47,0.62 -1.52,0.44 -1.58,0.25 -1.58,0.06 -1.59,-0.12 -1.55,-0.31 -1.51,-0.50 -1.51,-0.50 L -1.51,-0.50 Z"></path></g><g transform="translate(423 17) rotate(0 -31 106.5)" stroke="none"><path fill="#586e75" d="M 1.53,0.27 Q 1.53,0.27 0.92,3.43 0.32,6.59 -1.67,15.43 -3.67,24.27 -6.83,36.38 -9.99,48.48 -15.94,69.44 -21.89,90.40 -27.59,109.95 -33.28,129.49 -37.72,143.27 -42.16,157.06 -46.07,168.66 -49.97,180.27 -52.78,188.65 -55.58,197.03 -57.06,201.73 -58.54,206.43 -59.75,209.79 -60.95,213.14 -61.08,213.36 -61.21,213.58 -61.41,213.75 -61.60,213.91 -61.84,214.01 -62.08,214.10 -62.34,214.12 -62.59,214.13 -62.84,214.06 -63.09,213.99 -63.30,213.85 -63.51,213.70 -63.67,213.50 -63.82,213.30 -63.90,213.05 -63.98,212.81 -63.98,212.55 -63.98,212.30 -63.90,212.05 -63.82,211.81 -63.66,211.61 -63.51,211.40 -63.29,211.26 -63.08,211.12 -62.84,211.05 -62.59,210.98 -62.33,211.00 -62.08,211.01 -61.84,211.11 -61.60,211.20 -61.41,211.37 -61.21,211.53 -61.08,211.75 -60.95,211.97 -60.89,212.22 -60.84,212.47 -60.87,212.73 -60.89,212.98 -61.00,213.22 -61.11,213.45 -61.29,213.63 -61.46,213.82 -61.69,213.94 -61.92,214.06 -62.17,214.10 -62.42,214.14 -62.67,214.10 -62.93,214.06 -63.15,213.94 -63.38,213.82 -63.56,213.63 -63.73,213.44 -63.84,213.21 -63.95,212.98 -63.97,212.72 -64.00,212.47 -63.95,212.22 -63.89,211.97 -63.89,211.97 -63.89,211.97 -62.48,208.80 -61.07,205.63 -59.59,200.91 -58.11,196.18 -55.31,187.80 -52.51,179.42 -48.62,167.82 -44.73,156.23 -40.32,142.48 -35.90,128.73 -30.23,109.19 -24.55,89.65 -18.64,68.71 -12.72,47.78 -9.61,35.71 -6.49,23.64 -4.55,14.85 -2.62,6.05 -2.07,2.88 -1.53,-0.27 -1.48,-0.45 -1.42,-0.63 -1.32,-0.80 -1.23,-0.96 -1.09,-1.09 -0.96,-1.22 -0.80,-1.32 -0.64,-1.42 -0.46,-1.47 -0.28,-1.53 -0.09,-1.54 0.09,-1.55 0.27,-1.52 0.46,-1.49 0.63,-1.41 0.80,-1.33 0.95,-1.22 1.10,-1.10 1.21,-0.95 1.33,-0.80 1.41,-0.63 1.49,-0.46 1.52,-0.28 1.55,-0.09 1.54,0.09 1.53,0.27 1.53,0.27 L 1.53,0.27 Z"></path></g><g transform="translate(426 27) rotate(0 42.5 71)" stroke="none"><path fill="#586e75" d="M -1.63,0.54 Q -1.63,0.54 -2.21,-1.17 -2.80,-2.89 -2.85,-3.10 -2.89,-3.31 -2.88,-3.52 -2.87,-3.73 -2.81,-3.93 -2.75,-4.13 -2.65,-4.31 -2.54,-4.50 -2.40,-4.65 -2.25,-4.80 -2.07,-4.91 -1.89,-5.03 -1.69,-5.09 -1.49,-5.16 -1.28,-5.18 -1.07,-5.19 -0.87,-5.16 -0.66,-5.13 -0.46,-5.04 -0.27,-4.96 -0.10,-4.83 0.06,-4.71 0.19,-4.54 0.32,-4.38 0.41,-4.19 0.50,-4.00 4.08,2.01 7.65,8.03 14.76,20.75 21.87,33.46 30.90,49.21 39.93,64.96 51.80,84.88 63.67,104.79 70.73,117.02 77.79,129.24 80.20,134.43 82.62,139.62 82.69,139.78 82.75,139.94 82.78,140.10 82.81,140.27 82.80,140.44 82.78,140.61 82.73,140.77 82.67,140.93 82.58,141.08 82.49,141.22 82.37,141.34 82.25,141.45 82.10,141.54 81.96,141.63 81.79,141.67 81.63,141.72 81.46,141.73 81.29,141.73 81.12,141.70 80.96,141.67 80.80,141.59 80.65,141.52 80.52,141.41 80.39,141.31 80.28,141.17 80.18,141.04 79.42,140.21 78.66,139.39 76.86,136.31 75.07,133.23 74.97,132.94 74.87,132.66 74.87,132.35 74.86,132.05 74.96,131.76 75.05,131.47 75.23,131.23 75.42,130.98 75.67,130.81 75.92,130.64 76.21,130.55 76.50,130.47 76.80,130.48 77.11,130.49 77.39,130.60 77.68,130.71 77.91,130.91 78.14,131.10 78.30,131.36 78.46,131.62 78.53,131.92 78.60,132.22 78.57,132.52 78.54,132.82 78.41,133.10 78.29,133.38 78.08,133.60 77.87,133.82 77.61,133.97 77.34,134.11 77.04,134.16 76.74,134.21 76.44,134.17 76.14,134.12 75.87,133.98 75.60,133.84 75.39,133.62 75.18,133.40 75.05,133.13 74.91,132.85 74.88,132.55 74.84,132.25 74.91,131.95 74.97,131.66 75.12,131.39 75.28,131.13 75.51,130.93 75.74,130.73 76.02,130.62 76.30,130.50 76.60,130.48 76.91,130.46 77.20,130.54 77.50,130.62 77.75,130.79 78.00,130.96 78.19,131.20 78.37,131.44 78.37,131.44 78.37,131.44 79.88,134.44 81.38,137.43 82.00,138.53 82.62,139.62 82.69,139.78 82.75,139.94 82.78,140.10 82.81,140.27 82.80,140.44 82.78,140.61 82.73,140.77 82.67,140.93 82.58,141.08 82.49,141.22 82.37,141.34 82.25,141.45 82.10,141.54 81.96,141.63 81.79,141.67 81.63,141.72 81.46,141.73 81.29,141.73 81.12,141.70 80.96,141.67 80.80,141.59 80.65,141.52 80.52,141.42 80.39,141.31 80.29,141.17 80.18,141.04 77.74,135.86 75.29,130.68 68.20,118.51 61.11,106.33 49.17,86.42 37.23,66.52 28.11,50.80 18.99,35.09 11.80,22.48 4.61,9.87 0.90,3.48 -2.80,-2.89 -2.85,-3.10 -2.89,-3.30 -2.88,-3.52 -2.87,-3.73 -2.81,-3.93 -2.75,-4.13 -2.65,-4.31 -2.54,-4.50 -2.40,-4.65 -2.25,-4.80 -2.07,-4.91 -1.89,-5.03 -1.69,-5.09 -1.49,-5.16 -1.28,-5.18 -1.07,-5.19 -0.87,-5.16 -0.66,-5.13 -0.46,-5.04 -0.27,-4.96 -0.10,-4.83 0.06,-4.71 0.19,-4.54 0.32,-4.38 0.41,-4.19 0.50,-4.00 1.06,-2.27 1.63,-0.54 1.67,-0.34 1.71,-0.13 1.70,0.06 1.69,0.27 1.63,0.47 1.58,0.67 1.47,0.85 1.37,1.03 1.22,1.18 1.08,1.33 0.91,1.44 0.73,1.55 0.53,1.61 0.34,1.68 0.13,1.70 -0.07,1.71 -0.27,1.68 -0.47,1.65 -0.66,1.56 -0.85,1.48 -1.02,1.36 -1.19,1.23 -1.32,1.07 -1.45,0.91 -1.54,0.73 -1.63,0.54 -1.63,0.54 L -1.63,0.54 Z"></path></g><g transform="translate(502 153) rotate(0 -42 -70.5)" stroke="none"><path fill="#586e75" d="M -1.35,1.08 Q -1.35,1.08 -2.51,-0.35 -3.66,-1.78 -8.22,-10.61 -12.77,-19.44 -20.96,-34.04 -29.15,-48.64 -37.22,-62.33 -45.29,-76.01 -54.46,-91.03 -63.63,-106.05 -68.98,-115.92 -74.33,-125.79 -76.87,-130.25 -79.41,-134.71 -81.82,-137.67 -84.24,-140.64 -84.37,-140.87 -84.49,-141.10 -84.53,-141.36 -84.57,-141.62 -84.53,-141.88 -84.49,-142.14 -84.37,-142.37 -84.24,-142.60 -84.05,-142.78 -83.86,-142.97 -83.62,-143.08 -83.39,-143.19 -83.12,-143.21 -82.86,-143.24 -82.61,-143.19 -82.35,-143.13 -82.12,-142.99 -81.90,-142.86 -81.73,-142.66 -81.56,-142.46 -81.46,-142.22 -81.37,-141.97 -81.35,-141.71 -81.34,-141.45 -81.41,-141.19 -81.48,-140.94 -81.62,-140.72 -81.77,-140.51 -81.98,-140.35 -82.19,-140.19 -82.44,-140.10 -82.69,-140.02 -82.95,-140.02 -83.21,-140.02 -83.46,-140.10 -83.71,-140.19 -83.92,-140.35 -84.13,-140.51 -84.28,-140.72 -84.42,-140.94 -84.49,-141.19 -84.56,-141.45 -84.55,-141.71 -84.54,-141.97 -84.44,-142.21 -84.34,-142.46 -84.17,-142.66 -84.00,-142.86 -83.78,-142.99 -83.55,-143.13 -83.29,-143.19 -83.04,-143.24 -82.78,-143.21 -82.52,-143.19 -82.28,-143.08 -82.04,-142.97 -81.85,-142.78 -81.66,-142.60 -81.66,-142.60 -81.66,-142.60 -79.34,-139.34 -77.02,-136.08 -74.44,-131.61 -71.86,-127.13 -66.52,-117.34 -61.18,-107.55 -51.96,-92.54 -42.74,-77.52 -34.60,-63.84 -26.46,-50.16 -18.17,-35.55 -9.88,-20.95 -5.40,-12.45 -0.93,-3.96 0.21,-2.52 1.35,-1.08 1.46,-0.90 1.57,-0.72 1.63,-0.52 1.69,-0.32 1.71,-0.12 1.72,0.08 1.69,0.29 1.65,0.49 1.57,0.68 1.48,0.88 1.36,1.04 1.23,1.21 1.07,1.34 0.91,1.47 0.72,1.55 0.53,1.64 0.32,1.68 0.12,1.72 -0.08,1.71 -0.29,1.70 -0.49,1.64 -0.69,1.58 -0.87,1.47 -1.05,1.37 -1.20,1.22 -1.35,1.08 -1.35,1.08 L -1.35,1.08 Z"></path></g><g transform="translate(362 231) rotate(0 74.5 -36)" stroke="none"><path fill="#586e75" d="M -0.86,-1.34 Q -0.86,-1.34 3.18,-3.90 7.22,-6.45 13.65,-9.30 20.07,-12.16 25.92,-14.78 31.77,-17.39 49.50,-25.40 67.22,-33.41 88.54,-43.70 109.86,-53.99 120.94,-59.51 132.01,-65.03 136.42,-67.37 140.83,-69.71 142.71,-70.70 144.59,-71.70 144.80,-71.77 145.00,-71.84 145.22,-71.84 145.43,-71.84 145.64,-71.77 145.84,-71.70 146.01,-71.57 146.19,-71.44 146.31,-71.26 146.43,-71.08 146.49,-70.87 146.55,-70.66 146.53,-70.45 146.52,-70.23 146.44,-70.03 146.36,-69.83 146.22,-69.67 146.08,-69.50 145.90,-69.39 145.71,-69.28 145.50,-69.23 145.29,-69.18 145.08,-69.21 144.86,-69.23 144.67,-69.32 144.47,-69.41 144.31,-69.56 144.16,-69.71 144.05,-69.90 143.95,-70.09 143.92,-70.30 143.88,-70.52 143.92,-70.73 143.95,-70.94 144.05,-71.13 144.15,-71.33 144.31,-71.47 144.47,-71.62 144.66,-71.71 144.86,-71.80 145.07,-71.83 145.29,-71.85 145.50,-71.81 145.71,-71.76 145.90,-71.65 146.08,-71.54 146.22,-71.37 146.36,-71.21 146.44,-71.01 146.52,-70.81 146.53,-70.59 146.55,-70.37 146.49,-70.17 146.43,-69.96 146.31,-69.78 146.19,-69.60 146.02,-69.47 145.84,-69.34 145.84,-69.34 145.84,-69.34 143.97,-68.34 142.09,-67.33 137.66,-64.97 133.22,-62.61 122.14,-57.06 111.06,-51.52 89.72,-41.19 68.37,-30.87 50.66,-22.83 32.94,-14.80 27.10,-12.14 21.27,-9.48 15.07,-6.68 8.87,-3.89 4.86,-1.27 0.86,1.34 0.69,1.43 0.51,1.51 0.32,1.55 0.14,1.59 -0.05,1.58 -0.24,1.58 -0.43,1.53 -0.61,1.47 -0.78,1.38 -0.95,1.28 -1.09,1.15 -1.23,1.02 -1.33,0.85 -1.44,0.69 -1.50,0.51 -1.56,0.33 -1.58,0.13 -1.60,-0.05 -1.57,-0.24 -1.54,-0.43 -1.46,-0.61 -1.39,-0.79 -1.27,-0.94 -1.16,-1.10 -1.01,-1.22 -0.86,-1.34 -0.86,-1.34 L -0.86,-1.34 Z"></path></g><g transform="translate(495 170) rotate(0 -67 27.5)" stroke="none"><path fill="#586e75" d="M 0.67,1.61 Q 0.67,1.61 -4.80,3.85 -10.29,6.10 -19.53,9.91 -28.77,13.73 -41.34,18.50 -53.92,23.28 -69.03,29.32 -84.13,35.36 -96.01,40.22 -107.90,45.08 -115.24,48.29 -122.58,51.49 -125.72,53.14 -128.87,54.78 -129.12,54.86 -129.38,54.93 -129.64,54.92 -129.90,54.91 -130.15,54.81 -130.39,54.72 -130.60,54.55 -130.80,54.38 -130.94,54.16 -131.08,53.94 -131.14,53.68 -131.20,53.42 -131.17,53.16 -131.15,52.90 -131.04,52.66 -130.93,52.42 -130.75,52.23 -130.58,52.03 -130.34,51.91 -130.11,51.78 -129.85,51.73 -129.60,51.69 -129.34,51.73 -129.07,51.77 -128.84,51.89 -128.61,52.01 -128.42,52.20 -128.24,52.38 -128.13,52.62 -128.01,52.86 -127.98,53.12 -127.95,53.38 -128.00,53.64 -128.06,53.90 -128.19,54.12 -128.32,54.35 -128.52,54.53 -128.72,54.70 -128.96,54.80 -129.20,54.90 -129.47,54.92 -129.73,54.93 -129.98,54.87 -130.24,54.80 -130.46,54.66 -130.68,54.51 -130.84,54.30 -131.00,54.10 -131.09,53.85 -131.18,53.60 -131.18,53.34 -131.18,53.07 -131.10,52.82 -131.02,52.57 -130.86,52.36 -130.71,52.15 -130.49,52.00 -130.28,51.85 -130.28,51.85 -130.28,51.85 -126.98,50.41 -123.68,48.97 -116.32,45.73 -108.96,42.49 -97.08,37.59 -85.20,32.70 -70.09,26.61 -54.98,20.52 -42.47,15.69 -29.96,10.87 -20.76,6.98 -11.55,3.09 -6.11,0.74 -0.67,-1.61 -0.47,-1.67 -0.27,-1.72 -0.06,-1.73 0.14,-1.74 0.35,-1.70 0.56,-1.65 0.75,-1.56 0.94,-1.47 1.10,-1.34 1.26,-1.20 1.39,-1.03 1.51,-0.86 1.60,-0.67 1.68,-0.47 1.71,-0.27 1.74,-0.06 1.73,0.14 1.71,0.35 1.64,0.55 1.57,0.75 1.46,0.93 1.35,1.11 1.19,1.25 1.04,1.40 0.86,1.50 0.67,1.61 0.67,1.61 L 0.67,1.61 Z"></path></g><g transform="translate(115 135.5) rotate(0 10.5 -6)" stroke="none"><path fill="#586e75" d="M -1.29,-1.72 Q -1.29,-1.72 -0.16,-2.60 0.96,-3.48 2.22,-4.79 3.49,-6.10 4.73,-7.18 5.97,-8.25 7.62,-9.67 9.28,-11.09 11.56,-12.10 13.84,-13.11 15.54,-10.97 17.24,-8.82 18.32,-7.68 19.41,-6.54 21.21,-5.73 23.01,-4.93 23.29,-4.71 23.58,-4.50 23.78,-4.21 23.97,-3.92 24.07,-3.58 24.17,-3.24 24.15,-2.88 24.13,-2.53 24.00,-2.20 23.87,-1.87 23.64,-1.60 23.41,-1.33 23.11,-1.15 22.81,-0.97 22.46,-0.89 22.12,-0.81 21.77,-0.85 21.42,-0.89 21.10,-1.04 20.77,-1.18 20.52,-1.43 20.26,-1.67 20.09,-1.98 19.93,-2.29 19.87,-2.64 19.81,-2.99 19.87,-3.34 19.92,-3.69 20.09,-4.00 20.25,-4.31 20.51,-4.56 20.77,-4.80 21.09,-4.95 21.41,-5.10 21.76,-5.14 22.11,-5.18 22.45,-5.10 22.80,-5.03 23.10,-4.84 23.40,-4.66 23.63,-4.39 23.86,-4.13 23.99,-3.80 24.13,-3.47 24.15,-3.12 24.17,-2.76 24.07,-2.42 23.98,-2.08 23.78,-1.79 23.58,-1.50 23.30,-1.28 23.02,-1.07 22.69,-0.95 22.35,-0.84 22.00,-0.84 21.65,-0.84 21.31,-0.95 20.98,-1.06 20.98,-1.06 20.98,-1.06 18.75,-2.38 16.53,-3.69 14.20,-6.01 11.87,-8.33 10.24,-6.66 8.62,-4.99 7.56,-4.19 6.51,-3.40 5.07,-1.68 3.63,0.03 2.46,0.88 1.29,1.72 1.06,1.85 0.84,1.98 0.59,2.05 0.34,2.12 0.08,2.13 -0.17,2.14 -0.42,2.09 -0.68,2.04 -0.91,1.93 -1.15,1.81 -1.35,1.65 -1.55,1.49 -1.71,1.28 -1.86,1.07 -1.96,0.83 -2.06,0.59 -2.11,0.34 -2.15,0.08 -2.13,-0.17 -2.10,-0.43 -2.02,-0.67 -1.94,-0.92 -1.80,-1.14 -1.66,-1.36 -1.47,-1.54 -1.29,-1.72 -1.29,-1.72 L -1.29,-1.72 Z"></path></g><g transform="translate(384 128.5) rotate(0 10 3.5)" stroke="none"><path fill="#586e75" d="M 1.85,-0.74 Q 1.85,-0.74 2.45,0.68 3.06,2.11 3.59,3.96 4.12,5.82 4.43,7.25 4.74,8.68 6.50,6.36 8.26,4.03 10.70,1.65 13.15,-0.72 14.74,-2.51 16.33,-4.30 17.48,-5.71 18.64,-7.12 18.85,-7.31 19.07,-7.50 19.33,-7.61 19.60,-7.72 19.88,-7.73 20.17,-7.75 20.44,-7.68 20.72,-7.61 20.96,-7.45 21.20,-7.29 21.37,-7.07 21.55,-6.84 21.64,-6.57 21.74,-6.30 21.74,-6.01 21.74,-5.73 21.65,-5.46 21.57,-5.19 21.39,-4.96 21.22,-4.73 20.99,-4.56 20.75,-4.40 20.48,-4.32 20.21,-4.24 19.92,-4.25 19.63,-4.27 19.37,-4.37 19.10,-4.47 18.88,-4.65 18.66,-4.84 18.51,-5.08 18.36,-5.32 18.30,-5.60 18.23,-5.88 18.26,-6.16 18.29,-6.45 18.40,-6.71 18.52,-6.97 18.72,-7.18 18.91,-7.39 19.16,-7.53 19.41,-7.66 19.69,-7.71 19.98,-7.76 20.26,-7.72 20.54,-7.68 20.79,-7.54 21.05,-7.41 21.25,-7.21 21.45,-7.00 21.57,-6.74 21.69,-6.49 21.73,-6.20 21.76,-5.92 21.70,-5.64 21.64,-5.36 21.50,-5.11 21.35,-4.87 21.35,-4.87 21.35,-4.87 20.18,-3.47 19.01,-2.08 17.45,-0.08 15.89,1.91 13.63,4.40 11.37,6.89 9.18,9.46 6.99,12.03 5.49,12.82 3.99,13.60 2.53,12.91 1.08,12.22 0.83,10.81 0.58,9.39 0.44,8.18 0.29,6.97 -0.23,5.30 -0.76,3.63 -1.30,2.18 -1.85,0.74 -1.91,0.50 -1.97,0.27 -1.98,0.03 -1.98,-0.20 -1.93,-0.43 -1.87,-0.67 -1.77,-0.88 -1.66,-1.10 -1.50,-1.28 -1.35,-1.47 -1.15,-1.61 -0.95,-1.75 -0.73,-1.84 -0.51,-1.92 -0.27,-1.96 -0.03,-1.99 0.20,-1.97 0.44,-1.94 0.66,-1.86 0.89,-1.78 1.09,-1.65 1.29,-1.51 1.45,-1.34 1.62,-1.16 1.73,-0.95 1.85,-0.74 1.85,-0.74 L 1.85,-0.74 Z"></path></g></svg>