<svg version="1.1" xmlns="http://www.w3.org/2000/svg" viewBox="0 0 670 204" width="670" height="204">
  <!-- svg-source:excalidraw -->
  
  <defs>
    <style class="style-fonts">
      @font-face {
        font-family: "Virgil";
        src: url("https://excalidraw.com/Virgil.woff2");
      }
      @font-face {
        font-family: "Cascadia";
        src: url("https://excalidraw.com/Cascadia.woff2");
      }
    </style>
  </defs>
  <g transform="translate(10 110.5) rotate(0 30.5 -49)" stroke="none"><path fill="#586e75" d="M -1.27,-0.90 Q -1.27,-0.90 0.19,-2.90 1.65,-4.89 3.70,-8.00 5.76,-11.12 8.96,-15.63 12.16,-20.15 16.09,-26.06 20.03,-31.98 23.70,-38.20 27.37,-44.43 30.96,-50.54 34.54,-56.64 37.78,-62.39 41.03,-68.14 43.86,-72.90 46.68,-77.66 48.74,-81.38 50.79,-85.10 52.23,-87.83 53.68,-90.56 54.89,-92.62 56.10,-94.67 56.83,-95.93 57.56,-97.19 58.09,-97.74 58.62,-98.28 58.76,-98.44 58.90,-98.60 59.08,-98.72 59.25,-98.84 59.45,-98.91 59.65,-98.99 59.86,-99.01 60.07,-99.04 60.28,-99.01 60.49,-98.99 60.69,-98.91 60.89,-98.84 61.07,-98.72 61.24,-98.59 61.38,-98.43 61.53,-98.28 61.62,-98.09 61.72,-97.90 61.77,-97.69 61.82,-97.49 61.82,-97.27 61.82,-97.06 61.77,-96.85 61.72,-96.65 61.62,-96.46 61.52,-96.27 61.38,-95.12 61.24,-93.97 57.82,-87.37 54.40,-80.77 50.06,-73.13 45.72,-65.49 40.71,-56.80 35.69,-48.11 30.95,-40.10 26.22,-32.09 22.48,-25.82 18.73,-19.55 16.57,-15.75 14.40,-11.95 13.63,-10.61 12.85,-9.26 13.03,-9.09 13.21,-8.92 13.32,-8.70 13.44,-8.48 13.48,-8.24 13.52,-8.00 13.48,-7.75 13.44,-7.51 13.33,-7.29 13.21,-7.07 13.03,-6.90 12.85,-6.73 12.63,-6.63 12.40,-6.53 12.16,-6.50 11.91,-6.47 11.67,-6.52 11.43,-6.58 11.22,-6.70 11.01,-6.83 10.85,-7.02 10.69,-7.21 10.60,-7.44 10.51,-7.67 10.49,-7.91 10.48,-8.16 10.54,-8.40 10.61,-8.63 10.75,-8.84 10.89,-9.04 11.08,-9.19 11.28,-9.34 11.51,-9.42 11.75,-9.50 11.99,-9.50 12.24,-9.50 12.47,-9.42 12.71,-9.34 12.90,-9.19 13.10,-9.05 13.24,-8.84 13.38,-8.64 13.44,-8.40 13.51,-8.16 13.50,-7.92 13.48,-7.67 13.39,-7.44 13.30,-7.21 13.14,-7.02 12.98,-6.83 12.77,-6.71 12.56,-6.58 12.32,-6.53 12.08,-6.47 11.83,-6.50 11.59,-6.53 11.36,-6.63 11.14,-6.73 11.14,-6.73 11.14,-6.73 11.55,-10.03 11.97,-13.33 14.12,-17.17 16.27,-21.01 19.97,-27.30 23.68,-33.59 28.35,-41.61 33.02,-49.63 37.96,-58.35 42.90,-67.08 47.10,-74.71 51.31,-82.35 54.47,-88.69 57.62,-95.03 58.12,-96.66 58.62,-98.28 58.76,-98.44 58.90,-98.60 59.08,-98.72 59.25,-98.84 59.45,-98.91 59.65,-98.99 59.86,-99.01 60.07,-99.04 60.28,-99.01 60.49,-98.99 60.69,-98.91 60.89,-98.84 61.07,-98.72 61.24,-98.59 61.38,-98.44 61.52,-98.28 61.62,-98.09 61.72,-97.90 61.77,-97.69 61.82,-97.49 61.82,-97.27 61.82,-97.06 61.77,-96.85 61.72,-96.65 61.62,-96.46 61.52,-96.27 60.80,-95.83 60.08,-95.40 59.23,-94.36 58.37,-93.33 57.20,-91.33 56.02,-89.32 54.57,-86.57 53.11,-83.82 51.04,-80.06 48.98,-76.30 46.17,-71.56 43.36,-66.82 40.12,-61.05 36.87,-55.28 33.30,-49.16 29.72,-43.05 26.03,-36.75 22.33,-30.45 18.40,-24.49 14.46,-18.53 11.32,-14.04 8.18,-9.54 6.13,-6.35 4.09,-3.15 2.68,-1.12 1.27,0.90 1.14,1.04 1.01,1.18 0.86,1.29 0.70,1.39 0.52,1.45 0.34,1.52 0.16,1.54 -0.02,1.56 -0.21,1.53 -0.39,1.51 -0.57,1.44 -0.74,1.37 -0.90,1.26 -1.05,1.15 -1.17,1.00 -1.29,0.86 -1.38,0.69 -1.46,0.53 -1.51,0.34 -1.55,0.16 -1.55,-0.02 -1.54,-0.21 -1.49,-0.39 -1.45,-0.57 -1.36,-0.74 -1.27,-0.90 -1.27,-0.90 L -1.27,-0.90 Z"></path></g><g transform="translate(75 11.5) rotate(0 58.5 23)" stroke="none"><path fill="#586e75" d="M 0.56,-1.54 Q 0.56,-1.54 3.71,-0.35 6.85,0.83 9.63,1.93 12.42,3.03 22.24,7.25 32.06,11.48 46.27,17.00 60.47,22.53 72.84,27.47 85.22,32.42 95.07,36.25 104.91,40.08 108.24,41.71 111.56,43.34 111.71,43.41 111.85,43.49 111.97,43.60 112.09,43.71 112.18,43.84 112.28,43.98 112.33,44.13 112.39,44.28 112.41,44.44 112.43,44.60 112.40,44.77 112.38,44.93 112.32,45.08 112.27,45.23 112.17,45.36 112.08,45.50 111.96,45.60 111.83,45.71 111.69,45.78 111.55,45.86 111.39,45.90 111.23,45.93 111.07,45.93 110.90,45.93 110.75,45.89 110.59,45.85 109.02,45.16 107.46,44.47 99.44,41.28 91.42,38.09 82.24,34.41 73.05,30.73 64.86,27.73 56.67,24.73 47.13,21.15 37.60,17.56 31.25,15.17 24.91,12.79 21.62,11.48 18.34,10.16 15.75,8.76 13.17,7.36 12.97,7.19 12.78,7.03 12.65,6.80 12.51,6.58 12.46,6.33 12.40,6.08 12.43,5.82 12.46,5.57 12.57,5.33 12.68,5.10 12.85,4.91 13.03,4.72 13.26,4.60 13.49,4.48 13.74,4.44 14.00,4.40 14.25,4.44 14.51,4.48 14.73,4.61 14.96,4.73 15.14,4.91 15.32,5.10 15.42,5.34 15.53,5.57 15.56,5.83 15.59,6.08 15.53,6.34 15.48,6.59 15.34,6.81 15.21,7.03 15.01,7.20 14.82,7.36 14.58,7.46 14.34,7.55 14.08,7.57 13.82,7.58 13.57,7.51 13.32,7.44 13.11,7.30 12.90,7.15 12.74,6.95 12.58,6.74 12.50,6.50 12.42,6.25 12.42,5.99 12.42,5.73 12.50,5.49 12.59,5.25 12.74,5.04 12.90,4.84 13.11,4.69 13.33,4.55 13.58,4.48 13.83,4.41 14.08,4.42 14.34,4.44 14.58,4.53 14.82,4.63 14.82,4.63 14.82,4.63 17.08,6.15 19.33,7.67 22.60,8.95 25.86,10.24 32.21,12.61 38.57,14.99 48.09,18.55 57.62,22.10 65.87,25.09 74.11,28.07 83.31,31.71 92.50,35.34 100.68,38.54 108.85,41.73 110.21,42.53 111.56,43.34 111.71,43.41 111.85,43.49 111.97,43.60 112.09,43.71 112.18,43.84 112.28,43.98 112.33,44.13 112.39,44.28 112.41,44.44 112.43,44.60 112.40,44.77 112.38,44.93 112.33,45.08 112.27,45.23 112.17,45.36 112.08,45.50 111.96,45.60 111.83,45.71 111.69,45.78 111.55,45.86 111.39,45.90 111.23,45.93 111.07,45.93 110.90,45.93 110.75,45.89 110.59,45.85 107.26,44.23 103.93,42.62 94.06,38.80 84.19,34.99 71.82,30.07 59.45,25.15 45.19,19.64 30.93,14.13 21.14,9.97 11.35,5.81 8.57,4.79 5.79,3.76 2.61,2.65 -0.56,1.54 -0.74,1.45 -0.91,1.36 -1.06,1.23 -1.21,1.10 -1.33,0.94 -1.44,0.78 -1.52,0.60 -1.59,0.41 -1.62,0.21 -1.64,0.02 -1.62,-0.17 -1.60,-0.37 -1.53,-0.55 -1.46,-0.74 -1.35,-0.91 -1.24,-1.07 -1.10,-1.20 -0.95,-1.34 -0.78,-1.43 -0.60,-1.53 -0.41,-1.58 -0.22,-1.63 -0.02,-1.63 0.17,-1.63 0.36,-1.59 0.56,-1.54 0.56,-1.54 L 0.56,-1.54 Z"></path></g><g transform="translate(187 57.5) rotate(0 -4.5 47)" stroke="none"><path fill="#586e75" d="M 1.64,0.18 Q 1.64,0.18 1.31,2.76 0.98,5.34 0.24,10.20 -0.48,15.06 -1.38,21.42 -2.27,27.78 -3.23,39.36 -4.19,50.93 -4.61,61.88 -5.02,72.82 -5.49,80.09 -5.96,87.36 -6.57,92.06 -7.18,96.76 -7.07,96.36 -6.95,95.96 -6.98,96.13 -7.01,96.31 -7.08,96.48 -7.15,96.64 -7.26,96.79 -7.37,96.93 -7.51,97.04 -7.65,97.16 -7.82,97.24 -7.98,97.31 -8.16,97.35 -8.34,97.38 -8.52,97.37 -8.70,97.37 -8.87,97.31 -9.04,97.26 -9.20,97.17 -9.36,97.08 -9.49,96.95 -9.62,96.83 -9.71,96.67 -9.81,96.52 -9.86,96.35 -9.92,96.18 -9.93,96.00 -9.95,95.82 -9.74,91.84 -9.53,87.86 -8.89,76.65 -8.26,65.45 -7.41,52.07 -6.57,38.69 -5.63,28.67 -4.69,18.65 -4.01,10.96 -3.32,3.26 -2.42,1.56 -1.52,-0.13 -1.48,-0.31 -1.45,-0.49 -1.37,-0.66 -1.29,-0.83 -1.17,-0.97 -1.05,-1.11 -0.90,-1.22 -0.75,-1.33 -0.58,-1.40 -0.41,-1.47 -0.23,-1.50 -0.04,-1.53 0.13,-1.51 0.31,-1.50 0.49,-1.44 0.66,-1.38 0.82,-1.28 0.97,-1.18 1.10,-1.04 1.23,-0.91 1.32,-0.75 1.41,-0.58 1.46,-0.41 1.51,-0.23 1.52,-0.04 1.52,0.13 1.33,-0.44 1.14,-1.02 1.27,-0.81 1.40,-0.60 1.46,-0.36 1.52,-0.12 1.50,0.12 1.48,0.36 1.39,0.59 1.29,0.82 1.12,1.01 0.96,1.19 0.74,1.31 0.53,1.43 0.28,1.48 0.04,1.53 -0.20,1.50 -0.44,1.46 -0.67,1.35 -0.89,1.24 -1.06,1.07 -1.24,0.89 -1.35,0.67 -1.46,0.45 -1.49,0.20 -1.53,-0.04 -1.48,-0.28 -1.44,-0.52 -1.31,-0.74 -1.19,-0.96 -1.01,-1.12 -0.82,-1.29 -0.59,-1.39 -0.37,-1.48 -0.12,-1.50 0.12,-1.52 0.36,-1.46 0.60,-1.40 0.81,-1.27 1.02,-1.14 1.17,-0.94 1.33,-0.75 1.42,-0.52 1.50,-0.29 1.51,-0.04 1.52,0.20 1.44,0.44 1.37,0.68 1.23,0.88 1.08,1.08 0.88,1.22 0.68,1.37 0.44,1.44 0.20,1.52 -0.04,1.51 -0.28,1.50 -0.52,1.42 -0.75,1.33 -1.14,0.60 -1.52,-0.13 -1.48,-0.31 -1.45,-0.49 -1.37,-0.66 -1.29,-0.83 -1.17,-0.97 -1.05,-1.11 -0.90,-1.22 -0.75,-1.33 -0.58,-1.40 -0.41,-1.47 -0.23,-1.50 -0.04,-1.53 0.13,-1.51 0.31,-1.50 0.49,-1.44 0.66,-1.38 0.82,-1.28 0.97,-1.18 1.10,-1.04 1.23,-0.91 1.32,-0.75 1.41,-0.58 1.46,-0.41 1.51,-0.23 1.52,-0.04 1.52,0.13 0.41,1.81 -0.69,3.49 -1.37,11.20 -2.06,18.90 -2.99,28.88 -3.92,38.86 -4.76,52.23 -5.60,65.60 -6.22,76.77 -6.85,87.94 -6.90,91.95 -6.95,95.95 -6.98,96.13 -7.01,96.31 -7.08,96.48 -7.15,96.64 -7.26,96.79 -7.37,96.93 -7.51,97.04 -7.65,97.16 -7.82,97.23 -7.98,97.31 -8.16,97.35 -8.34,97.38 -8.52,97.37 -8.70,97.37 -8.87,97.31 -9.04,97.26 -9.20,97.17 -9.36,97.08 -9.49,96.95 -9.61,96.83 -9.71,96.67 -9.81,96.52 -9.86,96.35 -9.92,96.18 -9.93,96.00 -9.95,95.82 -9.09,95.27 -8.23,94.72 -8.46,90.95 -8.68,87.19 -8.23,79.95 -7.78,72.72 -7.39,61.71 -7.00,50.70 -6.07,39.04 -5.14,27.39 -4.29,21.01 -3.45,14.63 -2.79,9.81 -2.13,5.00 -1.88,2.40 -1.64,-0.18 -1.60,-0.37 -1.55,-0.57 -1.46,-0.75 -1.37,-0.92 -1.24,-1.07 -1.11,-1.23 -0.94,-1.34 -0.78,-1.46 -0.59,-1.53 -0.41,-1.60 -0.21,-1.63 -0.01,-1.65 0.18,-1.63 0.38,-1.61 0.56,-1.54 0.75,-1.47 0.92,-1.36 1.08,-1.25 1.22,-1.10 1.35,-0.95 1.45,-0.77 1.54,-0.60 1.59,-0.41 1.64,-0.21 1.64,-0.01 1.64,0.18 1.64,0.18 L 1.64,0.18 Z"></path></g><g transform="translate(67 189.5) rotate(0 47.5 -14)" stroke="none"><path fill="#586e75" d="M -0.51,-1.71 Q -0.51,-1.71 2.37,-2.51 5.27,-3.31 9.63,-4.77 14.00,-6.23 17.91,-7.43 21.82,-8.62 33.86,-11.71 45.90,-14.81 57.90,-17.83 69.91,-20.86 77.02,-22.72 84.13,-24.57 87.33,-25.88 90.53,-27.19 89.47,-27.29 88.42,-27.39 88.59,-27.44 88.77,-27.49 88.95,-27.49 89.13,-27.50 89.31,-27.46 89.49,-27.42 89.65,-27.34 89.81,-27.26 89.95,-27.15 90.09,-27.03 90.20,-26.88 90.31,-26.74 90.38,-26.57 90.45,-26.40 90.48,-26.22 90.50,-26.04 90.49,-25.86 90.47,-25.68 90.41,-25.51 90.35,-25.33 90.25,-25.18 90.15,-25.03 90.02,-24.90 89.89,-24.78 89.73,-24.69 89.57,-24.60 89.15,-24.56 88.72,-24.51 88.49,-24.59 88.26,-24.68 88.07,-24.83 87.88,-24.98 87.74,-25.19 87.61,-25.39 87.55,-25.63 87.49,-25.86 87.51,-26.11 87.53,-26.35 87.62,-26.58 87.72,-26.80 87.88,-26.98 88.04,-27.17 88.25,-27.29 88.47,-27.41 88.71,-27.46 88.95,-27.50 89.19,-27.47 89.43,-27.44 89.65,-27.33 89.87,-27.23 90.04,-27.05 90.22,-26.88 90.33,-26.66 90.43,-26.45 90.47,-26.20 90.50,-25.96 90.46,-25.72 90.41,-25.48 90.30,-25.27 90.18,-25.06 90.00,-24.89 89.81,-24.73 89.59,-24.63 89.37,-24.53 89.12,-24.51 88.88,-24.49 88.64,-24.55 88.41,-24.61 88.20,-24.74 87.99,-24.87 87.84,-25.06 87.69,-25.25 87.60,-25.47 87.51,-25.70 87.51,-25.95 87.50,-26.19 87.57,-26.42 87.64,-26.66 87.78,-26.86 87.92,-27.06 88.12,-27.20 88.32,-27.34 88.55,-27.42 88.78,-27.49 88.60,-27.44 88.42,-27.39 88.59,-27.44 88.77,-27.49 88.95,-27.49 89.13,-27.50 89.31,-27.46 89.49,-27.42 89.65,-27.34 89.81,-27.26 89.95,-27.15 90.09,-27.03 90.20,-26.88 90.31,-26.74 90.38,-26.57 90.45,-26.40 90.48,-26.22 90.50,-26.04 90.49,-25.86 90.47,-25.68 90.41,-25.51 90.35,-25.33 90.25,-25.18 90.15,-25.03 90.02,-24.90 89.89,-24.78 89.73,-24.69 89.57,-24.60 90.62,-24.67 91.68,-24.75 88.26,-23.32 84.84,-21.89 77.72,-20.01 70.60,-18.13 58.61,-15.06 46.62,-12.00 34.67,-8.88 22.71,-5.76 18.87,-4.52 15.03,-3.27 10.62,-1.70 6.22,-0.13 3.37,0.79 0.51,1.71 0.30,1.75 0.08,1.78 -0.12,1.77 -0.34,1.75 -0.54,1.69 -0.75,1.62 -0.93,1.51 -1.11,1.39 -1.27,1.24 -1.42,1.08 -1.53,0.90 -1.64,0.71 -1.70,0.51 -1.76,0.30 -1.77,0.08 -1.78,-0.12 -1.74,-0.33 -1.70,-0.55 -1.61,-0.74 -1.52,-0.94 -1.38,-1.11 -1.25,-1.27 -1.08,-1.41 -0.91,-1.54 -0.71,-1.62 -0.51,-1.71 -0.51,-1.71 L -0.51,-1.71 Z"></path></g><g transform="translate(175 158.5) rotate(0 -44.5 14.5)" stroke="none"><path fill="#586e75" d="M 0.69,1.39 Q 0.69,1.39 -1.61,2.51 -3.93,3.63 -7.52,5.26 -11.12,6.89 -14.10,8.15 -17.07,9.41 -24.42,11.97 -31.76,14.53 -40.94,17.05 -50.13,19.58 -56.02,21.22 -61.92,22.86 -66.99,24.41 -72.07,25.97 -75.96,27.20 -79.84,28.43 -82.42,28.97 -85.00,29.52 -86.85,29.95 -88.70,30.39 -88.93,30.40 -89.16,30.41 -89.38,30.34 -89.61,30.28 -89.79,30.15 -89.98,30.02 -90.12,29.83 -90.26,29.65 -90.33,29.43 -90.40,29.21 -90.40,28.98 -90.40,28.75 -90.32,28.53 -90.24,28.32 -90.10,28.13 -89.96,27.95 -89.77,27.82 -89.58,27.70 -89.36,27.64 -89.13,27.58 -88.90,27.59 -88.67,27.61 -88.46,27.70 -88.25,27.78 -88.08,27.93 -87.90,28.09 -87.78,28.28 -87.67,28.48 -87.62,28.71 -87.57,28.93 -87.60,29.16 -87.63,29.39 -87.73,29.60 -87.83,29.81 -87.99,29.97 -88.15,30.14 -88.35,30.24 -88.55,30.35 -88.78,30.38 -89.01,30.42 -89.24,30.38 -89.46,30.34 -89.67,30.23 -89.87,30.12 -90.02,29.95 -90.18,29.78 -90.28,29.57 -90.37,29.36 -90.39,29.13 -90.41,28.90 -90.36,28.68 -90.31,28.45 -90.19,28.26 -90.07,28.06 -89.89,27.92 -89.72,27.77 -89.50,27.69 -89.29,27.60 -89.29,27.60 -89.29,27.60 -87.42,27.26 -85.55,26.92 -83.10,26.41 -80.65,25.89 -76.75,24.65 -72.86,23.40 -67.75,21.83 -62.64,20.26 -56.75,18.61 -50.85,16.95 -41.76,14.43 -32.67,11.92 -25.43,9.37 -18.19,6.82 -15.26,5.54 -12.33,4.26 -8.80,2.61 -5.26,0.96 -2.98,-0.21 -0.69,-1.39 -0.52,-1.46 -0.34,-1.52 -0.15,-1.54 0.03,-1.56 0.21,-1.53 0.40,-1.50 0.57,-1.43 0.75,-1.36 0.90,-1.25 1.05,-1.14 1.18,-1.00 1.30,-0.86 1.38,-0.69 1.47,-0.52 1.51,-0.34 1.55,-0.15 1.55,0.03 1.54,0.21 1.49,0.40 1.44,0.58 1.35,0.74 1.26,0.91 1.14,1.05 1.01,1.18 0.85,1.29 0.69,1.39 0.69,1.39 L 0.69,1.39 Z"></path></g><g transform="translate(13 112.5) rotate(0 34 36.5)" stroke="none"><path fill="#586e75" d="M -1.74,0 Q -1.74,0 -1.81,-1.21 -1.89,-2.43 -1.69,-2.85 -1.50,-3.27 -1.47,-3.52 -1.44,-3.77 -1.35,-4.00 -1.26,-4.24 -1.12,-4.44 -0.97,-4.65 -0.79,-4.82 -0.60,-4.98 -0.38,-5.10 -0.16,-5.21 0.08,-5.27 0.32,-5.33 0.57,-5.33 0.82,-5.33 1.06,-5.27 1.31,-5.21 1.53,-5.10 1.75,-4.98 1.94,-4.81 2.12,-4.65 2.27,-4.44 2.41,-4.24 2.50,-4.00 2.59,-3.77 2.62,-3.52 2.65,-3.27 3.84,-2.04 5.02,-0.82 6.06,0.56 7.10,1.94 11.16,7.42 15.23,12.90 22.68,22.13 30.13,31.36 38.45,40.74 46.76,50.12 53.19,57.60 59.61,65.08 60.44,67.31 61.27,69.54 61.88,71.00 62.50,72.46 62.54,72.71 62.59,72.96 62.55,73.22 62.52,73.48 62.40,73.71 62.28,73.94 62.10,74.12 61.92,74.30 61.68,74.41 61.45,74.53 61.20,74.56 60.94,74.59 60.69,74.54 60.43,74.49 60.21,74.36 59.98,74.23 59.81,74.04 59.64,73.84 59.54,73.61 59.44,73.37 59.42,73.11 59.40,72.85 59.47,72.60 59.53,72.35 59.67,72.14 59.82,71.92 60.02,71.76 60.22,71.60 60.46,71.51 60.71,71.42 60.97,71.42 61.22,71.41 61.47,71.49 61.72,71.57 61.92,71.72 62.13,71.88 62.28,72.09 62.43,72.30 62.51,72.54 62.58,72.79 62.57,73.05 62.56,73.31 62.47,73.55 62.38,73.79 62.22,73.99 62.05,74.19 61.83,74.33 61.61,74.47 61.36,74.53 61.11,74.59 60.85,74.56 60.60,74.54 60.36,74.44 60.12,74.33 59.93,74.16 59.74,73.99 59.62,73.76 59.49,73.53 59.49,73.53 59.49,73.53 59.04,72.02 58.59,70.50 57.98,68.71 57.36,66.93 50.93,59.53 44.49,52.14 36.07,42.76 27.66,33.37 20.09,24.17 12.52,14.96 8.30,9.52 4.08,4.08 3.22,2.78 2.35,1.48 0.42,-0.89 -1.50,-3.27 -1.47,-3.52 -1.44,-3.77 -1.35,-4.00 -1.26,-4.24 -1.12,-4.44 -0.97,-4.65 -0.79,-4.81 -0.60,-4.98 -0.38,-5.10 -0.16,-5.21 0.08,-5.27 0.32,-5.33 0.57,-5.33 0.82,-5.33 1.06,-5.27 1.31,-5.21 1.53,-5.10 1.75,-4.98 1.94,-4.82 2.12,-4.65 2.27,-4.44 2.41,-4.24 2.50,-4.00 2.59,-3.77 2.62,-3.52 2.65,-3.27 2.27,-2.72 1.89,-2.16 1.81,-1.08 1.74,0 1.71,0.20 1.69,0.41 1.61,0.61 1.54,0.81 1.42,0.98 1.30,1.15 1.14,1.29 0.99,1.43 0.80,1.53 0.61,1.63 0.41,1.68 0.21,1.73 -0.00,1.73 -0.21,1.73 -0.41,1.68 -0.61,1.63 -0.80,1.53 -0.99,1.43 -1.14,1.29 -1.30,1.15 -1.42,0.98 -1.54,0.81 -1.61,0.61 -1.69,0.41 -1.71,0.20 -1.74,-0.00 -1.74,-0.00 L -1.74,0 Z"></path></g><g transform="translate(70 187.5) rotate(0 -27 -37)" stroke="none"><path fill="#586e75" d="M -1.40,0.86 Q -1.40,0.86 -3.66,-2.89 -5.92,-6.65 -8.87,-11.11 -11.81,-15.57 -14.49,-19.48 -17.18,-23.39 -22.61,-30.80 -28.05,-38.20 -33.80,-45.66 -39.55,-53.12 -44.01,-58.88 -48.47,-64.65 -51.77,-68.91 -55.06,-73.17 -55.17,-73.36 -55.27,-73.55 -55.31,-73.77 -55.34,-73.98 -55.31,-74.20 -55.28,-74.41 -55.18,-74.61 -55.08,-74.80 -54.92,-74.95 -54.76,-75.10 -54.57,-75.20 -54.37,-75.29 -54.15,-75.32 -53.93,-75.34 -53.72,-75.30 -53.51,-75.25 -53.32,-75.14 -53.13,-75.03 -52.99,-74.87 -52.85,-74.70 -52.76,-74.50 -52.68,-74.30 -52.67,-74.08 -52.65,-73.86 -52.71,-73.65 -52.77,-73.44 -52.89,-73.26 -53.01,-73.08 -53.18,-72.94 -53.35,-72.81 -53.56,-72.74 -53.76,-72.67 -53.98,-72.66 -54.20,-72.66 -54.41,-72.73 -54.62,-72.80 -54.79,-72.93 -54.97,-73.06 -55.09,-73.24 -55.21,-73.42 -55.27,-73.63 -55.33,-73.84 -55.32,-74.05 -55.31,-74.27 -55.24,-74.48 -55.16,-74.68 -55.02,-74.85 -54.88,-75.01 -54.69,-75.13 -54.51,-75.24 -54.29,-75.29 -54.08,-75.34 -53.86,-75.32 -53.65,-75.30 -53.45,-75.21 -53.25,-75.12 -53.09,-74.97 -52.93,-74.82 -52.93,-74.82 -52.93,-74.82 -49.62,-70.57 -46.32,-66.32 -41.84,-60.56 -37.37,-54.81 -31.58,-47.34 -25.79,-39.87 -20.30,-32.46 -14.81,-25.04 -12.07,-21.13 -9.34,-17.23 -6.30,-12.76 -3.27,-8.29 -0.93,-4.57 1.40,-0.86 1.48,-0.68 1.56,-0.50 1.60,-0.30 1.64,-0.11 1.63,0.08 1.62,0.28 1.56,0.47 1.50,0.66 1.40,0.83 1.30,1.00 1.16,1.14 1.02,1.28 0.85,1.39 0.68,1.49 0.49,1.55 0.30,1.61 0.11,1.63 -0.08,1.64 -0.28,1.60 -0.47,1.57 -0.65,1.49 -0.84,1.41 -0.99,1.29 -1.15,1.17 -1.27,1.01 -1.40,0.86 -1.40,0.86 L -1.40,0.86 Z"></path></g><g transform="translate(250 110) rotate(0 30.5 -49)" stroke="none"><path fill="#586e75" d="M -1.27,-0.90 Q -1.27,-0.90 0.19,-2.90 1.65,-4.89 3.70,-8.00 5.76,-11.12 8.96,-15.63 12.16,-20.15 16.09,-26.06 20.03,-31.98 23.70,-38.20 27.37,-44.43 30.96,-50.54 34.54,-56.64 37.78,-62.39 41.03,-68.14 43.86,-72.90 46.68,-77.66 48.74,-81.38 50.79,-85.10 52.23,-87.83 53.68,-90.56 54.89,-92.62 56.10,-94.67 56.83,-95.93 57.56,-97.19 58.09,-97.74 58.62,-98.28 58.76,-98.44 58.90,-98.60 59.08,-98.72 59.25,-98.84 59.45,-98.91 59.65,-98.99 59.86,-99.01 60.07,-99.04 60.28,-99.01 60.49,-98.99 60.69,-98.91 60.89,-98.84 61.07,-98.72 61.24,-98.59 61.38,-98.43 61.53,-98.28 61.62,-98.09 61.72,-97.90 61.77,-97.69 61.82,-97.49 61.82,-97.27 61.82,-97.06 61.77,-96.85 61.72,-96.65 61.62,-96.46 61.52,-96.27 61.38,-95.12 61.24,-93.97 57.82,-87.37 54.40,-80.77 50.06,-73.13 45.72,-65.49 40.71,-56.80 35.69,-48.11 30.95,-40.10 26.22,-32.09 22.48,-25.82 18.73,-19.55 16.57,-15.75 14.40,-11.95 13.50,-10.66 12.60,-9.37 12.78,-9.20 12.95,-9.04 13.06,-8.83 13.17,-8.62 13.21,-8.38 13.25,-8.15 13.21,-7.91 13.18,-7.67 13.06,-7.46 12.95,-7.25 12.78,-7.09 12.61,-6.92 12.39,-6.82 12.17,-6.72 11.93,-6.70 11.70,-6.67 11.46,-6.72 11.23,-6.77 11.02,-6.89 10.82,-7.02 10.66,-7.20 10.51,-7.38 10.42,-7.60 10.33,-7.82 10.32,-8.06 10.31,-8.30 10.37,-8.53 10.43,-8.76 10.57,-8.96 10.70,-9.16 10.89,-9.30 11.08,-9.45 11.31,-9.52 11.53,-9.60 11.77,-9.60 12.01,-9.60 12.24,-9.53 12.47,-9.45 12.66,-9.31 12.85,-9.16 12.98,-8.96 13.11,-8.77 13.18,-8.54 13.24,-8.31 13.23,-8.07 13.22,-7.83 13.13,-7.61 13.04,-7.38 12.89,-7.20 12.73,-7.02 12.53,-6.90 12.32,-6.77 12.09,-6.72 11.86,-6.67 11.62,-6.69 11.38,-6.72 11.16,-6.82 10.95,-6.92 10.95,-6.92 10.95,-6.92 11.46,-10.12 11.97,-13.33 14.12,-17.17 16.27,-21.01 19.97,-27.30 23.68,-33.59 28.35,-41.61 33.02,-49.63 37.96,-58.35 42.90,-67.08 47.10,-74.71 51.31,-82.35 54.47,-88.69 57.62,-95.03 58.12,-96.66 58.62,-98.28 58.76,-98.44 58.90,-98.60 59.08,-98.72 59.25,-98.84 59.45,-98.91 59.65,-98.99 59.86,-99.01 60.07,-99.04 60.28,-99.01 60.49,-98.99 60.69,-98.91 60.89,-98.84 61.07,-98.72 61.24,-98.59 61.38,-98.44 61.52,-98.28 61.62,-98.09 61.72,-97.90 61.77,-97.69 61.82,-97.49 61.82,-97.27 61.82,-97.06 61.77,-96.85 61.72,-96.65 61.62,-96.46 61.52,-96.27 60.80,-95.83 60.08,-95.40 59.23,-94.36 58.37,-93.33 57.20,-91.33 56.02,-89.32 54.57,-86.57 53.11,-83.82 51.04,-80.06 48.98,-76.30 46.17,-71.56 43.36,-66.82 40.12,-61.05 36.87,-55.28 33.30,-49.16 29.72,-43.05 26.03,-36.75 22.33,-30.45 18.40,-24.49 14.46,-18.53 11.32,-14.04 8.18,-9.54 6.13,-6.35 4.09,-3.15 2.68,-1.12 1.27,0.90 1.14,1.04 1.01,1.18 0.86,1.29 0.70,1.39 0.52,1.45 0.34,1.52 0.16,1.54 -0.02,1.56 -0.21,1.53 -0.39,1.51 -0.57,1.44 -0.74,1.37 -0.90,1.26 -1.05,1.15 -1.17,1.00 -1.29,0.86 -1.38,0.69 -1.46,0.53 -1.51,0.34 -1.55,0.16 -1.55,-0.02 -1.54,-0.21 -1.49,-0.39 -1.45,-0.57 -1.36,-0.74 -1.27,-0.90 -1.27,-0.90 L -1.27,-0.90 Z"></path></g><g transform="translate(315 11) rotate(0 58.5 23)" stroke="none"><path fill="#586e75" d="M 0.56,-1.54 Q 0.56,-1.54 3.71,-0.35 6.85,0.83 9.63,1.93 12.42,3.03 22.24,7.25 32.06,11.48 46.27,17.00 60.47,22.53 72.84,27.47 85.22,32.42 95.07,36.25 104.91,40.08 108.24,41.71 111.56,43.34 111.71,43.41 111.85,43.49 111.97,43.60 112.09,43.71 112.18,43.84 112.28,43.98 112.33,44.13 112.39,44.28 112.41,44.44 112.43,44.60 112.40,44.77 112.38,44.93 112.32,45.08 112.27,45.23 112.17,45.36 112.08,45.50 111.96,45.60 111.83,45.71 111.69,45.78 111.55,45.86 111.39,45.90 111.23,45.93 111.07,45.93 110.90,45.93 110.75,45.89 110.59,45.85 109.02,45.16 107.46,44.47 99.44,41.28 91.42,38.09 82.24,34.41 73.05,30.73 64.86,27.73 56.67,24.73 47.13,21.15 37.60,17.56 31.25,15.17 24.91,12.79 21.62,11.48 18.34,10.16 16.20,9.02 14.06,7.87 13.86,7.70 13.67,7.54 13.54,7.32 13.41,7.10 13.36,6.85 13.30,6.61 13.33,6.35 13.36,6.10 13.46,5.87 13.57,5.64 13.75,5.46 13.92,5.27 14.15,5.15 14.37,5.03 14.62,4.99 14.87,4.95 15.12,4.99 15.37,5.04 15.60,5.15 15.82,5.27 16.00,5.46 16.17,5.64 16.28,5.87 16.38,6.10 16.41,6.36 16.44,6.61 16.38,6.86 16.33,7.11 16.20,7.32 16.06,7.54 15.87,7.70 15.68,7.87 15.44,7.96 15.20,8.06 14.95,8.07 14.70,8.08 14.45,8.01 14.21,7.95 14.00,7.80 13.79,7.66 13.63,7.46 13.48,7.26 13.40,7.01 13.32,6.77 13.32,6.52 13.32,6.27 13.40,6.03 13.48,5.79 13.64,5.58 13.79,5.38 14.00,5.24 14.21,5.10 14.46,5.03 14.70,4.96 14.96,4.98 15.21,4.99 15.44,5.08 15.68,5.18 15.68,5.18 15.68,5.18 17.51,6.42 19.33,7.67 22.60,8.95 25.86,10.24 32.21,12.61 38.57,14.99 48.09,18.55 57.62,22.10 65.87,25.09 74.11,28.07 83.31,31.71 92.50,35.34 100.68,38.54 108.85,41.73 110.21,42.53 111.56,43.34 111.71,43.41 111.85,43.49 111.97,43.60 112.09,43.71 112.18,43.84 112.28,43.98 112.33,44.13 112.39,44.28 112.41,44.44 112.43,44.60 112.40,44.77 112.38,44.93 112.33,45.08 112.27,45.23 112.17,45.36 112.08,45.50 111.96,45.60 111.83,45.71 111.69,45.78 111.55,45.86 111.39,45.90 111.23,45.93 111.07,45.93 110.90,45.93 110.75,45.89 110.59,45.85 107.26,44.23 103.93,42.62 94.06,38.80 84.19,34.99 71.82,30.07 59.45,25.15 45.19,19.64 30.93,14.13 21.14,9.97 11.35,5.81 8.57,4.79 5.79,3.76 2.61,2.65 -0.56,1.54 -0.74,1.45 -0.91,1.36 -1.06,1.23 -1.21,1.10 -1.33,0.94 -1.44,0.78 -1.52,0.60 -1.59,0.41 -1.62,0.21 -1.64,0.02 -1.62,-0.17 -1.60,-0.37 -1.53,-0.55 -1.46,-0.74 -1.35,-0.91 -1.24,-1.07 -1.10,-1.20 -0.95,-1.34 -0.78,-1.43 -0.60,-1.53 -0.41,-1.58 -0.22,-1.63 -0.02,-1.63 0.17,-1.63 0.36,-1.59 0.56,-1.54 0.56,-1.54 L 0.56,-1.54 Z"></path></g><g transform="translate(427 57) rotate(0 -4.5 47)" stroke="none"><path fill="#586e75" d="M 1.64,0.18 Q 1.64,0.18 1.31,2.76 0.98,5.34 0.24,10.20 -0.48,15.06 -1.38,21.42 -2.27,27.78 -3.23,39.36 -4.19,50.93 -4.61,61.88 -5.02,72.82 -5.49,80.09 -5.96,87.36 -6.57,92.06 -7.18,96.76 -7.07,96.36 -6.95,95.96 -6.98,96.13 -7.01,96.31 -7.08,96.48 -7.15,96.64 -7.26,96.79 -7.37,96.93 -7.51,97.04 -7.65,97.16 -7.82,97.24 -7.98,97.31 -8.16,97.35 -8.34,97.38 -8.52,97.37 -8.70,97.37 -8.87,97.31 -9.04,97.26 -9.20,97.17 -9.36,97.08 -9.49,96.95 -9.62,96.83 -9.71,96.67 -9.81,96.52 -9.86,96.35 -9.92,96.18 -9.93,96.00 -9.95,95.82 -9.74,91.84 -9.53,87.86 -8.89,76.65 -8.26,65.45 -7.41,52.07 -6.57,38.69 -5.63,28.67 -4.69,18.65 -4.01,10.96 -3.32,3.26 -2.62,1.43 -1.91,-0.38 -1.88,-0.56 -1.84,-0.73 -1.76,-0.89 -1.69,-1.05 -1.57,-1.18 -1.46,-1.32 -1.32,-1.42 -1.18,-1.53 -1.01,-1.60 -0.85,-1.66 -0.67,-1.69 -0.50,-1.72 -0.32,-1.70 -0.15,-1.69 0.01,-1.63 0.18,-1.57 0.32,-1.48 0.47,-1.38 0.59,-1.25 0.72,-1.12 0.80,-0.97 0.89,-0.82 0.94,-0.65 0.99,-0.48 0.99,-0.30 1.00,-0.12 0.81,-0.68 0.63,-1.23 0.75,-1.03 0.88,-0.83 0.94,-0.60 1.00,-0.37 0.98,-0.14 0.96,0.09 0.87,0.31 0.77,0.52 0.61,0.70 0.46,0.88 0.25,0.99 0.04,1.11 -0.18,1.16 -0.41,1.20 -0.65,1.17 -0.88,1.14 -1.09,1.03 -1.31,0.93 -1.47,0.76 -1.64,0.59 -1.75,0.38 -1.85,0.17 -1.89,-0.06 -1.92,-0.29 -1.87,-0.52 -1.83,-0.76 -1.71,-0.96 -1.60,-1.17 -1.42,-1.33 -1.24,-1.49 -1.03,-1.58 -0.81,-1.68 -0.57,-1.69 -0.34,-1.71 -0.11,-1.66 0.12,-1.60 0.31,-1.47 0.51,-1.34 0.66,-1.16 0.81,-0.98 0.89,-0.75 0.98,-0.53 0.98,-0.29 0.99,-0.06 0.92,0.16 0.85,0.39 0.71,0.58 0.57,0.77 0.38,0.91 0.19,1.05 -0.03,1.12 -0.25,1.19 -0.49,1.18 -0.73,1.18 -0.95,1.09 -1.17,1.01 -1.54,0.31 -1.91,-0.38 -1.88,-0.56 -1.84,-0.73 -1.76,-0.89 -1.69,-1.05 -1.57,-1.18 -1.46,-1.32 -1.32,-1.42 -1.18,-1.53 -1.01,-1.60 -0.85,-1.66 -0.67,-1.69 -0.50,-1.72 -0.32,-1.70 -0.15,-1.69 0.01,-1.63 0.18,-1.57 0.32,-1.48 0.47,-1.38 0.59,-1.25 0.72,-1.12 0.80,-0.97 0.89,-0.82 0.94,-0.65 0.99,-0.48 0.99,-0.30 1.00,-0.12 0.15,1.68 -0.69,3.49 -1.37,11.20 -2.06,18.90 -2.99,28.88 -3.92,38.86 -4.76,52.23 -5.60,65.60 -6.22,76.77 -6.85,87.94 -6.90,91.95 -6.95,95.95 -6.98,96.13 -7.01,96.31 -7.08,96.48 -7.15,96.64 -7.26,96.79 -7.37,96.93 -7.51,97.04 -7.65,97.16 -7.82,97.23 -7.98,97.31 -8.16,97.35 -8.34,97.38 -8.52,97.37 -8.70,97.37 -8.87,97.31 -9.04,97.26 -9.20,97.17 -9.36,97.08 -9.49,96.95 -9.61,96.83 -9.71,96.67 -9.81,96.52 -9.86,96.35 -9.92,96.18 -9.93,96.00 -9.95,95.82 -9.09,95.27 -8.23,94.72 -8.46,90.95 -8.68,87.19 -8.23,79.95 -7.78,72.72 -7.39,61.71 -7.00,50.70 -6.07,39.04 -5.14,27.39 -4.29,21.01 -3.45,14.63 -2.79,9.81 -2.13,5.00 -1.88,2.40 -1.64,-0.18 -1.60,-0.37 -1.55,-0.57 -1.46,-0.75 -1.37,-0.92 -1.24,-1.07 -1.11,-1.23 -0.94,-1.34 -0.78,-1.46 -0.59,-1.53 -0.41,-1.60 -0.21,-1.63 -0.01,-1.65 0.18,-1.63 0.38,-1.61 0.56,-1.54 0.75,-1.47 0.92,-1.36 1.08,-1.25 1.22,-1.10 1.35,-0.95 1.45,-0.77 1.54,-0.60 1.59,-0.41 1.64,-0.21 1.64,-0.01 1.64,0.18 1.64,0.18 L 1.64,0.18 Z"></path></g><g transform="translate(307 189) rotate(0 47.5 -14)" stroke="none"><path fill="#586e75" d="M -0.51,-1.71 Q -0.51,-1.71 2.37,-2.51 5.27,-3.31 9.63,-4.77 14.00,-6.23 17.91,-7.43 21.82,-8.62 33.86,-11.71 45.90,-14.81 57.90,-17.83 69.91,-20.86 77.02,-22.72 84.13,-24.57 87.33,-25.88 90.53,-27.19 89.64,-27.29 88.74,-27.38 88.91,-27.43 89.08,-27.48 89.26,-27.48 89.43,-27.49 89.60,-27.45 89.78,-27.41 89.93,-27.34 90.09,-27.26 90.23,-27.15 90.36,-27.04 90.46,-26.89 90.57,-26.75 90.63,-26.59 90.70,-26.43 90.73,-26.25 90.75,-26.08 90.74,-25.91 90.72,-25.73 90.67,-25.57 90.61,-25.40 90.51,-25.25 90.42,-25.11 90.29,-24.99 90.16,-24.87 90.01,-24.78 89.86,-24.69 89.45,-24.65 89.03,-24.61 88.81,-24.69 88.59,-24.77 88.41,-24.91 88.22,-25.06 88.09,-25.26 87.97,-25.46 87.91,-25.68 87.85,-25.91 87.87,-26.15 87.89,-26.38 87.98,-26.60 88.07,-26.82 88.23,-26.99 88.38,-27.17 88.59,-27.28 88.79,-27.40 89.02,-27.45 89.25,-27.49 89.49,-27.46 89.72,-27.43 89.93,-27.33 90.14,-27.23 90.31,-27.06 90.48,-26.89 90.58,-26.68 90.69,-26.47 90.72,-26.24 90.75,-26.01 90.71,-25.78 90.67,-25.54 90.55,-25.34 90.44,-25.13 90.26,-24.97 90.09,-24.82 89.87,-24.72 89.66,-24.63 89.42,-24.61 89.19,-24.59 88.96,-24.64 88.73,-24.70 88.53,-24.82 88.33,-24.95 88.19,-25.13 88.04,-25.32 87.95,-25.54 87.87,-25.76 87.86,-25.99 87.86,-26.23 87.92,-26.45 87.99,-26.68 88.13,-26.87 88.27,-27.06 88.46,-27.20 88.65,-27.34 88.87,-27.41 89.10,-27.48 88.92,-27.43 88.74,-27.38 88.91,-27.43 89.08,-27.48 89.26,-27.48 89.43,-27.49 89.60,-27.45 89.78,-27.41 89.93,-27.34 90.09,-27.26 90.23,-27.15 90.36,-27.04 90.46,-26.89 90.57,-26.75 90.63,-26.59 90.70,-26.43 90.73,-26.26 90.75,-26.08 90.74,-25.91 90.72,-25.73 90.67,-25.57 90.61,-25.40 90.51,-25.25 90.42,-25.11 90.29,-24.99 90.16,-24.87 90.01,-24.78 89.86,-24.69 90.77,-24.72 91.68,-24.75 88.26,-23.32 84.84,-21.89 77.72,-20.01 70.60,-18.13 58.61,-15.06 46.62,-12.00 34.67,-8.88 22.71,-5.76 18.87,-4.52 15.03,-3.27 10.62,-1.70 6.22,-0.13 3.37,0.79 0.51,1.71 0.30,1.75 0.08,1.78 -0.12,1.77 -0.34,1.75 -0.54,1.69 -0.75,1.62 -0.93,1.51 -1.11,1.39 -1.27,1.24 -1.42,1.08 -1.53,0.90 -1.64,0.71 -1.70,0.51 -1.76,0.30 -1.77,0.08 -1.78,-0.12 -1.74,-0.33 -1.70,-0.55 -1.61,-0.74 -1.52,-0.94 -1.38,-1.11 -1.25,-1.27 -1.08,-1.41 -0.91,-1.54 -0.71,-1.62 -0.51,-1.71 -0.51,-1.71 L -0.51,-1.71 Z"></path></g><g transform="translate(415 158) rotate(0 -44.5 14.5)" stroke="none"><path fill="#586e75" d="M 0.69,1.39 Q 0.69,1.39 -1.61,2.51 -3.93,3.63 -7.52,5.26 -11.12,6.89 -14.10,8.15 -17.07,9.41 -24.42,11.97 -31.76,14.53 -40.94,17.05 -50.13,19.58 -56.02,21.22 -61.92,22.86 -66.99,24.41 -72.07,25.97 -75.96,27.20 -79.84,28.43 -83.47,29.33 -87.09,30.22 -87.35,30.23 -87.60,30.24 -87.85,30.17 -88.10,30.10 -88.31,29.95 -88.52,29.81 -88.67,29.60 -88.83,29.39 -88.90,29.15 -88.98,28.90 -88.98,28.65 -88.98,28.39 -88.89,28.15 -88.81,27.91 -88.65,27.70 -88.49,27.50 -88.28,27.36 -88.07,27.22 -87.82,27.15 -87.57,27.08 -87.31,27.10 -87.06,27.12 -86.82,27.21 -86.58,27.31 -86.39,27.48 -86.19,27.65 -86.06,27.87 -85.93,28.09 -85.88,28.34 -85.83,28.59 -85.86,28.85 -85.89,29.11 -86.00,29.34 -86.11,29.57 -86.29,29.75 -86.47,29.94 -86.70,30.06 -86.92,30.17 -87.18,30.21 -87.43,30.25 -87.68,30.21 -87.94,30.16 -88.16,30.04 -88.39,29.92 -88.56,29.73 -88.74,29.54 -88.84,29.31 -88.95,29.07 -88.97,28.82 -89.00,28.56 -88.94,28.31 -88.88,28.06 -88.75,27.84 -88.61,27.62 -88.42,27.46 -88.22,27.29 -87.98,27.20 -87.74,27.11 -87.74,27.11 -87.74,27.11 -84.19,26.50 -80.65,25.89 -76.75,24.65 -72.86,23.40 -67.75,21.83 -62.64,20.26 -56.75,18.61 -50.85,16.95 -41.76,14.43 -32.67,11.92 -25.43,9.37 -18.19,6.82 -15.26,5.54 -12.33,4.26 -8.80,2.61 -5.26,0.96 -2.98,-0.21 -0.69,-1.39 -0.52,-1.46 -0.34,-1.52 -0.15,-1.54 0.03,-1.56 0.21,-1.53 0.40,-1.50 0.57,-1.43 0.75,-1.36 0.90,-1.25 1.05,-1.14 1.18,-1.00 1.30,-0.86 1.38,-0.69 1.47,-0.52 1.51,-0.34 1.55,-0.15 1.55,0.03 1.54,0.21 1.49,0.40 1.44,0.58 1.35,0.74 1.26,0.91 1.14,1.05 1.01,1.18 0.85,1.29 0.69,1.39 0.69,1.39 L 0.69,1.39 Z"></path></g><g transform="translate(253 112) rotate(0 34 36.5)" stroke="none"><path fill="#586e75" d="M -1.74,0 Q -1.74,0 -1.81,-1.21 -1.89,-2.43 -1.69,-2.85 -1.50,-3.27 -1.47,-3.52 -1.44,-3.77 -1.35,-4.00 -1.26,-4.24 -1.12,-4.44 -0.97,-4.65 -0.79,-4.82 -0.60,-4.98 -0.38,-5.10 -0.16,-5.21 0.08,-5.27 0.32,-5.33 0.57,-5.33 0.82,-5.33 1.06,-5.27 1.31,-5.21 1.53,-5.10 1.75,-4.98 1.94,-4.81 2.12,-4.65 2.27,-4.44 2.41,-4.24 2.50,-4.00 2.59,-3.77 2.62,-3.52 2.65,-3.27 3.84,-2.04 5.02,-0.82 6.06,0.56 7.10,1.94 11.16,7.42 15.23,12.90 22.68,22.13 30.13,31.36 38.45,40.74 46.76,50.12 53.19,57.60 59.61,65.08 60.88,68.12 62.14,71.16 62.19,71.43 62.24,71.70 62.20,71.97 62.16,72.24 62.04,72.49 61.91,72.73 61.72,72.92 61.52,73.12 61.27,73.24 61.03,73.36 60.75,73.39 60.48,73.43 60.21,73.37 59.94,73.32 59.71,73.18 59.47,73.05 59.29,72.84 59.11,72.63 59.00,72.38 58.89,72.13 58.87,71.85 58.85,71.58 58.92,71.31 58.99,71.05 59.14,70.82 59.29,70.59 59.50,70.42 59.72,70.25 59.98,70.16 60.24,70.06 60.51,70.06 60.78,70.05 61.05,70.14 61.31,70.22 61.53,70.38 61.75,70.54 61.91,70.77 62.07,70.99 62.15,71.25 62.22,71.52 62.21,71.79 62.21,72.06 62.11,72.32 62.01,72.58 61.84,72.79 61.66,73.00 61.43,73.15 61.20,73.30 60.93,73.36 60.67,73.42 60.39,73.40 60.12,73.37 59.87,73.26 59.62,73.15 59.41,72.97 59.21,72.78 59.08,72.54 58.95,72.30 58.95,72.30 58.95,72.30 58.15,69.62 57.36,66.93 50.93,59.53 44.49,52.14 36.07,42.76 27.66,33.37 20.09,24.17 12.52,14.96 8.30,9.52 4.08,4.08 3.22,2.78 2.35,1.48 0.42,-0.89 -1.50,-3.27 -1.47,-3.52 -1.44,-3.77 -1.35,-4.00 -1.26,-4.24 -1.12,-4.44 -0.97,-4.65 -0.79,-4.81 -0.60,-4.98 -0.38,-5.10 -0.16,-5.21 0.08,-5.27 0.32,-5.33 0.57,-5.33 0.82,-5.33 1.06,-5.27 1.31,-5.21 1.53,-5.10 1.75,-4.98 1.94,-4.82 2.12,-4.65 2.27,-4.44 2.41,-4.24 2.50,-4.00 2.59,-3.77 2.62,-3.52 2.65,-3.27 2.27,-2.72 1.89,-2.16 1.81,-1.08 1.74,0 1.71,0.20 1.69,0.41 1.61,0.61 1.54,0.81 1.42,0.98 1.30,1.15 1.14,1.29 0.99,1.43 0.80,1.53 0.61,1.63 0.41,1.68 0.21,1.73 -0.00,1.73 -0.21,1.73 -0.41,1.68 -0.61,1.63 -0.80,1.53 -0.99,1.43 -1.14,1.29 -1.30,1.15 -1.42,0.98 -1.54,0.81 -1.61,0.61 -1.69,0.41 -1.71,0.20 -1.74,-0.00 -1.74,-0.00 L -1.74,0 Z"></path></g><g transform="translate(310 187) rotate(0 -27 -37)" stroke="none"><path fill="#586e75" d="M -1.40,0.86 Q -1.40,0.86 -3.66,-2.89 -5.92,-6.65 -8.87,-11.11 -11.81,-15.57 -14.49,-19.48 -17.18,-23.39 -22.61,-30.80 -28.05,-38.20 -33.80,-45.66 -39.55,-53.12 -44.01,-58.88 -48.47,-64.65 -50.36,-67.10 -52.26,-69.55 -52.36,-69.74 -52.46,-69.93 -52.50,-70.15 -52.54,-70.36 -52.51,-70.58 -52.47,-70.80 -52.37,-70.99 -52.27,-71.18 -52.11,-71.33 -51.96,-71.49 -51.76,-71.58 -51.56,-71.67 -51.35,-71.70 -51.13,-71.72 -50.92,-71.68 -50.70,-71.63 -50.51,-71.52 -50.33,-71.41 -50.18,-71.25 -50.04,-71.08 -49.96,-70.88 -49.87,-70.68 -49.86,-70.46 -49.85,-70.24 -49.90,-70.03 -49.96,-69.82 -50.08,-69.64 -50.20,-69.46 -50.37,-69.32 -50.55,-69.19 -50.75,-69.12 -50.96,-69.05 -51.18,-69.05 -51.40,-69.04 -51.60,-69.11 -51.81,-69.18 -51.99,-69.31 -52.16,-69.44 -52.28,-69.62 -52.41,-69.80 -52.47,-70.01 -52.53,-70.22 -52.52,-70.44 -52.51,-70.65 -52.43,-70.86 -52.35,-71.06 -52.21,-71.23 -52.07,-71.40 -51.89,-71.51 -51.70,-71.63 -51.49,-71.67 -51.28,-71.72 -51.06,-71.70 -50.84,-71.68 -50.64,-71.59 -50.44,-71.50 -50.28,-71.35 -50.12,-71.20 -50.12,-71.20 -50.12,-71.20 -48.22,-68.76 -46.32,-66.32 -41.84,-60.56 -37.37,-54.81 -31.58,-47.34 -25.79,-39.87 -20.30,-32.46 -14.81,-25.04 -12.07,-21.13 -9.34,-17.23 -6.30,-12.76 -3.27,-8.29 -0.93,-4.57 1.40,-0.86 1.48,-0.68 1.56,-0.50 1.60,-0.30 1.64,-0.11 1.63,0.08 1.62,0.28 1.56,0.47 1.50,0.66 1.40,0.83 1.30,1.00 1.16,1.14 1.02,1.28 0.85,1.39 0.68,1.49 0.49,1.55 0.30,1.61 0.11,1.63 -0.08,1.64 -0.28,1.60 -0.47,1.57 -0.65,1.49 -0.84,1.41 -0.99,1.29 -1.15,1.17 -1.27,1.01 -1.40,0.86 -1.40,0.86 L -1.40,0.86 Z"></path></g><g transform="translate(476 115) rotate(0 30.5 -49)" stroke="none"><path fill="#586e75" d="M -1.27,-0.90 Q -1.27,-0.90 0.19,-2.90 1.65,-4.89 3.70,-8.00 5.76,-11.12 8.96,-15.63 12.16,-20.15 16.09,-26.06 20.03,-31.98 23.70,-38.20 27.37,-44.43 30.96,-50.54 34.54,-56.64 37.78,-62.39 41.03,-68.14 43.86,-72.90 46.68,-77.66 48.74,-81.38 50.79,-85.10 52.23,-87.83 53.68,-90.56 54.89,-92.62 56.10,-94.67 56.83,-95.93 57.56,-97.19 58.09,-97.74 58.62,-98.28 58.76,-98.44 58.90,-98.60 59.08,-98.72 59.25,-98.84 59.45,-98.91 59.65,-98.99 59.86,-99.01 60.07,-99.04 60.28,-99.01 60.49,-98.99 60.69,-98.91 60.89,-98.84 61.07,-98.72 61.24,-98.59 61.38,-98.43 61.53,-98.28 61.62,-98.09 61.72,-97.90 61.77,-97.69 61.82,-97.49 61.82,-97.27 61.82,-97.06 61.77,-96.85 61.72,-96.65 61.62,-96.46 61.52,-96.27 61.38,-95.12 61.24,-93.97 57.82,-87.37 54.40,-80.77 50.06,-73.13 45.72,-65.49 40.71,-56.80 35.69,-48.11 30.95,-40.10 26.22,-32.09 22.48,-25.82 18.73,-19.55 16.57,-15.75 14.40,-11.95 13.50,-10.66 12.60,-9.37 12.78,-9.20 12.95,-9.04 13.06,-8.83 13.17,-8.62 13.21,-8.38 13.25,-8.15 13.21,-7.91 13.18,-7.67 13.06,-7.46 12.95,-7.25 12.78,-7.09 12.61,-6.92 12.39,-6.82 12.17,-6.72 11.93,-6.70 11.70,-6.67 11.46,-6.72 11.23,-6.77 11.02,-6.89 10.82,-7.02 10.66,-7.20 10.51,-7.38 10.42,-7.60 10.33,-7.82 10.32,-8.06 10.31,-8.30 10.37,-8.53 10.43,-8.76 10.57,-8.96 10.70,-9.16 10.89,-9.30 11.08,-9.45 11.31,-9.52 11.53,-9.60 11.77,-9.60 12.01,-9.60 12.24,-9.53 12.47,-9.45 12.66,-9.31 12.85,-9.16 12.98,-8.96 13.11,-8.77 13.18,-8.54 13.24,-8.31 13.23,-8.07 13.22,-7.83 13.13,-7.61 13.04,-7.38 12.89,-7.20 12.73,-7.02 12.53,-6.90 12.32,-6.77 12.09,-6.72 11.86,-6.67 11.62,-6.69 11.38,-6.72 11.16,-6.82 10.95,-6.92 10.95,-6.92 10.95,-6.92 11.46,-10.12 11.97,-13.33 14.12,-17.17 16.27,-21.01 19.97,-27.30 23.68,-33.59 28.35,-41.61 33.02,-49.63 37.96,-58.35 42.90,-67.08 47.10,-74.71 51.31,-82.35 54.47,-88.69 57.62,-95.03 58.12,-96.66 58.62,-98.28 58.76,-98.44 58.90,-98.60 59.08,-98.72 59.25,-98.84 59.45,-98.91 59.65,-98.99 59.86,-99.01 60.07,-99.04 60.28,-99.01 60.49,-98.99 60.69,-98.91 60.89,-98.84 61.07,-98.72 61.24,-98.59 61.38,-98.44 61.52,-98.28 61.62,-98.09 61.72,-97.90 61.77,-97.69 61.82,-97.49 61.82,-97.27 61.82,-97.06 61.77,-96.85 61.72,-96.65 61.62,-96.46 61.52,-96.27 60.80,-95.83 60.08,-95.40 59.23,-94.36 58.37,-93.33 57.20,-91.33 56.02,-89.32 54.57,-86.57 53.11,-83.82 51.04,-80.06 48.98,-76.30 46.17,-71.56 43.36,-66.82 40.12,-61.05 36.87,-55.28 33.30,-49.16 29.72,-43.05 26.03,-36.75 22.33,-30.45 18.40,-24.49 14.46,-18.53 11.32,-14.04 8.18,-9.54 6.13,-6.35 4.09,-3.15 2.68,-1.12 1.27,0.90 1.14,1.04 1.01,1.18 0.86,1.29 0.70,1.39 0.52,1.45 0.34,1.52 0.16,1.54 -0.02,1.56 -0.21,1.53 -0.39,1.51 -0.57,1.44 -0.74,1.37 -0.90,1.26 -1.05,1.15 -1.17,1.00 -1.29,0.86 -1.38,0.69 -1.46,0.53 -1.51,0.34 -1.55,0.16 -1.55,-0.02 -1.54,-0.21 -1.49,-0.39 -1.45,-0.57 -1.36,-0.74 -1.27,-0.90 -1.27,-0.90 L -1.27,-0.90 Z"></path></g><g transform="translate(541 16) rotate(0 58.5 23)" stroke="none"><path fill="#586e75" d="M 0.56,-1.54 Q 0.56,-1.54 3.71,-0.35 6.85,0.83 9.63,1.93 12.42,3.03 22.24,7.25 32.06,11.48 46.27,17.00 60.47,22.53 72.84,27.47 85.22,32.42 95.07,36.25 104.91,40.08 108.24,41.71 111.56,43.34 111.71,43.41 111.85,43.49 111.97,43.60 112.09,43.71 112.18,43.84 112.28,43.98 112.33,44.13 112.39,44.28 112.41,44.44 112.43,44.60 112.40,44.77 112.38,44.93 112.32,45.08 112.27,45.23 112.17,45.36 112.08,45.50 111.96,45.60 111.83,45.71 111.69,45.78 111.55,45.86 111.39,45.90 111.23,45.93 111.07,45.93 110.90,45.93 110.75,45.89 110.59,45.85 109.02,45.16 107.46,44.47 99.44,41.28 91.42,38.09 82.24,34.41 73.05,30.73 64.86,27.73 56.67,24.73 47.13,21.15 37.60,17.56 31.25,15.17 24.91,12.79 21.62,11.48 18.34,10.16 16.20,9.02 14.06,7.87 13.86,7.70 13.67,7.54 13.54,7.32 13.41,7.10 13.36,6.85 13.30,6.61 13.33,6.35 13.36,6.10 13.46,5.87 13.57,5.64 13.75,5.46 13.92,5.27 14.15,5.15 14.37,5.03 14.62,4.99 14.87,4.95 15.12,4.99 15.37,5.04 15.60,5.15 15.82,5.27 16.00,5.46 16.17,5.64 16.28,5.87 16.38,6.10 16.41,6.36 16.44,6.61 16.38,6.86 16.33,7.11 16.20,7.32 16.06,7.54 15.87,7.70 15.68,7.87 15.44,7.96 15.20,8.06 14.95,8.07 14.70,8.08 14.45,8.01 14.21,7.95 14.00,7.80 13.79,7.66 13.63,7.46 13.48,7.26 13.40,7.01 13.32,6.77 13.32,6.52 13.32,6.27 13.40,6.03 13.48,5.79 13.64,5.58 13.79,5.38 14.00,5.24 14.21,5.10 14.46,5.03 14.70,4.96 14.96,4.98 15.21,4.99 15.44,5.08 15.68,5.18 15.68,5.18 15.68,5.18 17.51,6.42 19.33,7.67 22.60,8.95 25.86,10.24 32.21,12.61 38.57,14.99 48.09,18.55 57.62,22.10 65.87,25.09 74.11,28.07 83.31,31.71 92.50,35.34 100.68,38.54 108.85,41.73 110.21,42.53 111.56,43.34 111.71,43.41 111.85,43.49 111.97,43.60 112.09,43.71 112.18,43.84 112.28,43.98 112.33,44.13 112.39,44.28 112.41,44.44 112.43,44.60 112.40,44.77 112.38,44.93 112.33,45.08 112.27,45.23 112.17,45.36 112.08,45.50 111.96,45.60 111.83,45.71 111.69,45.78 111.55,45.86 111.39,45.90 111.23,45.93 111.07,45.93 110.90,45.93 110.75,45.89 110.59,45.85 107.26,44.23 103.93,42.62 94.06,38.80 84.19,34.99 71.82,30.07 59.45,25.15 45.19,19.64 30.93,14.13 21.14,9.97 11.35,5.81 8.57,4.79 5.79,3.76 2.61,2.65 -0.56,1.54 -0.74,1.45 -0.91,1.36 -1.06,1.23 -1.21,1.10 -1.33,0.94 -1.44,0.78 -1.52,0.60 -1.59,0.41 -1.62,0.21 -1.64,0.02 -1.62,-0.17 -1.60,-0.37 -1.53,-0.55 -1.46,-0.74 -1.35,-0.91 -1.24,-1.07 -1.10,-1.20 -0.95,-1.34 -0.78,-1.43 -0.60,-1.53 -0.41,-1.58 -0.22,-1.63 -0.02,-1.63 0.17,-1.63 0.36,-1.59 0.56,-1.54 0.56,-1.54 L 0.56,-1.54 Z"></path></g><g transform="translate(653 62) rotate(0 -4.5 47)" stroke="none"><path fill="#586e75" d="M 1.64,0.18 Q 1.64,0.18 1.31,2.76 0.98,5.34 0.24,10.20 -0.48,15.06 -1.38,21.42 -2.27,27.78 -3.23,39.36 -4.19,50.93 -4.61,61.88 -5.02,72.82 -5.49,80.09 -5.96,87.36 -6.57,92.06 -7.18,96.76 -7.07,96.36 -6.95,95.96 -6.98,96.13 -7.01,96.31 -7.08,96.48 -7.15,96.64 -7.26,96.79 -7.37,96.93 -7.51,97.04 -7.65,97.16 -7.82,97.24 -7.98,97.31 -8.16,97.35 -8.34,97.38 -8.52,97.37 -8.70,97.37 -8.87,97.31 -9.04,97.26 -9.20,97.17 -9.36,97.08 -9.49,96.95 -9.62,96.83 -9.71,96.67 -9.81,96.52 -9.86,96.35 -9.92,96.18 -9.93,96.00 -9.95,95.82 -9.74,91.84 -9.53,87.86 -8.89,76.65 -8.26,65.45 -7.41,52.07 -6.57,38.69 -5.63,28.67 -4.69,18.65 -4.01,10.96 -3.32,3.26 -2.62,1.43 -1.91,-0.38 -1.88,-0.56 -1.84,-0.73 -1.76,-0.89 -1.69,-1.05 -1.57,-1.18 -1.46,-1.32 -1.32,-1.42 -1.18,-1.53 -1.01,-1.60 -0.85,-1.66 -0.67,-1.69 -0.50,-1.72 -0.32,-1.70 -0.15,-1.69 0.01,-1.63 0.18,-1.57 0.32,-1.48 0.47,-1.38 0.59,-1.25 0.72,-1.12 0.80,-0.97 0.89,-0.82 0.94,-0.65 0.99,-0.48 0.99,-0.30 1.00,-0.12 0.81,-0.68 0.63,-1.23 0.75,-1.03 0.88,-0.83 0.94,-0.60 1.00,-0.37 0.98,-0.14 0.96,0.09 0.87,0.31 0.77,0.52 0.61,0.70 0.46,0.88 0.25,0.99 0.04,1.11 -0.18,1.16 -0.41,1.20 -0.65,1.17 -0.88,1.14 -1.09,1.03 -1.31,0.93 -1.47,0.76 -1.64,0.59 -1.75,0.38 -1.85,0.17 -1.89,-0.06 -1.92,-0.29 -1.87,-0.52 -1.83,-0.76 -1.71,-0.96 -1.60,-1.17 -1.42,-1.33 -1.24,-1.49 -1.03,-1.58 -0.81,-1.68 -0.57,-1.69 -0.34,-1.71 -0.11,-1.66 0.12,-1.60 0.31,-1.47 0.51,-1.34 0.66,-1.16 0.81,-0.98 0.89,-0.75 0.98,-0.53 0.98,-0.29 0.99,-0.06 0.92,0.16 0.85,0.39 0.71,0.58 0.57,0.77 0.38,0.91 0.19,1.05 -0.03,1.12 -0.25,1.19 -0.49,1.18 -0.73,1.18 -0.95,1.09 -1.17,1.01 -1.54,0.31 -1.91,-0.38 -1.88,-0.56 -1.84,-0.73 -1.76,-0.89 -1.69,-1.05 -1.57,-1.18 -1.46,-1.32 -1.32,-1.42 -1.18,-1.53 -1.01,-1.60 -0.85,-1.66 -0.67,-1.69 -0.50,-1.72 -0.32,-1.70 -0.15,-1.69 0.01,-1.63 0.18,-1.57 0.32,-1.48 0.47,-1.38 0.59,-1.25 0.72,-1.12 0.80,-0.97 0.89,-0.82 0.94,-0.65 0.99,-0.48 0.99,-0.30 1.00,-0.12 0.15,1.68 -0.69,3.49 -1.37,11.20 -2.06,18.90 -2.99,28.88 -3.92,38.86 -4.76,52.23 -5.60,65.60 -6.22,76.77 -6.85,87.94 -6.90,91.95 -6.95,95.95 -6.98,96.13 -7.01,96.31 -7.08,96.48 -7.15,96.64 -7.26,96.79 -7.37,96.93 -7.51,97.04 -7.65,97.16 -7.82,97.23 -7.98,97.31 -8.16,97.35 -8.34,97.38 -8.52,97.37 -8.70,97.37 -8.87,97.31 -9.04,97.26 -9.20,97.17 -9.36,97.08 -9.49,96.95 -9.61,96.83 -9.71,96.67 -9.81,96.52 -9.86,96.35 -9.92,96.18 -9.93,96.00 -9.95,95.82 -9.09,95.27 -8.23,94.72 -8.46,90.95 -8.68,87.19 -8.23,79.95 -7.78,72.72 -7.39,61.71 -7.00,50.70 -6.07,39.04 -5.14,27.39 -4.29,21.01 -3.45,14.63 -2.79,9.81 -2.13,5.00 -1.88,2.40 -1.64,-0.18 -1.60,-0.37 -1.55,-0.57 -1.46,-0.75 -1.37,-0.92 -1.24,-1.07 -1.11,-1.23 -0.94,-1.34 -0.78,-1.46 -0.59,-1.53 -0.41,-1.60 -0.21,-1.63 -0.01,-1.65 0.18,-1.63 0.38,-1.61 0.56,-1.54 0.75,-1.47 0.92,-1.36 1.08,-1.25 1.22,-1.10 1.35,-0.95 1.45,-0.77 1.54,-0.60 1.59,-0.41 1.64,-0.21 1.64,-0.01 1.64,0.18 1.64,0.18 L 1.64,0.18 Z"></path></g><g transform="translate(533 194) rotate(0 47.5 -14)" stroke="none"><path fill="#586e75" d="M -0.51,-1.71 Q -0.51,-1.71 2.37,-2.51 5.27,-3.31 9.63,-4.77 14.00,-6.23 17.91,-7.43 21.82,-8.62 33.86,-11.71 45.90,-14.81 57.90,-17.83 69.91,-20.86 77.02,-22.72 84.13,-24.57 87.33,-25.88 90.53,-27.19 89.64,-27.29 88.74,-27.38 88.91,-27.43 89.08,-27.48 89.26,-27.48 89.43,-27.49 89.60,-27.45 89.78,-27.41 89.93,-27.34 90.09,-27.26 90.23,-27.15 90.36,-27.04 90.46,-26.89 90.57,-26.75 90.63,-26.59 90.70,-26.43 90.73,-26.25 90.75,-26.08 90.74,-25.91 90.72,-25.73 90.67,-25.57 90.61,-25.40 90.51,-25.25 90.42,-25.11 90.29,-24.99 90.16,-24.87 90.01,-24.78 89.86,-24.69 89.45,-24.65 89.03,-24.61 88.81,-24.69 88.59,-24.77 88.41,-24.91 88.22,-25.06 88.09,-25.26 87.97,-25.46 87.91,-25.68 87.85,-25.91 87.87,-26.15 87.89,-26.38 87.98,-26.60 88.07,-26.82 88.23,-26.99 88.38,-27.17 88.59,-27.28 88.79,-27.40 89.02,-27.45 89.25,-27.49 89.49,-27.46 89.72,-27.43 89.93,-27.33 90.14,-27.23 90.31,-27.06 90.48,-26.89 90.58,-26.68 90.69,-26.47 90.72,-26.24 90.75,-26.01 90.71,-25.78 90.67,-25.54 90.55,-25.34 90.44,-25.13 90.26,-24.97 90.09,-24.82 89.87,-24.72 89.66,-24.63 89.42,-24.61 89.19,-24.59 88.96,-24.64 88.73,-24.70 88.53,-24.82 88.33,-24.95 88.19,-25.13 88.04,-25.32 87.95,-25.54 87.87,-25.76 87.86,-25.99 87.86,-26.23 87.92,-26.45 87.99,-26.68 88.13,-26.87 88.27,-27.06 88.46,-27.20 88.65,-27.34 88.87,-27.41 89.10,-27.48 88.92,-27.43 88.74,-27.38 88.91,-27.43 89.08,-27.48 89.26,-27.48 89.43,-27.49 89.60,-27.45 89.78,-27.41 89.93,-27.34 90.09,-27.26 90.23,-27.15 90.36,-27.04 90.46,-26.89 90.57,-26.75 90.63,-26.59 90.70,-26.43 90.73,-26.26 90.75,-26.08 90.74,-25.91 90.72,-25.73 90.67,-25.57 90.61,-25.40 90.51,-25.25 90.42,-25.11 90.29,-24.99 90.16,-24.87 90.01,-24.78 89.86,-24.69 90.77,-24.72 91.68,-24.75 88.26,-23.32 84.84,-21.89 77.72,-20.01 70.60,-18.13 58.61,-15.06 46.62,-12.00 34.67,-8.88 22.71,-5.76 18.87,-4.52 15.03,-3.27 10.62,-1.70 6.22,-0.13 3.37,0.79 0.51,1.71 0.30,1.75 0.08,1.78 -0.12,1.77 -0.34,1.75 -0.54,1.69 -0.75,1.62 -0.93,1.51 -1.11,1.39 -1.27,1.24 -1.42,1.08 -1.53,0.90 -1.64,0.71 -1.70,0.51 -1.76,0.30 -1.77,0.08 -1.78,-0.12 -1.74,-0.33 -1.70,-0.55 -1.61,-0.74 -1.52,-0.94 -1.38,-1.11 -1.25,-1.27 -1.08,-1.41 -0.91,-1.54 -0.71,-1.62 -0.51,-1.71 -0.51,-1.71 L -0.51,-1.71 Z"></path></g><g transform="translate(641 163) rotate(0 -44.5 14.5)" stroke="none"><path fill="#586e75" d="M 0.69,1.39 Q 0.69,1.39 -1.61,2.51 -3.93,3.63 -7.52,5.26 -11.12,6.89 -14.10,8.15 -17.07,9.41 -24.42,11.97 -31.76,14.53 -40.94,17.05 -50.13,19.58 -56.02,21.22 -61.92,22.86 -66.99,24.41 -72.07,25.97 -75.96,27.20 -79.84,28.43 -83.47,29.33 -87.09,30.22 -87.35,30.23 -87.60,30.24 -87.85,30.17 -88.10,30.10 -88.31,29.95 -88.52,29.81 -88.67,29.60 -88.83,29.39 -88.90,29.15 -88.98,28.90 -88.98,28.65 -88.98,28.39 -88.89,28.15 -88.81,27.91 -88.65,27.70 -88.49,27.50 -88.28,27.36 -88.07,27.22 -87.82,27.15 -87.57,27.08 -87.31,27.10 -87.06,27.12 -86.82,27.21 -86.58,27.31 -86.39,27.48 -86.19,27.65 -86.06,27.87 -85.93,28.09 -85.88,28.34 -85.83,28.59 -85.86,28.85 -85.89,29.11 -86.00,29.34 -86.11,29.57 -86.29,29.75 -86.47,29.94 -86.70,30.06 -86.92,30.17 -87.18,30.21 -87.43,30.25 -87.68,30.21 -87.94,30.16 -88.16,30.04 -88.39,29.92 -88.56,29.73 -88.74,29.54 -88.84,29.31 -88.95,29.07 -88.97,28.82 -89.00,28.56 -88.94,28.31 -88.88,28.06 -88.75,27.84 -88.61,27.62 -88.42,27.46 -88.22,27.29 -87.98,27.20 -87.74,27.11 -87.74,27.11 -87.74,27.11 -84.19,26.50 -80.65,25.89 -76.75,24.65 -72.86,23.40 -67.75,21.83 -62.64,20.26 -56.75,18.61 -50.85,16.95 -41.76,14.43 -32.67,11.92 -25.43,9.37 -18.19,6.82 -15.26,5.54 -12.33,4.26 -8.80,2.61 -5.26,0.96 -2.98,-0.21 -0.69,-1.39 -0.52,-1.46 -0.34,-1.52 -0.15,-1.54 0.03,-1.56 0.21,-1.53 0.40,-1.50 0.57,-1.43 0.75,-1.36 0.90,-1.25 1.05,-1.14 1.18,-1.00 1.30,-0.86 1.38,-0.69 1.47,-0.52 1.51,-0.34 1.55,-0.15 1.55,0.03 1.54,0.21 1.49,0.40 1.44,0.58 1.35,0.74 1.26,0.91 1.14,1.05 1.01,1.18 0.85,1.29 0.69,1.39 0.69,1.39 L 0.69,1.39 Z"></path></g><g transform="translate(479 117) rotate(0 34 36.5)" stroke="none"><path fill="#586e75" d="M -1.74,0 Q -1.74,0 -1.81,-1.21 -1.89,-2.43 -1.69,-2.85 -1.50,-3.27 -1.47,-3.52 -1.44,-3.77 -1.35,-4.00 -1.26,-4.24 -1.12,-4.44 -0.97,-4.65 -0.79,-4.82 -0.60,-4.98 -0.38,-5.10 -0.16,-5.21 0.08,-5.27 0.32,-5.33 0.57,-5.33 0.82,-5.33 1.06,-5.27 1.31,-5.21 1.53,-5.10 1.75,-4.98 1.94,-4.81 2.12,-4.65 2.27,-4.44 2.41,-4.24 2.50,-4.00 2.59,-3.77 2.62,-3.52 2.65,-3.27 3.84,-2.04 5.02,-0.82 6.06,0.56 7.10,1.94 11.16,7.42 15.23,12.90 22.68,22.13 30.13,31.36 38.45,40.74 46.76,50.12 53.19,57.60 59.61,65.08 60.88,68.12 62.14,71.16 62.19,71.43 62.24,71.70 62.20,71.97 62.16,72.24 62.04,72.49 61.91,72.73 61.72,72.92 61.52,73.12 61.27,73.24 61.03,73.36 60.75,73.39 60.48,73.43 60.21,73.37 59.94,73.32 59.71,73.18 59.47,73.05 59.29,72.84 59.11,72.63 59.00,72.38 58.89,72.13 58.87,71.85 58.85,71.58 58.92,71.31 58.99,71.05 59.14,70.82 59.29,70.59 59.50,70.42 59.72,70.25 59.98,70.16 60.24,70.06 60.51,70.06 60.78,70.05 61.05,70.14 61.31,70.22 61.53,70.38 61.75,70.54 61.91,70.77 62.07,70.99 62.15,71.25 62.22,71.52 62.21,71.79 62.21,72.06 62.11,72.32 62.01,72.58 61.84,72.79 61.66,73.00 61.43,73.15 61.20,73.30 60.93,73.36 60.67,73.42 60.39,73.40 60.12,73.37 59.87,73.26 59.62,73.15 59.41,72.97 59.21,72.78 59.08,72.54 58.95,72.30 58.95,72.30 58.95,72.30 58.15,69.62 57.36,66.93 50.93,59.53 44.49,52.14 36.07,42.76 27.66,33.37 20.09,24.17 12.52,14.96 8.30,9.52 4.08,4.08 3.22,2.78 2.35,1.48 0.42,-0.89 -1.50,-3.27 -1.47,-3.52 -1.44,-3.77 -1.35,-4.00 -1.26,-4.24 -1.12,-4.44 -0.97,-4.65 -0.79,-4.81 -0.60,-4.98 -0.38,-5.10 -0.16,-5.21 0.08,-5.27 0.32,-5.33 0.57,-5.33 0.82,-5.33 1.06,-5.27 1.31,-5.21 1.53,-5.10 1.75,-4.98 1.94,-4.82 2.12,-4.65 2.27,-4.44 2.41,-4.24 2.50,-4.00 2.59,-3.77 2.62,-3.52 2.65,-3.27 2.27,-2.72 1.89,-2.16 1.81,-1.08 1.74,0 1.71,0.20 1.69,0.41 1.61,0.61 1.54,0.81 1.42,0.98 1.30,1.15 1.14,1.29 0.99,1.43 0.80,1.53 0.61,1.63 0.41,1.68 0.21,1.73 -0.00,1.73 -0.21,1.73 -0.41,1.68 -0.61,1.63 -0.80,1.53 -0.99,1.43 -1.14,1.29 -1.30,1.15 -1.42,0.98 -1.54,0.81 -1.61,0.61 -1.69,0.41 -1.71,0.20 -1.74,-0.00 -1.74,-0.00 L -1.74,0 Z"></path></g><g transform="translate(536 192) rotate(0 -27 -37)" stroke="none"><path fill="#586e75" d="M -1.40,0.86 Q -1.40,0.86 -3.66,-2.89 -5.92,-6.65 -8.87,-11.11 -11.81,-15.57 -14.49,-19.48 -17.18,-23.39 -22.61,-30.80 -28.05,-38.20 -33.80,-45.66 -39.55,-53.12 -44.01,-58.88 -48.47,-64.65 -50.36,-67.10 -52.26,-69.55 -52.36,-69.74 -52.46,-69.93 -52.50,-70.15 -52.54,-70.36 -52.51,-70.58 -52.47,-70.80 -52.37,-70.99 -52.27,-71.18 -52.11,-71.33 -51.96,-71.49 -51.76,-71.58 -51.56,-71.67 -51.35,-71.70 -51.13,-71.72 -50.92,-71.68 -50.70,-71.63 -50.51,-71.52 -50.33,-71.41 -50.18,-71.25 -50.04,-71.08 -49.96,-70.88 -49.87,-70.68 -49.86,-70.46 -49.85,-70.24 -49.90,-70.03 -49.96,-69.82 -50.08,-69.64 -50.20,-69.46 -50.37,-69.32 -50.55,-69.19 -50.75,-69.12 -50.96,-69.05 -51.18,-69.05 -51.40,-69.04 -51.60,-69.11 -51.81,-69.18 -51.99,-69.31 -52.16,-69.44 -52.28,-69.62 -52.41,-69.80 -52.47,-70.01 -52.53,-70.22 -52.52,-70.44 -52.51,-70.65 -52.43,-70.86 -52.35,-71.06 -52.21,-71.23 -52.07,-71.40 -51.89,-71.51 -51.70,-71.63 -51.49,-71.67 -51.28,-71.72 -51.06,-71.70 -50.84,-71.68 -50.64,-71.59 -50.44,-71.50 -50.28,-71.35 -50.12,-71.20 -50.12,-71.20 -50.12,-71.20 -48.22,-68.76 -46.32,-66.32 -41.84,-60.56 -37.37,-54.81 -31.58,-47.34 -25.79,-39.87 -20.30,-32.46 -14.81,-25.04 -12.07,-21.13 -9.34,-17.23 -6.30,-12.76 -3.27,-8.29 -0.93,-4.57 1.40,-0.86 1.48,-0.68 1.56,-0.50 1.60,-0.30 1.64,-0.11 1.63,0.08 1.62,0.28 1.56,0.47 1.50,0.66 1.40,0.83 1.30,1.00 1.16,1.14 1.02,1.28 0.85,1.39 0.68,1.49 0.49,1.55 0.30,1.61 0.11,1.63 -0.08,1.64 -0.28,1.60 -0.47,1.57 -0.65,1.49 -0.84,1.41 -0.99,1.29 -1.15,1.17 -1.27,1.01 -1.40,0.86 -1.40,0.86 L -1.40,0.86 Z"></path></g><g transform="translate(336 100.5) rotate(0 -0.5 2.5)" stroke="none"><path fill="#586e75" d="M -1.19,2.38 Q -1.19,2.38 -0.86,2.02 -0.54,1.66 -0.31,3.03 -0.08,4.41 -0.78,3.60 -1.48,2.80 -2.15,2.11 -2.82,1.42 -2.97,0.93 -3.13,0.44 -3.12,-0.06 -3.11,-0.57 -2.93,-1.05 -2.76,-1.53 -2.44,-1.93 -2.13,-2.34 -1.70,-2.61 -1.27,-2.89 -0.77,-3.02 -0.27,-3.15 0.23,-3.11 0.74,-3.07 1.21,-2.87 1.68,-2.67 2.06,-2.33 2.45,-2.00 2.70,-1.55 2.96,-1.11 3.06,-0.61 3.16,-0.10 3.09,0.39 3.03,0.90 2.80,1.36 2.58,1.82 2.22,2.19 1.86,2.55 1.40,2.78 0.95,3.01 0.44,3.09 -0.06,3.16 -0.56,3.07 -1.07,2.97 -1.51,2.72 -1.96,2.48 -2.31,2.10 -2.65,1.72 -2.86,1.25 -3.06,0.78 -3.11,0.27 -3.15,-0.23 -3.03,-0.73 -2.91,-1.23 -2.64,-1.66 -2.37,-2.09 -1.97,-2.42 -1.57,-2.74 -1.09,-2.92 -0.61,-3.10 -0.10,-3.12 0.40,-3.13 0.89,-2.99 1.38,-2.84 1.80,-2.54 2.22,-2.25 2.52,-1.83 2.82,-1.42 2.82,-1.42 2.82,-1.42 3.78,0.82 4.75,3.07 4.38,4.43 4.02,5.79 1.98,7.49 -0.04,9.18 -1.23,9.01 -2.42,8.85 -3.64,8.01 -4.86,7.16 -5.33,6.03 -5.79,4.90 -5.78,3.69 -5.77,2.48 -5.52,1.29 -5.28,0.10 -4.69,-0.81 -4.10,-1.73 -2.93,-2.27 -1.75,-2.81 -0.28,-2.59 1.19,-2.38 1.46,-2.21 1.73,-2.03 1.94,-1.79 2.16,-1.55 2.32,-1.27 2.47,-0.99 2.56,-0.68 2.64,-0.37 2.64,-0.05 2.65,0.26 2.58,0.58 2.51,0.89 2.37,1.18 2.22,1.47 2.01,1.71 1.80,1.96 1.54,2.15 1.28,2.33 0.98,2.45 0.68,2.57 0.37,2.62 0.05,2.66 -0.26,2.63 -0.58,2.60 -0.89,2.49 -1.19,2.38 -1.19,2.38 L -1.19,2.38 Z"></path></g><g transform="translate(333 91.5) rotate(0 -1.5 -6)" stroke="none"><path fill="#586e75" d="M -2.35,0 Q -2.35,0 -2.35,-1.38 -2.35,-2.77 -3.06,-4.12 -3.78,-5.47 -4.62,-8.38 -5.47,-11.29 -5.52,-11.71 -5.57,-12.12 -5.48,-12.53 -5.39,-12.93 -5.18,-13.29 -4.97,-13.65 -4.65,-13.92 -4.33,-14.19 -3.95,-14.35 -3.56,-14.51 -3.15,-14.53 -2.73,-14.56 -2.33,-14.45 -1.93,-14.34 -1.58,-14.11 -1.24,-13.87 -0.98,-13.54 -0.73,-13.21 -0.59,-12.82 -0.46,-12.43 -0.45,-12.01 -0.45,-11.59 -0.58,-11.20 -0.71,-10.80 -0.96,-10.47 -1.21,-10.14 -1.56,-9.90 -1.90,-9.66 -2.30,-9.55 -2.70,-9.44 -3.12,-9.46 -3.53,-9.48 -3.92,-9.63 -4.31,-9.78 -4.63,-10.05 -4.95,-10.32 -5.16,-10.67 -5.38,-11.03 -5.47,-11.44 -5.56,-11.84 -5.52,-12.26 -5.48,-12.67 -5.31,-13.05 -5.13,-13.43 -4.85,-13.73 -4.56,-14.04 -4.20,-14.23 -3.83,-14.43 -3.42,-14.50 -3.01,-14.57 -2.60,-14.50 -2.19,-14.44 -1.82,-14.25 -1.45,-14.05 -1.16,-13.75 -0.87,-13.45 -0.70,-13.07 -0.52,-12.70 -0.52,-12.70 -0.52,-12.70 0.23,-9.95 0.99,-7.21 1.33,-6.18 1.67,-5.15 2.01,-4.06 2.35,-2.97 2.35,-1.48 2.35,0 2.31,0.28 2.28,0.56 2.18,0.82 2.08,1.09 1.92,1.32 1.76,1.56 1.54,1.74 1.33,1.93 1.08,2.06 0.83,2.20 0.55,2.26 0.28,2.33 -0.00,2.33 -0.28,2.33 -0.55,2.26 -0.83,2.20 -1.08,2.06 -1.33,1.93 -1.54,1.74 -1.76,1.56 -1.92,1.32 -2.08,1.09 -2.18,0.82 -2.28,0.56 -2.31,0.28 -2.35,-0.00 -2.35,-0.00 L -2.35,0 Z"></path></g><g transform="translate(327 60.5) rotate(0 -1.5 -6.5)" stroke="none"><path fill="#586e75" d="M -2.41,0.48 Q -2.41,0.48 -2.69,-0.95 -2.98,-2.39 -3.37,-3.41 -3.76,-4.44 -3.99,-6.05 -4.23,-7.66 -4.82,-9.83 -5.41,-12.01 -5.50,-12.42 -5.60,-12.83 -5.56,-13.25 -5.51,-13.67 -5.34,-14.05 -5.17,-14.44 -4.88,-14.75 -4.59,-15.06 -4.22,-15.26 -3.85,-15.46 -3.44,-15.53 -3.02,-15.60 -2.60,-15.54 -2.19,-15.47 -1.81,-15.28 -1.44,-15.09 -1.14,-14.78 -0.85,-14.48 -0.67,-14.10 -0.49,-13.72 -0.44,-13.30 -0.39,-12.88 -0.48,-12.47 -0.56,-12.05 -0.78,-11.69 -0.99,-11.33 -1.31,-11.05 -1.63,-10.77 -2.02,-10.61 -2.41,-10.45 -2.83,-10.43 -3.25,-10.40 -3.66,-10.51 -4.07,-10.62 -4.42,-10.85 -4.77,-11.09 -5.03,-11.42 -5.29,-11.75 -5.43,-12.15 -5.56,-12.55 -5.57,-12.97 -5.57,-13.39 -5.44,-13.79 -5.31,-14.19 -5.06,-14.53 -4.81,-14.87 -4.46,-15.11 -4.11,-15.35 -3.71,-15.47 -3.30,-15.58 -2.88,-15.57 -2.46,-15.55 -2.07,-15.39 -1.67,-15.24 -1.35,-14.97 -1.02,-14.70 -0.80,-14.34 -0.58,-13.98 -0.58,-13.98 -0.58,-13.98 0.08,-11.14 0.74,-8.29 0.86,-7.17 0.97,-6.05 1.40,-4.70 1.83,-3.35 2.12,-1.92 2.41,-0.48 2.43,-0.18 2.46,0.10 2.41,0.40 2.36,0.69 2.24,0.96 2.12,1.23 1.94,1.47 1.76,1.71 1.53,1.89 1.30,2.08 1.03,2.21 0.77,2.33 0.47,2.39 0.18,2.45 -0.10,2.44 -0.40,2.42 -0.68,2.34 -0.97,2.26 -1.23,2.11 -1.48,1.96 -1.70,1.75 -1.91,1.54 -2.07,1.29 -2.22,1.04 -2.32,0.76 -2.41,0.48 -2.41,0.48 L -2.41,0.48 Z"></path></g><g transform="translate(320 27.5) rotate(0 -1 -2.5)" stroke="none"><path fill="#586e75" d="M 2.12,-0.66 Q 2.12,-0.66 2.15,-0.13 2.18,0.40 1.96,0.88 1.74,1.36 1.32,1.69 0.91,2.02 0.38,2.12 -0.13,2.21 -0.64,2.05 -1.14,1.90 -1.52,1.52 -1.90,1.14 -2.05,0.64 -2.21,0.13 -2.12,-0.38 -2.02,-0.91 -1.69,-1.32 -1.36,-1.74 -0.88,-1.96 -0.39,-2.18 0.13,-2.15 0.66,-2.11 1.11,-1.84 1.57,-1.56 1.84,-1.11 L 2.12,-0.66 Z"></path></g><g transform="translate(341 100.5) rotate(0 8.5 -4.5)" stroke="none"><path fill="#586e75" d="M -1.28,-1.93 Q -1.28,-1.93 0.50,-2.98 2.29,-4.03 4.01,-4.86 5.74,-5.69 7.98,-6.97 10.22,-8.25 11.51,-8.99 12.81,-9.74 14.47,-10.47 16.14,-11.20 16.51,-11.28 16.89,-11.35 17.27,-11.31 17.65,-11.27 17.99,-11.10 18.34,-10.94 18.61,-10.67 18.89,-10.41 19.06,-10.07 19.24,-9.73 19.30,-9.35 19.36,-8.98 19.29,-8.60 19.23,-8.22 19.04,-7.89 18.86,-7.55 18.58,-7.29 18.30,-7.03 17.96,-6.87 17.61,-6.71 17.23,-6.68 16.85,-6.64 16.47,-6.72 16.10,-6.81 15.78,-7.01 15.45,-7.21 15.21,-7.50 14.96,-7.79 14.82,-8.15 14.68,-8.51 14.67,-8.89 14.65,-9.27 14.75,-9.64 14.86,-10.00 15.08,-10.32 15.29,-10.63 15.60,-10.86 15.91,-11.09 16.27,-11.21 16.63,-11.33 17.01,-11.33 17.40,-11.32 17.76,-11.20 18.12,-11.07 18.42,-10.84 18.72,-10.60 18.94,-10.29 19.15,-9.97 19.25,-9.60 19.35,-9.23 19.32,-8.85 19.30,-8.47 19.15,-8.11 19.01,-7.76 18.76,-7.47 18.51,-7.18 18.18,-6.99 17.85,-6.79 17.85,-6.79 17.85,-6.79 16.44,-6.33 15.03,-5.86 13.52,-4.99 12.01,-4.12 10.87,-3.68 9.74,-3.24 8.64,-2.62 7.53,-2.01 6.07,-1.28 4.60,-0.56 2.94,0.68 1.28,1.93 1.03,2.05 0.78,2.18 0.51,2.24 0.24,2.30 -0.03,2.30 -0.31,2.29 -0.58,2.22 -0.85,2.15 -1.10,2.02 -1.34,1.88 -1.55,1.69 -1.76,1.51 -1.91,1.27 -2.07,1.04 -2.16,0.78 -2.26,0.51 -2.29,0.24 -2.31,-0.03 -2.28,-0.31 -2.24,-0.59 -2.14,-0.85 -2.03,-1.11 -1.87,-1.33 -1.71,-1.56 -1.49,-1.74 -1.28,-1.93 -1.28,-1.93 L -1.28,-1.93 Z"></path></g><g transform="translate(368 86.5) rotate(0 8.5 -4.5)" stroke="none"><path fill="#586e75" d="M -0.88,-2.20 Q -0.88,-2.20 0.55,-2.76 1.98,-3.33 2.94,-4.03 3.89,-4.74 5.03,-5.45 6.16,-6.16 7.63,-6.79 9.09,-7.42 10.40,-8.14 11.71,-8.86 13.77,-10.02 15.82,-11.18 16.20,-11.31 16.58,-11.44 16.98,-11.44 17.39,-11.45 17.77,-11.32 18.15,-11.19 18.47,-10.95 18.79,-10.71 19.02,-10.38 19.24,-10.05 19.35,-9.66 19.46,-9.27 19.44,-8.87 19.42,-8.47 19.27,-8.10 19.13,-7.72 18.87,-7.42 18.61,-7.11 18.27,-6.90 17.92,-6.69 17.53,-6.61 17.14,-6.52 16.74,-6.56 16.34,-6.60 15.98,-6.77 15.61,-6.93 15.32,-7.21 15.03,-7.48 14.84,-7.84 14.65,-8.19 14.58,-8.59 14.51,-8.98 14.58,-9.38 14.64,-9.78 14.83,-10.13 15.01,-10.49 15.30,-10.77 15.59,-11.04 15.96,-11.21 16.32,-11.38 16.72,-11.43 17.12,-11.47 17.51,-11.39 17.90,-11.30 18.25,-11.10 18.59,-10.89 18.86,-10.59 19.12,-10.28 19.27,-9.91 19.42,-9.54 19.44,-9.14 19.46,-8.74 19.36,-8.35 19.25,-7.96 19.03,-7.63 18.80,-7.30 18.49,-7.05 18.17,-6.81 18.17,-6.81 18.17,-6.81 16.12,-5.77 14.07,-4.72 12.53,-3.82 10.99,-2.92 9.82,-2.44 8.64,-1.95 7.61,-1.39 6.59,-0.83 5.18,0.10 3.76,1.03 2.32,1.61 0.88,2.20 0.60,2.27 0.32,2.35 0.04,2.35 -0.24,2.36 -0.52,2.29 -0.80,2.23 -1.05,2.10 -1.31,1.97 -1.53,1.79 -1.74,1.60 -1.91,1.37 -2.08,1.14 -2.18,0.87 -2.29,0.60 -2.33,0.32 -2.37,0.04 -2.34,-0.24 -2.31,-0.52 -2.21,-0.79 -2.12,-1.06 -1.96,-1.30 -1.80,-1.54 -1.59,-1.73 -1.38,-1.93 -1.13,-2.06 -0.88,-2.20 -0.88,-2.20 L -0.88,-2.20 Z"></path></g><g transform="translate(396 70.5) rotate(0 3 -1.5)" stroke="none"><path fill="#586e75" d="M -0.97,-1.94 Q -0.97,-1.94 0.15,-2.56 1.28,-3.17 2.32,-3.75 3.37,-4.32 3.64,-4.41 3.90,-4.51 4.19,-4.54 4.47,-4.57 4.75,-4.53 5.03,-4.49 5.30,-4.38 5.56,-4.28 5.79,-4.11 6.02,-3.94 6.21,-3.73 6.39,-3.51 6.52,-3.26 6.64,-3.00 6.71,-2.72 6.77,-2.45 6.76,-2.16 6.76,-1.88 6.69,-1.60 6.61,-1.33 6.47,-1.08 6.34,-0.83 6.14,-0.62 5.95,-0.41 5.71,-0.26 5.48,-0.10 3.19,0.85 0.90,1.80 0.59,1.90 0.27,1.99 -0.04,1.99 -0.37,1.98 -0.68,1.87 -0.98,1.75 -1.24,1.55 -1.49,1.35 -1.67,1.07 -1.85,0.80 -1.93,0.48 -2.01,0.17 -1.98,-0.15 -1.95,-0.48 -1.83,-0.78 -1.70,-1.08 -1.48,-1.32 -1.26,-1.56 -0.98,-1.72 -0.70,-1.89 -0.38,-1.95 -0.06,-2.01 0.26,-1.97 0.58,-1.93 0.87,-1.78 1.17,-1.64 1.40,-1.41 1.63,-1.18 1.78,-0.88 1.92,-0.59 1.97,-0.27 2.01,0.04 1.95,0.36 1.89,0.68 1.73,0.97 1.57,1.25 1.33,1.47 1.09,1.69 0.79,1.82 0.49,1.95 0.16,1.98 -0.15,2.01 -0.47,1.93 -0.79,1.85 -1.06,1.68 -1.34,1.50 -1.54,1.25 -1.75,0.99 -1.86,0.69 -1.97,0.38 -1.98,0.05 -1.99,-0.26 -1.90,-0.57 -1.80,-0.89 -1.62,-1.15 -1.43,-1.42 -1.16,-1.61 -0.90,-1.80 -0.90,-1.80 -0.90,-1.80 1.23,-3.06 3.37,-4.32 3.63,-4.41 3.90,-4.51 4.19,-4.54 4.47,-4.57 4.75,-4.53 5.03,-4.49 5.30,-4.38 5.56,-4.28 5.79,-4.11 6.02,-3.94 6.21,-3.73 6.39,-3.51 6.52,-3.26 6.64,-3.00 6.71,-2.72 6.77,-2.45 6.76,-2.16 6.76,-1.88 6.69,-1.60 6.61,-1.33 6.47,-1.08 6.34,-0.83 6.14,-0.62 5.95,-0.41 5.71,-0.26 5.48,-0.10 4.39,0.38 3.31,0.87 2.14,1.41 0.97,1.94 0.72,2.03 0.47,2.12 0.21,2.15 -0.04,2.17 -0.30,2.14 -0.56,2.10 -0.80,2.00 -1.05,1.90 -1.26,1.75 -1.47,1.60 -1.64,1.40 -1.81,1.20 -1.93,0.96 -2.05,0.73 -2.11,0.47 -2.16,0.21 -2.16,-0.04 -2.15,-0.30 -2.08,-0.55 -2.02,-0.81 -1.89,-1.04 -1.76,-1.27 -1.59,-1.46 -1.41,-1.65 -1.19,-1.80 -0.97,-1.94 -0.97,-1.94 L -0.97,-1.94 Z"></path></g><g transform="translate(411 62.5) rotate(0 5.5 -2.5)" stroke="none"><path fill="#586e75" d="M -0.99,-1.99 Q -0.99,-1.99 1.35,-3.03 3.71,-4.07 5.26,-4.85 6.81,-5.63 8.55,-6.32 10.29,-7.02 10.63,-7.08 10.97,-7.14 11.32,-7.09 11.66,-7.03 11.97,-6.88 12.28,-6.72 12.52,-6.47 12.76,-6.22 12.91,-5.90 13.06,-5.59 13.10,-5.25 13.14,-4.90 13.07,-4.56 13.00,-4.22 12.82,-3.92 12.64,-3.62 12.38,-3.40 12.12,-3.17 11.80,-3.04 11.48,-2.90 11.13,-2.88 10.78,-2.86 10.45,-2.95 10.11,-3.04 9.82,-3.23 9.54,-3.42 9.32,-3.70 9.11,-3.97 9.00,-4.30 8.88,-4.63 8.88,-4.97 8.87,-5.32 8.98,-5.65 9.09,-5.98 9.30,-6.26 9.50,-6.54 9.79,-6.74 10.08,-6.93 10.41,-7.03 10.74,-7.13 11.09,-7.11 11.44,-7.09 11.76,-6.97 12.08,-6.84 12.35,-6.62 12.62,-6.40 12.80,-6.10 12.98,-5.81 13.06,-5.47 13.14,-5.13 13.10,-4.79 13.07,-4.44 12.92,-4.13 12.78,-3.81 12.55,-3.55 12.31,-3.30 12.00,-3.13 11.70,-2.97 11.70,-2.97 11.70,-2.97 10.14,-2.52 8.59,-2.07 7.04,-1.29 5.48,-0.52 3.24,0.73 0.99,1.99 0.74,2.08 0.49,2.17 0.22,2.20 -0.04,2.22 -0.30,2.19 -0.57,2.15 -0.82,2.05 -1.07,1.95 -1.29,1.79 -1.51,1.63 -1.68,1.43 -1.85,1.23 -1.97,0.98 -2.09,0.74 -2.15,0.48 -2.21,0.22 -2.21,-0.04 -2.20,-0.31 -2.13,-0.57 -2.06,-0.83 -1.93,-1.06 -1.80,-1.30 -1.62,-1.50 -1.44,-1.69 -1.22,-1.84 -0.99,-1.99 -0.99,-1.99 L -0.99,-1.99 Z"></path></g><g transform="translate(259 107.5) rotate(0 5 0)" stroke="none"><path fill="#586e75" d="M 0,-2.30 Q 0,-2.30 1.72,-2.27 3.44,-2.24 5.04,-2.23 6.64,-2.23 8.82,-2.29 11,-2.36 11.37,-2.29 11.75,-2.23 12.09,-2.05 12.42,-1.87 12.69,-1.60 12.95,-1.32 13.11,-0.97 13.27,-0.63 13.31,-0.25 13.35,0.12 13.27,0.50 13.19,0.87 12.99,1.20 12.79,1.52 12.50,1.77 12.21,2.02 11.86,2.16 11.50,2.30 11.12,2.32 10.74,2.34 10.37,2.24 10.00,2.14 9.69,1.92 9.37,1.71 9.14,1.41 8.91,1.10 8.79,0.74 8.66,0.38 8.66,-0.00 8.66,-0.38 8.79,-0.74 8.91,-1.10 9.14,-1.41 9.37,-1.71 9.69,-1.92 10.00,-2.14 10.37,-2.24 10.74,-2.34 11.12,-2.32 11.50,-2.30 11.86,-2.16 12.21,-2.02 12.50,-1.77 12.80,-1.52 12.99,-1.20 13.19,-0.87 13.27,-0.50 13.35,-0.12 13.31,0.25 13.27,0.63 13.11,0.97 12.95,1.32 12.69,1.60 12.42,1.88 12.09,2.05 11.75,2.23 11.37,2.29 10.99,2.36 10.99,2.36 11,2.36 8.82,2.29 6.64,2.23 5.04,2.23 3.44,2.24 1.72,2.27 0,2.30 -0.27,2.27 -0.55,2.24 -0.81,2.14 -1.07,2.04 -1.30,1.88 -1.53,1.72 -1.71,1.51 -1.89,1.31 -2.02,1.06 -2.15,0.81 -2.22,0.54 -2.29,0.27 -2.29,-0.00 -2.29,-0.27 -2.22,-0.54 -2.15,-0.81 -2.02,-1.06 -1.89,-1.31 -1.71,-1.51 -1.53,-1.72 -1.30,-1.88 -1.07,-2.04 -0.81,-2.14 -0.55,-2.24 -0.27,-2.27 0.00,-2.30 0.00,-2.30 L 0,-2.30 Z"></path></g><g transform="translate(291 105.5) rotate(0 7 -0.5)" stroke="none"><path fill="#586e75" d="M -0.44,-2.24 Q -0.44,-2.24 0.98,-2.54 2.42,-2.84 5.33,-3.03 8.24,-3.21 11.10,-3.29 13.96,-3.37 14.34,-3.32 14.72,-3.26 15.07,-3.08 15.41,-2.91 15.68,-2.63 15.95,-2.36 16.11,-2.01 16.28,-1.66 16.33,-1.28 16.37,-0.90 16.29,-0.52 16.22,-0.14 16.02,0.18 15.83,0.51 15.54,0.76 15.25,1.02 14.89,1.16 14.54,1.31 14.15,1.34 13.77,1.36 13.40,1.27 13.02,1.17 12.70,0.96 12.38,0.74 12.14,0.44 11.91,0.14 11.78,-0.22 11.65,-0.58 11.65,-0.96 11.64,-1.35 11.76,-1.72 11.88,-2.08 12.11,-2.39 12.34,-2.70 12.65,-2.92 12.97,-3.14 13.34,-3.25 13.71,-3.36 14.09,-3.34 14.48,-3.33 14.84,-3.19 15.19,-3.05 15.49,-2.80 15.79,-2.56 15.99,-2.23 16.19,-1.90 16.28,-1.53 16.37,-1.16 16.33,-0.77 16.30,-0.39 16.14,-0.04 15.98,0.30 15.72,0.59 15.46,0.87 15.12,1.05 14.78,1.24 14.41,1.31 14.03,1.37 14.03,1.37 14.03,1.37 11.20,1.37 8.37,1.37 5.85,1.53 3.32,1.69 1.88,1.96 0.44,2.24 0.17,2.26 -0.10,2.28 -0.37,2.23 -0.64,2.19 -0.89,2.08 -1.15,1.97 -1.37,1.80 -1.59,1.64 -1.76,1.42 -1.93,1.21 -2.05,0.96 -2.17,0.71 -2.22,0.44 -2.28,0.17 -2.26,-0.10 -2.25,-0.37 -2.17,-0.64 -2.10,-0.90 -1.96,-1.14 -1.82,-1.38 -1.63,-1.57 -1.43,-1.77 -1.20,-1.92 -0.97,-2.07 -0.71,-2.15 -0.44,-2.24 -0.44,-2.24 L -0.44,-2.24 Z"></path></g><g transform="translate(320 103.5) rotate(0 3.5 -0.5)" stroke="none"><path fill="#586e75" d="M -0.71,-2.14 Q -0.71,-2.14 0.13,-2.48 0.98,-2.83 2.13,-3.05 3.28,-3.28 4.25,-3.37 5.22,-3.47 5.53,-3.47 5.84,-3.47 6.14,-3.40 6.44,-3.33 6.72,-3.19 7.00,-3.05 7.23,-2.84 7.46,-2.64 7.64,-2.38 7.82,-2.13 7.93,-1.84 8.04,-1.55 8.08,-1.25 8.12,-0.94 8.09,-0.63 8.05,-0.32 7.95,-0.03 7.84,0.25 7.66,0.50 7.49,0.76 7.26,0.97 7.03,1.17 6.76,1.32 6.48,1.47 6.18,1.54 5.88,1.62 3.12,1.88 0.35,2.15 0.00,2.15 -0.34,2.15 -0.68,2.04 -1.01,1.92 -1.29,1.71 -1.58,1.50 -1.77,1.21 -1.97,0.91 -2.07,0.58 -2.16,0.24 -2.14,-0.11 -2.13,-0.46 -2.00,-0.79 -1.87,-1.12 -1.64,-1.39 -1.41,-1.65 -1.11,-1.84 -0.81,-2.02 -0.46,-2.10 -0.12,-2.17 0.22,-2.14 0.57,-2.10 0.89,-1.95 1.22,-1.80 1.47,-1.56 1.73,-1.32 1.89,-1.01 2.06,-0.70 2.12,-0.35 2.18,-0.00 2.12,0.34 2.06,0.69 1.90,1.00 1.73,1.31 1.48,1.55 1.22,1.80 0.90,1.95 0.58,2.10 0.23,2.13 -0.11,2.17 -0.45,2.10 -0.80,2.02 -1.10,1.84 -1.40,1.66 -1.63,1.39 -1.86,1.12 -1.99,0.80 -2.12,0.47 -2.14,0.12 -2.16,-0.23 -2.07,-0.57 -1.98,-0.91 -1.78,-1.20 -1.58,-1.49 -1.30,-1.71 -1.02,-1.92 -0.69,-2.03 -0.35,-2.15 -0.35,-2.15 -0.35,-2.15 2.43,-2.81 5.22,-3.47 5.53,-3.47 5.84,-3.47 6.14,-3.40 6.44,-3.33 6.72,-3.19 7.00,-3.05 7.23,-2.84 7.46,-2.64 7.64,-2.38 7.82,-2.13 7.93,-1.84 8.04,-1.55 8.08,-1.25 8.12,-0.94 8.09,-0.63 8.05,-0.32 7.95,-0.03 7.84,0.25 7.66,0.50 7.49,0.76 7.26,0.97 7.03,1.17 6.76,1.32 6.48,1.47 6.18,1.54 5.88,1.62 4.17,1.65 2.46,1.68 1.59,1.91 0.71,2.14 0.44,2.19 0.18,2.25 -0.09,2.23 -0.36,2.22 -0.62,2.15 -0.88,2.07 -1.12,1.94 -1.35,1.80 -1.55,1.61 -1.74,1.42 -1.89,1.19 -2.04,0.96 -2.12,0.70 -2.21,0.45 -2.23,0.17 -2.25,-0.09 -2.21,-0.36 -2.16,-0.62 -2.06,-0.87 -1.95,-1.12 -1.79,-1.34 -1.62,-1.56 -1.41,-1.73 -1.20,-1.90 -0.95,-2.02 -0.71,-2.14 -0.71,-2.14 L -0.71,-2.14 Z"></path></g><g transform="translate(311 183.5) rotate(0 1.5 -6.5)" stroke="none"><path fill="#586e75" d="M -2.16,-0.36 Q -2.16,-0.36 -1.84,-2.08 -1.53,-3.80 -0.70,-6.34 0.12,-8.89 0.54,-11.17 0.96,-13.45 1.08,-13.76 1.21,-14.08 1.43,-14.33 1.65,-14.59 1.94,-14.76 2.23,-14.94 2.56,-15.01 2.89,-15.08 3.22,-15.04 3.56,-15.01 3.86,-14.86 4.17,-14.72 4.42,-14.49 4.66,-14.25 4.82,-13.96 4.98,-13.66 5.03,-13.32 5.08,-12.99 5.03,-12.66 4.97,-12.32 4.81,-12.03 4.65,-11.73 4.41,-11.50 4.16,-11.26 3.86,-11.12 3.55,-10.98 3.21,-10.95 2.88,-10.91 2.55,-10.98 2.22,-11.06 1.93,-11.23 1.64,-11.41 1.42,-11.66 1.20,-11.92 1.08,-12.24 0.95,-12.55 0.94,-12.89 0.92,-13.23 1.01,-13.55 1.10,-13.88 1.29,-14.16 1.48,-14.43 1.75,-14.64 2.02,-14.84 2.34,-14.95 2.66,-15.06 3.00,-15.06 3.34,-15.05 3.66,-14.95 3.98,-14.84 4.25,-14.63 4.51,-14.43 4.70,-14.15 4.89,-13.87 4.98,-13.54 5.07,-13.22 5.05,-12.88 5.03,-12.54 5.03,-12.54 5.03,-12.54 4.42,-10.19 3.81,-7.84 3.25,-5.46 2.68,-3.09 2.42,-1.36 2.16,0.36 2.08,0.61 2.01,0.86 1.87,1.09 1.74,1.32 1.56,1.51 1.37,1.70 1.15,1.84 0.93,1.98 0.68,2.06 0.42,2.14 0.16,2.16 -0.09,2.18 -0.35,2.14 -0.61,2.10 -0.86,1.99 -1.10,1.89 -1.31,1.73 -1.52,1.57 -1.69,1.36 -1.85,1.16 -1.96,0.92 -2.08,0.68 -2.13,0.42 -2.18,0.16 -2.17,-0.09 -2.16,-0.36 -2.16,-0.36 L -2.16,-0.36 Z"></path></g><g transform="translate(322 146.5) rotate(0 1.5 -5)" stroke="none"><path fill="#586e75" d="M -2.30,-0.38 Q -2.30,-0.38 -1.97,-2.10 -1.64,-3.82 -1.22,-5.29 -0.80,-6.75 -0.02,-8.83 0.75,-10.91 0.95,-11.25 1.16,-11.58 1.46,-11.83 1.76,-12.08 2.13,-12.23 2.49,-12.37 2.89,-12.39 3.28,-12.40 3.65,-12.30 4.03,-12.19 4.36,-11.97 4.68,-11.74 4.91,-11.43 5.15,-11.11 5.27,-10.74 5.39,-10.37 5.39,-9.97 5.39,-9.58 5.26,-9.21 5.13,-8.84 4.89,-8.53 4.65,-8.22 4.32,-8.00 3.99,-7.78 3.62,-7.68 3.24,-7.58 2.85,-7.61 2.45,-7.63 2.09,-7.78 1.73,-7.93 1.43,-8.18 1.13,-8.44 0.93,-8.78 0.73,-9.12 0.65,-9.50 0.57,-9.88 0.62,-10.27 0.66,-10.66 0.83,-11.02 1.00,-11.37 1.27,-11.66 1.54,-11.94 1.89,-12.12 2.24,-12.30 2.63,-12.36 3.02,-12.42 3.40,-12.35 3.79,-12.29 4.13,-12.10 4.48,-11.91 4.75,-11.63 5.01,-11.34 5.18,-10.98 5.34,-10.62 5.38,-10.23 5.42,-9.84 5.33,-9.46 5.24,-9.08 5.24,-9.08 5.24,-9.08 4.42,-7.22 3.59,-5.37 3.19,-4.22 2.79,-3.07 2.54,-1.34 2.30,0.38 2.22,0.65 2.14,0.92 2.00,1.16 1.86,1.40 1.66,1.61 1.46,1.81 1.23,1.96 0.99,2.11 0.72,2.20 0.45,2.28 0.17,2.31 -0.10,2.33 -0.38,2.28 -0.65,2.23 -0.91,2.12 -1.17,2.01 -1.39,1.84 -1.62,1.67 -1.80,1.45 -1.97,1.23 -2.09,0.98 -2.21,0.73 -2.27,0.45 -2.32,0.17 -2.31,-0.10 -2.30,-0.38 -2.30,-0.38 L -2.30,-0.38 Z"></path></g><g transform="translate(330 117.5) rotate(0 1 -4)" stroke="none"><path fill="#586e75" d="M -2.25,-0.37 Q -2.25,-0.37 -1.93,-2.09 -1.61,-3.81 -0.92,-6.25 -0.23,-8.69 -0.06,-9.03 0.10,-9.37 0.37,-9.64 0.64,-9.90 0.98,-10.07 1.32,-10.23 1.70,-10.28 2.07,-10.33 2.44,-10.26 2.81,-10.18 3.14,-10.00 3.47,-9.81 3.72,-9.53 3.97,-9.24 4.12,-8.89 4.27,-8.55 4.30,-8.17 4.32,-7.79 4.23,-7.43 4.14,-7.06 3.93,-6.74 3.73,-6.42 3.43,-6.19 3.13,-5.95 2.78,-5.83 2.42,-5.70 2.04,-5.69 1.67,-5.68 1.31,-5.79 0.94,-5.91 0.64,-6.13 0.33,-6.35 0.11,-6.66 -0.10,-6.97 -0.20,-7.33 -0.31,-7.69 -0.30,-8.07 -0.29,-8.45 -0.16,-8.80 -0.02,-9.16 0.21,-9.45 0.44,-9.74 0.76,-9.95 1.08,-10.15 1.45,-10.24 1.82,-10.33 2.20,-10.29 2.57,-10.26 2.92,-10.11 3.27,-9.96 3.55,-9.70 3.83,-9.45 4.01,-9.12 4.19,-8.79 4.26,-8.42 4.33,-8.04 4.28,-7.67 4.23,-7.30 4.23,-7.30 4.23,-7.30 3.49,-5.19 2.76,-3.08 2.50,-1.35 2.25,0.37 2.17,0.64 2.10,0.90 1.96,1.14 1.82,1.38 1.63,1.57 1.43,1.77 1.20,1.92 0.97,2.07 0.71,2.15 0.44,2.24 0.17,2.26 -0.10,2.28 -0.37,2.23 -0.64,2.19 -0.89,2.08 -1.15,1.97 -1.37,1.80 -1.59,1.64 -1.76,1.42 -1.93,1.21 -2.05,0.96 -2.17,0.71 -2.22,0.44 -2.28,0.17 -2.26,-0.10 -2.25,-0.37 -2.25,-0.37 L -2.25,-0.37 Z"></path></g><g transform="translate(412 152.5) rotate(0 -6 -4.5)" stroke="none"><path fill="#586e75" d="M -1.57,1.57 Q -1.57,1.57 -2.47,0.74 -3.36,-0.08 -4.47,-0.92 -5.59,-1.76 -7.18,-3.12 -8.77,-4.48 -10.98,-5.81 -13.18,-7.14 -13.45,-7.38 -13.71,-7.62 -13.89,-7.93 -14.06,-8.24 -14.13,-8.59 -14.20,-8.94 -14.15,-9.29 -14.10,-9.64 -13.94,-9.96 -13.78,-10.28 -13.53,-10.53 -13.28,-10.79 -12.96,-10.94 -12.64,-11.10 -12.29,-11.15 -11.93,-11.20 -11.58,-11.13 -11.23,-11.06 -10.92,-10.89 -10.61,-10.71 -10.37,-10.44 -10.14,-10.18 -10.00,-9.85 -9.86,-9.52 -9.83,-9.17 -9.80,-8.81 -9.89,-8.47 -9.97,-8.12 -10.16,-7.82 -10.36,-7.52 -10.64,-7.30 -10.91,-7.08 -11.25,-6.95 -11.58,-6.83 -11.94,-6.82 -12.30,-6.81 -12.64,-6.92 -12.98,-7.02 -13.27,-7.23 -13.56,-7.44 -13.76,-7.73 -13.97,-8.02 -14.07,-8.36 -14.18,-8.70 -14.17,-9.06 -14.16,-9.41 -14.03,-9.75 -13.91,-10.08 -13.69,-10.36 -13.46,-10.64 -13.16,-10.83 -12.86,-11.02 -12.52,-11.11 -12.17,-11.19 -11.82,-11.16 -11.46,-11.13 -11.13,-10.99 -10.81,-10.85 -10.81,-10.85 -10.81,-10.85 -8.54,-9.32 -6.28,-7.78 -4.52,-6.61 -2.77,-5.44 -1.42,-4.40 -0.08,-3.36 0.74,-2.47 1.57,-1.57 1.74,-1.36 1.90,-1.15 2.01,-0.90 2.12,-0.66 2.17,-0.39 2.22,-0.13 2.20,0.13 2.19,0.40 2.11,0.65 2.03,0.91 1.89,1.14 1.75,1.37 1.56,1.56 1.37,1.75 1.14,1.89 0.91,2.03 0.65,2.11 0.40,2.19 0.13,2.20 -0.13,2.22 -0.39,2.17 -0.66,2.12 -0.90,2.01 -1.15,1.90 -1.36,1.74 -1.57,1.57 -1.57,1.57 L -1.57,1.57 Z"></path></g><g transform="translate(389 135.5) rotate(0 -7.5 -5.5)" stroke="none"><path fill="#586e75" d="M -1.57,1.57 Q -1.57,1.57 -2.46,0.74 -3.35,-0.07 -4.64,-0.89 -5.93,-1.71 -7.26,-2.76 -8.59,-3.81 -9.91,-4.78 -11.23,-5.75 -13.76,-7.43 -16.29,-9.12 -16.55,-9.37 -16.82,-9.63 -16.99,-9.95 -17.16,-10.28 -17.22,-10.64 -17.27,-11.01 -17.21,-11.37 -17.15,-11.74 -16.98,-12.06 -16.80,-12.38 -16.53,-12.64 -16.26,-12.89 -15.93,-13.04 -15.59,-13.19 -15.22,-13.23 -14.86,-13.27 -14.50,-13.19 -14.14,-13.11 -13.82,-12.91 -13.51,-12.72 -13.27,-12.44 -13.04,-12.16 -12.90,-11.81 -12.77,-11.47 -12.75,-11.10 -12.73,-10.73 -12.83,-10.38 -12.93,-10.03 -13.14,-9.72 -13.35,-9.42 -13.65,-9.20 -13.94,-8.98 -14.29,-8.86 -14.64,-8.74 -15.01,-8.75 -15.38,-8.75 -15.73,-8.87 -16.07,-8.99 -16.37,-9.21 -16.66,-9.44 -16.86,-9.74 -17.07,-10.05 -17.17,-10.41 -17.26,-10.76 -17.24,-11.13 -17.22,-11.50 -17.08,-11.84 -16.94,-12.18 -16.70,-12.46 -16.46,-12.74 -16.14,-12.93 -15.82,-13.12 -15.46,-13.19 -15.10,-13.27 -14.74,-13.23 -14.37,-13.19 -14.04,-13.03 -13.70,-12.87 -13.70,-12.87 -13.70,-12.87 -11.19,-11.09 -8.68,-9.32 -7.24,-8.31 -5.80,-7.30 -4.69,-6.40 -3.58,-5.49 -1.83,-4.43 -0.09,-3.37 0.73,-2.47 1.57,-1.57 1.73,-1.36 1.90,-1.15 2.01,-0.90 2.12,-0.66 2.17,-0.39 2.22,-0.13 2.20,0.13 2.18,0.40 2.10,0.65 2.02,0.91 1.89,1.14 1.75,1.37 1.56,1.56 1.37,1.75 1.14,1.89 0.91,2.02 0.65,2.10 0.40,2.18 0.13,2.20 -0.13,2.22 -0.39,2.17 -0.66,2.12 -0.90,2.01 -1.15,1.90 -1.36,1.73 -1.57,1.57 -1.57,1.57 L -1.57,1.57 Z"></path></g><g transform="translate(360 114.5) rotate(0 -8.5 -5)" stroke="none"><path fill="#586e75" d="M -1.04,1.83 Q -1.04,1.83 -3.00,0.59 -4.96,-0.64 -6.39,-1.38 -7.82,-2.13 -9.61,-3.44 -11.40,-4.75 -12.99,-5.85 -14.59,-6.94 -16.21,-7.59 -17.82,-8.24 -18.08,-8.42 -18.34,-8.60 -18.53,-8.85 -18.72,-9.10 -18.81,-9.40 -18.91,-9.70 -18.91,-10.01 -18.91,-10.33 -18.80,-10.62 -18.70,-10.92 -18.51,-11.17 -18.32,-11.41 -18.05,-11.59 -17.79,-11.76 -17.49,-11.84 -17.19,-11.92 -16.87,-11.90 -16.56,-11.88 -16.27,-11.77 -15.98,-11.65 -15.74,-11.44 -15.51,-11.24 -15.35,-10.97 -15.19,-10.70 -15.12,-10.39 -15.06,-10.08 -15.09,-9.77 -15.13,-9.46 -15.27,-9.18 -15.40,-8.89 -15.62,-8.67 -15.84,-8.44 -16.11,-8.30 -16.39,-8.15 -16.70,-8.10 -17.01,-8.06 -17.32,-8.11 -17.63,-8.16 -17.91,-8.31 -18.18,-8.46 -18.40,-8.69 -18.61,-8.92 -18.74,-9.21 -18.87,-9.49 -18.90,-9.81 -18.93,-10.12 -18.86,-10.42 -18.79,-10.73 -18.63,-11.00 -18.46,-11.26 -18.22,-11.46 -17.98,-11.67 -17.69,-11.78 -17.39,-11.89 -17.08,-11.91 -16.77,-11.92 -16.47,-11.83 -16.17,-11.75 -16.17,-11.75 -16.17,-11.75 -14.40,-10.80 -12.64,-9.85 -11.02,-8.78 -9.39,-7.71 -7.67,-6.64 -5.95,-5.57 -4.51,-4.76 -3.08,-3.95 -1.01,-2.89 1.04,-1.83 1.25,-1.68 1.45,-1.53 1.62,-1.33 1.78,-1.13 1.89,-0.90 2.00,-0.67 2.05,-0.42 2.10,-0.17 2.09,0.07 2.08,0.33 2.01,0.57 1.94,0.82 1.82,1.04 1.69,1.26 1.52,1.44 1.34,1.63 1.12,1.76 0.91,1.90 0.67,1.98 0.43,2.07 0.17,2.09 -0.07,2.11 -0.32,2.07 -0.57,2.03 -0.81,1.93 -1.04,1.83 -1.04,1.83 L -1.04,1.83 Z"></path></g><g transform="translate(560 100.5) rotate(0 1 -1)" stroke="none"><path fill="#586e75" d="M -1.18,2.37 Q -1.18,2.37 -1.07,2.08 -0.96,1.78 -1.92,2.01 -2.88,2.25 -3.16,2.06 -3.44,1.88 -3.67,1.63 -3.90,1.38 -4.06,1.09 -4.23,0.79 -4.31,0.47 -4.40,0.14 -4.41,-0.18 -4.41,-0.52 -4.34,-0.85 -4.26,-1.18 -4.11,-1.48 -3.96,-1.78 -3.74,-2.04 -3.53,-2.29 -3.25,-2.49 -2.98,-2.69 -2.67,-2.81 -2.36,-2.94 -2.02,-2.98 -1.69,-3.03 -1.35,-3.00 -1.02,-2.96 -0.70,-2.85 -0.38,-2.74 0.40,-1.90 1.19,-1.06 0.51,-1.90 -0.16,-2.75 1.08,-1.87 2.33,-1.00 2.79,-2.41 3.26,-3.82 3.65,-3.81 4.05,-3.80 4.44,-3.69 4.82,-3.58 5.17,-3.38 5.51,-3.19 5.80,-2.91 6.09,-2.64 6.31,-2.30 6.52,-1.97 6.65,-1.59 6.78,-1.22 6.82,-0.82 6.85,-0.42 6.79,-0.03 6.73,0.36 6.57,0.72 6.42,1.09 6.18,1.41 5.95,1.73 5.64,1.99 5.33,2.24 4.97,2.41 4.62,2.59 4.23,2.67 3.84,2.75 2.14,2.86 0.44,2.96 -0.03,2.95 -0.52,2.95 -0.98,2.79 -1.43,2.63 -1.82,2.33 -2.20,2.03 -2.47,1.62 -2.73,1.22 -2.86,0.75 -2.98,0.28 -2.95,-0.19 -2.91,-0.68 -2.73,-1.13 -2.54,-1.57 -2.23,-1.94 -1.91,-2.31 -1.49,-2.55 -1.07,-2.79 -0.59,-2.89 -0.12,-2.99 0.35,-2.93 0.83,-2.87 1.27,-2.66 1.71,-2.45 2.06,-2.12 2.41,-1.78 2.63,-1.35 2.85,-0.92 2.92,-0.44 2.99,0.03 2.91,0.51 2.82,0.99 2.59,1.41 2.36,1.84 2.00,2.17 1.65,2.50 1.20,2.70 0.76,2.89 0.28,2.94 -0.20,2.99 -0.67,2.88 -1.14,2.77 -1.55,2.51 -1.97,2.25 -2.28,1.88 -2.58,1.51 -2.76,1.05 -2.93,0.60 -2.95,0.12 -2.97,-0.36 -2.84,-0.82 -2.70,-1.29 -2.42,-1.69 -2.14,-2.09 -1.75,-2.37 -1.36,-2.66 -0.90,-2.81 -0.44,-2.96 -0.44,-2.96 -0.44,-2.96 1.40,-3.39 3.26,-3.82 3.65,-3.81 4.05,-3.80 4.44,-3.69 4.82,-3.58 5.17,-3.38 5.51,-3.19 5.80,-2.91 6.09,-2.64 6.31,-2.30 6.52,-1.97 6.65,-1.59 6.78,-1.22 6.82,-0.82 6.85,-0.42 6.79,-0.03 6.73,0.36 6.57,0.72 6.42,1.09 6.18,1.41 5.95,1.73 5.64,1.99 5.33,2.24 4.97,2.41 4.62,2.59 4.23,2.67 3.84,2.75 3.79,2.93 3.73,3.11 2.08,2.94 0.42,2.77 -0.93,1.27 -2.29,-0.22 -2.20,-1.68 -2.10,-3.14 -1.02,-4.58 0.04,-6.02 1.25,-6.19 2.46,-6.35 4.00,-5.26 5.54,-4.18 5.72,-2.94 5.89,-1.70 5.25,0.01 4.60,1.74 3.42,2.76 2.24,3.78 0.80,3.77 -0.63,3.76 -1.76,3.00 -2.88,2.25 -3.16,2.06 -3.44,1.88 -3.67,1.63 -3.90,1.38 -4.06,1.09 -4.23,0.79 -4.31,0.47 -4.40,0.14 -4.41,-0.18 -4.41,-0.52 -4.34,-0.85 -4.26,-1.18 -4.11,-1.48 -3.96,-1.78 -3.75,-2.04 -3.53,-2.29 -3.25,-2.49 -2.98,-2.69 -2.67,-2.81 -2.36,-2.94 -2.02,-2.98 -1.69,-3.03 -1.35,-3.00 -1.02,-2.96 -0.70,-2.85 -0.38,-2.74 -0.86,-2.83 -1.33,-2.93 -0.07,-2.65 1.18,-2.37 1.45,-2.20 1.72,-2.02 1.94,-1.78 2.15,-1.55 2.31,-1.27 2.46,-0.99 2.55,-0.68 2.63,-0.37 2.64,-0.05 2.64,0.26 2.57,0.58 2.50,0.89 2.36,1.18 2.21,1.46 2.01,1.71 1.80,1.95 1.54,2.14 1.28,2.33 0.98,2.45 0.68,2.57 0.36,2.61 0.05,2.65 -0.26,2.62 -0.58,2.59 -0.88,2.48 -1.18,2.37 -1.18,2.37 L -1.18,2.37 Z"></path></g><g transform="translate(560 90.5) rotate(0 -9 -37)" stroke="none"><path fill="#586e75" d="M -1.77,0.17 Q -1.77,0.17 -1.99,-2.70 -2.22,-5.58 -2.66,-6.94 -3.11,-8.30 -4.10,-13.02 -5.08,-17.74 -6.63,-25.20 -8.17,-32.66 -9.96,-40.71 -11.75,-48.76 -13.36,-54.15 -14.96,-59.54 -15.93,-63.32 -16.90,-67.10 -17.75,-70.53 -18.60,-73.97 -18.57,-74.23 -18.53,-74.48 -18.41,-74.72 -18.29,-74.95 -18.10,-75.13 -17.92,-75.31 -17.68,-75.43 -17.45,-75.54 -17.19,-75.57 -16.93,-75.60 -16.68,-75.55 -16.42,-75.50 -16.20,-75.37 -15.97,-75.24 -15.80,-75.04 -15.63,-74.85 -15.53,-74.61 -15.43,-74.37 -15.41,-74.11 -15.39,-73.85 -15.46,-73.59 -15.52,-73.34 -15.67,-73.12 -15.81,-72.91 -16.01,-72.75 -16.22,-72.59 -16.47,-72.50 -16.71,-72.41 -16.97,-72.41 -17.23,-72.40 -17.48,-72.48 -17.73,-72.56 -17.94,-72.72 -18.15,-72.87 -18.30,-73.08 -18.44,-73.30 -18.52,-73.55 -18.59,-73.80 -18.58,-74.06 -18.57,-74.32 -18.48,-74.56 -18.39,-74.80 -18.22,-75.00 -18.06,-75.20 -17.83,-75.34 -17.61,-75.48 -17.36,-75.54 -17.11,-75.60 -16.85,-75.58 -16.59,-75.55 -16.35,-75.45 -16.11,-75.34 -15.92,-75.16 -15.73,-74.99 -15.60,-74.76 -15.48,-74.53 -15.43,-74.28 -15.39,-74.02 -15.39,-74.02 -15.39,-74.02 -14.78,-70.92 -14.18,-67.81 -13.18,-64.10 -12.19,-60.38 -10.51,-54.90 -8.84,-49.42 -6.98,-41.37 -5.11,-33.31 -3.48,-25.89 -1.85,-18.46 -0.76,-13.84 0.32,-9.23 0.69,-7.57 1.07,-5.91 1.42,-3.04 1.77,-0.17 1.76,0.03 1.76,0.25 1.70,0.45 1.65,0.66 1.54,0.85 1.44,1.04 1.29,1.20 1.15,1.35 0.97,1.47 0.79,1.59 0.59,1.66 0.38,1.73 0.17,1.76 -0.03,1.78 -0.25,1.75 -0.46,1.72 -0.66,1.64 -0.86,1.56 -1.03,1.43 -1.21,1.30 -1.34,1.14 -1.48,0.98 -1.58,0.78 -1.67,0.59 -1.72,0.38 -1.77,0.17 -1.77,0.17 L -1.77,0.17 Z"></path></g><g transform="translate(480 113.5) rotate(0 38 -7)" stroke="none"><path fill="#586e75" d="M -0.27,-1.65 Q -0.27,-1.65 1.44,-1.97 3.16,-2.29 6.45,-2.92 9.75,-3.56 15.23,-4.39 20.71,-5.23 26.18,-6.14 31.65,-7.06 38.87,-8.30 46.08,-9.54 52.87,-10.92 59.66,-12.30 63.69,-13.17 67.73,-14.04 70.06,-14.41 72.39,-14.78 74.07,-15.13 75.75,-15.49 76.00,-15.49 76.24,-15.49 76.47,-15.41 76.70,-15.33 76.90,-15.18 77.09,-15.03 77.23,-14.83 77.37,-14.63 77.43,-14.39 77.50,-14.16 77.48,-13.91 77.47,-13.67 77.38,-13.44 77.29,-13.22 77.13,-13.03 76.97,-12.84 76.76,-12.72 76.55,-12.59 76.31,-12.54 76.08,-12.49 75.83,-12.51 75.59,-12.54 75.37,-12.64 75.15,-12.75 74.97,-12.91 74.79,-13.08 74.68,-13.30 74.56,-13.51 74.52,-13.75 74.48,-14.00 74.52,-14.24 74.56,-14.48 74.68,-14.69 74.79,-14.91 74.97,-15.08 75.15,-15.25 75.37,-15.35 75.59,-15.45 75.83,-15.48 76.08,-15.50 76.32,-15.45 76.55,-15.40 76.76,-15.27 76.97,-15.15 77.13,-14.96 77.29,-14.77 77.38,-14.55 77.47,-14.32 77.48,-14.07 77.50,-13.83 77.43,-13.60 77.37,-13.36 77.23,-13.16 77.09,-12.96 76.90,-12.81 76.70,-12.66 76.47,-12.58 76.24,-12.50 76.24,-12.50 76.24,-12.50 74.53,-12.30 72.83,-12.10 70.57,-11.72 68.31,-11.35 64.27,-10.45 60.22,-9.55 53.40,-8.13 46.58,-6.71 39.37,-5.43 32.16,-4.14 26.68,-3.16 21.20,-2.18 15.81,-1.28 10.42,-0.37 7.08,0.38 3.73,1.14 2.00,1.40 0.27,1.65 0.07,1.66 -0.12,1.67 -0.32,1.63 -0.52,1.59 -0.70,1.50 -0.89,1.42 -1.04,1.29 -1.20,1.16 -1.32,1.00 -1.45,0.84 -1.53,0.65 -1.61,0.47 -1.64,0.27 -1.67,0.07 -1.66,-0.12 -1.64,-0.32 -1.58,-0.52 -1.51,-0.71 -1.41,-0.88 -1.30,-1.05 -1.15,-1.19 -1.01,-1.33 -0.83,-1.44 -0.66,-1.54 -0.47,-1.59 -0.27,-1.65 -0.27,-1.65 L -0.27,-1.65 Z"></path></g><g transform="translate(540 189.5) rotate(0 11.5 -47)" stroke="none"><path fill="#586e75" d="M -1.67,-0.23 Q -1.67,-0.23 -1.36,-2.24 -1.04,-4.25 -0.00,-8.34 1.04,-12.42 2.65,-17.61 4.26,-22.80 6.95,-32.45 9.65,-42.09 12.24,-51.93 14.83,-61.78 16.21,-68.80 17.60,-75.82 18.77,-80.85 19.95,-85.89 20.75,-88.11 21.55,-90.33 21.61,-90.50 21.67,-90.67 21.77,-90.81 21.87,-90.96 22.00,-91.08 22.14,-91.20 22.29,-91.29 22.45,-91.37 22.62,-91.42 22.80,-91.46 22.97,-91.47 23.15,-91.47 23.33,-91.43 23.50,-91.39 23.66,-91.31 23.82,-91.23 23.95,-91.11 24.09,-90.99 24.19,-90.85 24.30,-90.70 24.36,-90.54 24.43,-90.37 24.45,-90.19 24.48,-90.02 24.46,-89.84 24.44,-89.66 24.45,-89.76 24.47,-89.85 24.41,-89.62 24.35,-89.39 24.22,-89.19 24.08,-88.99 23.89,-88.84 23.71,-88.69 23.48,-88.62 23.25,-88.54 23.01,-88.53 22.77,-88.53 22.55,-88.60 22.32,-88.68 22.12,-88.82 21.93,-88.96 21.80,-89.16 21.66,-89.36 21.59,-89.59 21.52,-89.82 21.53,-90.06 21.54,-90.30 21.63,-90.52 21.72,-90.74 21.87,-90.93 22.02,-91.11 22.23,-91.24 22.43,-91.36 22.66,-91.42 22.90,-91.47 23.14,-91.45 23.37,-91.43 23.59,-91.33 23.81,-91.23 23.99,-91.07 24.16,-90.91 24.28,-90.70 24.39,-90.49 24.43,-90.25 24.48,-90.01 24.44,-89.78 24.40,-89.54 24.30,-89.33 24.19,-89.11 24.01,-88.95 23.84,-88.78 23.63,-88.68 23.41,-88.57 23.17,-88.54 22.93,-88.51 22.70,-88.56 22.46,-88.61 22.26,-88.73 22.05,-88.85 21.89,-89.03 21.74,-89.22 21.64,-89.44 21.55,-89.66 21.55,-89.99 21.55,-90.33 21.61,-90.50 21.67,-90.67 21.77,-90.81 21.87,-90.96 22.00,-91.08 22.14,-91.20 22.29,-91.29 22.45,-91.37 22.62,-91.42 22.80,-91.46 22.97,-91.47 23.15,-91.47 23.33,-91.43 23.50,-91.39 23.66,-91.31 23.82,-91.23 23.95,-91.11 24.09,-90.99 24.19,-90.85 24.30,-90.70 24.36,-90.54 24.43,-90.37 24.45,-90.19 24.48,-90.02 24.46,-89.84 24.44,-89.66 23.52,-87.47 22.60,-85.27 21.45,-80.28 20.30,-75.29 18.92,-68.18 17.54,-61.07 14.98,-51.19 12.42,-41.32 9.76,-31.63 7.10,-21.94 5.57,-16.81 4.04,-11.69 3.12,-7.74 2.19,-3.79 1.93,-1.77 1.67,0.23 1.62,0.43 1.56,0.63 1.47,0.81 1.37,0.99 1.23,1.14 1.09,1.29 0.92,1.40 0.75,1.51 0.56,1.58 0.37,1.65 0.16,1.67 -0.03,1.69 -0.23,1.66 -0.43,1.63 -0.62,1.55 -0.81,1.48 -0.98,1.36 -1.14,1.24 -1.28,1.08 -1.41,0.93 -1.50,0.74 -1.59,0.56 -1.63,0.36 -1.68,0.16 -1.67,-0.03 -1.67,-0.23 -1.67,-0.23 L -1.67,-0.23 Z"></path></g><g transform="translate(566 95.5) rotate(0 43 -15.5)" stroke="none"><path fill="#586e75" d="M -0.49,-1.48 Q -0.49,-1.48 2.10,-2.31 4.70,-3.14 6.66,-3.79 8.63,-4.43 14.64,-6.41 20.66,-8.39 27.48,-11.22 34.31,-14.05 40.98,-16.70 47.65,-19.35 56.54,-22.49 65.43,-25.63 71.20,-27.82 76.97,-30.01 79.74,-30.94 82.51,-31.88 84.54,-32.57 86.57,-33.25 86.78,-33.29 86.99,-33.33 87.20,-33.29 87.42,-33.26 87.61,-33.16 87.80,-33.06 87.95,-32.90 88.09,-32.74 88.19,-32.55 88.28,-32.35 88.30,-32.14 88.32,-31.93 88.28,-31.72 88.23,-31.51 88.12,-31.32 88.01,-31.14 87.85,-31.00 87.68,-30.86 87.48,-30.78 87.28,-30.70 87.07,-30.68 86.85,-30.67 86.65,-30.73 86.44,-30.79 86.26,-30.91 86.08,-31.03 85.95,-31.20 85.82,-31.37 85.75,-31.57 85.68,-31.78 85.68,-31.99 85.68,-32.21 85.75,-32.41 85.82,-32.61 85.95,-32.79 86.08,-32.96 86.26,-33.08 86.43,-33.20 86.64,-33.26 86.85,-33.32 87.06,-33.31 87.28,-33.30 87.48,-33.22 87.68,-33.14 87.84,-33.00 88.01,-32.86 88.12,-32.68 88.23,-32.49 88.28,-32.28 88.32,-32.07 88.30,-31.86 88.28,-31.64 88.19,-31.45 88.10,-31.25 87.95,-31.09 87.80,-30.94 87.61,-30.84 87.42,-30.74 87.42,-30.74 87.42,-30.74 85.40,-30.04 83.37,-29.35 80.65,-28.42 77.93,-27.49 72.14,-25.28 66.34,-23.07 57.50,-19.93 48.67,-16.79 42.02,-14.13 35.38,-11.47 28.47,-8.57 21.57,-5.68 15.56,-3.65 9.56,-1.63 7.60,-0.96 5.64,-0.30 3.07,0.59 0.49,1.48 0.31,1.52 0.12,1.56 -0.06,1.55 -0.25,1.54 -0.43,1.49 -0.61,1.44 -0.77,1.34 -0.94,1.25 -1.07,1.12 -1.21,0.99 -1.31,0.83 -1.41,0.67 -1.47,0.49 -1.53,0.31 -1.55,0.12 -1.56,-0.06 -1.53,-0.25 -1.50,-0.43 -1.43,-0.61 -1.35,-0.78 -1.24,-0.93 -1.13,-1.08 -0.98,-1.20 -0.83,-1.32 -0.66,-1.40 -0.49,-1.48 -0.49,-1.48 L -0.49,-1.48 Z"></path></g><g transform="translate(640 160.5) rotate(0 -37.5 -32.5)" stroke="none"><path fill="#586e75" d="M -1.44,0.72 Q -1.44,0.72 -2.09,-0.37 -2.74,-1.46 -5.36,-4.07 -7.98,-6.68 -12.52,-10.13 -17.06,-13.58 -21.92,-17.70 -26.79,-21.83 -33.72,-27.60 -40.65,-33.37 -47.59,-38.69 -54.54,-44.01 -58.96,-47.74 -63.38,-51.47 -66.70,-54.50 -70.02,-57.54 -71.76,-59.44 -73.49,-61.34 -74.78,-62.68 -76.07,-64.01 -76.20,-64.21 -76.33,-64.41 -76.39,-64.64 -76.45,-64.86 -76.43,-65.10 -76.41,-65.33 -76.32,-65.55 -76.23,-65.77 -76.07,-65.95 -75.92,-66.12 -75.71,-66.24 -75.51,-66.36 -75.28,-66.41 -75.05,-66.45 -74.81,-66.42 -74.58,-66.39 -74.37,-66.29 -74.16,-66.19 -73.99,-66.02 -73.82,-65.86 -73.71,-65.65 -73.61,-65.44 -73.57,-65.20 -73.54,-64.97 -73.58,-64.74 -73.62,-64.50 -73.74,-64.30 -73.85,-64.09 -74.03,-63.93 -74.20,-63.77 -74.41,-63.68 -74.63,-63.58 -74.87,-63.56 -75.10,-63.54 -75.33,-63.60 -75.56,-63.65 -75.76,-63.78 -75.96,-63.90 -76.11,-64.08 -76.26,-64.27 -76.34,-64.49 -76.42,-64.71 -76.43,-64.94 -76.44,-65.18 -76.37,-65.41 -76.31,-65.63 -76.17,-65.82 -76.03,-66.02 -75.84,-66.16 -75.65,-66.30 -75.43,-66.37 -75.20,-66.44 -74.97,-66.43 -74.73,-66.43 -74.51,-66.35 -74.29,-66.27 -74.10,-66.12 -73.92,-65.98 -73.92,-65.98 -73.92,-65.98 -72.71,-64.57 -71.49,-63.17 -69.84,-61.36 -68.18,-59.56 -64.89,-56.57 -61.59,-53.59 -57.21,-49.92 -52.82,-46.25 -45.81,-40.93 -38.80,-35.61 -31.83,-29.87 -24.85,-24.13 -20.01,-20.12 -15.17,-16.10 -10.40,-12.59 -5.64,-9.07 -2.59,-6.10 0.44,-3.13 0.94,-1.92 1.44,-0.72 1.50,-0.53 1.57,-0.35 1.59,-0.16 1.61,0.03 1.58,0.22 1.56,0.41 1.48,0.59 1.41,0.77 1.30,0.93 1.18,1.09 1.03,1.22 0.89,1.34 0.71,1.43 0.54,1.52 0.35,1.56 0.16,1.60 -0.03,1.60 -0.22,1.59 -0.41,1.54 -0.60,1.49 -0.77,1.40 -0.94,1.31 -1.08,1.17 -1.22,1.04 -1.33,0.88 -1.44,0.72 -1.44,0.72 L -1.44,0.72 Z"></path></g><g transform="translate(550 63.5) rotate(0 4 -4)" stroke="none"><path fill="#586e75" d="M -2.52,-0.50 Q -2.52,-0.50 -2.22,-1.94 -1.91,-3.37 -1.47,-4.73 -1.03,-6.09 -0.47,-7.17 0.09,-8.24 1.49,-9.06 2.89,-9.87 4.71,-9.50 6.53,-9.13 7.81,-8.37 9.08,-7.60 9.47,-7.36 9.85,-7.11 10.14,-6.76 10.43,-6.41 10.59,-5.98 10.76,-5.56 10.77,-5.10 10.79,-4.65 10.66,-4.21 10.53,-3.77 10.27,-3.40 10.01,-3.02 9.64,-2.75 9.28,-2.48 8.84,-2.35 8.41,-2.21 7.95,-2.21 7.50,-2.22 7.07,-2.37 6.64,-2.53 6.28,-2.81 5.92,-3.09 5.67,-3.47 5.42,-3.85 5.30,-4.29 5.19,-4.73 5.22,-5.19 5.25,-5.64 5.43,-6.07 5.60,-6.49 5.90,-6.83 6.20,-7.17 6.60,-7.40 6.99,-7.63 7.44,-7.72 7.89,-7.81 8.34,-7.76 8.79,-7.70 9.20,-7.50 9.61,-7.30 9.94,-6.98 10.27,-6.66 10.47,-6.26 10.68,-5.85 10.75,-5.40 10.81,-4.95 10.73,-4.50 10.65,-4.05 10.43,-3.65 10.21,-3.25 9.88,-2.95 9.54,-2.64 9.12,-2.45 8.71,-2.27 8.25,-2.23 7.80,-2.18 7.35,-2.29 6.91,-2.39 6.91,-2.39 6.91,-2.39 5.37,-3.39 3.82,-4.39 3.44,-3.38 3.06,-2.37 2.79,-0.93 2.52,0.50 2.42,0.79 2.32,1.09 2.16,1.35 1.99,1.61 1.77,1.83 1.55,2.05 1.28,2.20 1.01,2.36 0.72,2.44 0.42,2.53 0.11,2.55 -0.19,2.56 -0.50,2.50 -0.80,2.44 -1.08,2.31 -1.36,2.17 -1.60,1.98 -1.84,1.78 -2.03,1.54 -2.22,1.29 -2.34,1.00 -2.46,0.72 -2.51,0.41 -2.56,0.11 -2.54,-0.19 -2.52,-0.50 -2.52,-0.50 L -2.52,-0.50 Z"></path></g><g transform="translate(601 76.5) rotate(0 3.5 4.5)" stroke="none"><path fill="#586e75" d="M 0.49,-2.46 Q 0.49,-2.46 1.93,-2.17 3.37,-1.87 4.55,-1.41 5.73,-0.95 7.43,0.63 9.13,2.22 9.06,3.77 8.99,5.31 7.75,7.82 6.51,10.32 6.23,10.69 5.96,11.06 5.57,11.32 5.19,11.57 4.75,11.70 4.31,11.82 3.85,11.80 3.39,11.77 2.96,11.60 2.53,11.44 2.18,11.14 1.83,10.84 1.59,10.45 1.35,10.05 1.25,9.60 1.15,9.15 1.20,8.70 1.25,8.24 1.45,7.82 1.64,7.40 1.95,7.07 2.27,6.73 2.68,6.52 3.08,6.30 3.54,6.23 3.99,6.15 4.44,6.22 4.90,6.30 5.31,6.51 5.71,6.73 6.03,7.06 6.35,7.39 6.54,7.81 6.73,8.23 6.79,8.69 6.84,9.14 6.74,9.59 6.64,10.04 6.40,10.44 6.17,10.83 5.82,11.13 5.47,11.43 5.04,11.60 4.61,11.77 4.15,11.80 3.69,11.82 3.25,11.70 2.81,11.58 2.42,11.32 2.04,11.06 1.76,10.70 1.48,10.33 1.34,9.90 1.19,9.46 1.19,9.00 1.19,8.54 1.33,8.10 1.48,7.67 1.48,7.67 1.48,7.67 3.07,5.71 4.66,3.75 3.51,3.38 2.37,3.02 0.93,2.74 -0.49,2.46 -0.78,2.37 -1.07,2.27 -1.32,2.11 -1.58,1.95 -1.79,1.73 -2.00,1.52 -2.15,1.25 -2.31,0.99 -2.39,0.70 -2.48,0.41 -2.49,0.11 -2.51,-0.19 -2.45,-0.49 -2.39,-0.78 -2.26,-1.06 -2.13,-1.33 -1.94,-1.57 -1.75,-1.80 -1.50,-1.99 -1.26,-2.17 -0.98,-2.29 -0.70,-2.41 -0.41,-2.46 -0.11,-2.51 0.19,-2.49 0.49,-2.46 0.49,-2.46 L 0.49,-2.46 Z"></path></g><g transform="translate(525 100.5) rotate(0 -2 4.5)" stroke="none"><path fill="#586e75" d="M 1.99,1.49 Q 1.99,1.49 1.13,2.64 0.26,3.79 1.09,5.45 1.91,7.12 2.16,7.47 2.41,7.83 2.53,8.24 2.66,8.66 2.64,9.09 2.62,9.53 2.47,9.93 2.31,10.34 2.04,10.67 1.76,11.01 1.40,11.24 1.03,11.47 0.61,11.57 0.18,11.67 -0.24,11.63 -0.67,11.59 -1.07,11.41 -1.46,11.24 -1.78,10.95 -2.10,10.65 -2.31,10.27 -2.52,9.89 -2.60,9.47 -2.68,9.04 -2.61,8.61 -2.55,8.18 -2.35,7.79 -2.16,7.41 -1.85,7.10 -1.54,6.80 -1.15,6.61 -0.75,6.42 -0.32,6.37 0.10,6.32 0.52,6.40 0.95,6.49 1.32,6.71 1.70,6.92 1.98,7.25 2.27,7.58 2.44,7.98 2.60,8.38 2.63,8.81 2.66,9.24 2.56,9.66 2.45,10.08 2.21,10.44 1.97,10.81 1.63,11.07 1.29,11.34 0.88,11.49 0.47,11.63 0.04,11.64 -0.39,11.65 -0.80,11.52 -1.21,11.38 -1.56,11.13 -1.91,10.87 -1.91,10.87 -1.91,10.87 -3.39,9.09 -4.86,7.32 -5.07,5.54 -5.28,3.76 -4.49,2.28 -3.71,0.80 -2.85,-0.34 -1.99,-1.49 -1.78,-1.71 -1.58,-1.93 -1.32,-2.09 -1.07,-2.25 -0.78,-2.34 -0.50,-2.44 -0.20,-2.46 0.09,-2.49 0.39,-2.44 0.69,-2.39 0.96,-2.28 1.24,-2.16 1.48,-1.98 1.72,-1.80 1.91,-1.56 2.10,-1.33 2.23,-1.06 2.36,-0.79 2.42,-0.49 2.48,-0.20 2.47,0.09 2.46,0.39 2.38,0.68 2.29,0.97 2.14,1.23 1.99,1.49 1.99,1.49 L 1.99,1.49 Z"></path></g><g transform="translate(547 138.5) rotate(0 4.5 1)" stroke="none"><path fill="#586e75" d="M 2.12,-1.41 Q 2.12,-1.41 2.70,-0.59 3.28,0.22 5.20,-1.47 7.13,-3.16 7.52,-3.41 7.92,-3.65 8.37,-3.75 8.82,-3.85 9.28,-3.81 9.74,-3.76 10.16,-3.57 10.59,-3.38 10.92,-3.06 11.26,-2.74 11.48,-2.34 11.70,-1.93 11.78,-1.47 11.86,-1.01 11.79,-0.56 11.72,-0.10 11.50,0.30 11.29,0.71 10.95,1.03 10.62,1.35 10.20,1.55 9.78,1.75 9.32,1.80 8.86,1.86 8.41,1.76 7.95,1.66 7.55,1.43 7.16,1.19 6.85,0.84 6.55,0.49 6.38,0.06 6.20,-0.36 6.17,-0.82 6.15,-1.29 6.27,-1.73 6.39,-2.18 6.65,-2.57 6.90,-2.95 7.27,-3.23 7.64,-3.52 8.07,-3.67 8.51,-3.82 8.98,-3.82 9.44,-3.82 9.88,-3.68 10.32,-3.53 10.69,-3.26 11.06,-2.98 11.32,-2.60 11.59,-2.21 11.71,-1.77 11.84,-1.32 11.82,-0.86 11.80,-0.40 11.63,0.02 11.46,0.46 11.16,0.81 10.86,1.17 10.86,1.17 10.86,1.16 9.49,2.30 8.12,3.44 6.31,4.50 4.50,5.55 2.61,5.12 0.71,4.70 -0.13,3.96 -0.98,3.22 -1.55,2.32 -2.12,1.41 -2.26,1.13 -2.39,0.86 -2.46,0.56 -2.53,0.26 -2.53,-0.04 -2.52,-0.34 -2.44,-0.64 -2.36,-0.94 -2.22,-1.21 -2.07,-1.48 -1.86,-1.70 -1.65,-1.93 -1.40,-2.10 -1.14,-2.27 -0.85,-2.38 -0.57,-2.48 -0.26,-2.51 0.04,-2.54 0.34,-2.50 0.65,-2.46 0.93,-2.35 1.22,-2.23 1.47,-2.05 1.72,-1.88 1.92,-1.64 2.12,-1.41 2.12,-1.41 L 2.12,-1.41 Z"></path></g><g transform="translate(594 130.5) rotate(0 4.5 -5.5)" stroke="none"><path fill="#586e75" d="M -0.49,-2.49 Q -0.49,-2.49 0.94,-2.77 2.38,-3.04 3.73,-3.65 5.08,-4.25 5.53,-5.80 5.97,-7.36 6.08,-9.28 6.18,-11.20 6.29,-11.64 6.39,-12.09 6.63,-12.47 6.88,-12.86 7.23,-13.15 7.58,-13.44 8.01,-13.60 8.44,-13.76 8.89,-13.78 9.35,-13.79 9.79,-13.66 10.22,-13.53 10.60,-13.27 10.97,-13.01 11.24,-12.64 11.51,-12.27 11.65,-11.84 11.79,-11.40 11.78,-10.95 11.77,-10.49 11.62,-10.06 11.46,-9.63 11.18,-9.27 10.90,-8.91 10.52,-8.66 10.13,-8.41 9.69,-8.30 9.25,-8.19 8.80,-8.22 8.34,-8.25 7.92,-8.43 7.50,-8.60 7.16,-8.91 6.81,-9.21 6.58,-9.60 6.36,-10.00 6.27,-10.44 6.18,-10.89 6.23,-11.34 6.29,-11.80 6.49,-12.21 6.69,-12.62 7.01,-12.95 7.33,-13.27 7.73,-13.48 8.14,-13.68 8.59,-13.75 9.05,-13.82 9.49,-13.73 9.94,-13.65 10.34,-13.43 10.74,-13.21 11.05,-12.87 11.36,-12.54 11.54,-12.12 11.73,-11.70 11.77,-11.25 11.81,-10.79 11.81,-10.79 11.81,-10.79 11.62,-8.69 11.44,-6.58 10.52,-4.07 9.60,-1.56 8.84,-0.72 8.08,0.10 5.72,1.00 3.36,1.89 1.93,2.19 0.49,2.49 0.19,2.52 -0.11,2.54 -0.41,2.49 -0.71,2.44 -1.00,2.32 -1.28,2.20 -1.52,2.01 -1.77,1.82 -1.96,1.59 -2.15,1.35 -2.28,1.07 -2.41,0.79 -2.47,0.49 -2.53,0.19 -2.52,-0.11 -2.51,-0.41 -2.42,-0.71 -2.33,-1.00 -2.18,-1.27 -2.03,-1.53 -1.81,-1.75 -1.60,-1.97 -1.34,-2.14 -1.08,-2.30 -0.79,-2.40 -0.49,-2.49 -0.49,-2.49 L -0.49,-2.49 Z"></path></g></svg>