<svg version="1.1" xmlns="http://www.w3.org/2000/svg" viewBox="0 0 311 270" width="311" height="270">
  <!-- svg-source:excalidraw -->
  
  <defs>
    <style class="style-fonts">
      @font-face {
        font-family: "Virgil";
        src: url("https://excalidraw.com/Virgil.woff2");
      }
      @font-face {
        font-family: "Cascadia";
        src: url("https://excalidraw.com/Cascadia.woff2");
      }
    </style>
  </defs>
  <g transform="translate(35 176) rotate(0 -9 -66.5)" stroke="none"><path fill="#586e75" d="M -1.55,0.09 Q -1.55,0.09 -1.81,-4.50 -2.06,-9.10 -3.59,-21.07 -5.12,-33.04 -7.49,-47.62 -9.86,-62.19 -12.00,-73.85 -14.15,-85.50 -15.36,-93.64 -16.56,-101.79 -17.35,-106.96 -18.15,-112.14 -18.49,-116.98 -18.83,-121.82 -19.25,-125.26 -19.68,-128.70 -20.14,-130.99 -20.60,-133.28 -20.90,-134.83 -21.19,-136.38 -21.21,-136.56 -21.22,-136.74 -21.19,-136.92 -21.16,-137.10 -21.09,-137.27 -21.02,-137.44 -20.90,-137.59 -20.79,-137.73 -20.65,-137.85 -20.51,-137.96 -20.34,-138.04 -20.18,-138.12 -20.00,-138.16 -19.82,-138.19 -19.63,-138.19 -19.45,-138.18 -19.27,-138.13 -19.10,-138.07 -18.94,-137.98 -18.78,-137.89 -18.65,-137.76 -18.52,-137.64 -18.42,-137.48 -18.32,-137.32 -18.26,-137.15 -18.21,-136.98 -18.04,-133.80 -17.88,-130.61 -16.37,-123.07 -14.86,-115.53 -11.63,-98.48 -8.40,-81.44 -6.75,-71.30 -5.09,-61.17 -2.96,-48.54 -0.82,-35.90 0.37,-25.61 1.56,-15.32 1.78,-9.18 2.01,-3.04 2.46,-1.32 2.91,0.39 2.89,0.57 2.88,0.75 2.82,0.92 2.77,1.09 2.67,1.24 2.57,1.39 2.44,1.51 2.32,1.63 2.16,1.72 2.01,1.81 1.83,1.86 1.66,1.91 1.48,1.92 1.31,1.92 1.13,1.89 0.96,1.85 0.80,1.77 0.63,1.70 0.50,1.58 0.36,1.47 0.25,1.33 0.15,1.18 0.08,1.02 0.01,0.85 -0.01,0.68 -0.04,0.50 0.35,0.95 0.76,1.40 0.51,1.48 0.27,1.57 0.01,1.57 -0.24,1.57 -0.48,1.49 -0.73,1.41 -0.93,1.26 -1.14,1.10 -1.29,0.89 -1.43,0.68 -1.51,0.43 -1.58,0.18 -1.57,-0.06 -1.56,-0.32 -1.46,-0.56 -1.37,-0.80 -1.21,-1.00 -1.04,-1.20 -0.82,-1.33 -0.60,-1.47 -0.35,-1.53 -0.10,-1.59 0.15,-1.56 0.40,-1.54 0.64,-1.43 0.88,-1.32 1.06,-1.15 1.25,-0.97 1.38,-0.75 1.50,-0.52 1.54,-0.27 1.59,-0.01 1.55,0.23 1.51,0.49 1.39,0.72 1.27,0.95 1.09,1.13 0.90,1.30 0.67,1.42 0.44,1.53 0.18,1.56 -0.06,1.59 -0.32,1.54 -0.57,1.48 -0.79,1.35 -1.01,1.22 -1.18,1.03 -1.35,0.83 -1.45,0.59 -1.55,0.35 -1.56,0.10 -1.58,-0.15 -1.52,-0.40 -1.45,-0.65 -1.31,-0.86 -1.16,-1.08 -0.96,-1.24 -0.76,-1.40 -0.76,-1.40 -0.76,-1.40 1.07,-0.50 2.91,0.39 2.89,0.57 2.88,0.75 2.82,0.92 2.77,1.09 2.67,1.24 2.57,1.39 2.44,1.51 2.32,1.63 2.16,1.72 2.01,1.81 1.83,1.86 1.66,1.91 1.48,1.92 1.31,1.92 1.13,1.89 0.96,1.85 0.80,1.77 0.63,1.70 0.50,1.58 0.36,1.47 0.25,1.33 0.15,1.18 0.08,1.02 0.01,0.85 -0.01,0.68 -0.04,0.50 -0.35,-1.21 -0.66,-2.94 -0.89,-8.97 -1.11,-15.00 -2.31,-25.22 -3.51,-35.45 -5.67,-48.08 -7.82,-60.72 -9.50,-70.82 -11.18,-80.91 -14.44,-97.93 -17.70,-114.95 -19.28,-122.62 -20.85,-130.29 -21.02,-133.33 -21.19,-136.38 -21.21,-136.56 -21.22,-136.74 -21.19,-136.92 -21.16,-137.10 -21.09,-137.27 -21.02,-137.44 -20.90,-137.59 -20.79,-137.73 -20.65,-137.85 -20.51,-137.96 -20.34,-138.04 -20.18,-138.12 -20.00,-138.16 -19.82,-138.19 -19.63,-138.19 -19.45,-138.18 -19.28,-138.13 -19.10,-138.07 -18.94,-137.98 -18.78,-137.89 -18.65,-137.76 -18.52,-137.64 -18.42,-137.48 -18.32,-137.32 -18.26,-137.15 -18.21,-136.98 -18.10,-135.39 -18.00,-133.80 -17.52,-131.41 -17.03,-129.03 -16.59,-125.52 -16.16,-122.01 -15.82,-117.28 -15.48,-112.55 -14.67,-107.37 -13.86,-102.19 -12.65,-94.10 -11.44,-86.00 -9.26,-74.33 -7.07,-62.65 -4.67,-48.03 -2.26,-33.42 -0.67,-21.35 0.91,-9.29 1.23,-4.69 1.55,-0.09 1.54,0.09 1.53,0.27 1.48,0.45 1.42,0.63 1.32,0.79 1.23,0.96 1.09,1.09 0.96,1.22 0.80,1.32 0.64,1.42 0.46,1.47 0.28,1.53 0.09,1.54 -0.09,1.55 -0.27,1.52 -0.46,1.49 -0.63,1.41 -0.80,1.33 -0.95,1.22 -1.10,1.10 -1.21,0.95 -1.33,0.81 -1.41,0.63 -1.49,0.46 -1.52,0.28 -1.55,0.09 -1.55,0.09 L -1.55,0.09 Z"></path></g><g transform="translate(15 40) rotate(0 70.5 46.5)" stroke="none"><path fill="#586e75" d="M -1.31,1.31 Q -1.31,1.31 -2.23,0.50 -3.15,-0.30 -3.96,-1.32 -4.77,-2.34 -5.40,-2.72 -6.04,-3.10 -6.17,-3.34 -6.30,-3.58 -6.37,-3.85 -6.43,-4.12 -6.43,-4.40 -6.43,-4.67 -6.37,-4.94 -6.30,-5.21 -6.18,-5.45 -6.05,-5.70 -5.87,-5.91 -5.68,-6.11 -5.46,-6.27 -5.23,-6.43 -4.97,-6.53 -4.71,-6.63 -4.44,-6.66 -4.17,-6.70 -3.89,-6.66 -3.62,-6.63 -3.36,-6.53 -3.10,-6.44 -2.87,-6.28 -2.64,-6.12 -2.46,-5.92 -2.28,-5.71 0.14,-3.98 2.56,-2.24 7.86,1.74 13.16,5.74 20.57,11.19 27.97,16.65 44.02,27.30 60.06,37.96 75.22,47.97 90.38,57.98 102.01,65.99 113.63,74.00 123.17,80.86 132.72,87.73 136.79,90.96 140.86,94.18 142.31,95.52 143.76,96.86 143.88,96.98 144.01,97.10 144.10,97.25 144.18,97.40 144.24,97.57 144.29,97.73 144.30,97.91 144.31,98.08 144.27,98.25 144.24,98.42 144.17,98.58 144.10,98.73 143.99,98.87 143.89,99.01 143.75,99.11 143.61,99.22 143.45,99.29 143.30,99.36 143.13,99.39 142.96,99.42 142.78,99.41 142.61,99.40 142.44,99.35 142.28,99.30 142.13,99.21 141.98,99.12 136.99,94.86 132.00,90.60 125.97,84.98 119.93,79.36 108.22,70.10 96.51,60.84 83.77,51.43 71.03,42.03 58.73,33.43 46.43,24.83 35.74,17.73 25.06,10.63 19.62,6.43 14.17,2.23 11.84,0.13 9.50,-1.96 7.64,-3.96 5.78,-5.97 5.64,-6.19 5.51,-6.41 5.46,-6.67 5.40,-6.92 5.43,-7.17 5.46,-7.43 5.57,-7.66 5.68,-7.90 5.86,-8.08 6.04,-8.27 6.27,-8.39 6.49,-8.51 6.75,-8.55 7.00,-8.59 7.26,-8.54 7.51,-8.50 7.74,-8.38 7.97,-8.26 8.14,-8.07 8.32,-7.88 8.42,-7.65 8.53,-7.41 8.56,-7.16 8.58,-6.90 8.53,-6.65 8.47,-6.40 8.34,-6.18 8.20,-5.96 8.01,-5.79 7.81,-5.63 7.57,-5.53 7.33,-5.44 7.07,-5.43 6.81,-5.41 6.57,-5.48 6.32,-5.55 6.11,-5.70 5.89,-5.84 5.74,-6.05 5.58,-6.26 5.50,-6.50 5.42,-6.75 5.42,-7.00 5.43,-7.26 5.51,-7.50 5.59,-7.75 5.75,-7.95 5.91,-8.16 6.12,-8.30 6.33,-8.44 6.58,-8.51 6.83,-8.58 7.09,-8.56 7.35,-8.55 7.58,-8.45 7.82,-8.35 8.02,-8.19 8.21,-8.02 8.21,-8.02 8.21,-8.02 9.75,-5.98 11.29,-3.95 13.55,-1.92 15.82,0.09 21.19,4.23 26.57,8.36 37.28,15.47 48.00,22.57 60.35,31.17 72.70,39.77 85.49,49.18 98.29,58.58 110.12,67.88 121.95,77.18 128.01,82.74 134.08,88.31 138.92,92.58 143.76,96.86 143.88,96.98 144.01,97.10 144.09,97.25 144.18,97.40 144.24,97.57 144.29,97.73 144.30,97.91 144.31,98.08 144.27,98.25 144.24,98.42 144.17,98.58 144.10,98.73 143.99,98.87 143.89,99.01 143.75,99.11 143.61,99.22 143.45,99.29 143.30,99.36 143.13,99.39 142.96,99.42 142.78,99.41 142.61,99.40 142.44,99.35 142.28,99.30 142.13,99.21 141.98,99.12 140.56,97.74 139.14,96.36 135.10,93.20 131.06,90.03 121.52,83.22 111.98,76.40 100.35,68.45 88.72,60.50 73.52,50.55 58.32,40.60 42.16,29.98 26.00,19.37 18.50,14.02 11.01,8.67 5.61,4.83 0.21,0.99 -2.91,-1.05 -6.04,-3.10 -6.17,-3.34 -6.30,-3.58 -6.37,-3.85 -6.43,-4.12 -6.43,-4.40 -6.43,-4.67 -6.37,-4.94 -6.30,-5.21 -6.18,-5.45 -6.05,-5.70 -5.87,-5.91 -5.68,-6.11 -5.46,-6.27 -5.23,-6.43 -4.97,-6.53 -4.71,-6.63 -4.44,-6.66 -4.17,-6.70 -3.89,-6.66 -3.62,-6.63 -3.36,-6.53 -3.10,-6.44 -2.87,-6.28 -2.64,-6.12 -2.46,-5.92 -2.28,-5.71 -1.28,-4.43 -0.29,-3.14 0.50,-2.23 1.31,-1.31 1.45,-1.13 1.59,-0.96 1.68,-0.75 1.77,-0.55 1.81,-0.33 1.85,-0.11 1.84,0.11 1.82,0.33 1.76,0.54 1.69,0.76 1.58,0.95 1.46,1.14 1.30,1.30 1.14,1.46 0.95,1.58 0.76,1.69 0.54,1.76 0.33,1.82 0.11,1.84 -0.11,1.85 -0.33,1.81 -0.55,1.77 -0.75,1.68 -0.96,1.59 -1.13,1.45 -1.31,1.31 -1.31,1.31 L -1.31,1.31 Z"></path></g><g transform="translate(41 179) rotate(0 61.5 -23.5)" stroke="none"><path fill="#586e75" d="M -0.59,-1.59 Q -0.59,-1.59 1.72,-2.40 4.03,-3.21 7.89,-4.69 11.74,-6.17 16.87,-7.94 21.99,-9.72 32.79,-13.34 43.59,-16.96 57.95,-21.94 72.31,-26.92 84.15,-31.33 95.99,-35.74 103.02,-38.75 110.04,-41.76 113.58,-43.60 117.11,-45.44 118.28,-45.76 119.44,-46.08 119.62,-46.15 119.80,-46.22 119.99,-46.24 120.18,-46.26 120.37,-46.24 120.56,-46.22 120.74,-46.15 120.92,-46.08 121.08,-45.97 121.23,-45.86 121.36,-45.72 121.49,-45.57 121.58,-45.40 121.66,-45.23 121.71,-45.05 121.75,-44.86 121.75,-44.67 121.75,-44.48 121.71,-44.29 121.66,-44.11 121.57,-43.94 121.48,-43.77 121.35,-43.63 121.23,-43.48 121.07,-43.37 120.91,-43.27 120.01,-41.71 119.10,-40.14 117.97,-39.29 116.83,-38.44 114.73,-37.54 112.63,-36.65 109.12,-35.44 105.62,-34.23 99.56,-32.02 93.49,-29.82 82.56,-26.02 71.62,-22.22 58.92,-18.03 46.21,-13.83 35.36,-10.05 24.51,-6.27 18.46,-4.10 12.41,-1.92 10.62,-1.47 8.83,-1.03 4.62,0.18 0.41,1.40 0.18,1.43 -0.05,1.46 -0.28,1.42 -0.52,1.37 -0.72,1.25 -0.93,1.13 -1.08,0.95 -1.24,0.77 -1.33,0.56 -1.42,0.34 -1.44,0.10 -1.46,-0.13 -1.40,-0.36 -1.34,-0.59 -1.21,-0.79 -1.08,-0.99 -0.89,-1.13 -0.71,-1.28 -0.48,-1.36 -0.26,-1.44 -0.02,-1.45 0.21,-1.45 0.43,-1.38 0.66,-1.31 0.85,-1.16 1.04,-1.02 1.18,-0.83 1.32,-0.63 1.39,-0.41 1.45,-0.18 1.44,0.05 1.44,0.29 1.35,0.51 1.27,0.73 1.12,0.91 0.97,1.10 0.76,1.22 0.56,1.35 0.33,1.41 0.10,1.46 -0.13,1.44 -0.36,1.42 -0.58,1.32 -0.80,1.23 -0.97,1.06 -1.15,0.90 -1.26,0.70 -1.38,0.49 -1.42,0.25 -1.46,0.02 -1.43,-0.21 -1.40,-0.44 -1.29,-0.65 -1.18,-0.86 -1.01,-1.03 -0.84,-1.20 -0.63,-1.30 -0.41,-1.40 -0.41,-1.40 -0.41,-1.40 3.89,-2.71 8.21,-4.02 9.84,-4.28 11.47,-4.55 17.52,-6.76 23.57,-8.97 34.43,-12.79 45.28,-16.62 57.95,-20.86 70.61,-25.10 81.49,-28.97 92.37,-32.83 98.40,-35.14 104.43,-37.45 107.73,-38.74 111.03,-40.02 112.77,-40.93 114.50,-41.85 116.06,-42.59 117.62,-43.33 118.53,-44.71 119.44,-46.08 119.62,-46.15 119.80,-46.22 119.99,-46.24 120.18,-46.26 120.37,-46.24 120.56,-46.22 120.74,-46.15 120.92,-46.08 121.08,-45.97 121.23,-45.86 121.36,-45.72 121.49,-45.57 121.57,-45.40 121.66,-45.23 121.71,-45.05 121.75,-44.86 121.75,-44.67 121.75,-44.48 121.71,-44.29 121.66,-44.11 121.57,-43.94 121.48,-43.77 121.35,-43.63 121.23,-43.48 121.07,-43.37 120.91,-43.27 119.62,-43.15 118.32,-43.04 114.71,-41.16 111.11,-39.27 104.03,-36.22 96.95,-33.17 85.09,-28.73 73.23,-24.29 58.86,-19.28 44.50,-14.27 33.73,-10.62 22.96,-6.96 17.91,-5.15 12.86,-3.34 9.01,-1.78 5.16,-0.23 2.87,0.68 0.59,1.59 0.39,1.64 0.19,1.68 -0.00,1.68 -0.21,1.68 -0.41,1.63 -0.60,1.58 -0.79,1.49 -0.97,1.39 -1.12,1.26 -1.27,1.12 -1.39,0.95 -1.50,0.78 -1.58,0.59 -1.65,0.40 -1.67,0.19 -1.70,-0.00 -1.67,-0.20 -1.65,-0.41 -1.57,-0.60 -1.50,-0.79 -1.38,-0.96 -1.26,-1.13 -1.11,-1.26 -0.96,-1.40 -0.77,-1.49 -0.59,-1.59 -0.59,-1.59 L -0.59,-1.59 Z"></path></g><g transform="translate(155 135) rotate(0 4.5 -59)" stroke="none"><path fill="#586e75" d="M -1.82,-0.18 Q -1.82,-0.18 -1.17,-5.92 -0.53,-11.66 0.04,-17.26 0.63,-22.86 1.17,-33.83 1.72,-44.79 1.97,-59.51 2.21,-74.23 2.61,-85.68 3.01,-97.13 3.77,-103.49 4.53,-109.84 4.85,-113.08 5.17,-116.32 5.20,-117.50 5.23,-118.67 5.72,-120.05 6.21,-121.43 6.38,-121.60 6.54,-121.78 6.73,-121.90 6.93,-122.03 7.15,-122.10 7.38,-122.18 7.61,-122.20 7.84,-122.22 8.07,-122.19 8.31,-122.15 8.52,-122.06 8.74,-121.97 8.93,-121.83 9.12,-121.69 9.27,-121.51 9.41,-121.33 9.52,-121.12 9.62,-120.91 9.67,-120.68 9.72,-120.45 9.71,-120.21 9.70,-119.98 9.64,-119.75 9.57,-119.53 9.46,-119.32 9.34,-119.12 9.66,-115.40 9.98,-111.69 9.85,-108.33 9.73,-104.96 9.37,-91.45 9.02,-77.93 8.85,-62.14 8.68,-46.35 8.60,-33.88 8.52,-21.42 7.61,-14.31 6.70,-7.20 5.23,-4.23 3.76,-1.26 4.06,-1.82 4.36,-2.39 4.29,-2.21 4.22,-2.04 4.11,-1.88 3.99,-1.73 3.85,-1.61 3.70,-1.48 3.53,-1.40 3.36,-1.31 3.17,-1.27 2.99,-1.23 2.79,-1.24 2.60,-1.24 2.42,-1.29 2.24,-1.35 2.07,-1.44 1.90,-1.53 1.76,-1.66 1.62,-1.79 1.52,-1.95 1.42,-2.11 1.35,-2.29 1.29,-2.47 1.27,-2.66 1.26,-2.85 1.28,-3.04 1.31,-3.23 2.80,-2.88 4.29,-2.54 4.23,-2.38 4.16,-2.22 4.06,-2.09 3.96,-1.95 3.83,-1.84 3.70,-1.73 3.55,-1.66 3.39,-1.58 3.23,-1.54 3.06,-1.51 2.89,-1.51 2.72,-1.52 2.55,-1.56 2.39,-1.61 2.24,-1.69 2.09,-1.77 1.97,-1.89 1.84,-2.01 1.75,-2.15 1.66,-2.29 1.60,-2.45 1.55,-2.62 1.53,-2.78 1.51,-2.95 1.54,-3.12 1.56,-3.29 1.27,-1.15 0.98,0.98 0.79,1.11 0.61,1.24 0.39,1.31 0.18,1.37 -0.03,1.37 -0.26,1.36 -0.47,1.28 -0.68,1.20 -0.86,1.06 -1.03,0.92 -1.15,0.73 -1.27,0.54 -1.33,0.32 -1.38,0.10 -1.36,-0.11 -1.34,-0.33 -1.25,-0.54 -1.16,-0.75 -1.01,-0.91 -0.86,-1.08 -0.67,-1.19 -0.47,-1.30 -0.25,-1.34 -0.03,-1.38 0.18,-1.35 0.41,-1.32 0.61,-1.22 0.81,-1.12 0.97,-0.96 1.13,-0.80 1.23,-0.60 1.32,-0.40 1.35,-0.18 1.38,0.04 1.34,0.26 1.30,0.48 1.19,0.67 1.08,0.87 0.91,1.02 0.74,1.17 0.53,1.26 0.33,1.34 0.10,1.36 -0.11,1.38 -0.33,1.33 -0.55,1.27 -0.74,1.15 -0.93,1.03 -1.07,0.85 -1.21,0.68 -1.28,0.47 -1.36,0.25 -1.37,0.03 -1.37,-0.19 -1.31,-0.40 -1.24,-0.62 -1.11,-0.80 -0.98,-0.98 -0.98,-0.98 -0.98,-0.98 1.65,-1.76 4.29,-2.54 4.23,-2.38 4.16,-2.22 4.06,-2.09 3.96,-1.95 3.83,-1.84 3.70,-1.73 3.55,-1.66 3.39,-1.58 3.23,-1.54 3.06,-1.51 2.89,-1.51 2.72,-1.52 2.55,-1.56 2.39,-1.61 2.24,-1.69 2.09,-1.77 1.97,-1.89 1.84,-2.01 1.75,-2.15 1.66,-2.29 1.60,-2.45 1.55,-2.62 1.53,-2.78 1.51,-2.95 1.54,-3.12 1.56,-3.29 2.96,-2.84 4.36,-2.39 4.29,-2.21 4.22,-2.04 4.11,-1.88 3.99,-1.73 3.85,-1.61 3.70,-1.48 3.53,-1.40 3.36,-1.31 3.17,-1.27 2.99,-1.23 2.79,-1.24 2.60,-1.24 2.42,-1.29 2.24,-1.35 2.07,-1.44 1.90,-1.53 1.76,-1.66 1.62,-1.79 1.52,-1.95 1.42,-2.11 1.35,-2.29 1.29,-2.47 1.27,-2.66 1.26,-2.85 1.28,-3.04 1.31,-3.23 2.75,-3.54 4.19,-3.86 4.05,-5.71 3.91,-7.56 4.77,-14.49 5.64,-21.43 5.67,-33.90 5.70,-46.37 5.80,-62.19 5.90,-78.00 6.16,-91.51 6.43,-105.02 6.43,-108.42 6.43,-111.81 6.67,-115.22 6.91,-118.62 6.56,-120.03 6.21,-121.43 6.38,-121.60 6.54,-121.77 6.73,-121.90 6.93,-122.03 7.15,-122.10 7.37,-122.18 7.61,-122.20 7.84,-122.22 8.07,-122.19 8.31,-122.15 8.52,-122.06 8.74,-121.97 8.93,-121.83 9.12,-121.69 9.27,-121.51 9.41,-121.33 9.52,-121.12 9.62,-120.91 9.67,-120.68 9.72,-120.45 9.71,-120.21 9.70,-119.98 9.64,-119.75 9.57,-119.53 9.46,-119.33 9.34,-119.12 9.14,-118.70 8.95,-118.27 8.42,-117.16 7.90,-116.06 7.59,-112.79 7.29,-109.52 6.57,-103.28 5.85,-97.04 5.49,-85.61 5.13,-74.18 4.94,-59.42 4.75,-44.65 4.27,-33.60 3.79,-22.56 3.31,-16.94 2.83,-11.33 2.32,-5.57 1.82,0.18 1.77,0.39 1.72,0.61 1.62,0.81 1.52,1.00 1.38,1.17 1.24,1.34 1.06,1.47 0.88,1.60 0.68,1.68 0.47,1.76 0.25,1.80 0.03,1.83 -0.18,1.80 -0.40,1.78 -0.60,1.71 -0.81,1.64 -1.00,1.51 -1.18,1.39 -1.33,1.23 -1.48,1.07 -1.59,0.87 -1.69,0.68 -1.75,0.47 -1.81,0.25 -1.81,0.03 -1.82,-0.18 -1.82,-0.18 L -1.82,-0.18 Z"></path></g><g transform="translate(28 37) rotate(0 67.5 -12.5)" stroke="none"><path fill="#586e75" d="M -0.61,-1.52 Q -0.61,-1.52 0.80,-2.16 2.22,-2.80 6.20,-3.32 10.19,-3.85 27.59,-6.61 45.00,-9.38 64.18,-12.84 83.36,-16.30 96.98,-18.91 110.59,-21.52 118.40,-22.91 126.21,-24.30 128.09,-24.65 129.96,-24.99 130.13,-25.00 130.31,-25.01 130.49,-24.98 130.66,-24.95 130.83,-24.88 130.99,-24.80 131.13,-24.69 131.27,-24.58 131.38,-24.44 131.49,-24.30 131.56,-24.14 131.64,-23.97 131.67,-23.80 131.70,-23.62 131.69,-23.44 131.68,-23.26 131.62,-23.09 131.57,-22.92 131.48,-22.77 131.38,-22.62 131.26,-22.49 131.13,-22.37 130.98,-22.27 130.82,-22.18 130.65,-22.13 130.48,-22.08 127.51,-21.68 124.55,-21.28 121.88,-20.82 119.20,-20.36 117.22,-19.99 115.24,-19.62 115.01,-19.61 114.79,-19.61 114.57,-19.68 114.35,-19.75 114.17,-19.88 113.99,-20.02 113.86,-20.20 113.73,-20.39 113.67,-20.61 113.60,-20.83 113.61,-21.05 113.62,-21.28 113.70,-21.49 113.79,-21.70 113.93,-21.88 114.07,-22.05 114.27,-22.17 114.46,-22.29 114.68,-22.34 114.90,-22.39 115.13,-22.37 115.35,-22.35 115.56,-22.26 115.77,-22.16 115.93,-22.01 116.10,-21.86 116.21,-21.66 116.32,-21.46 116.36,-21.24 116.40,-21.01 116.36,-20.79 116.33,-20.56 116.22,-20.36 116.12,-20.16 115.96,-20.00 115.80,-19.85 115.59,-19.75 115.39,-19.65 115.16,-19.62 114.94,-19.60 114.71,-19.64 114.49,-19.69 114.30,-19.80 114.10,-19.92 113.95,-20.09 113.80,-20.26 113.72,-20.47 113.63,-20.68 113.62,-20.90 113.60,-21.13 113.66,-21.35 113.72,-21.57 113.84,-21.76 113.97,-21.95 114.14,-22.08 114.32,-22.22 114.54,-22.30 114.75,-22.37 114.75,-22.37 114.75,-22.37 116.74,-22.71 118.73,-23.04 121.43,-23.53 124.13,-24.02 127.05,-24.51 129.96,-24.99 130.13,-25.00 130.31,-25.01 130.49,-24.98 130.66,-24.95 130.83,-24.88 130.99,-24.80 131.13,-24.69 131.27,-24.58 131.38,-24.44 131.49,-24.30 131.56,-24.14 131.64,-23.97 131.67,-23.80 131.70,-23.62 131.69,-23.44 131.68,-23.26 131.62,-23.09 131.57,-22.92 131.48,-22.77 131.38,-22.62 131.26,-22.49 131.13,-22.37 130.98,-22.27 130.82,-22.18 130.65,-22.13 130.48,-22.08 128.60,-21.80 126.71,-21.53 118.93,-20.10 111.14,-18.68 97.52,-16.02 83.90,-13.36 64.70,-9.83 45.50,-6.30 28.07,-3.43 10.65,-0.57 7.08,-0.03 3.52,0.50 2.06,1.01 0.61,1.52 0.41,1.57 0.22,1.62 0.02,1.63 -0.16,1.63 -0.36,1.59 -0.55,1.54 -0.73,1.45 -0.90,1.36 -1.06,1.24 -1.21,1.11 -1.32,0.95 -1.44,0.78 -1.51,0.60 -1.58,0.42 -1.61,0.22 -1.64,0.02 -1.62,-0.16 -1.60,-0.36 -1.53,-0.55 -1.46,-0.73 -1.35,-0.90 -1.24,-1.06 -1.10,-1.20 -0.95,-1.33 -0.78,-1.43 -0.61,-1.52 -0.61,-1.52 L -0.61,-1.52 Z"></path></g><g transform="translate(138 18) rotate(0 -56 10)" stroke="none"><path fill="#586e75" d="M 0,-1.67 Q 0,-1.67 1.43,-1.74 2.87,-1.82 3.19,-1.87 3.52,-1.93 3.75,-1.90 3.98,-1.87 4.20,-1.79 4.42,-1.71 4.61,-1.57 4.80,-1.44 4.95,-1.27 5.11,-1.09 5.22,-0.89 5.32,-0.68 5.38,-0.45 5.44,-0.23 5.44,0.00 5.44,0.23 5.38,0.45 5.32,0.68 5.22,0.89 5.11,1.09 4.95,1.27 4.80,1.44 4.61,1.57 4.42,1.71 4.20,1.79 3.98,1.87 3.75,1.90 3.52,1.93 -9.98,4.38 -23.48,6.83 -34.48,8.74 -45.48,10.66 -52.76,11.74 -60.04,12.83 -70.58,14.72 -81.13,16.60 -90.24,17.97 -99.35,19.34 -104.39,19.92 -109.42,20.50 -113.13,20.93 -116.83,21.35 -117.06,21.34 -117.28,21.33 -117.48,21.25 -117.69,21.17 -117.86,21.03 -118.03,20.89 -118.15,20.70 -118.26,20.51 -118.31,20.30 -118.36,20.08 -118.34,19.86 -118.32,19.64 -118.23,19.44 -118.13,19.24 -117.98,19.07 -117.83,18.91 -117.64,18.81 -117.44,18.70 -117.23,18.66 -117.01,18.63 -116.79,18.66 -116.57,18.69 -116.37,18.80 -116.18,18.90 -116.02,19.06 -115.87,19.22 -115.77,19.42 -115.68,19.62 -115.65,19.84 -115.63,20.06 -115.67,20.27 -115.72,20.49 -115.83,20.68 -115.94,20.87 -116.11,21.02 -116.28,21.16 -116.48,21.25 -116.69,21.33 -116.91,21.34 -117.13,21.36 -117.35,21.30 -117.56,21.24 -117.74,21.12 -117.93,21.00 -118.06,20.82 -118.20,20.65 -118.27,20.44 -118.34,20.23 -118.35,20.01 -118.35,19.79 -118.28,19.57 -118.21,19.36 -118.08,19.19 -117.94,19.01 -117.76,18.88 -117.58,18.76 -117.37,18.70 -117.15,18.64 -117.15,18.64 -117.16,18.64 -113.45,18.19 -109.75,17.74 -104.76,17.14 -99.78,16.54 -90.71,15.14 -81.65,13.73 -71.07,11.79 -60.50,9.84 -53.27,8.69 -46.04,7.53 -35.08,5.52 -24.11,3.51 -10.29,0.79 3.52,-1.93 3.75,-1.90 3.98,-1.87 4.20,-1.79 4.42,-1.71 4.61,-1.57 4.80,-1.44 4.95,-1.27 5.11,-1.09 5.22,-0.89 5.32,-0.68 5.38,-0.45 5.44,-0.23 5.44,-0.00 5.44,0.23 5.38,0.45 5.32,0.68 5.22,0.89 5.11,1.09 4.95,1.27 4.80,1.44 4.61,1.57 4.42,1.71 4.20,1.79 3.98,1.87 3.75,1.90 3.52,1.93 3.19,1.87 2.87,1.82 1.43,1.74 0,1.67 -0.20,1.64 -0.40,1.62 -0.58,1.55 -0.77,1.48 -0.94,1.36 -1.10,1.25 -1.24,1.10 -1.37,0.94 -1.46,0.77 -1.56,0.59 -1.61,0.39 -1.65,0.20 -1.65,-0.00 -1.65,-0.20 -1.61,-0.39 -1.56,-0.59 -1.46,-0.77 -1.37,-0.94 -1.24,-1.10 -1.10,-1.25 -0.94,-1.36 -0.77,-1.48 -0.58,-1.55 -0.39,-1.62 -0.19,-1.64 0.00,-1.67 0.00,-1.67 L 0,-1.67 Z"></path></g><g transform="translate(174 10) rotate(0 56.5 44.5)" stroke="none"><path fill="#586e75" d="M 1.21,-1.21 Q 1.21,-1.21 2.62,0.24 4.04,1.70 6.30,3.75 8.57,5.79 10.71,7.86 12.85,9.92 20.59,15.93 28.33,21.93 43.41,32.84 58.49,43.74 74.37,54.70 90.26,65.66 99.02,71.47 107.78,77.27 111.86,80.39 115.94,83.51 116.25,84.09 116.55,84.67 116.69,84.80 116.83,84.94 116.93,85.10 117.03,85.26 117.09,85.44 117.15,85.62 117.16,85.81 117.18,86.00 117.15,86.19 117.12,86.38 117.04,86.56 116.97,86.73 116.85,86.88 116.73,87.04 116.59,87.16 116.44,87.28 116.27,87.36 116.09,87.44 115.91,87.48 115.72,87.51 115.53,87.50 115.34,87.50 115.15,87.44 114.97,87.39 114.80,87.29 114.64,87.20 113.37,86.72 112.10,86.24 110.24,84.89 108.38,83.53 106.49,81.45 104.61,79.37 100.10,75.01 95.59,70.66 89.71,65.95 83.83,61.24 73.89,54.64 63.95,48.04 50.54,40.05 37.13,32.06 25.67,25.20 14.22,18.34 7.62,14.26 1.02,10.19 -1.91,7.95 -4.86,5.72 -4.85,5.42 -4.85,5.11 -4.99,4.98 -5.13,4.86 -5.23,4.70 -5.34,4.54 -5.40,4.36 -5.47,4.18 -5.49,3.99 -5.51,3.81 -5.48,3.62 -5.45,3.43 -5.38,3.25 -5.31,3.08 -5.20,2.92 -5.09,2.77 -4.95,2.65 -4.80,2.52 -4.63,2.44 -4.46,2.35 -4.28,2.31 -4.09,2.27 -3.90,2.27 -3.71,2.28 -3.53,2.32 -3.35,2.37 -3.18,2.46 -3.02,2.56 -3.90,3.81 -4.78,5.06 -4.91,4.95 -5.03,4.84 -5.13,4.69 -5.22,4.55 -5.28,4.40 -5.33,4.24 -5.35,4.07 -5.37,3.90 -5.34,3.73 -5.32,3.57 -5.26,3.41 -5.20,3.25 -5.10,3.12 -5.00,2.98 -4.87,2.87 -4.74,2.76 -4.59,2.69 -4.44,2.61 -4.28,2.57 -4.11,2.53 -3.94,2.54 -3.77,2.54 -3.61,2.58 -3.45,2.63 -3.30,2.71 -3.15,2.79 -2.05,0.91 -0.95,-0.96 -0.77,-1.09 -0.59,-1.22 -0.38,-1.28 -0.17,-1.34 0.04,-1.34 0.26,-1.33 0.46,-1.25 0.67,-1.17 0.84,-1.04 1.01,-0.90 1.13,-0.71 1.25,-0.53 1.30,-0.31 1.35,-0.10 1.33,0.11 1.31,0.33 1.22,0.53 1.14,0.73 0.99,0.90 0.84,1.06 0.65,1.17 0.46,1.27 0.24,1.31 0.02,1.35 -0.18,1.32 -0.40,1.29 -0.60,1.19 -0.79,1.09 -0.95,0.94 -1.10,0.78 -1.20,0.58 -1.30,0.39 -1.32,0.17 -1.35,-0.04 -1.31,-0.25 -1.27,-0.47 -1.16,-0.66 -1.05,-0.85 -0.88,-1.00 -0.72,-1.14 -0.52,-1.23 -0.32,-1.32 -0.10,-1.33 0.11,-1.35 0.33,-1.29 0.54,-1.24 0.72,-1.12 0.91,-1.00 1.04,-0.83 1.18,-0.66 1.26,-0.45 1.33,-0.24 1.34,-0.02 1.34,0.19 1.27,0.40 1.21,0.61 1.08,0.78 0.95,0.96 0.95,0.96 0.95,0.96 -1.91,3.01 -4.78,5.06 -4.91,4.95 -5.03,4.84 -5.13,4.69 -5.22,4.55 -5.28,4.40 -5.33,4.24 -5.35,4.07 -5.37,3.90 -5.34,3.73 -5.32,3.57 -5.26,3.41 -5.20,3.25 -5.10,3.12 -5.00,2.98 -4.87,2.87 -4.74,2.76 -4.59,2.69 -4.44,2.61 -4.28,2.57 -4.11,2.53 -3.94,2.54 -3.77,2.54 -3.61,2.58 -3.45,2.63 -3.30,2.71 -3.15,2.79 -4.00,3.95 -4.85,5.11 -4.99,4.98 -5.13,4.86 -5.23,4.70 -5.34,4.54 -5.40,4.36 -5.47,4.18 -5.49,3.99 -5.51,3.81 -5.48,3.62 -5.45,3.43 -5.38,3.25 -5.31,3.08 -5.20,2.92 -5.09,2.77 -4.95,2.65 -4.80,2.52 -4.63,2.44 -4.46,2.35 -4.28,2.31 -4.09,2.27 -3.90,2.27 -3.71,2.28 -3.53,2.32 -3.35,2.37 -3.18,2.46 -3.02,2.56 -2.93,3.39 -2.84,4.22 -0.17,6.01 2.48,7.80 9.08,11.84 15.68,15.88 27.16,22.70 38.64,29.52 52.14,37.50 65.65,45.47 75.74,52.08 85.83,58.69 91.90,63.41 97.97,68.13 102.65,72.43 107.32,76.73 109.83,79.43 112.34,82.13 113.26,82.78 114.17,83.42 115.36,84.05 116.55,84.67 116.69,84.80 116.83,84.94 116.93,85.10 117.03,85.26 117.09,85.44 117.15,85.62 117.16,85.81 117.18,86.00 117.15,86.19 117.12,86.38 117.04,86.56 116.97,86.73 116.85,86.88 116.74,87.04 116.59,87.16 116.44,87.28 116.27,87.36 116.09,87.44 115.91,87.48 115.72,87.51 115.53,87.50 115.34,87.50 115.15,87.44 114.97,87.39 114.80,87.29 114.64,87.20 114.41,86.34 114.17,85.48 110.22,82.51 106.27,79.55 97.48,73.74 88.69,67.93 72.77,56.98 56.84,46.02 41.70,35.12 26.57,24.22 18.69,18.16 10.80,12.09 8.66,10.12 6.51,8.14 4.11,6.09 1.70,4.04 0.24,2.62 -1.21,1.21 -1.33,1.04 -1.46,0.88 -1.55,0.69 -1.63,0.50 -1.67,0.30 -1.71,0.10 -1.69,-0.10 -1.68,-0.30 -1.62,-0.50 -1.56,-0.70 -1.45,-0.87 -1.34,-1.05 -1.20,-1.20 -1.05,-1.34 -0.87,-1.45 -0.70,-1.56 -0.50,-1.62 -0.30,-1.68 -0.10,-1.69 0.10,-1.71 0.30,-1.67 0.50,-1.63 0.69,-1.55 0.88,-1.46 1.04,-1.33 1.21,-1.21 1.21,-1.21 L 1.21,-1.21 Z"></path></g><g transform="translate(153 135) rotate(0 65.5 -17.5)" stroke="none"><path fill="#586e75" d="M -0.47,-1.66 Q -0.47,-1.66 3.56,-2.75 7.60,-3.85 9.86,-4.57 12.12,-5.30 22.91,-8.48 33.69,-11.67 48.65,-15.32 63.60,-18.97 77.14,-22.24 90.67,-25.50 101.33,-27.75 111.98,-30.00 117.29,-31.79 122.60,-33.59 124.00,-34.45 125.40,-35.31 125.58,-35.34 125.76,-35.38 125.94,-35.37 126.13,-35.37 126.31,-35.32 126.48,-35.27 126.64,-35.17 126.81,-35.08 126.94,-34.95 127.07,-34.83 127.17,-34.67 127.27,-34.51 127.33,-34.34 127.39,-34.16 127.41,-33.98 127.42,-33.79 127.39,-33.61 127.36,-33.43 127.29,-33.26 127.22,-33.09 127.11,-32.94 127.00,-32.79 126.86,-32.67 126.71,-32.56 126.55,-32.48 126.38,-32.40 123.43,-31.44 120.47,-30.47 120.22,-30.44 119.96,-30.40 119.71,-30.45 119.46,-30.49 119.23,-30.62 119.01,-30.75 118.83,-30.94 118.66,-31.13 118.55,-31.36 118.45,-31.60 118.43,-31.86 118.41,-32.11 118.47,-32.36 118.53,-32.61 118.66,-32.83 118.80,-33.05 119.00,-33.21 119.20,-33.38 119.44,-33.47 119.68,-33.56 119.94,-33.57 120.20,-33.58 120.45,-33.50 120.69,-33.43 120.90,-33.28 121.11,-33.13 121.27,-32.92 121.42,-32.71 121.50,-32.47 121.57,-32.22 121.57,-31.96 121.56,-31.71 121.48,-31.46 121.39,-31.22 121.23,-31.02 121.07,-30.82 120.85,-30.68 120.64,-30.53 120.39,-30.47 120.14,-30.41 119.88,-30.43 119.62,-30.45 119.38,-30.55 119.15,-30.65 118.95,-30.82 118.76,-30.99 118.63,-31.21 118.50,-31.43 118.45,-31.69 118.40,-31.94 118.43,-32.20 118.47,-32.45 118.58,-32.68 118.69,-32.92 118.87,-33.10 119.06,-33.28 119.29,-33.40 119.52,-33.52 119.52,-33.52 119.52,-33.52 122.46,-34.41 125.40,-35.31 125.58,-35.34 125.76,-35.38 125.94,-35.37 126.13,-35.37 126.31,-35.32 126.48,-35.27 126.64,-35.17 126.81,-35.08 126.94,-34.95 127.07,-34.83 127.17,-34.67 127.27,-34.51 127.33,-34.34 127.39,-34.16 127.41,-33.98 127.42,-33.79 127.39,-33.61 127.36,-33.43 127.29,-33.26 127.22,-33.09 127.11,-32.94 127.00,-32.79 126.86,-32.67 126.71,-32.56 126.55,-32.48 126.38,-32.40 124.93,-31.71 123.48,-31.02 118.02,-29.17 112.56,-27.31 101.94,-25.05 91.33,-22.79 77.81,-19.49 64.28,-16.19 49.41,-12.52 34.53,-8.85 23.82,-5.62 13.11,-2.40 10.80,-1.57 8.49,-0.74 4.48,0.45 0.47,1.66 0.26,1.69 0.06,1.72 -0.14,1.71 -0.35,1.69 -0.54,1.62 -0.74,1.55 -0.92,1.44 -1.09,1.33 -1.24,1.18 -1.38,1.03 -1.48,0.85 -1.59,0.67 -1.65,0.47 -1.70,0.27 -1.71,0.06 -1.72,-0.14 -1.68,-0.34 -1.63,-0.55 -1.54,-0.74 -1.45,-0.92 -1.32,-1.09 -1.19,-1.25 -1.02,-1.37 -0.85,-1.50 -0.66,-1.58 -0.47,-1.66 -0.47,-1.66 L -0.47,-1.66 Z"></path></g><g transform="translate(291 94) rotate(0 -63.5 21.5)" stroke="none"><path fill="#586e75" d="M 0.83,1.49 Q 0.83,1.49 -1.78,2.88 -4.39,4.27 -8.75,6.04 -13.11,7.80 -19.28,9.97 -25.45,12.14 -30.65,13.92 -35.86,15.69 -46.99,19.32 -58.13,22.94 -73.80,27.65 -89.46,32.35 -100.13,35.78 -110.80,39.20 -115.08,40.38 -119.35,41.56 -121.00,42.04 -122.65,42.53 -122.91,42.54 -123.16,42.56 -123.40,42.49 -123.65,42.42 -123.86,42.28 -124.07,42.14 -124.23,41.94 -124.38,41.74 -124.46,41.50 -124.55,41.25 -124.55,41.00 -124.55,40.75 -124.47,40.50 -124.39,40.26 -124.23,40.06 -124.08,39.86 -123.87,39.71 -123.66,39.57 -123.42,39.50 -123.17,39.43 -122.92,39.45 -122.66,39.46 -122.43,39.55 -122.19,39.64 -121.99,39.81 -121.80,39.97 -121.67,40.19 -121.54,40.41 -121.48,40.66 -121.43,40.90 -121.45,41.16 -121.48,41.41 -121.58,41.64 -121.69,41.87 -121.86,42.06 -122.04,42.24 -122.26,42.36 -122.49,42.48 -122.74,42.53 -122.99,42.57 -123.24,42.53 -123.49,42.49 -123.72,42.37 -123.94,42.25 -124.12,42.07 -124.29,41.88 -124.40,41.65 -124.51,41.42 -124.54,41.17 -124.57,40.92 -124.51,40.67 -124.46,40.42 -124.33,40.20 -124.20,39.98 -124.00,39.82 -123.81,39.65 -123.57,39.56 -123.34,39.46 -123.34,39.46 -123.34,39.46 -121.70,39.21 -120.07,38.96 -115.85,37.79 -111.63,36.62 -100.94,33.17 -90.25,29.72 -74.62,25.01 -58.99,20.29 -47.89,16.65 -36.79,13.00 -31.61,11.19 -26.44,9.38 -20.36,7.18 -14.28,4.98 -10.11,3.23 -5.95,1.47 -3.39,-0.01 -0.83,-1.49 -0.63,-1.57 -0.44,-1.64 -0.24,-1.67 -0.04,-1.70 0.16,-1.68 0.36,-1.66 0.56,-1.60 0.75,-1.53 0.93,-1.41 1.10,-1.30 1.24,-1.15 1.38,-1.00 1.48,-0.82 1.58,-0.64 1.63,-0.44 1.69,-0.24 1.69,-0.04 1.70,0.16 1.65,0.36 1.61,0.56 1.52,0.75 1.42,0.93 1.29,1.09 1.16,1.25 0.99,1.37 0.83,1.49 0.83,1.49 L 0.83,1.49 Z"></path></g><g transform="translate(158 146) rotate(0 -4 45.5)" stroke="none"><path fill="#586e75" d="M -1.72,-0.43 Q -1.72,-0.43 -1.51,-1.60 -1.31,-2.77 -1.23,-2.99 -1.14,-3.21 -1.01,-3.40 -0.88,-3.59 -0.70,-3.75 -0.52,-3.90 -0.31,-4.01 -0.11,-4.12 0.11,-4.18 0.34,-4.23 0.58,-4.23 0.81,-4.23 1.04,-4.17 1.27,-4.12 1.48,-4.01 1.68,-3.90 1.86,-3.74 2.03,-3.58 2.17,-3.39 2.30,-3.20 2.38,-2.98 2.46,-2.76 2.49,-2.52 2.52,-2.29 2.49,-2.06 2.46,-1.82 2.75,-0.50 3.03,0.82 2.66,6.98 2.29,13.14 1.52,24.64 0.76,36.13 0.12,47.61 -0.51,59.09 -2.24,71.23 -3.98,83.36 -5.60,90.56 -7.22,97.76 -8.21,100.79 -9.21,103.83 -8.94,104.63 -8.66,105.44 -8.75,105.62 -8.83,105.80 -8.95,105.96 -9.08,106.11 -9.23,106.24 -9.39,106.36 -9.57,106.44 -9.76,106.52 -9.95,106.56 -10.15,106.59 -10.35,106.58 -10.55,106.57 -10.74,106.51 -10.93,106.44 -11.10,106.34 -11.27,106.24 -11.41,106.10 -11.55,105.95 -11.65,105.78 -11.76,105.61 -11.81,105.42 -11.87,105.23 -11.88,105.03 -11.90,104.83 -11.86,104.64 -11.82,104.44 -11.45,102.76 -11.07,101.08 -11.10,98.67 -11.13,96.27 -11.09,94.47 -11.05,92.66 -10.37,87.20 -9.69,81.74 -8.22,71.10 -6.75,60.47 -4.95,47.91 -3.15,35.35 -1.80,22.28 -0.45,9.21 0.41,1.62 1.29,-5.95 1.62,-7.77 1.94,-9.58 1.72,-10.11 1.51,-10.64 1.57,-10.84 1.64,-11.03 1.75,-11.21 1.86,-11.38 2.01,-11.53 2.16,-11.67 2.34,-11.78 2.52,-11.88 2.71,-11.94 2.91,-12.00 3.12,-12.01 3.33,-12.01 3.53,-11.97 3.73,-11.93 3.92,-11.84 4.11,-11.75 4.27,-11.62 4.43,-11.49 4.56,-11.33 4.68,-11.16 4.76,-10.97 4.85,-10.78 4.88,-10.58 4.91,-10.37 4.90,-10.17 4.88,-9.96 4.54,-8.66 4.20,-7.35 2.60,-7.12 0.99,-6.90 2.19,-7.77 3.38,-8.65 3.62,-8.56 3.85,-8.46 4.06,-8.32 4.27,-8.17 4.44,-7.98 4.60,-7.79 4.72,-7.56 4.83,-7.33 4.89,-7.09 4.95,-6.84 4.95,-6.58 4.94,-6.33 4.88,-6.08 4.82,-5.84 4.70,-5.61 4.58,-5.39 4.41,-5.20 4.23,-5.01 4.02,-4.87 3.81,-4.73 3.57,-4.64 3.34,-4.55 3.08,-4.52 2.83,-4.50 2.58,-4.53 2.33,-4.56 2.00,-1.92 1.68,0.72 1.52,0.97 1.36,1.22 1.13,1.41 0.89,1.59 0.62,1.70 0.34,1.80 0.04,1.80 -0.25,1.81 -0.53,1.72 -0.81,1.64 -1.05,1.46 -1.29,1.29 -1.47,1.05 -1.64,0.81 -1.73,0.52 -1.81,0.24 -1.80,-0.05 -1.80,-0.34 -1.69,-0.62 -1.59,-0.90 -1.40,-1.13 -1.22,-1.36 -0.97,-1.52 -0.72,-1.68 -0.43,-1.75 -0.14,-1.82 0.15,-1.80 0.44,-1.77 0.71,-1.66 0.99,-1.54 1.21,-1.34 1.43,-1.14 1.57,-0.88 1.72,-0.62 1.77,-0.33 1.83,-0.04 1.79,0.24 1.75,0.54 1.62,0.80 1.48,1.07 1.27,1.28 1.06,1.49 0.80,1.62 0.53,1.75 0.24,1.79 -0.05,1.83 -0.34,1.77 -0.63,1.72 -0.89,1.57 -1.15,1.42 -1.35,1.20 -1.54,0.98 -1.66,0.71 -1.78,0.43 -1.80,0.14 -1.82,-0.15 -1.75,-0.44 -1.68,-0.72 -1.68,-0.72 -1.68,-0.72 0.85,-4.69 3.38,-8.65 3.62,-8.56 3.85,-8.46 4.06,-8.32 4.27,-8.17 4.44,-7.98 4.60,-7.79 4.72,-7.56 4.83,-7.33 4.89,-7.09 4.95,-6.84 4.95,-6.58 4.95,-6.33 4.88,-6.08 4.82,-5.84 4.70,-5.61 4.58,-5.39 4.41,-5.20 4.23,-5.01 4.02,-4.87 3.81,-4.73 3.57,-4.64 3.34,-4.55 3.08,-4.52 2.83,-4.50 2.58,-4.53 2.33,-4.56 3.33,-4.91 4.33,-5.27 2.97,-4.87 1.62,-4.48 1.21,-6.39 0.81,-8.30 1.16,-9.47 1.51,-10.64 1.57,-10.84 1.64,-11.03 1.75,-11.21 1.86,-11.38 2.01,-11.53 2.16,-11.67 2.34,-11.78 2.52,-11.88 2.71,-11.94 2.91,-12.00 3.12,-12.01 3.33,-12.01 3.53,-11.97 3.73,-11.93 3.92,-11.84 4.11,-11.76 4.27,-11.62 4.43,-11.49 4.56,-11.33 4.68,-11.16 4.76,-10.97 4.84,-10.78 4.88,-10.58 4.91,-10.37 4.90,-10.17 4.88,-9.96 4.93,-9.55 4.98,-9.13 4.59,-7.38 4.20,-5.63 3.38,1.94 2.56,9.52 1.28,22.65 0.00,35.79 -1.68,48.35 -3.37,60.92 -4.69,71.52 -6.02,82.13 -6.49,87.41 -6.97,92.69 -6.96,94.52 -6.94,96.34 -6.99,97.96 -7.04,99.57 -7.21,100.62 -7.37,101.68 -8.02,103.56 -8.66,105.44 -8.75,105.62 -8.83,105.80 -8.95,105.96 -9.08,106.11 -9.23,106.24 -9.39,106.36 -9.57,106.44 -9.76,106.52 -9.95,106.56 -10.15,106.59 -10.35,106.58 -10.55,106.57 -10.74,106.51 -10.93,106.45 -11.10,106.34 -11.27,106.24 -11.41,106.10 -11.55,105.95 -11.65,105.78 -11.76,105.61 -11.81,105.42 -11.87,105.23 -11.88,105.03 -11.90,104.83 -11.86,104.64 -11.82,104.44 -11.89,103.81 -11.95,103.18 -11.03,100.15 -10.11,97.12 -8.57,90.03 -7.03,82.94 -5.40,70.93 -3.77,58.92 -3.24,47.42 -2.72,35.92 -2.11,24.45 -1.51,12.98 -1.32,6.41 -1.12,-0.15 -1.22,-1.46 -1.31,-2.77 -1.23,-2.99 -1.14,-3.21 -1.01,-3.40 -0.88,-3.59 -0.70,-3.75 -0.52,-3.90 -0.31,-4.01 -0.11,-4.12 0.11,-4.18 0.34,-4.23 0.58,-4.23 0.81,-4.23 1.04,-4.17 1.27,-4.12 1.48,-4.01 1.68,-3.90 1.86,-3.74 2.03,-3.58 2.17,-3.39 2.30,-3.20 2.38,-2.98 2.46,-2.76 2.49,-2.52 2.52,-2.29 2.49,-2.06 2.46,-1.82 2.09,-0.69 1.72,0.43 1.64,0.62 1.56,0.82 1.44,1.00 1.32,1.18 1.16,1.32 1.00,1.46 0.81,1.56 0.62,1.66 0.41,1.71 0.20,1.76 -0.00,1.76 -0.21,1.76 -0.42,1.70 -0.63,1.65 -0.82,1.55 -1.01,1.45 -1.17,1.31 -1.33,1.17 -1.45,0.99 -1.57,0.81 -1.64,0.61 -1.72,0.41 -1.74,0.20 -1.77,-0.00 -1.74,-0.21 -1.72,-0.43 -1.72,-0.43 L -1.72,-0.43 Z"></path></g><g transform="translate(39 178) rotate(0 47 40)" stroke="none"><path fill="#586e75" d="M 1.30,-1.30 Q 1.30,-1.30 2.47,-0.17 3.65,0.94 6.34,3.47 9.04,6.00 15.05,11.11 21.07,16.22 40.27,31.05 59.47,45.87 68.52,53.36 77.56,60.85 82.86,65.78 88.16,70.72 90.17,73.16 92.18,75.60 93.67,75.81 95.17,76.03 95.26,76.18 95.36,76.33 95.42,76.51 95.48,76.68 95.50,76.86 95.51,77.05 95.49,77.23 95.46,77.41 95.39,77.58 95.32,77.75 95.21,77.89 95.10,78.04 94.96,78.16 94.82,78.27 94.65,78.35 94.49,78.43 94.31,78.47 94.13,78.51 93.94,78.50 93.76,78.50 93.58,78.45 93.41,78.40 93.25,78.31 93.09,78.22 92.96,78.09 92.82,77.96 92.67,77.31 92.52,76.65 92.61,76.42 92.70,76.19 92.87,76.01 93.03,75.82 93.24,75.70 93.45,75.58 93.69,75.53 93.93,75.48 94.18,75.51 94.42,75.54 94.64,75.64 94.87,75.75 95.04,75.92 95.22,76.09 95.33,76.31 95.44,76.53 95.48,76.77 95.51,77.02 95.47,77.26 95.43,77.50 95.31,77.72 95.19,77.93 95.01,78.10 94.83,78.26 94.60,78.36 94.38,78.46 94.14,78.49 93.89,78.51 93.65,78.45 93.41,78.40 93.20,78.27 92.99,78.14 92.84,77.95 92.68,77.76 92.59,77.53 92.51,77.30 92.50,77.05 92.49,76.81 92.56,76.57 92.63,76.34 92.77,76.14 92.91,75.93 93.11,75.79 93.30,75.64 93.54,75.57 93.77,75.49 94.02,75.50 94.26,75.50 94.49,75.58 94.73,75.66 94.92,75.81 95.11,75.97 95.25,76.17 95.38,76.38 95.45,76.62 95.51,76.85 95.34,76.44 95.17,76.03 95.26,76.18 95.36,76.33 95.42,76.51 95.48,76.68 95.50,76.86 95.51,77.05 95.49,77.23 95.46,77.41 95.39,77.58 95.32,77.75 95.21,77.89 95.10,78.04 94.96,78.16 94.82,78.27 94.65,78.35 94.49,78.43 94.31,78.47 94.13,78.51 93.94,78.50 93.76,78.50 93.59,78.45 93.41,78.40 93.25,78.31 93.09,78.22 92.96,78.09 92.82,77.96 91.42,77.68 90.02,77.39 88.12,75.11 86.21,72.82 80.95,67.98 75.68,63.13 66.63,55.73 57.59,48.32 38.28,33.52 18.97,18.72 12.84,13.66 6.70,8.60 3.82,6.12 0.94,3.65 -0.17,2.47 -1.30,1.30 -1.43,1.12 -1.57,0.95 -1.66,0.74 -1.75,0.54 -1.79,0.32 -1.83,0.11 -1.82,-0.11 -1.80,-0.33 -1.74,-0.54 -1.67,-0.75 -1.56,-0.94 -1.44,-1.13 -1.29,-1.29 -1.13,-1.44 -0.94,-1.56 -0.75,-1.67 -0.54,-1.74 -0.33,-1.80 -0.11,-1.82 0.11,-1.83 0.32,-1.79 0.54,-1.75 0.74,-1.66 0.95,-1.57 1.12,-1.43 1.30,-1.30 1.30,-1.30 L 1.30,-1.30 Z"></path></g><g transform="translate(138 258) rotate(0 -42.5 -33)" stroke="none"><path fill="#586e75" d="M -1.09,1.27 Q -1.09,1.27 -3.07,-0.48 -5.05,-2.25 -8.47,-5.31 -11.90,-8.38 -16.21,-11.98 -20.51,-15.57 -24.36,-18.84 -28.21,-22.11 -37.56,-28.93 -46.91,-35.76 -56.64,-42.40 -66.36,-49.04 -71.95,-53.03 -77.53,-57.02 -79.94,-59.03 -82.35,-61.04 -84.27,-62.99 -86.18,-64.93 -86.32,-65.15 -86.46,-65.37 -86.52,-65.62 -86.59,-65.87 -86.56,-66.13 -86.54,-66.38 -86.44,-66.62 -86.34,-66.86 -86.16,-67.05 -85.99,-67.24 -85.77,-67.37 -85.54,-67.49 -85.29,-67.54 -85.04,-67.59 -84.78,-67.55 -84.52,-67.52 -84.29,-67.40 -84.06,-67.29 -83.88,-67.11 -83.70,-66.92 -83.58,-66.69 -83.47,-66.46 -83.43,-66.20 -83.40,-65.95 -83.45,-65.70 -83.50,-65.44 -83.63,-65.22 -83.75,-64.99 -83.95,-64.82 -84.14,-64.65 -84.38,-64.55 -84.61,-64.45 -84.87,-64.43 -85.13,-64.41 -85.38,-64.47 -85.63,-64.53 -85.85,-64.67 -86.06,-64.81 -86.22,-65.01 -86.39,-65.21 -86.47,-65.46 -86.56,-65.70 -86.57,-65.96 -86.58,-66.21 -86.50,-66.46 -86.42,-66.71 -86.27,-66.92 -86.12,-67.13 -85.91,-67.28 -85.70,-67.43 -85.45,-67.50 -85.21,-67.58 -84.95,-67.57 -84.69,-67.56 -84.45,-67.47 -84.21,-67.38 -84.01,-67.22 -83.81,-67.06 -83.81,-67.06 -83.81,-67.06 -82.22,-65.08 -80.63,-63.10 -78.30,-61.16 -75.96,-59.22 -70.39,-55.26 -64.82,-51.30 -55.05,-44.65 -45.28,-38.00 -35.83,-31.14 -26.38,-24.27 -22.52,-21.04 -18.66,-17.81 -14.28,-14.23 -9.91,-10.64 -6.45,-7.64 -2.99,-4.64 -0.95,-2.96 1.09,-1.27 1.22,-1.12 1.36,-0.97 1.46,-0.79 1.55,-0.62 1.61,-0.42 1.66,-0.22 1.66,-0.02 1.66,0.17 1.62,0.37 1.57,0.56 1.48,0.74 1.39,0.93 1.26,1.08 1.13,1.23 0.96,1.35 0.80,1.47 0.61,1.54 0.42,1.62 0.22,1.65 0.02,1.67 -0.17,1.65 -0.37,1.63 -0.56,1.56 -0.75,1.49 -0.92,1.38 -1.09,1.27 -1.09,1.27 L -1.09,1.27 Z"></path></g><g transform="translate(164 138) rotate(0 58.5 44.5)" stroke="none"><path fill="#586e75" d="M 1.22,-1.22 Q 1.22,-1.22 2.15,-0.43 3.08,0.36 4.53,1.94 5.99,3.51 13.45,9.90 20.90,16.29 34.68,26.78 48.46,37.27 60.94,46.63 73.41,56.00 86.48,66.03 99.54,76.06 104.86,80.96 110.18,85.86 110.76,86.95 111.34,88.03 111.47,88.18 111.59,88.33 111.68,88.51 111.77,88.68 111.82,88.88 111.86,89.07 111.86,89.26 111.85,89.46 111.80,89.65 111.75,89.84 111.66,90.01 111.56,90.19 111.43,90.33 111.30,90.48 111.13,90.59 110.97,90.70 110.78,90.76 110.60,90.83 110.40,90.85 110.21,90.87 110.01,90.84 109.82,90.82 109.63,90.74 109.45,90.67 109.29,90.56 109.13,90.44 105.19,87.45 101.24,84.47 98.65,82.64 96.06,80.81 94.60,79.78 93.13,78.75 91.81,77.00 90.50,75.26 88.09,72.93 85.69,70.61 82.33,67.26 78.97,63.92 70.69,56.78 62.40,49.64 50.82,39.69 39.24,29.73 30.59,22.64 21.94,15.54 15.10,9.93 8.26,4.32 5.59,1.88 2.93,-0.55 2.62,-1.16 2.31,-1.76 2.19,-1.90 2.06,-2.05 1.98,-2.22 1.89,-2.38 1.85,-2.57 1.80,-2.75 1.81,-2.94 1.81,-3.13 1.86,-3.32 1.90,-3.50 1.99,-3.67 2.08,-3.83 2.21,-3.97 2.34,-4.11 2.50,-4.22 2.65,-4.32 2.83,-4.39 3.01,-4.45 3.20,-4.47 3.39,-4.49 3.57,-4.47 3.76,-4.44 3.94,-4.37 4.11,-4.31 4.27,-4.20 4.42,-4.09 3.58,-2.69 2.74,-1.30 2.63,-1.44 2.51,-1.57 2.43,-1.73 2.35,-1.89 2.31,-2.06 2.27,-2.23 2.27,-2.41 2.27,-2.58 2.32,-2.76 2.36,-2.93 2.45,-3.08 2.53,-3.24 2.65,-3.37 2.77,-3.50 2.92,-3.60 3.06,-3.70 3.23,-3.76 3.39,-3.82 3.57,-3.84 3.75,-3.86 3.92,-3.83 4.10,-3.81 4.26,-3.75 4.43,-3.68 4.57,-3.58 4.72,-3.48 2.71,-1.18 0.71,1.11 0.52,1.20 0.32,1.28 0.10,1.30 -0.10,1.32 -0.31,1.27 -0.52,1.22 -0.70,1.10 -0.88,0.99 -1.02,0.82 -1.15,0.65 -1.23,0.45 -1.30,0.25 -1.31,0.03 -1.31,-0.17 -1.25,-0.38 -1.19,-0.58 -1.06,-0.76 -0.94,-0.93 -0.76,-1.06 -0.59,-1.18 -0.38,-1.25 -0.18,-1.31 0.03,-1.31 0.24,-1.30 0.45,-1.23 0.65,-1.15 0.82,-1.02 0.98,-0.88 1.10,-0.70 1.22,-0.52 1.27,-0.31 1.32,-0.10 1.30,0.10 1.29,0.31 1.20,0.51 1.12,0.71 0.97,0.87 0.83,1.03 0.64,1.14 0.46,1.24 0.24,1.28 0.03,1.32 -0.17,1.29 -0.38,1.27 -0.58,1.17 -0.77,1.08 -0.92,0.92 -1.07,0.77 -1.17,0.58 -1.26,0.39 -1.29,0.17 -1.32,-0.03 -1.28,-0.24 -1.24,-0.45 -1.14,-0.64 -1.03,-0.83 -0.87,-0.97 -0.71,-1.11 -0.71,-1.11 -0.71,-1.11 1.01,-1.21 2.74,-1.30 2.63,-1.44 2.51,-1.57 2.43,-1.73 2.35,-1.89 2.31,-2.06 2.27,-2.23 2.27,-2.41 2.27,-2.58 2.32,-2.76 2.36,-2.93 2.45,-3.08 2.53,-3.24 2.65,-3.37 2.77,-3.50 2.92,-3.60 3.06,-3.70 3.23,-3.76 3.39,-3.82 3.57,-3.84 3.75,-3.86 3.92,-3.83 4.10,-3.81 4.26,-3.75 4.43,-3.68 4.57,-3.58 4.72,-3.48 3.51,-2.62 2.31,-1.76 2.19,-1.90 2.06,-2.05 1.98,-2.22 1.89,-2.38 1.85,-2.57 1.80,-2.75 1.81,-2.94 1.81,-3.13 1.86,-3.32 1.90,-3.50 1.99,-3.67 2.08,-3.83 2.21,-3.97 2.34,-4.11 2.50,-4.22 2.65,-4.32 2.83,-4.39 3.01,-4.45 3.20,-4.47 3.39,-4.49 3.57,-4.47 3.76,-4.44 3.94,-4.37 4.11,-4.31 4.27,-4.20 4.42,-4.09 4.62,-3.24 4.81,-2.39 7.39,-0.07 9.96,2.24 16.81,7.84 23.66,13.44 32.34,20.55 41.02,27.65 52.62,37.59 64.22,47.53 72.59,54.71 80.97,61.90 84.34,65.20 87.71,68.50 90.33,70.98 92.94,73.47 93.96,74.93 94.98,76.39 96.30,77.48 97.62,78.58 100.24,80.40 102.85,82.23 107.10,85.13 111.34,88.03 111.47,88.18 111.59,88.33 111.68,88.51 111.77,88.68 111.82,88.88 111.86,89.07 111.86,89.26 111.85,89.46 111.80,89.65 111.75,89.84 111.66,90.01 111.56,90.19 111.43,90.33 111.30,90.48 111.13,90.59 110.97,90.70 110.78,90.76 110.60,90.83 110.40,90.85 110.21,90.87 110.01,90.84 109.82,90.82 109.63,90.74 109.45,90.67 109.29,90.56 109.13,90.44 108.68,89.15 108.23,87.85 103.01,83.10 97.80,78.34 84.71,68.36 71.63,58.37 59.11,49.06 46.60,39.74 32.69,29.26 18.78,18.79 11.15,12.39 3.51,5.99 1.94,4.54 0.36,3.08 -0.43,2.15 -1.22,1.22 -1.35,1.06 -1.48,0.89 -1.57,0.70 -1.66,0.51 -1.69,0.31 -1.73,0.10 -1.72,-0.10 -1.71,-0.31 -1.64,-0.51 -1.58,-0.71 -1.47,-0.89 -1.36,-1.07 -1.22,-1.22 -1.07,-1.36 -0.89,-1.47 -0.71,-1.58 -0.51,-1.64 -0.31,-1.71 -0.10,-1.72 0.10,-1.73 0.31,-1.69 0.51,-1.66 0.70,-1.57 0.90,-1.48 1.06,-1.35 1.23,-1.22 1.23,-1.22 L 1.22,-1.22 Z"></path></g><g transform="translate(292 110) rotate(0 -1 60)" stroke="none"><path fill="#586e75" d="M -1.66,-0.27 Q -1.66,-0.27 -1.40,-2.00 -1.15,-3.73 -1.09,-3.94 -1.03,-4.14 -0.92,-4.32 -0.82,-4.50 -0.67,-4.65 -0.52,-4.81 -0.34,-4.92 -0.16,-5.03 0.03,-5.10 0.23,-5.16 0.44,-5.18 0.65,-5.20 0.86,-5.16 1.06,-5.13 1.26,-5.04 1.45,-4.96 1.62,-4.83 1.79,-4.70 1.92,-4.54 2.05,-4.38 2.14,-4.18 2.23,-3.99 2.28,-3.79 2.32,-3.58 2.31,-3.37 2.30,-3.16 2.35,-0.04 2.40,3.07 2.13,13.72 1.85,24.36 1.44,34.05 1.02,43.74 0.84,51.58 0.66,59.42 -0.28,73.71 -1.23,88.00 -3.08,99.87 -4.93,111.75 -6.30,117.67 -7.67,123.60 -7.88,125.26 -8.09,126.92 -8.15,127.09 -8.21,127.26 -8.31,127.41 -8.42,127.57 -8.55,127.69 -8.69,127.81 -8.85,127.90 -9.01,127.99 -9.19,128.03 -9.36,128.08 -9.55,128.08 -9.73,128.09 -9.91,128.05 -10.09,128.00 -10.25,127.92 -10.41,127.84 -10.55,127.72 -10.69,127.60 -10.80,127.45 -10.91,127.30 -10.97,127.13 -11.04,126.96 -11.07,126.78 -11.09,126.60 -11.07,126.42 -11.05,126.23 -10.22,124.91 -9.38,123.59 -8.91,122.58 -8.44,121.58 -9.09,118.47 -9.74,115.37 -9.88,114.14 -10.01,112.91 -9.64,108.82 -9.28,104.74 -8.51,97.85 -7.74,90.96 -6.53,83.69 -5.31,76.42 -3.34,61.88 -1.37,47.33 0.33,35.10 2.04,22.87 3.36,14.50 4.67,6.14 5.52,0.86 6.38,-4.41 6.34,-5.81 6.30,-7.21 6.35,-7.39 6.40,-7.58 6.50,-7.75 6.60,-7.92 6.73,-8.06 6.87,-8.20 7.03,-8.31 7.19,-8.41 7.38,-8.48 7.56,-8.54 7.76,-8.56 7.95,-8.57 8.15,-8.54 8.34,-8.51 8.52,-8.44 8.70,-8.36 8.86,-8.24 9.01,-8.13 9.14,-7.98 9.26,-7.83 9.34,-7.65 9.43,-7.47 9.47,-7.28 9.51,-7.09 9.50,-6.90 9.49,-6.70 8.75,-5.71 8.00,-4.73 7.31,-3.02 6.62,-1.31 6.39,-0.21 6.17,0.89 6.07,1.07 5.98,1.26 5.89,1.46 5.80,1.66 5.66,1.84 5.52,2.01 5.35,2.15 5.18,2.29 4.97,2.38 4.77,2.48 4.55,2.52 4.33,2.56 4.11,2.55 3.89,2.53 3.67,2.47 3.46,2.40 3.27,2.29 3.08,2.18 2.92,2.02 2.76,1.86 2.65,1.67 2.53,1.48 2.46,1.27 2.39,1.06 2.38,0.84 2.37,0.61 2.40,0.39 2.44,0.17 2.64,-1.24 2.83,-2.66 2.93,-2.89 3.03,-3.13 3.18,-3.33 3.34,-3.53 3.53,-3.69 3.73,-3.85 3.96,-3.96 4.19,-4.07 4.43,-4.12 4.68,-4.17 4.94,-4.16 5.19,-4.15 5.43,-4.08 5.68,-4.01 5.90,-3.89 6.11,-3.76 6.30,-3.59 6.48,-3.41 6.62,-3.20 6.75,-2.98 6.83,-2.74 6.91,-2.50 6.93,-2.25 6.95,-2.00 6.91,-1.75 6.87,-1.50 3.79,0.06 0.70,1.63 0.42,1.70 0.14,1.77 -0.14,1.75 -0.43,1.72 -0.69,1.61 -0.96,1.49 -1.17,1.30 -1.38,1.11 -1.52,0.86 -1.67,0.61 -1.72,0.32 -1.77,0.04 -1.74,-0.23 -1.70,-0.52 -1.57,-0.78 -1.44,-1.04 -1.24,-1.24 -1.03,-1.44 -0.77,-1.57 -0.52,-1.70 -0.23,-1.74 0.05,-1.77 0.33,-1.72 0.61,-1.66 0.86,-1.52 1.11,-1.38 1.30,-1.17 1.50,-0.95 1.61,-0.69 1.72,-0.42 1.75,-0.14 1.77,0.14 1.70,0.42 1.63,0.70 1.47,0.94 1.32,1.19 1.09,1.37 0.87,1.55 0.60,1.64 0.33,1.74 0.04,1.75 -0.24,1.76 -0.51,1.67 -0.79,1.59 -1.02,1.42 -1.26,1.25 -1.42,1.02 -1.59,0.78 -1.67,0.51 -1.76,0.23 -1.75,-0.04 -1.74,-0.33 -1.64,-0.60 -1.54,-0.87 -1.36,-1.10 -1.18,-1.32 -0.94,-1.48 -0.70,-1.63 -0.70,-1.63 -0.70,-1.63 1.06,-2.15 2.83,-2.66 2.93,-2.89 3.03,-3.13 3.18,-3.33 3.34,-3.53 3.53,-3.69 3.73,-3.85 3.96,-3.96 4.19,-4.07 4.43,-4.12 4.68,-4.17 4.93,-4.16 5.19,-4.15 5.43,-4.08 5.68,-4.01 5.89,-3.89 6.11,-3.76 6.30,-3.59 6.48,-3.41 6.62,-3.20 6.75,-2.98 6.83,-2.74 6.91,-2.50 6.93,-2.25 6.95,-2.00 6.91,-1.75 6.87,-1.50 6.43,-0.12 5.98,1.25 5.89,1.46 5.80,1.66 5.66,1.84 5.52,2.01 5.35,2.15 5.18,2.29 4.97,2.38 4.77,2.48 4.55,2.52 4.33,2.56 4.11,2.55 3.89,2.53 3.67,2.47 3.46,2.40 3.27,2.29 3.08,2.18 2.92,2.02 2.76,1.86 2.65,1.67 2.53,1.48 2.46,1.27 2.39,1.06 2.38,0.84 2.37,0.61 2.40,0.39 2.44,0.17 2.64,-0.01 2.84,-0.20 3.30,-1.35 3.76,-2.49 5.03,-4.85 6.30,-7.21 6.35,-7.39 6.40,-7.58 6.50,-7.75 6.60,-7.92 6.73,-8.06 6.87,-8.20 7.03,-8.31 7.19,-8.41 7.38,-8.48 7.56,-8.54 7.76,-8.56 7.95,-8.57 8.15,-8.54 8.34,-8.51 8.52,-8.44 8.70,-8.36 8.86,-8.24 9.01,-8.13 9.14,-7.98 9.26,-7.83 9.34,-7.65 9.43,-7.47 9.47,-7.28 9.51,-7.09 9.50,-6.90 9.49,-6.70 9.32,-5.34 9.14,-3.97 8.32,1.29 7.51,6.57 6.24,14.92 4.97,23.28 3.32,35.51 1.67,47.74 -0.20,62.34 -2.09,76.94 -3.18,84.12 -4.27,91.31 -4.88,98.15 -5.48,104.98 -5.63,108.83 -5.79,112.68 -5.79,113.89 -5.79,115.09 -5.73,116.75 -5.68,118.42 -5.12,119.77 -4.56,121.13 -4.95,122.27 -5.33,123.41 -6.71,125.16 -8.09,126.92 -8.15,127.09 -8.21,127.26 -8.31,127.41 -8.41,127.57 -8.55,127.69 -8.69,127.81 -8.85,127.90 -9.01,127.99 -9.19,128.03 -9.36,128.08 -9.55,128.08 -9.73,128.09 -9.91,128.05 -10.09,128.00 -10.25,127.92 -10.41,127.84 -10.55,127.72 -10.69,127.60 -10.80,127.45 -10.91,127.30 -10.97,127.13 -11.04,126.96 -11.07,126.78 -11.09,126.60 -11.07,126.42 -11.05,126.23 -10.68,124.61 -10.31,123.00 -8.97,117.16 -7.64,111.32 -5.82,99.57 -4.00,87.82 -3.09,73.59 -2.17,59.36 -2.02,51.49 -1.88,43.63 -1.52,33.96 -1.16,24.29 -0.96,13.74 -0.76,3.19 -0.95,-0.27 -1.15,-3.73 -1.09,-3.94 -1.03,-4.14 -0.92,-4.32 -0.82,-4.50 -0.67,-4.65 -0.52,-4.81 -0.34,-4.92 -0.16,-5.03 0.03,-5.10 0.23,-5.16 0.44,-5.18 0.65,-5.20 0.86,-5.16 1.06,-5.13 1.26,-5.04 1.45,-4.96 1.62,-4.83 1.79,-4.70 1.92,-4.54 2.05,-4.38 2.14,-4.18 2.23,-3.99 2.28,-3.79 2.32,-3.58 2.31,-3.37 2.30,-3.16 1.98,-1.44 1.66,0.27 1.60,0.47 1.55,0.66 1.44,0.84 1.34,1.01 1.20,1.16 1.06,1.31 0.88,1.41 0.71,1.52 0.52,1.59 0.33,1.65 0.12,1.67 -0.07,1.68 -0.27,1.65 -0.47,1.61 -0.66,1.53 -0.84,1.45 -1.01,1.33 -1.17,1.21 -1.30,1.05 -1.43,0.89 -1.51,0.71 -1.60,0.52 -1.64,0.32 -1.68,0.12 -1.67,-0.07 -1.66,-0.27 -1.66,-0.27 L -1.66,-0.27 Z"></path></g><g transform="translate(148 257) rotate(0 65.5 -12.5)" stroke="none"><path fill="#586e75" d="M -0.31,-1.57 Q -0.31,-1.57 2.56,-2.10 5.45,-2.64 9.55,-3.43 13.65,-4.22 17.68,-5.12 21.70,-6.02 35.25,-8.42 48.79,-10.81 67.17,-14.41 85.55,-18.01 97.97,-20.39 110.38,-22.78 116.25,-23.80 122.11,-24.81 126.44,-25.56 130.77,-26.31 130.98,-26.31 131.20,-26.32 131.40,-26.25 131.61,-26.18 131.78,-26.05 131.96,-25.92 132.08,-25.75 132.20,-25.57 132.26,-25.36 132.32,-25.15 132.31,-24.94 132.30,-24.72 132.22,-24.52 132.15,-24.32 132.01,-24.15 131.87,-23.99 131.69,-23.87 131.50,-23.76 131.29,-23.71 131.08,-23.66 130.87,-23.68 130.65,-23.70 130.45,-23.79 130.26,-23.88 130.10,-24.03 129.94,-24.18 129.84,-24.37 129.73,-24.56 129.70,-24.77 129.66,-24.98 129.69,-25.20 129.73,-25.41 129.82,-25.60 129.92,-25.79 130.08,-25.94 130.23,-26.09 130.43,-26.19 130.63,-26.28 130.84,-26.30 131.05,-26.33 131.27,-26.28 131.48,-26.24 131.66,-26.13 131.85,-26.02 131.99,-25.86 132.13,-25.69 132.21,-25.49 132.30,-25.29 132.31,-25.08 132.32,-24.86 132.27,-24.65 132.21,-24.45 132.09,-24.27 131.97,-24.09 131.80,-23.95 131.63,-23.82 131.43,-23.75 131.22,-23.68 131.22,-23.68 131.22,-23.68 126.90,-22.92 122.58,-22.17 116.74,-21.14 110.90,-20.12 98.49,-17.72 86.07,-15.31 67.67,-11.69 49.28,-8.07 35.81,-5.65 22.34,-3.24 18.28,-2.29 14.23,-1.35 10.13,-0.50 6.04,0.34 3.18,0.95 0.31,1.57 0.12,1.58 -0.07,1.59 -0.26,1.56 -0.45,1.53 -0.62,1.45 -0.80,1.38 -0.96,1.26 -1.11,1.15 -1.23,1.00 -1.35,0.85 -1.43,0.67 -1.52,0.50 -1.55,0.31 -1.59,0.12 -1.58,-0.07 -1.57,-0.26 -1.52,-0.44 -1.47,-0.63 -1.37,-0.80 -1.27,-0.96 -1.14,-1.10 -1.00,-1.24 -0.84,-1.34 -0.68,-1.44 -0.49,-1.50 -0.31,-1.57 -0.31,-1.57 L -0.31,-1.57 Z"></path></g><g transform="translate(277 237) rotate(0 -64 11.5)" stroke="none"><path fill="#586e75" d="M 0.46,1.62 Q 0.46,1.62 -1.56,2.15 -3.58,2.69 -6.53,3.20 -9.48,3.71 -16.44,5.05 -23.41,6.40 -37.31,8.98 -51.20,11.56 -66.89,14.37 -82.57,17.19 -93.25,19.24 -103.94,21.29 -110.82,22.17 -117.71,23.04 -119.72,23.42 -121.73,23.79 -123.22,24.16 -124.71,24.53 -124.97,24.54 -125.22,24.54 -125.46,24.47 -125.70,24.39 -125.91,24.24 -126.11,24.09 -126.26,23.88 -126.40,23.68 -126.47,23.43 -126.55,23.19 -126.54,22.94 -126.53,22.69 -126.44,22.45 -126.35,22.21 -126.19,22.02 -126.03,21.82 -125.81,21.69 -125.60,21.55 -125.35,21.49 -125.11,21.44 -124.86,21.46 -124.60,21.48 -124.37,21.58 -124.14,21.69 -123.95,21.86 -123.77,22.03 -123.65,22.25 -123.52,22.47 -123.48,22.72 -123.43,22.97 -123.47,23.22 -123.51,23.47 -123.62,23.69 -123.73,23.92 -123.91,24.10 -124.10,24.27 -124.32,24.38 -124.55,24.49 -124.80,24.53 -125.05,24.56 -125.30,24.51 -125.55,24.46 -125.77,24.33 -125.99,24.20 -126.15,24.01 -126.32,23.82 -126.42,23.59 -126.52,23.36 -126.53,23.11 -126.55,22.85 -126.49,22.61 -126.42,22.36 -126.29,22.15 -126.15,21.94 -125.95,21.78 -125.75,21.63 -125.51,21.54 -125.27,21.46 -125.28,21.46 -125.28,21.46 -123.75,21.28 -122.22,21.10 -120.13,20.73 -118.05,20.35 -111.25,19.47 -104.46,18.60 -93.76,16.52 -83.07,14.44 -67.40,11.60 -51.73,8.76 -37.85,6.14 -23.98,3.52 -17.01,2.12 -10.03,0.71 -7.25,0.16 -4.46,-0.39 -2.46,-1.00 -0.46,-1.62 -0.26,-1.65 -0.06,-1.68 0.14,-1.67 0.34,-1.65 0.53,-1.58 0.72,-1.52 0.90,-1.41 1.07,-1.30 1.21,-1.15 1.35,-1.00 1.45,-0.83 1.55,-0.65 1.61,-0.46 1.66,-0.26 1.67,-0.06 1.68,0.14 1.64,0.34 1.59,0.54 1.51,0.72 1.42,0.90 1.29,1.06 1.16,1.22 1.00,1.34 0.83,1.46 0.65,1.54 0.46,1.62 0.46,1.62 L 0.46,1.62 Z"></path></g><g transform="translate(181 193) rotate(0 12.5 9.5)" stroke="none"><path fill="#586e75" d="M 1.55,0.77 Q 1.55,0.77 1.05,1.96 0.55,3.15 -0.26,4.58 -1.09,6.01 -1.79,8.96 -2.50,11.91 -1.67,13.85 -0.83,15.78 0.42,17.10 1.67,18.42 3.67,18.66 5.66,18.90 8.11,18.25 10.55,17.60 12.94,16.00 15.32,14.39 16.83,12.13 18.34,9.88 18.97,7.04 19.60,4.21 19.51,2.79 19.42,1.38 18.91,0.48 18.39,-0.40 18.33,-0.63 18.26,-0.85 18.26,-1.09 18.25,-1.32 18.30,-1.55 18.35,-1.77 18.45,-1.98 18.55,-2.19 18.70,-2.37 18.85,-2.55 19.03,-2.69 19.22,-2.83 19.44,-2.92 19.65,-3.00 19.88,-3.04 20.11,-3.08 20.34,-3.05 20.57,-3.03 20.79,-2.96 21.01,-2.88 21.21,-2.76 21.41,-2.63 21.56,-2.46 21.72,-2.29 21.84,-2.09 21.95,-1.89 20.90,-0.33 19.84,1.22 18.45,2.92 17.06,4.62 16.39,5.48 15.72,6.35 14.90,7.00 14.08,7.65 13.86,7.84 13.65,8.04 13.39,8.17 13.14,8.31 12.86,8.38 12.58,8.45 12.29,8.45 12.00,8.45 11.72,8.39 11.44,8.32 11.19,8.19 10.93,8.05 10.71,7.87 10.50,7.68 10.33,7.44 10.17,7.20 10.06,6.94 9.96,6.67 9.92,6.38 9.88,6.10 9.92,5.81 9.95,5.52 10.05,5.25 10.15,4.98 10.31,4.74 10.47,4.51 11.43,3.76 12.39,3.02 13.51,1.97 14.63,0.91 15.61,-0.27 16.60,-1.47 17.57,-2.51 18.54,-3.55 20.06,-3.96 21.58,-4.38 22.78,-4.09 23.98,-3.80 25.18,-2.95 26.37,-2.10 28.94,-0.69 31.50,0.71 31.82,1.01 32.15,1.31 32.36,1.70 32.57,2.09 32.65,2.52 32.73,2.96 32.66,3.40 32.60,3.83 32.39,4.23 32.19,4.62 31.88,4.93 31.56,5.24 31.16,5.43 30.76,5.62 30.32,5.67 29.88,5.73 29.45,5.64 29.02,5.55 28.63,5.32 28.25,5.10 27.96,4.77 27.67,4.43 27.50,4.03 27.33,3.62 27.30,3.18 27.27,2.73 27.39,2.31 27.50,1.88 27.74,1.51 27.99,1.14 28.33,0.87 28.68,0.60 29.10,0.45 29.52,0.30 29.96,0.30 30.40,0.29 30.82,0.43 31.24,0.56 31.60,0.83 31.96,1.09 32.21,1.45 32.46,1.82 32.58,2.24 32.71,2.66 32.69,3.11 32.67,3.55 32.51,3.96 32.36,4.37 32.07,4.71 31.79,5.06 31.42,5.29 31.04,5.52 30.61,5.62 30.18,5.72 29.74,5.68 29.30,5.64 28.89,5.46 28.49,5.28 28.49,5.28 28.49,5.28 27.27,4.41 26.05,3.54 24.56,2.81 23.08,2.08 21.66,1.75 20.25,1.42 19.11,2.89 17.98,4.36 16.03,6.01 14.08,7.65 13.86,7.84 13.65,8.03 13.39,8.17 13.14,8.31 12.86,8.38 12.58,8.45 12.29,8.45 12.00,8.45 11.72,8.39 11.44,8.32 11.19,8.19 10.93,8.06 10.71,7.87 10.50,7.68 10.33,7.44 10.17,7.20 10.06,6.94 9.96,6.67 9.92,6.38 9.88,6.10 9.92,5.81 9.95,5.52 10.05,5.25 10.15,4.98 10.31,4.74 10.47,4.51 12.08,3.22 13.69,1.92 14.78,0.63 15.87,-0.65 17.13,-0.53 18.39,-0.40 18.33,-0.63 18.26,-0.85 18.26,-1.09 18.25,-1.32 18.30,-1.55 18.35,-1.77 18.45,-1.98 18.55,-2.19 18.70,-2.37 18.85,-2.55 19.03,-2.69 19.22,-2.83 19.44,-2.92 19.65,-3.00 19.88,-3.04 20.11,-3.08 20.34,-3.05 20.57,-3.03 20.79,-2.96 21.01,-2.88 21.21,-2.76 21.40,-2.63 21.56,-2.46 21.72,-2.29 21.84,-2.09 21.95,-1.89 22.24,-0.28 22.52,1.31 22.40,3.07 22.28,4.82 21.48,8.11 20.68,11.39 18.83,14.06 16.97,16.72 14.15,18.59 11.34,20.45 8.30,21.20 5.27,21.94 2.49,21.41 -0.29,20.88 -2.15,19.03 -4.01,17.18 -5.11,14.36 -6.20,11.53 -5.85,9.11 -5.50,6.68 -4.99,5.34 -4.48,3.99 -3.66,2.71 -2.85,1.44 -2.20,0.33 -1.55,-0.77 -1.43,-0.95 -1.32,-1.12 -1.16,-1.26 -1.01,-1.40 -0.83,-1.51 -0.64,-1.61 -0.44,-1.66 -0.24,-1.71 -0.03,-1.72 0.17,-1.72 0.37,-1.68 0.58,-1.63 0.77,-1.54 0.95,-1.44 1.11,-1.31 1.27,-1.17 1.39,-1.00 1.52,-0.83 1.59,-0.64 1.67,-0.44 1.70,-0.24 1.73,-0.03 1.71,0.17 1.69,0.38 1.62,0.57 1.55,0.77 1.55,0.77 L 1.55,0.77 Z"></path></g><g transform="translate(232 134) rotate(0 9.5 11.5)" stroke="none"><path fill="#586e75" d="M 1.58,0.45 Q 1.58,0.45 0.97,2.45 0.36,4.46 -0.48,6.30 -1.33,8.15 -1.90,9.49 -2.46,10.84 -3.01,12.61 -3.55,14.37 -3.14,16.10 -2.72,17.82 -0.19,18.78 2.33,19.74 4.96,19.68 7.60,19.61 10.31,18.53 13.01,17.45 14.61,15.43 16.20,13.41 16.86,11.75 17.52,10.10 17.71,8.87 17.90,7.64 17.13,6.86 16.35,6.08 15.42,8.22 14.49,10.36 13.80,11.53 13.12,12.70 12.92,12.93 12.71,13.16 12.46,13.34 12.21,13.51 11.93,13.63 11.64,13.74 11.34,13.77 11.03,13.81 10.73,13.78 10.42,13.74 10.14,13.64 9.85,13.53 9.59,13.36 9.34,13.18 9.14,12.96 8.93,12.73 8.79,12.46 8.64,12.19 8.57,11.89 8.49,11.59 8.49,11.29 8.49,10.98 8.56,10.68 8.63,10.38 8.77,10.11 8.91,9.84 9.89,8.68 10.86,7.53 11.81,6.56 12.76,5.59 13.90,4.53 15.03,3.47 16.67,3.02 18.31,2.57 20.39,3.19 22.47,3.81 24.03,4.12 25.59,4.43 25.98,4.59 26.38,4.75 26.70,5.03 27.02,5.31 27.24,5.68 27.46,6.05 27.54,6.46 27.63,6.88 27.58,7.30 27.53,7.73 27.34,8.11 27.16,8.50 26.86,8.80 26.57,9.11 26.19,9.31 25.81,9.50 25.39,9.57 24.97,9.63 24.55,9.56 24.13,9.48 23.75,9.28 23.38,9.08 23.09,8.76 22.80,8.45 22.62,8.06 22.45,7.67 22.41,7.25 22.36,6.82 22.46,6.41 22.56,5.99 22.78,5.63 23.00,5.27 23.33,4.99 23.66,4.72 24.06,4.57 24.46,4.41 24.88,4.40 25.31,4.38 25.72,4.50 26.13,4.61 26.48,4.86 26.83,5.10 27.08,5.44 27.34,5.79 27.47,6.19 27.60,6.60 27.60,7.02 27.59,7.45 27.45,7.85 27.31,8.26 27.05,8.59 26.79,8.93 26.43,9.16 26.08,9.40 25.66,9.51 25.25,9.62 24.83,9.59 24.40,9.56 24.40,9.56 24.40,9.56 22.64,9.10 20.87,8.64 19.47,8.03 18.07,7.42 17.26,8.32 16.45,9.23 15.52,10.17 14.59,11.11 13.85,11.91 13.12,12.70 12.92,12.93 12.71,13.16 12.46,13.34 12.21,13.51 11.93,13.63 11.64,13.74 11.34,13.77 11.03,13.81 10.73,13.78 10.42,13.74 10.14,13.64 9.85,13.53 9.59,13.36 9.34,13.18 9.14,12.96 8.93,12.73 8.79,12.46 8.64,12.19 8.57,11.89 8.49,11.59 8.49,11.29 8.49,10.98 8.56,10.68 8.63,10.38 8.77,10.11 8.91,9.84 9.61,8.67 10.30,7.51 11.45,5.53 12.60,3.54 13.53,2.55 14.46,1.56 15.63,1.33 16.79,1.11 18.50,2.51 20.21,3.90 20.62,4.91 21.03,5.92 21.07,7.12 21.11,8.32 20.64,9.78 20.16,11.23 19.26,13.19 18.35,15.15 16.27,17.57 14.19,19.99 10.95,21.24 7.71,22.50 4.47,22.51 1.23,22.53 -1.94,20.97 -5.12,19.41 -5.95,16.57 -6.79,13.73 -6.22,11.51 -5.65,9.29 -4.94,8.03 -4.24,6.76 -3.45,5.17 -2.66,3.58 -2.12,1.56 -1.58,-0.45 -1.51,-0.63 -1.43,-0.82 -1.31,-0.98 -1.19,-1.14 -1.04,-1.26 -0.88,-1.39 -0.70,-1.47 -0.52,-1.56 -0.33,-1.60 -0.13,-1.64 0.06,-1.63 0.25,-1.63 0.45,-1.57 0.64,-1.52 0.81,-1.42 0.98,-1.32 1.13,-1.18 1.27,-1.04 1.38,-0.88 1.49,-0.71 1.55,-0.52 1.61,-0.33 1.63,-0.13 1.65,0.06 1.62,0.25 1.58,0.45 1.58,0.45 L 1.58,0.45 Z"></path></g><g transform="translate(192 67) rotate(0 9 13)" stroke="none"><path fill="#586e75" d="M 1.51,0.50 Q 1.51,0.50 0.96,2.23 0.42,3.97 -1.02,7.87 -2.46,11.76 -3.05,13.62 -3.64,15.47 -3.14,17.85 -2.63,20.22 -0.61,21.40 1.40,22.58 3.77,23.14 6.15,23.71 8.92,22.33 11.68,20.95 13.37,18.52 15.06,16.10 15.79,14.03 16.52,11.96 16.20,10.42 15.89,8.88 14.96,7.47 14.04,6.06 13.51,4.48 12.99,2.90 13.16,2.50 13.34,2.10 13.33,1.83 13.32,1.55 13.38,1.28 13.44,1.00 13.56,0.75 13.69,0.50 13.86,0.29 14.04,0.08 14.27,-0.08 14.49,-0.24 14.75,-0.35 15.01,-0.45 15.28,-0.50 15.56,-0.54 15.83,-0.51 16.11,-0.48 16.37,-0.39 16.64,-0.30 16.87,-0.15 17.10,-0.00 17.29,0.19 17.48,0.40 17.62,0.64 17.76,0.88 17.83,1.15 17.90,1.42 17.70,2.55 17.49,3.67 17.13,4.69 16.77,5.70 16.34,6.70 15.92,7.70 15.03,8.91 14.14,10.12 13.85,10.86 13.56,11.59 13.33,11.82 13.11,12.04 12.83,12.21 12.56,12.37 12.25,12.47 11.95,12.56 11.63,12.58 11.31,12.60 11.00,12.54 10.68,12.49 10.39,12.36 10.10,12.22 9.85,12.03 9.60,11.83 9.40,11.58 9.21,11.33 9.08,11.04 8.95,10.74 8.89,10.43 8.83,10.12 8.85,9.80 8.87,9.48 8.97,9.18 9.06,8.87 9.23,8.60 9.39,8.32 10.17,7.08 10.95,5.84 11.77,4.59 12.60,3.34 14.17,2.13 15.73,0.91 17.22,1.00 18.70,1.08 21.74,2.17 24.77,3.26 25.19,3.45 25.61,3.65 25.94,3.97 26.27,4.29 26.48,4.70 26.70,5.10 26.77,5.56 26.84,6.01 26.76,6.47 26.69,6.92 26.47,7.33 26.25,7.73 25.91,8.05 25.58,8.36 25.16,8.55 24.74,8.74 24.28,8.79 23.82,8.83 23.37,8.73 22.92,8.63 22.53,8.39 22.14,8.15 21.84,7.80 21.55,7.45 21.38,7.02 21.21,6.59 21.19,6.13 21.17,5.67 21.29,5.23 21.42,4.78 21.68,4.40 21.94,4.02 22.31,3.75 22.68,3.47 23.12,3.33 23.55,3.18 24.01,3.19 24.47,3.19 24.91,3.34 25.34,3.49 25.71,3.77 26.07,4.05 26.33,4.43 26.59,4.82 26.71,5.26 26.83,5.71 26.80,6.17 26.77,6.63 26.60,7.05 26.42,7.48 26.12,7.83 25.82,8.18 25.43,8.41 25.03,8.65 24.58,8.74 24.13,8.84 23.67,8.78 23.22,8.73 23.22,8.73 23.22,8.73 20.16,7.48 17.09,6.23 16.37,7.39 15.64,8.56 14.60,10.08 13.56,11.59 13.33,11.82 13.11,12.04 12.83,12.21 12.56,12.37 12.25,12.47 11.95,12.56 11.63,12.58 11.31,12.60 11.00,12.54 10.69,12.49 10.39,12.36 10.10,12.22 9.85,12.03 9.60,11.83 9.40,11.58 9.21,11.33 9.08,11.04 8.95,10.75 8.89,10.43 8.83,10.12 8.85,9.80 8.87,9.48 8.97,9.18 9.06,8.87 9.23,8.60 9.39,8.32 10.39,6.92 11.38,5.52 12.36,3.81 13.34,2.10 13.33,1.83 13.32,1.55 13.38,1.28 13.44,1.00 13.56,0.75 13.69,0.50 13.86,0.29 14.04,0.08 14.27,-0.08 14.49,-0.24 14.75,-0.35 15.01,-0.45 15.28,-0.50 15.56,-0.54 15.83,-0.51 16.11,-0.48 16.37,-0.39 16.64,-0.30 16.87,-0.15 17.10,-0.00 17.29,0.19 17.48,0.40 17.62,0.64 17.76,0.88 17.83,1.15 17.90,1.42 17.57,2.34 17.23,3.27 17.69,4.63 18.15,5.99 18.47,7.25 18.78,8.51 18.92,10.62 19.07,12.74 18.17,15.20 17.27,17.67 15.12,20.51 12.97,23.34 9.43,24.87 5.89,26.40 2.88,25.70 -0.11,25.00 -2.64,23.19 -5.16,21.38 -5.88,18.07 -6.60,14.77 -6.00,12.74 -5.41,10.71 -4.06,6.82 -2.72,2.92 -2.11,1.21 -1.51,-0.50 -1.43,-0.67 -1.35,-0.85 -1.22,-1.00 -1.10,-1.15 -0.95,-1.26 -0.79,-1.38 -0.62,-1.45 -0.44,-1.53 -0.25,-1.56 -0.06,-1.59 0.12,-1.58 0.31,-1.56 0.50,-1.50 0.68,-1.44 0.84,-1.34 1.01,-1.23 1.14,-1.09 1.27,-0.96 1.37,-0.79 1.46,-0.62 1.52,-0.44 1.57,-0.25 1.58,-0.06 1.59,0.12 1.55,0.31 1.51,0.50 1.51,0.50 L 1.51,0.50 Z"></path></g><g transform="translate(108 46) rotate(0 9.5 12)" stroke="none"><path fill="#586e75" d="M 1.57,0.39 Q 1.57,0.39 1.38,1.56 1.19,2.74 0.42,5.24 -0.34,7.75 -0.66,10.38 -0.98,13.02 -0.68,14.99 -0.37,16.97 2.12,18.49 4.61,20.01 6.89,20.14 9.18,20.28 10.80,19.62 12.43,18.96 13.57,16.87 14.72,14.79 14.95,12.88 15.19,10.98 14.53,9.45 13.86,7.91 13.15,6.83 12.44,5.74 12.02,4.26 11.60,2.78 13.93,0.64 16.27,-1.49 14.93,-1.08 13.60,-0.66 13.81,-0.90 14.03,-1.14 14.30,-1.32 14.57,-1.50 14.87,-1.61 15.17,-1.72 15.49,-1.75 15.81,-1.79 16.13,-1.74 16.45,-1.70 16.75,-1.58 17.05,-1.46 17.31,-1.27 17.58,-1.09 17.79,-0.84 18.00,-0.60 18.14,-0.31 18.29,-0.02 18.36,0.28 18.43,0.59 18.43,0.92 18.43,1.24 18.34,1.55 18.26,1.86 18.11,2.15 17.95,2.43 17.06,3.43 16.17,4.44 15.33,5.73 14.49,7.01 13.84,8.20 13.19,9.39 12.94,10.22 12.69,11.05 12.51,11.31 12.33,11.56 12.09,11.77 11.85,11.97 11.57,12.11 11.29,12.25 10.98,12.32 10.68,12.38 10.37,12.38 10.05,12.37 9.75,12.29 9.45,12.21 9.17,12.06 8.90,11.91 8.67,11.69 8.44,11.48 8.27,11.22 8.10,10.96 7.99,10.66 7.89,10.37 7.85,10.06 7.82,9.75 7.87,9.44 7.91,9.13 8.03,8.84 8.15,8.54 9.55,6.94 10.95,5.33 11.76,4.27 12.58,3.22 13.29,2.27 14.00,1.31 15.20,0.87 16.40,0.43 18.41,1.47 20.41,2.50 21.73,2.99 23.05,3.47 23.42,3.71 23.80,3.94 24.08,4.28 24.36,4.62 24.51,5.04 24.67,5.45 24.69,5.89 24.70,6.33 24.58,6.76 24.46,7.18 24.20,7.54 23.95,7.90 23.59,8.17 23.24,8.43 22.82,8.56 22.39,8.70 21.95,8.69 21.51,8.68 21.09,8.53 20.68,8.39 20.33,8.11 19.98,7.84 19.74,7.47 19.50,7.10 19.39,6.68 19.28,6.25 19.31,5.81 19.34,5.37 19.51,4.96 19.68,4.55 19.97,4.22 20.26,3.89 20.64,3.66 21.02,3.44 21.46,3.35 21.89,3.27 22.33,3.32 22.77,3.38 23.16,3.57 23.56,3.76 23.88,4.07 24.19,4.38 24.40,4.77 24.60,5.16 24.66,5.60 24.73,6.04 24.65,6.47 24.57,6.91 24.36,7.29 24.14,7.68 23.82,7.98 23.49,8.28 23.09,8.46 22.68,8.64 22.24,8.68 21.80,8.72 21.37,8.62 20.94,8.52 20.94,8.52 20.94,8.52 18.85,7.42 16.75,6.32 15.76,7.67 14.77,9.01 13.73,10.03 12.69,11.05 12.51,11.31 12.33,11.56 12.09,11.77 11.85,11.97 11.57,12.11 11.29,12.25 10.98,12.32 10.68,12.38 10.37,12.38 10.05,12.37 9.75,12.29 9.45,12.21 9.17,12.06 8.90,11.91 8.67,11.69 8.44,11.48 8.27,11.22 8.10,10.96 7.99,10.66 7.89,10.37 7.85,10.06 7.82,9.75 7.87,9.44 7.91,9.13 8.03,8.84 8.15,8.55 8.47,7.76 8.80,6.98 9.50,5.71 10.20,4.45 11.90,1.89 13.60,-0.66 13.81,-0.90 14.03,-1.14 14.30,-1.32 14.57,-1.50 14.87,-1.61 15.17,-1.72 15.49,-1.75 15.81,-1.79 16.13,-1.74 16.45,-1.70 16.75,-1.58 17.05,-1.46 17.31,-1.27 17.58,-1.09 17.79,-0.84 18.00,-0.60 18.14,-0.31 18.29,-0.02 18.36,0.28 18.43,0.59 18.43,0.92 18.43,1.24 18.34,1.55 18.26,1.86 18.11,2.15 17.95,2.43 17.03,3.16 16.10,3.89 16.64,5.16 17.17,6.43 17.49,7.49 17.81,8.54 17.84,9.95 17.87,11.35 17.48,13.74 17.09,16.12 15.41,18.72 13.72,21.31 11.40,22.20 9.07,23.08 6.12,22.79 3.17,22.49 0.10,20.31 -2.95,18.12 -3.54,15.42 -4.13,12.73 -3.86,9.79 -3.59,6.85 -2.96,4.35 -2.34,1.85 -1.95,0.73 -1.57,-0.39 -1.50,-0.57 -1.43,-0.75 -1.31,-0.91 -1.20,-1.07 -1.06,-1.20 -0.91,-1.33 -0.74,-1.42 -0.56,-1.51 -0.37,-1.56 -0.18,-1.60 0.00,-1.60 0.20,-1.60 0.38,-1.55 0.57,-1.51 0.75,-1.42 0.92,-1.32 1.06,-1.19 1.21,-1.06 1.32,-0.90 1.43,-0.74 1.50,-0.56 1.57,-0.38 1.59,-0.18 1.61,0.00 1.59,0.19 1.57,0.39 1.57,0.39 L 1.57,0.39 Z"></path></g><g transform="translate(61 110) rotate(0 8 11)" stroke="none"><path fill="#586e75" d="M -1.23,-1.23 Q -1.23,-1.23 -0.43,-2.16 0.36,-3.08 0.42,-3.18 0.49,-3.27 0.67,-3.42 0.86,-3.56 1.08,-3.66 1.29,-3.76 1.53,-3.80 1.76,-3.84 2.00,-3.83 2.23,-3.81 2.46,-3.74 2.69,-3.67 2.89,-3.55 3.09,-3.43 3.26,-3.26 3.43,-3.09 3.55,-2.89 3.67,-2.69 3.74,-2.46 3.81,-2.23 3.83,-2.00 3.84,-1.76 3.80,-1.53 3.76,-1.29 3.66,-1.08 3.56,-0.86 3.42,-0.67 3.27,-0.49 1.80,2.40 0.32,5.29 -0.74,8.19 -1.82,11.09 -2.29,13.58 -2.77,16.06 -1.71,18.19 -0.65,20.31 1.55,21.16 3.75,22.00 5.57,21.91 7.39,21.83 9.43,19.66 11.47,17.50 12.64,14.70 13.81,11.90 14.30,10.16 14.79,8.43 14.35,7.44 13.92,6.45 12.64,5.30 11.37,4.14 11.44,2.82 11.52,1.50 12.24,0.22 12.96,-1.05 12.99,-1.71 13.03,-2.38 13.23,-2.59 13.44,-2.81 13.69,-2.98 13.94,-3.14 14.23,-3.24 14.51,-3.34 14.81,-3.36 15.11,-3.39 15.41,-3.34 15.71,-3.30 15.98,-3.18 16.26,-3.07 16.50,-2.89 16.74,-2.71 16.94,-2.48 17.13,-2.25 17.26,-1.98 17.39,-1.71 17.46,-1.42 17.52,-1.12 17.51,-0.82 17.50,-0.52 17.42,-0.23 17.34,0.05 17.19,0.31 17.04,0.57 16.15,1.71 15.25,2.85 14.20,4.54 13.16,6.22 13.12,6.37 13.08,6.52 12.85,6.74 12.62,6.97 12.35,7.13 12.07,7.29 11.76,7.37 11.46,7.46 11.14,7.48 10.82,7.49 10.51,7.43 10.20,7.36 9.91,7.23 9.62,7.09 9.37,6.89 9.13,6.69 8.93,6.43 8.74,6.18 8.62,5.89 8.49,5.59 8.44,5.28 8.39,4.96 8.41,4.65 8.44,4.33 8.54,4.03 8.64,3.72 8.81,3.45 8.98,3.19 10.14,2.35 11.31,1.51 13.43,0.71 15.55,-0.08 17.12,1.10 18.68,2.30 20.42,2.80 22.16,3.29 22.56,3.55 22.96,3.81 23.26,4.18 23.56,4.55 23.72,5.00 23.88,5.44 23.90,5.92 23.91,6.39 23.77,6.85 23.63,7.30 23.35,7.69 23.07,8.08 22.69,8.35 22.30,8.63 21.84,8.77 21.39,8.91 20.91,8.90 20.44,8.88 19.99,8.72 19.55,8.55 19.18,8.26 18.80,7.96 18.55,7.56 18.29,7.15 18.18,6.69 18.06,6.23 18.10,5.76 18.14,5.28 18.33,4.85 18.52,4.41 18.84,4.06 19.15,3.70 19.57,3.47 19.98,3.23 20.45,3.14 20.92,3.06 21.39,3.12 21.86,3.18 22.29,3.40 22.71,3.61 23.05,3.95 23.38,4.28 23.60,4.71 23.81,5.13 23.87,5.61 23.93,6.08 23.84,6.54 23.75,7.01 23.52,7.43 23.28,7.84 22.93,8.16 22.58,8.47 22.14,8.66 21.70,8.85 21.23,8.89 20.75,8.93 20.29,8.81 19.83,8.69 19.83,8.70 19.83,8.70 17.77,6.81 15.71,4.93 14.40,5.73 13.08,6.52 12.85,6.74 12.62,6.97 12.35,7.13 12.07,7.28 11.76,7.37 11.46,7.46 11.14,7.48 10.82,7.49 10.51,7.43 10.20,7.36 9.91,7.23 9.62,7.09 9.37,6.89 9.13,6.69 8.93,6.43 8.74,6.18 8.62,5.89 8.49,5.59 8.44,5.28 8.39,4.96 8.41,4.65 8.44,4.33 8.54,4.03 8.64,3.72 8.81,3.45 8.98,3.19 9.61,2.46 10.24,1.73 10.78,0.78 11.33,-0.17 12.18,-1.27 13.03,-2.38 13.23,-2.59 13.44,-2.81 13.69,-2.98 13.94,-3.14 14.23,-3.24 14.51,-3.34 14.81,-3.36 15.11,-3.39 15.41,-3.34 15.71,-3.30 15.98,-3.18 16.26,-3.07 16.50,-2.89 16.74,-2.71 16.94,-2.48 17.13,-2.25 17.26,-1.98 17.39,-1.71 17.46,-1.42 17.52,-1.12 17.51,-0.82 17.50,-0.52 17.42,-0.23 17.34,0.05 17.19,0.31 17.04,0.57 16.61,0.96 16.17,1.35 16.11,2.52 16.05,3.70 16.56,4.63 17.08,5.56 17.32,7.30 17.56,9.04 16.95,11.02 16.33,12.99 14.90,16.21 13.47,19.43 10.74,21.95 8.00,24.48 5.36,24.60 2.72,24.73 -0.16,23.37 -3.04,22.01 -4.48,18.95 -5.91,15.89 -5.51,12.93 -5.10,9.97 -4.10,6.84 -3.09,3.71 -2.02,1.17 -0.95,-1.36 -0.23,-2.32 0.49,-3.27 0.67,-3.42 0.86,-3.56 1.08,-3.66 1.29,-3.76 1.53,-3.80 1.76,-3.84 2.00,-3.83 2.23,-3.81 2.46,-3.74 2.69,-3.67 2.89,-3.55 3.09,-3.43 3.26,-3.26 3.43,-3.09 3.55,-2.89 3.67,-2.69 3.74,-2.46 3.81,-2.23 3.83,-2.00 3.84,-1.76 3.80,-1.53 3.76,-1.29 3.66,-1.08 3.56,-0.86 3.42,-0.67 3.27,-0.49 3.18,-0.42 3.08,-0.36 2.16,0.43 1.23,1.23 1.07,1.36 0.90,1.49 0.71,1.58 0.52,1.67 0.31,1.71 0.10,1.74 -0.10,1.73 -0.31,1.72 -0.51,1.66 -0.71,1.59 -0.90,1.48 -1.08,1.37 -1.23,1.23 -1.37,1.08 -1.48,0.89 -1.59,0.71 -1.66,0.51 -1.72,0.31 -1.73,0.10 -1.74,-0.10 -1.71,-0.31 -1.67,-0.52 -1.58,-0.71 -1.49,-0.90 -1.36,-1.07 -1.23,-1.23 -1.23,-1.23 L -1.23,-1.23 Z"></path></g><g transform="translate(108 180) rotate(0 9.5 12.5)" stroke="none"><path fill="#586e75" d="M 1.53,0.45 Q 1.53,0.45 0.63,3.32 -0.26,6.18 -1.23,9.67 -2.19,13.17 -2.62,15.88 -3.06,18.58 -2.07,19.94 -1.09,21.29 0.81,21.32 2.73,21.34 4.85,20.61 6.98,19.89 9.20,17.69 11.42,15.50 12.92,12.66 14.42,9.81 15.05,8.03 15.67,6.25 15.85,4.71 16.04,3.16 17.28,2.77 18.53,2.37 18.05,3.64 17.56,4.90 15.55,7.14 13.55,9.39 12.41,10.54 11.26,11.70 11.09,12.27 10.91,12.84 10.70,13.01 10.49,13.18 10.24,13.30 9.99,13.41 9.72,13.47 9.46,13.52 9.18,13.50 8.91,13.49 8.65,13.41 8.39,13.33 8.15,13.20 7.91,13.06 7.72,12.87 7.52,12.67 7.38,12.44 7.24,12.21 7.15,11.95 7.07,11.69 7.05,11.42 7.03,11.14 7.07,10.87 7.12,10.61 7.23,10.35 7.34,10.10 7.50,9.89 7.67,9.67 9.56,7.30 11.44,4.93 12.58,3.49 13.72,2.05 14.49,1.03 15.25,0.01 16.55,-0.68 17.84,-1.37 19.64,-0.32 21.44,0.73 23.57,2.40 25.71,4.07 25.97,4.39 26.23,4.72 26.38,5.11 26.52,5.50 26.54,5.91 26.55,6.33 26.43,6.73 26.31,7.13 26.07,7.47 25.83,7.81 25.49,8.05 25.15,8.30 24.75,8.42 24.36,8.55 23.94,8.54 23.52,8.53 23.13,8.39 22.74,8.24 22.41,7.98 22.09,7.73 21.86,7.38 21.63,7.02 21.53,6.62 21.43,6.22 21.46,5.80 21.49,5.39 21.65,5.00 21.82,4.62 22.09,4.31 22.37,3.99 22.73,3.79 23.09,3.58 23.50,3.50 23.91,3.42 24.33,3.47 24.74,3.53 25.11,3.71 25.49,3.89 25.78,4.19 26.08,4.48 26.27,4.85 26.45,5.23 26.51,5.64 26.57,6.05 26.49,6.46 26.42,6.87 26.21,7.24 26.01,7.60 25.70,7.88 25.39,8.16 25.01,8.33 24.63,8.49 24.21,8.53 23.80,8.56 23.39,8.47 22.99,8.37 22.64,8.14 22.28,7.92 22.28,7.92 22.28,7.92 21.09,6.80 19.91,5.67 19.17,4.21 18.44,2.74 17.65,3.59 16.86,4.43 15.70,6.04 14.53,7.64 13.41,9.04 12.28,10.45 11.60,11.64 10.91,12.84 10.70,13.01 10.49,13.18 10.24,13.30 9.99,13.41 9.72,13.47 9.46,13.52 9.18,13.50 8.91,13.49 8.65,13.41 8.39,13.33 8.15,13.20 7.91,13.06 7.72,12.87 7.52,12.67 7.38,12.44 7.24,12.21 7.15,11.95 7.07,11.69 7.05,11.42 7.03,11.14 7.07,10.88 7.12,10.61 7.23,10.35 7.34,10.10 7.50,9.89 7.67,9.67 7.90,9.24 8.13,8.81 9.29,7.61 10.45,6.42 12.11,4.58 13.77,2.74 14.96,1.37 16.15,0.01 17.59,0.30 19.02,0.58 19.06,2.14 19.09,3.71 18.69,5.46 18.29,7.22 17.53,9.15 16.78,11.07 15.04,14.24 13.30,17.41 10.61,19.91 7.92,22.40 5.24,23.23 2.57,24.06 -0.03,23.69 -2.65,23.31 -4.20,21.02 -5.75,18.73 -5.38,15.57 -5.02,12.41 -4.10,8.86 -3.18,5.31 -2.35,2.42 -1.53,-0.45 -1.45,-0.63 -1.37,-0.81 -1.25,-0.96 -1.14,-1.11 -0.99,-1.23 -0.84,-1.35 -0.66,-1.43 -0.49,-1.52 -0.30,-1.55 -0.11,-1.59 0.07,-1.58 0.27,-1.57 0.45,-1.51 0.64,-1.46 0.80,-1.36 0.97,-1.26 1.10,-1.13 1.24,-0.99 1.34,-0.83 1.45,-0.67 1.50,-0.48 1.56,-0.30 1.58,-0.11 1.59,0.07 1.56,0.26 1.53,0.45 1.53,0.45 L 1.53,0.45 Z"></path></g></svg>